<svg width="28" height="28" viewBox="0 0 28 28" fill="none" xmlns="http://www.w3.org/2000/svg">
<path d="M13.9854 0C8.38545 0 3.83545 4.55 3.83545 10.15C3.83545 15.75 13.9854 28 13.9854 28C13.9854 28 24.1354 15.8084 24.1354 10.15C24.1354 4.49165 19.5854 0 13.9854 0Z" fill="#1F4E79"/>
<rect x="6.61963" y="2.42969" width="14.9589" height="14.9589" rx="7.47945" fill="white"/>
<path d="M14.1689 13.1686V7H15.6567V9.47589H18.082V7H19.5665V13.1686H18.082V10.6897H15.6567V13.1686H14.1689Z" fill="#1F4E79"/>
<path d="M10.311 13.1686H8V7H10.308C10.945 7 11.4935 7.12349 11.9535 7.37048C12.4155 7.61546 12.7717 7.96886 13.022 8.43072C13.2724 8.89054 13.3975 9.44075 13.3975 10.0813C13.3975 10.7239 13.2724 11.2761 13.022 11.7379C12.7737 12.1997 12.4186 12.5542 11.9566 12.8011C11.4946 13.0461 10.9461 13.1686 10.311 13.1686ZM9.51118 11.8975H10.253C10.6031 11.8975 10.8992 11.8393 11.1414 11.7229C11.3857 11.6044 11.5699 11.4126 11.694 11.1475C11.8202 10.8805 11.8833 10.5251 11.8833 10.0813C11.8833 9.63753 11.8202 9.28412 11.694 9.02106C11.5678 8.75601 11.3816 8.56524 11.1353 8.44879C10.8911 8.33031 10.5899 8.27107 10.2317 8.27107H9.51118V11.8975Z" fill="#06B9A3"/>
</svg>
