<svg width="25" height="25" viewBox="0 0 25 25" fill="none" xmlns="http://www.w3.org/2000/svg">
<g clip-path="url(#clip0_643_11123)">
<path d="M14.8617 16.1114L14.3617 16.1114L14.3617 16.6114L14.3617 21.8989C14.3617 22.507 13.8687 23 13.2606 23L11.4309 23C10.8227 23 10.3298 22.507 10.3298 21.8989L10.3298 16.6114L10.3298 16.1114L9.82979 16.1114L9.60106 16.1114C8.99296 16.1114 8.5 15.6184 8.5 15.0103L8.5 10.0053C8.5 8.89194 9.40258 7.98936 10.516 7.98936L14.1755 7.98936C15.2889 7.98936 16.1915 8.89194 16.1915 10.0053L16.1915 15.0103C16.1915 15.6184 15.6985 16.1114 15.0904 16.1114L14.8617 16.1114ZM10.3298 4.51596C10.3298 3.40258 11.2323 2.5 12.3457 2.5C13.4591 2.5 14.3617 3.40258 14.3617 4.51596C14.3617 5.62934 13.4591 6.53191 12.3457 6.53191C11.2323 6.53191 10.3298 5.62934 10.3298 4.51596Z" fill="#06B9A3" stroke="black"/>
</g>
<defs>
<clipPath id="clip0_643_11123">
<rect width="24" height="24" fill="white" transform="translate(0.195557 0.5625) rotate(0.467014)"/>
</clipPath>
</defs>
</svg>
