<svg xmlns="http://www.w3.org/2000/svg" viewBox="0 0 128 128" width="128" height="128">
  <!-- Cake Baker icon -->
  <!-- Baker hat -->
  <ellipse cx="64" cy="18" rx="20" ry="10" fill="white" stroke="#E0E0E0" stroke-width="1"/>
  <rect x="48" y="18" width="32" height="10" fill="white" stroke="#E0E0E0" stroke-width="1"/>
  <!-- Head -->
  <circle cx="64" cy="38" r="14" fill="#FFD6A0"/>
  <ellipse cx="58" cy="36" rx="2" ry="2.5" fill="#333"/>
  <ellipse cx="70" cy="36" rx="2" ry="2.5" fill="#333"/>
  <path d="M60 42 Q64 46 68 42" stroke="#E8877C" stroke-width="1.5" fill="none" stroke-linecap="round"/>
  <!-- Body -->
  <path d="M46 54 L50 50 L78 50 L82 54 L82 80 Q82 86 76 86 L52 86 Q46 86 46 80 Z" fill="#EC407A"/>
  <!-- Cake -->
  <rect x="20" y="88" width="44" height="16" rx="4" fill="#FFCDD2"/>
  <rect x="16" y="86" width="52" height="6" rx="3" fill="#F48FB1"/>
  <rect x="24" y="78" width="36" height="12" rx="4" fill="#FFE0B2"/>
  <rect x="20" y="76" width="44" height="5" rx="2.5" fill="#FFAB91"/>
  <!-- Cherry on top -->
  <circle cx="42" cy="74" r="4" fill="#E53935"/>
  <path d="M42 74 Q42 68 46 66" stroke="#4CAF50" stroke-width="1.5" fill="none"/>
  <!-- Frosting drips -->
  <path d="M20 92 Q22 96 24 92" fill="#F48FB1"/>
  <path d="M32 92 Q34 98 36 92" fill="#F48FB1"/>
  <path d="M44 92 Q46 96 48 92" fill="#F48FB1"/>
  <path d="M56 92 Q58 96 60 92" fill="#F48FB1"/>
  <!-- Sprinkles -->
  <rect x="28" y="82" width="4" height="2" rx="1" fill="#FFEB3B" transform="rotate(30 30 83)"/>
  <rect x="38" y="80" width="4" height="2" rx="1" fill="#42A5F5" transform="rotate(-20 40 81)"/>
  <rect x="48" y="82" width="4" height="2" rx="1" fill="#66BB6A" transform="rotate(15 50 83)"/>
</svg>
