<svg width="111" height="111" viewBox="0 0 111 111" fill="none" xmlns="http://www.w3.org/2000/svg">
<path fill-rule="evenodd" clip-rule="evenodd" d="M51.0794 35.8515C50.555 21.4727 18.4715 21.4727 17.9468 35.8515V43.5994H51.0794V35.8515Z" fill="#34BA82"/>
<path fill-rule="evenodd" clip-rule="evenodd" d="M51.0794 35.8515C50.8409 29.3112 44.0727 25.747 36.7154 25.1564C29.3578 25.747 22.5898 29.3112 22.3511 35.8515V43.5994H51.0794L53.3032 39.1577L51.0794 35.8515Z" fill="#4AC994"/>
<path d="M43.1119 19.165C44.0262 14.4145 40.9163 9.82232 36.1658 8.90802C31.4154 7.99372 26.8231 11.1036 25.9088 15.8541C24.9945 20.6045 28.1044 25.1968 32.8549 26.1111C37.6054 27.0254 42.1976 23.9155 43.1119 19.165Z" fill="#F0CD9C"/>
<path fill-rule="evenodd" clip-rule="evenodd" d="M36.1246 26.1237C40.1924 25.3672 43.2722 21.7999 43.2722 17.5129C43.2722 13.226 40.1922 9.65869 36.1246 8.90222C32.0567 9.65869 28.9767 13.226 28.9767 17.5129C28.9767 21.7999 32.0567 25.3672 36.1246 26.1237Z" fill="#F7D8AC"/>
<path fill-rule="evenodd" clip-rule="evenodd" d="M93.1966 35.8515C92.6721 21.4727 60.5887 21.4727 60.064 35.8515L59.0944 39.2912L60.064 43.5994H93.1966V35.8515Z" fill="#4677D5"/>
<path fill-rule="evenodd" clip-rule="evenodd" d="M93.1965 35.8516C92.958 29.3114 86.19 25.7471 78.8325 25.1565C71.475 25.7471 64.707 29.3114 64.4683 35.8516V43.5995H93.1965V35.8516Z" fill="#5C85DA"/>
<path d="M84.3724 21.6249C86.6557 17.3581 85.0479 12.0483 80.7811 9.76492C76.5144 7.48159 71.2045 9.08946 68.9212 13.3562C66.6379 17.6229 68.2457 22.9328 72.5125 25.2161C76.7792 27.4994 82.0891 25.8916 84.3724 21.6249Z" fill="#F0CD9C"/>
<path fill-rule="evenodd" clip-rule="evenodd" d="M78.2419 26.1237C82.3098 25.3672 85.3895 21.7999 85.3895 17.5129C85.3895 13.226 82.3095 9.65869 78.2419 8.90222C74.1741 9.65869 71.0941 13.226 71.0941 17.5129C71.0941 21.7999 74.1741 25.3672 78.2419 26.1237Z" fill="#F7D8AC"/>
<path fill-rule="evenodd" clip-rule="evenodd" d="M72.138 49.8486C71.6136 35.4697 39.5301 35.4697 39.0054 49.8486V57.5965H72.138V49.8486Z" fill="#FAD51B"/>
<path fill-rule="evenodd" clip-rule="evenodd" d="M72.138 49.8487C71.8995 43.3084 65.1313 39.744 57.774 39.1536C50.4164 39.7442 43.6484 43.3084 43.4097 49.8487V57.5966H72.138V49.8487Z" fill="#FFE54E"/>
<path d="M63.6865 34.868C65.5393 30.3981 63.4177 25.2725 58.9478 23.4198C54.4779 21.567 49.3523 23.6886 47.4995 28.1585C45.6468 32.6284 47.7684 37.7539 52.2383 39.6067C56.7082 41.4595 61.8337 39.3379 63.6865 34.868Z" fill="#F0CD9C"/>
<path fill-rule="evenodd" clip-rule="evenodd" d="M57.1831 40.1207C61.251 39.3643 64.331 35.797 64.331 31.51C64.331 27.223 61.251 23.6558 57.1831 22.8993C53.1155 23.6558 50.0353 27.223 50.0353 31.51C50.0353 35.797 53.1153 39.3643 57.1831 40.1207Z" fill="#F7D8AC"/>
<path d="M21.29 93.0776H52.6697V103.065H21.29V93.0776Z" fill="#83DEFF"/>
<path d="M21.29 93.0776H26.873V103.065H21.29V93.0776Z" fill="#57CFFA"/>
<path fill-rule="evenodd" clip-rule="evenodd" d="M12.5435 54.3963L13.2603 35.802C13.4199 31.659 6.97437 31.0759 6.32103 35.1775L2.93552 56.4354C2.26564 60.6405 3.3839 64.5762 6.39515 67.5875L23.6834 84.8758C25.1317 86.324 25.8106 88.1386 25.6694 90.1818L25.469 93.0776H48.4914L48.3333 79.8712C48.294 76.577 47.159 73.7415 44.8294 71.4117L40.0472 66.6295C38.4941 65.0764 36.8056 64.1014 34.6841 63.5332L32.3702 62.9131L20.7272 51.2701C18.8597 49.4027 15.8038 49.4027 13.9364 51.2701C13.0708 52.1357 12.6065 53.2566 12.5435 54.3963Z" fill="#F0CD9C"/>
<path fill-rule="evenodd" clip-rule="evenodd" d="M12.5436 54.3961L13.2603 35.802C13.3473 33.5455 11.4747 32.3454 9.64575 32.3828C9.2528 32.8172 8.96813 33.3846 8.85577 34.0912L5.47004 55.3492C4.80038 59.5543 5.91842 63.4902 8.92989 66.5015L26.2182 83.7898C27.6662 85.2378 28.2267 87.0481 28.2042 89.0955L28.1599 93.0779H48.4914L48.3333 79.8714C48.294 76.5772 47.159 73.7417 44.8294 71.412L40.0472 66.6298C38.4941 65.0767 36.8056 64.1017 34.6843 63.5332L32.3704 62.9134L20.7274 51.2704C18.86 49.4029 15.804 49.4029 13.9366 51.2704C13.071 52.136 12.6069 53.2568 12.5438 54.3963L12.5436 54.3961Z" fill="#F7D8AC"/>
<path fill-rule="evenodd" clip-rule="evenodd" d="M13.9364 58.0611L23.8628 67.9876C24.396 68.5208 25.2608 68.5208 25.794 67.9876C26.3273 67.4543 26.3273 66.5896 25.794 66.0563L12.8063 53.0686C12.2159 54.7577 12.5925 56.7173 13.9366 58.0614L13.9364 58.0611Z" fill="#F0CD9C"/>
<path d="M58.5349 93.0774H89.9146V103.065H58.5349V93.0774Z" fill="#83DEFF"/>
<path d="M84.3316 93.0774H89.9145V103.065H84.3316V93.0774Z" fill="#57CFFA"/>
<path fill-rule="evenodd" clip-rule="evenodd" d="M98.6613 54.3961L97.9445 35.8018C97.7849 31.6587 104.23 31.0756 104.884 35.1772L108.269 56.4351C108.939 60.6403 107.821 64.576 104.81 67.5873L87.5214 84.8755C86.0731 86.3238 85.3942 88.1383 85.5354 90.1815L85.7358 93.0774H62.7134L62.8715 79.8709C62.9108 76.5767 64.0458 73.7412 66.3754 71.4115L71.1576 66.6293C72.7107 65.0762 74.3992 64.1012 76.5207 63.5329L78.8346 62.9129L90.4776 51.2699C92.3451 49.4022 95.401 49.4024 97.2684 51.2699C98.134 52.1355 98.5981 53.2563 98.6613 54.3961Z" fill="#F0CD9C"/>
<path fill-rule="evenodd" clip-rule="evenodd" d="M98.661 54.396L97.9445 35.8019C97.8575 33.5454 99.7301 32.3453 101.559 32.3827C101.952 32.8171 102.237 33.3845 102.349 34.0911L105.735 55.349C106.404 59.5542 105.286 63.4899 102.275 66.5014L84.9867 83.7896C83.5386 85.2377 82.9781 87.048 83.0006 89.0954L83.0449 93.0778H62.7134L62.8715 79.8713C62.9108 76.5771 64.0458 73.7416 66.3754 71.4118L71.1576 66.6296C72.7107 65.0765 74.3992 64.1016 76.5205 63.5331L78.8344 62.9133L90.4774 51.2702C92.3448 49.4026 95.4008 49.4028 97.2682 51.2702C98.1338 52.1358 98.5979 53.2567 98.661 54.3962V54.396Z" fill="#F7D8AC"/>
<path fill-rule="evenodd" clip-rule="evenodd" d="M97.2682 58.0611L87.3418 67.9876C86.8085 68.5208 85.9438 68.5208 85.4106 67.9876C84.8773 67.4543 84.8773 66.5896 85.4106 66.0563L98.3983 53.0686C98.9887 54.7577 98.6121 56.7173 97.268 58.0614L97.2682 58.0611Z" fill="#F0CD9C"/>
<path fill-rule="evenodd" clip-rule="evenodd" d="M55.6023 53.2219C56.8645 50.6975 58.1267 49.4353 60.6511 49.4353C63.4381 49.4353 65.6999 51.6972 65.6999 54.4841C65.6999 59.533 60.6511 64.5818 55.6023 69.6306C50.5535 64.5818 45.5046 59.533 45.5046 54.4841C45.5046 51.6972 47.7665 49.4353 50.5535 49.4353C53.0779 49.4353 54.3401 50.6975 55.6023 53.2219Z" fill="#FB695B"/>
<path fill-rule="evenodd" clip-rule="evenodd" d="M55.6023 53.2219C56.8645 50.6975 58.1267 49.4353 60.6511 49.4353C63.4381 49.4353 65.6999 51.6972 65.6999 54.4841C65.6999 59.533 60.6511 64.5818 55.6023 69.6306C51.3241 64.2428 47.6932 59.533 47.6932 54.4841C47.6932 52.0493 49.4195 50.0156 51.714 49.5404C53.4975 49.8906 54.55 51.1175 55.6021 53.2221L55.6023 53.2219Z" fill="#FD7A6E"/>
<path fill-rule="evenodd" clip-rule="evenodd" d="M50.96 101.478H22.4245V94.1514H50.96V101.478ZM7.27755 66.6781C4.6528 64.0525 3.59083 60.6128 4.20807 56.7321L7.56522 35.6562C7.78672 34.2704 8.98405 33.891 9.94182 33.9827C10.8695 34.0755 11.9379 34.6642 11.884 36.0216L11.175 54.4597C11.1722 54.4644 11.175 54.4664 11.175 54.4711C11.0889 56.1806 11.7267 57.8502 12.9318 59.055L22.7747 68.8968C23.0256 69.1486 23.3569 69.2753 23.6852 69.2753C24.0165 69.2753 24.3447 69.1484 24.5957 68.8968C25.101 68.3943 25.101 67.5783 24.5957 67.073L14.7539 57.2312C14.0602 56.5372 13.6947 55.5709 13.7486 54.58C13.7959 53.7254 14.1528 52.9216 14.7539 52.3227C15.407 51.6687 16.2797 51.311 17.21 51.311C18.1403 51.311 19.0121 51.6687 19.6652 52.3227L31.209 63.8654C31.3699 64.0271 31.5678 64.1408 31.7873 64.1986L34.0817 64.8156C35.9747 65.3201 37.4352 66.1644 38.8209 67.5501L43.5629 72.2922C45.6121 74.3414 46.624 76.791 46.661 79.7838L46.8 91.5744H26.659L26.7622 90.0808C26.9297 87.6834 26.1168 85.5197 24.4206 83.8207L7.27733 66.6783L7.27755 66.6781ZM52.2493 91.5742H49.3813L49.2393 79.7533C49.194 76.1054 47.8981 72.981 45.387 70.4699L40.6449 65.7278C38.944 64.0269 37.0699 62.946 34.75 62.3232L32.7887 61.7988L21.4873 50.4973C20.3486 49.3597 18.8295 48.7322 17.21 48.7322C16.0307 48.7322 14.9024 49.0654 13.9379 49.6863L14.4593 36.1228C14.5691 33.3193 12.3949 31.6345 10.1953 31.4177C7.96053 31.1962 5.46641 32.4427 5.01975 35.2501L1.66153 56.3289C0.920319 60.9903 2.26546 65.3132 5.45331 68.4991L22.5957 85.6415C23.7694 86.8152 24.3061 88.2482 24.1905 89.9027L24.074 91.5742H21.1352C20.7934 91.5742 20.4651 91.7095 20.2236 91.9519C19.9813 92.1942 19.8459 92.5216 19.8459 92.8635V102.767C19.8459 103.478 20.4215 104.056 21.1352 104.056H52.2489C52.9615 104.056 53.5379 103.478 53.5379 102.767V92.8635C53.5379 92.1517 52.9615 91.5742 52.2489 91.5742H52.2493ZM86.7828 83.8205C85.0839 85.5195 84.2737 87.6831 84.4393 90.0806L84.5424 91.5742H64.4006L64.5407 79.7836C64.5766 76.7908 65.5904 74.3411 67.6385 72.292L72.3795 67.5499C73.7652 66.1642 75.2266 65.3198 77.1187 64.8154L79.4139 64.1984C79.6326 64.1406 79.8322 64.0271 79.9914 63.8651L91.5369 52.3224C92.1881 51.6685 93.0608 51.3107 93.9902 51.3107C94.9196 51.3107 95.7951 51.6685 96.4463 52.3224C97.0483 52.9216 97.4043 53.7224 97.4515 54.5781V54.58C97.5074 55.5711 97.1402 56.5375 96.4463 57.2312L86.6045 67.073C86.102 67.5785 86.102 68.3943 86.6045 68.8968C86.8555 69.1486 87.1867 69.2753 87.515 69.2753C87.8463 69.2753 88.1746 69.1484 88.4264 68.8968L98.2701 59.055C99.4749 57.8502 100.114 56.1785 100.028 54.4644V54.4597L99.316 36.0216C99.2648 34.6642 100.33 34.0755 101.258 33.9827C102.217 33.891 103.415 34.2704 103.637 35.6562L106.993 56.7321C107.611 60.6128 106.55 64.0525 103.924 66.6781L86.782 83.8205H86.7828ZM88.7789 94.1517L88.7762 101.479H60.2406V94.1517H88.7789ZM105.747 68.4993C108.936 65.3134 110.283 60.9905 109.539 56.3291L106.182 35.2503C105.734 32.443 103.24 31.1964 101.008 31.4179C98.8053 31.6347 96.633 33.3195 96.7411 36.123L97.2627 49.6865C96.2981 49.0656 95.1727 48.7324 93.9906 48.7324C92.3711 48.7324 90.852 49.36 89.7133 50.4976L78.413 61.799L76.4536 62.3234C74.1309 62.9462 72.2577 64.0271 70.5559 65.728L65.8139 70.4701C63.3028 72.9812 62.0071 76.1056 61.9645 79.7535L61.8225 91.5744H58.9526C58.2408 91.5744 57.6636 92.1519 57.6636 92.8637V102.767C57.6636 103.109 57.7989 103.436 58.0413 103.678C58.2827 103.919 58.611 104.056 58.9528 104.056H90.0667C90.7794 104.056 91.3549 103.479 91.3549 102.767L91.3577 92.8639C91.3577 92.5221 91.2196 92.1947 90.9792 91.9523C90.7368 91.71 90.4103 91.5746 90.0687 91.5746H87.1279L87.0114 89.9031C86.8978 88.2486 87.4325 86.8156 88.6054 85.6419L105.748 68.4995L105.747 68.4993ZM60.6666 48.1152C64.1688 48.1152 67.0196 50.9661 67.0196 54.4709C67.0196 55.0851 66.9506 55.6976 66.8284 56.3071H70.8483V49.8728C70.6335 44.3926 65.0065 41.5472 59.6736 40.6792C58.4196 41.2423 57.0311 41.5586 55.5725 41.5586C54.1139 41.5586 52.7234 41.2425 51.4713 40.6792C46.1368 41.5472 40.5098 44.3923 40.2949 49.8728V56.3071H44.3753C44.2522 55.6976 44.186 55.0851 44.186 54.4709C44.186 50.9659 47.035 48.1152 50.5389 48.1152C52.9535 48.1152 54.4452 49.089 55.6028 50.6782C56.7604 49.089 58.252 48.1152 60.6666 48.1152ZM55.6028 67.8376C60.093 63.3302 64.4412 58.7113 64.4412 54.4709C64.4412 52.3886 62.7481 50.6933 60.6666 50.6933C58.8512 50.6933 57.9379 51.4156 56.7565 53.7808C56.5378 54.2171 56.0903 54.4917 55.6028 54.4917C55.1153 54.4917 54.6686 54.2171 54.4491 53.7808C53.2668 51.4154 52.3543 50.6933 50.5389 50.6933C48.4566 50.6933 46.7643 52.3886 46.7643 54.4709C46.7643 58.7132 51.1125 63.3302 55.6028 67.8376ZM19.2357 42.3101H41.3737C43.1824 40.6992 45.6085 39.4507 48.5303 38.6708C46.676 36.8468 45.5242 34.3121 45.5242 31.5105C45.5242 30.7496 45.6123 30.0083 45.7732 29.2957C43.8811 28.0339 41.4298 27.1387 38.6129 26.6823C37.3606 27.2454 35.9721 27.5617 34.5135 27.5617C33.0549 27.5617 31.6645 27.2457 30.4124 26.6823C25.0778 27.5503 19.4508 30.3955 19.236 35.8757L19.2357 42.3101ZM27.0436 17.5124C27.0436 13.394 30.3952 10.0425 34.5135 10.0425C38.6318 10.0425 41.9834 13.394 41.9834 17.5124C41.9834 21.6307 38.6318 24.9831 34.5135 24.9831C30.3952 24.9831 27.0436 21.6316 27.0436 17.5124ZM55.5725 24.0396C59.6917 24.0396 63.0424 27.3911 63.0424 31.5103C63.0424 35.6295 59.6917 38.9802 55.5725 38.9802C51.4533 38.9802 48.1026 35.6287 48.1026 31.5103C48.1026 27.392 51.4514 24.0396 55.5725 24.0396ZM65.3717 29.2955C65.5326 30.0081 65.6205 30.7493 65.6205 31.5103C65.6205 34.3121 64.4668 36.8468 62.6125 38.6706C65.5344 39.4505 67.9602 40.699 69.7719 42.3099H91.9071V35.8755C91.6922 30.3953 86.0653 27.5499 80.7307 26.6821C79.4784 27.2452 78.0898 27.5615 76.6313 27.5615C75.1727 27.5615 73.7822 27.2454 72.5301 26.6821C69.7133 27.1385 67.2647 28.0318 65.3715 29.2955H65.3717ZM69.1596 17.5124C69.1596 13.394 72.5112 10.0425 76.6315 10.0425C80.7517 10.0425 84.0994 13.394 84.0994 17.5124C84.0994 21.6307 80.7498 24.9831 76.6315 24.9831C72.5131 24.9831 69.1596 21.6316 69.1596 17.5124ZM72.1374 58.8855C72.85 58.8855 73.4264 58.3099 73.4264 57.5964V49.8019C73.362 48.014 72.8481 46.3622 71.9479 44.8886H93.1961C93.9088 44.8886 94.4852 44.3131 94.4852 43.5996V35.805C94.2912 30.5263 90.2268 26.4232 83.6723 24.674C85.5256 22.8502 86.6776 20.3152 86.6776 17.5126C86.6776 11.9726 82.1704 7.46436 76.6313 7.46436C71.0922 7.46436 66.5811 11.9726 66.5811 17.5126C66.5811 20.3152 67.7367 22.8519 69.593 24.6759C67.6744 25.1918 65.9432 25.913 64.4543 26.8207C62.7676 23.6365 59.4208 21.4614 55.5723 21.4614C51.7238 21.4614 48.3769 23.6365 46.6883 26.8207C45.2024 25.913 43.4682 25.1918 41.5496 24.6759C43.4076 22.8519 44.5615 20.3152 44.5615 17.5126C44.5615 11.9726 40.0543 7.46436 34.5133 7.46436C28.9723 7.46436 24.465 11.9726 24.465 17.5126C24.465 20.3152 25.617 22.85 27.4731 24.674C20.9156 26.4232 16.8514 30.5263 16.6574 35.805V43.5996C16.6574 44.3133 17.2358 44.8886 17.9465 44.8886H39.1947C38.2945 46.3625 37.7834 48.014 37.7173 49.8019V57.5964C37.7173 58.3101 38.2926 58.8855 39.0055 58.8855H45.2194C47.0198 62.8988 50.8994 66.7831 54.6921 70.573C54.9325 70.8153 55.261 70.9507 55.6026 70.9507C55.9442 70.9507 56.2727 70.8134 56.5141 70.573C60.3031 66.7831 64.1856 62.8986 65.986 58.8855H72.1374Z" fill="#242222"/>
</svg>
