<svg width="111" height="111" viewBox="0 0 111 111" fill="none" xmlns="http://www.w3.org/2000/svg">
<g clip-path="url(#clip0_475_26051)">
<path d="M100.948 72.2599C98.3818 72.2599 96.1081 70.9395 94.8065 68.9236C94.0554 67.7679 93.615 66.3929 93.615 64.9266C93.615 60.875 96.8967 57.5933 100.948 57.5933C105 57.5933 108.282 60.875 108.282 64.9266C108.282 68.9782 105 72.2599 100.948 72.2599Z" fill="#AAD3E2"/>
<path d="M100.912 38.3611C97.4285 41.2033 92.9731 42.9266 88.115 42.9266C85.6953 42.9266 83.3848 42.5049 81.2579 41.7351V41.7163C79.0763 40.9464 77.0783 39.7916 75.3184 38.3611C75.7767 32.7152 80.5247 28.2599 86.2817 28.2599H89.9483C95.7052 28.2599 100.453 32.7152 100.912 38.3611Z" fill="#ED8C4A"/>
<path d="M95.4483 20.9266C95.4483 24.9764 92.1648 28.2599 88.1149 28.2599C84.0651 28.2599 80.7816 24.9764 80.7816 20.9266C80.7816 16.8768 84.0651 13.5933 88.1149 13.5933C92.1648 13.5933 95.4483 16.8768 95.4483 20.9266Z" fill="#ED8C4A"/>
<path d="M88.115 2.59326C99.2618 2.59326 108.282 11.6131 108.282 22.7599C108.282 29.0486 105.422 34.6587 100.912 38.3612C100.453 32.7153 95.7053 28.2599 89.9484 28.2599H88.115C92.1666 28.2599 95.4484 24.9782 95.4484 20.9266C95.4484 16.875 92.1666 13.5933 88.115 13.5933C84.0634 13.5933 80.7817 16.875 80.7817 20.9266C80.7817 24.9782 84.0634 28.2599 88.115 28.2599H86.2817C80.5248 28.2599 75.7767 32.7153 75.3184 38.3612C72.8253 36.3085 70.8264 33.6686 69.5436 30.6429C68.5168 28.2232 67.9484 25.5645 67.9484 22.7599C67.9484 20.3035 68.3888 17.9564 69.1954 15.7936C72.0188 8.07536 79.4246 2.59326 88.115 2.59326Z" fill="#F3F3FB"/>
<path d="M64.2817 108.927C59.4047 108.927 54.9315 107.203 51.4484 104.325C51.9246 98.6964 56.6735 94.2599 62.4117 94.2599H66.0783C71.8352 94.2599 76.5833 98.7152 77.0416 104.361L77.0604 104.38C73.5764 107.221 69.1399 108.927 64.2817 108.927Z" fill="#FFCA55"/>
<path d="M62.4116 94.2599C56.6735 94.2599 51.9246 98.6965 51.4483 104.325C48.112 101.575 45.6914 97.7798 44.6646 93.4346C44.2985 91.9316 44.115 90.373 44.115 88.7599C44.115 82.8383 46.6636 77.5218 50.7152 73.8363C54.2896 70.5734 59.0565 68.5933 64.2817 68.5933C66.7013 68.5933 69.0118 69.0149 71.1388 69.7847V69.8035C75.2996 71.2887 78.8203 74.13 81.1854 77.7778C83.2568 80.9316 84.4483 84.7083 84.4483 88.7599C84.4483 95.0486 81.5703 100.677 77.0604 104.38L77.0416 104.361C76.5833 98.7153 71.8352 94.2599 66.0783 94.2599H64.245C68.2966 94.2599 71.5783 90.9782 71.5783 86.9266C71.5783 82.875 68.2966 79.5933 64.245 79.5933C60.1934 79.5933 56.9116 82.875 56.9116 86.9266C56.9116 90.9782 60.1934 94.2599 64.245 94.2599H62.4116Z" fill="#F3F3FB"/>
<path d="M71.5783 86.9266C71.5783 90.9764 68.2948 94.2599 64.245 94.2599C60.1951 94.2599 56.9116 90.9764 56.9116 86.9266C56.9116 82.8768 60.1951 79.5933 64.245 79.5933C68.2948 79.5933 71.5783 82.8768 71.5783 86.9266Z" fill="#FFCA55"/>
<path d="M53.2817 2.59326C57.3333 2.59326 60.615 5.875 60.615 9.9266C60.615 10.8254 60.4503 11.6686 60.1567 12.4564C59.1299 15.2619 56.4354 17.2599 53.2817 17.2599C49.2301 17.2599 45.9484 13.9782 45.9484 9.9266C45.9484 5.875 49.2301 2.59326 53.2817 2.59326Z" fill="#AAD3E2"/>
<path d="M27.6149 68.5932C24.0584 68.5932 20.722 67.6765 17.8252 66.0634C16.743 65.4762 15.735 64.7797 14.7816 63.9919C15.2579 58.363 20.0068 53.9265 25.7449 53.9265H29.4116C35.1685 53.9265 39.9165 58.3818 40.3749 64.0278L40.3937 64.0465C36.9096 66.8879 32.4731 68.5932 27.6149 68.5932Z" fill="#64C1E2"/>
<path d="M34.9117 46.5932C34.9117 50.643 31.6281 53.9266 27.5783 53.9266C23.5285 53.9266 20.245 50.643 20.245 46.5932C20.245 42.5434 23.5285 39.2599 27.5783 39.2599C31.6281 39.2599 34.9117 42.5434 34.9117 46.5932Z" fill="#64C1E2"/>
<path d="M25.7817 105.26C21.7301 105.26 18.4484 101.978 18.4484 97.9266C18.4484 93.875 21.7301 90.5933 25.7817 90.5933C29.2469 90.5933 32.1438 92.995 32.9136 96.2213C33.0416 96.7718 33.115 97.3403 33.115 97.9266C33.115 101.978 29.8333 105.26 25.7817 105.26Z" fill="#AAD3E2"/>
<path d="M25.745 53.9266C20.0069 53.9266 15.2579 58.3631 14.7817 63.992C10.3085 60.2886 7.44836 54.6964 7.44836 48.4266C7.44836 40.378 12.1418 33.4484 18.9434 30.2033C21.5654 28.9563 24.5168 28.2599 27.615 28.2599C35.9563 28.2599 43.1071 33.3195 46.1865 40.5436C47.2133 42.9633 47.7817 45.6219 47.7817 48.4266C47.7817 54.3482 45.2331 59.6647 41.1815 63.3501C40.9246 63.5883 40.6686 63.8085 40.3938 64.0466L40.375 64.0278C39.9166 58.3819 35.1686 53.9266 29.4117 53.9266H27.5783C31.6299 53.9266 34.9117 50.6448 34.9117 46.5932C34.9117 42.5416 31.6299 39.2599 27.5783 39.2599C23.5267 39.2599 20.245 42.5416 20.245 46.5932C20.245 50.6448 23.5267 53.9266 27.5783 53.9266H25.745Z" fill="#F3F3FB"/>
<path d="M9.2817 74.0933C10.5654 74.0933 11.7936 74.4236 12.8383 75.0278C15.0932 76.2748 16.615 78.6766 16.615 81.4266C16.615 85.4782 13.3333 88.7599 9.2817 88.7599C5.2301 88.7599 1.94836 85.4782 1.94836 81.4266C1.94836 77.375 5.2301 74.0933 9.2817 74.0933Z" fill="#AAD3E2"/>
<path d="M9.2817 2.59326C13.3333 2.59326 16.615 5.875 16.615 9.9266C16.615 12.8413 14.9097 15.372 12.4354 16.5268C11.4821 17.003 10.3998 17.2599 9.2817 17.2599C5.2301 17.2599 1.94836 13.9782 1.94836 9.9266C1.94836 5.875 5.2301 2.59326 9.2817 2.59326Z" fill="#AAD3E2"/>
<path d="M88.115 44.7599C100.247 44.7599 110.115 34.8914 110.115 22.7599C110.115 10.6284 100.247 0.759888 88.115 0.759888C79.3055 0.759888 71.7099 5.97612 68.1999 13.4724L62.3087 11.298C62.3785 10.8468 62.4483 10.3956 62.4483 9.92655C62.4483 4.87236 58.3359 0.759888 53.2817 0.759888C48.2275 0.759888 44.115 4.87236 44.115 9.92655C44.115 14.9808 48.2275 19.0932 53.2817 19.0932C56.5652 19.0932 59.4289 17.3422 61.0474 14.7408L66.9287 16.9117C66.4122 18.7781 66.115 20.7323 66.115 22.7599C66.115 25.1617 66.5142 27.4677 67.2295 29.6331L47.0664 38.1785C43.3747 31.1988 36.0467 26.4266 27.615 26.4266C24.8829 26.4266 22.2761 26.9511 19.86 27.8642L14.7888 17.2071C16.9981 15.5313 18.4483 12.9057 18.4483 9.92655C18.4483 4.87236 14.3359 0.759888 9.28166 0.759888C4.22746 0.759888 0.11499 4.87236 0.11499 9.92655C0.11499 14.9808 4.22746 19.0932 9.28166 19.0932C10.0444 19.0932 10.7757 18.9724 11.4856 18.7942L16.5505 29.4406C10.022 33.2613 5.61499 40.3305 5.61499 48.4266C5.61499 56.0311 9.49471 62.7432 15.3761 66.6954L12.0227 72.7236C11.1499 72.4488 10.2422 72.2599 9.28166 72.2599C4.22746 72.2599 0.11499 76.3724 0.11499 81.4266C0.11499 86.4808 4.22746 90.5932 9.28166 90.5932C14.3359 90.5932 18.4483 86.4808 18.4483 81.4266C18.4483 78.6506 17.1816 76.1888 15.2275 74.5077L18.588 68.467C21.3451 69.7149 24.3959 70.4266 27.615 70.4266C32.6459 70.4266 37.2731 68.7105 40.9836 65.8575L48.1997 73.796C44.5402 77.7268 42.2817 82.9779 42.2817 88.7599C42.2817 89.8816 42.3936 90.9746 42.5547 92.0506L34.0648 94.0656C32.6038 90.9414 29.4519 88.7599 25.7817 88.7599C20.7275 88.7599 16.615 92.8724 16.615 97.9266C16.615 102.981 20.7275 107.093 25.7817 107.093C30.8359 107.093 34.9483 102.981 34.9483 97.9266C34.9483 97.8254 34.9206 97.7305 34.9188 97.6294L43.3926 95.6206C46.2822 104.4 54.5466 110.76 64.2817 110.76C76.4132 110.76 86.2817 100.891 86.2817 88.7599C86.2817 84.9983 85.3301 81.4561 83.6579 78.3579L94.4269 71.3558C96.092 73.0423 98.398 74.0932 100.948 74.0932C106.003 74.0932 110.115 69.9808 110.115 64.9266C110.115 59.8724 106.003 55.7599 100.948 55.7599C95.8941 55.7599 91.7817 59.8724 91.7817 64.9266C91.7817 66.1109 92.0251 67.2361 92.436 68.2763L81.6419 75.2937C79.4819 72.5168 76.6772 70.2744 73.4483 68.7857L82.3966 43.9793C84.2227 44.4716 86.1348 44.7599 88.115 44.7599ZM53.2817 15.4266C50.2497 15.4266 47.7817 12.9585 47.7817 9.92655C47.7817 6.89457 50.2497 4.42655 53.2817 4.42655C56.3136 4.42655 58.7817 6.89457 58.7817 9.92655C58.7817 12.9585 56.3136 15.4266 53.2817 15.4266ZM3.78166 9.92655C3.78166 6.89457 6.24967 4.42655 9.28166 4.42655C12.3136 4.42655 14.7817 6.89457 14.7817 9.92655C14.7817 12.9585 12.3136 15.4266 9.28166 15.4266C6.24967 15.4266 3.78166 12.9585 3.78166 9.92655ZM9.28166 86.9266C6.24967 86.9266 3.78166 84.4585 3.78166 81.4266C3.78166 78.3946 6.24967 75.9266 9.28166 75.9266C12.3136 75.9266 14.7817 78.3946 14.7817 81.4266C14.7817 84.4585 12.3136 86.9266 9.28166 86.9266ZM25.7817 103.427C22.7497 103.427 20.2817 100.959 20.2817 97.9266C20.2817 94.8946 22.7497 92.4266 25.7817 92.4266C28.8136 92.4266 31.2817 94.8946 31.2817 97.9266C31.2817 100.959 28.8136 103.427 25.7817 103.427ZM100.948 59.4266C103.98 59.4266 106.448 61.8946 106.448 64.9266C106.448 67.9585 103.98 70.4266 100.948 70.4266C97.9163 70.4266 95.4483 67.9585 95.4483 64.9266C95.4483 61.8946 97.9163 59.4266 100.948 59.4266ZM77.3182 37.5438C78.1364 33.3033 81.8747 30.0932 86.2817 30.0932H89.9483C94.3553 30.0932 98.0936 33.3033 98.9118 37.5438C95.8789 39.7639 92.1541 41.0932 88.115 41.0932C84.0759 41.0932 80.3511 39.7639 77.3182 37.5438ZM88.115 26.4266C85.083 26.4266 82.615 23.9585 82.615 20.9266C82.615 17.8946 85.083 15.4266 88.115 15.4266C91.147 15.4266 93.615 17.8946 93.615 20.9266C93.615 23.9585 91.147 26.4266 88.115 26.4266ZM88.115 4.42655C98.2243 4.42655 106.448 12.6506 106.448 22.7599C106.448 27.3432 104.745 31.5309 101.953 34.7482C100.668 31.3653 97.9897 28.6654 94.6525 27.3325C96.2755 25.6782 97.2817 23.4196 97.2817 20.9266C97.2817 15.8724 93.1692 11.7599 88.115 11.7599C83.0608 11.7599 78.9483 15.8724 78.9483 20.9266C78.9483 23.4196 79.9545 25.6782 81.5775 27.3325C78.2402 28.6654 75.5619 31.3653 74.2773 34.7482C71.4852 31.5309 69.7817 27.3432 69.7817 22.7599C69.7817 12.6506 78.0057 4.42655 88.115 4.42655ZM9.28166 48.4266C9.28166 38.3173 17.5057 30.0932 27.615 30.0932C37.7243 30.0932 45.9483 38.3173 45.9483 48.4266C45.9483 53.0242 44.2341 57.2226 41.4277 60.4444C40.1475 57.049 37.4638 54.3357 34.1176 52.9991C35.7388 51.3448 36.745 49.0863 36.745 46.5932C36.745 41.539 32.6325 37.4266 27.5783 37.4266C22.5241 37.4266 18.4116 41.539 18.4116 46.5932C18.4116 49.0863 19.4178 51.3448 21.0408 52.9991C17.7134 54.3258 15.0386 57.0158 13.7495 60.3853C10.9736 57.1716 9.28166 52.9974 9.28166 48.4266ZM22.0783 46.5932C22.0783 43.5612 24.5463 41.0932 27.5783 41.0932C30.6103 41.0932 33.0783 43.5612 33.0783 46.5932C33.0783 49.6252 30.6103 52.0932 27.5783 52.0932C24.5463 52.0932 22.0783 49.6252 22.0783 46.5932ZM16.7878 63.1863C17.614 58.9575 21.3469 55.7599 25.745 55.7599H29.4116C33.8267 55.7599 37.5721 58.9808 38.3787 63.2347C35.3521 65.4413 31.6388 66.7599 27.615 66.7599C23.5616 66.7599 19.8251 65.4216 16.7878 63.1863ZM53.4544 103.52C54.2807 99.2908 58.0136 96.0932 62.4116 96.0932H66.0783C70.4933 96.0932 74.2388 99.3141 75.0453 103.568C72.0187 105.775 68.3055 107.093 64.2817 107.093C60.2283 107.093 56.4918 105.755 53.4544 103.52ZM64.245 92.4266C61.213 92.4266 58.745 89.9585 58.745 86.9266C58.745 83.8946 61.213 81.4266 64.245 81.4266C67.2769 81.4266 69.745 83.8946 69.745 86.9266C69.745 89.9585 67.2769 92.4266 64.245 92.4266ZM82.615 88.7599C82.615 93.3575 80.9007 97.556 78.0943 100.778C76.8142 97.3823 74.1305 94.669 70.7843 93.3325C72.4054 91.6782 73.4116 89.4196 73.4116 86.9266C73.4116 81.8724 69.2992 77.7599 64.245 77.7599C59.1908 77.7599 55.0783 81.8724 55.0783 86.9266C55.0783 89.4196 56.0845 91.6782 57.7074 93.3325C54.38 94.6591 51.7052 97.3492 50.4162 100.719C47.6402 97.5049 45.9483 93.3307 45.9483 88.7599C45.9483 78.6506 54.1724 70.4266 64.2817 70.4266C74.391 70.4266 82.615 78.6506 82.615 88.7599ZM70.0001 67.5405C68.1739 67.0481 66.2618 66.7599 64.2817 66.7599C59.2507 66.7599 54.6235 68.476 50.913 71.3289L43.6969 63.3904C47.3564 59.4597 49.615 54.2085 49.615 48.4266C49.615 46.0248 49.2157 43.7188 48.5005 41.5533L68.6636 33.0079C70.9221 37.278 74.5467 40.7047 78.9501 42.7341L70.0001 67.5405Z" fill="#0D2C33"/>
</g>
<defs>
<clipPath id="clip0_475_26051">
<rect width="110" height="110" fill="white" transform="translate(0.11499 0.759888)"/>
</clipPath>
</defs>
</svg>
