<svg width="111" height="111" viewBox="0 0 111 111" fill="none" xmlns="http://www.w3.org/2000/svg">
<g clip-path="url(#clip0_475_26110)">
<path d="M98.9148 42.0099C93.4721 41.4369 68.8367 42.0099 68.8367 42.0099L57.5215 11.2156H53.0815L41.7664 42.0099L8.39398 42.8693V47.0229L13.3656 51.463H29.9671C30.6092 50.6594 31.4237 50.0105 32.3505 49.5642C33.2772 49.1179 34.2925 48.8858 35.321 48.8849H40.4773C41.684 48.887 42.8688 49.2081 43.9114 49.8156C44.3004 49.1559 44.5551 48.7028 44.7221 48.3931C44.7204 48.3003 44.7146 48.2017 44.71 48.1073C44.6357 46.6197 44.4393 42.6817 47.9184 39.8006C49.3771 38.5782 51.1876 37.8527 53.0868 37.7293C53.2488 37.7172 53.4132 37.713 53.5912 37.713C54.9195 37.714 56.2308 38.0112 57.4298 38.5829C62.3905 40.8442 63.2377 46.3802 63.4916 48.7015L65.207 48.7044C66.3433 48.6722 67.4746 48.867 68.5347 49.2774C69.5947 49.6879 70.5622 50.3058 71.3804 51.0949C72.1987 51.884 72.8512 52.8285 73.2998 53.873C73.7484 54.9175 73.984 56.041 73.9929 57.1778C73.9936 58.4088 73.7321 59.6258 73.2259 60.7479C73.2271 60.8095 73.228 60.8716 73.228 60.9333C73.2291 62.2668 72.9231 63.5826 72.3338 64.7787C72.3179 66.3115 71.9008 67.8133 71.124 69.1347C70.952 71.3419 69.9537 73.4029 68.3285 74.9062C66.7033 76.4095 64.5708 77.2445 62.357 77.2443H49.0794C48.4488 77.2444 47.8213 77.1564 47.2151 76.9828C46.5711 76.7995 45.9478 76.5499 45.3553 76.238C45.2953 76.2384 45.2337 76.2384 45.1716 76.2389C43.9023 77.4371 42.2228 78.1043 40.4773 78.1036H35.321C33.8186 78.1018 32.3587 77.6047 31.1674 76.6893V76.9578L24.0059 97.8693C24.0059 97.8693 23.9343 101.96 29.5919 100.304C35.2494 98.6485 55.0867 82.4005 55.0867 82.4005L80.8679 100.699C80.8679 100.699 85.0216 102.166 85.0216 97.8693C85.0216 93.5724 76.571 66.6453 76.571 66.6453L102.352 47.0229C102.352 47.0229 104.357 42.5828 98.9148 42.0099Z" fill="#FFDB80"/>
<path d="M0.182068 56.0779H33.8171V69.8322H0.182068V56.0779Z" fill="#E1EBF4"/>
<path d="M6.14131 44.2708C5.79253 45.3054 5.78634 46.4249 6.12366 47.4633C6.46098 48.5017 7.12385 49.4038 8.01406 50.0359L9.97834 51.463H15.8272L10.0349 47.2547C9.74124 47.0414 9.52263 46.7405 9.41044 46.3953C9.29824 46.0501 9.29821 45.6783 9.41035 45.3331C9.52248 44.9879 9.74103 44.687 10.0347 44.4736C10.3283 44.2603 10.682 44.1453 11.0449 44.1453H42.1923C42.5552 44.1452 42.9088 44.0303 43.2025 43.817C43.4961 43.6037 43.7148 43.3029 43.8271 42.9578L53.4523 13.335C53.5644 12.9898 53.7829 12.689 54.0765 12.4757C54.3701 12.2623 54.7237 12.1474 55.0867 12.1474C55.4496 12.1474 55.8032 12.2623 56.0968 12.4757C56.3904 12.689 56.6089 12.9898 56.7211 13.335L66.3462 42.9578C66.4586 43.3029 66.6772 43.6037 66.9708 43.817C67.2645 44.0303 67.6181 44.1452 67.9811 44.1453H99.1284C99.4913 44.1453 99.845 44.2603 100.139 44.4736C100.432 44.687 100.651 44.9879 100.763 45.3331C100.875 45.6783 100.875 46.0501 100.763 46.3953C100.651 46.7405 100.432 47.0414 100.138 47.2547L74.9396 65.5626C74.646 65.776 74.4275 66.0769 74.3153 66.4221C74.2031 66.7673 74.2031 67.1392 74.3152 67.4844L83.9404 97.1073C84.0525 97.4524 84.0525 97.8242 83.9404 98.1693C83.8282 98.5145 83.6097 98.8152 83.3161 99.0286C83.0225 99.2419 82.6689 99.3568 82.306 99.3568C81.9431 99.3568 81.5895 99.242 81.2959 99.0287L56.0971 80.7208C55.8034 80.5075 55.4497 80.3927 55.0867 80.3927C54.7237 80.3927 54.37 80.5075 54.0762 80.7208L28.8778 99.0287C28.5842 99.242 28.2306 99.3569 27.8676 99.3569C27.5047 99.3569 27.1511 99.2421 26.8574 99.0287C26.5638 98.8154 26.3452 98.5146 26.233 98.1694C26.1209 97.8243 26.1208 97.4524 26.233 97.1073L33.2454 75.5255H29.6308L22.9633 96.0448C22.6269 97.0804 22.627 98.196 22.9635 99.2316C23.3001 100.267 23.9558 101.17 24.8367 101.81C25.7176 102.45 26.7786 102.794 27.8674 102.794C28.9563 102.795 30.0173 102.45 30.8983 101.81L55.0867 84.2359L79.2755 101.81C80.1517 102.461 81.2145 102.813 82.3062 102.813C83.398 102.813 84.4607 102.461 85.3368 101.809C86.2271 101.177 86.89 100.275 87.2274 99.2371C87.5648 98.1988 87.5587 97.0794 87.21 96.0448L77.9705 67.6099L102.159 50.0359C103.04 49.3958 103.696 48.4933 104.032 47.4577C104.369 46.4221 104.369 45.3065 104.032 44.271C103.696 43.2354 103.04 42.3329 102.159 41.6928C101.278 41.0527 100.217 40.7079 99.1284 40.7078H69.2299L59.9907 12.2725C59.6541 11.237 58.9984 10.3346 58.1174 9.6946C57.2365 9.05464 56.1755 8.70996 55.0867 8.70996C53.9978 8.70996 52.9369 9.05464 52.0559 9.6946C51.175 10.3346 50.5192 11.237 50.1826 12.2725L40.9435 40.7078H11.045C9.95323 40.6959 8.8867 41.036 8.00344 41.6777C7.12018 42.3195 6.46721 43.2288 6.14131 44.2708Z" fill="#2D4356"/>
<path d="M69.7132 60.031C70.2635 59.1812 70.556 58.1903 70.5554 57.1779C70.5492 56.4912 70.404 55.8128 70.1287 55.1837C69.8533 54.5546 69.4535 53.9877 68.9533 53.5172C68.4531 53.0467 67.8628 52.6823 67.218 52.4459C66.5733 52.2096 65.8873 52.1062 65.2015 52.1419L59.8476 52.1333C60.0512 51.2547 60.1407 50.3536 60.114 49.4521C59.9421 47.7677 59.4695 43.2904 55.9632 41.6919C55.2227 41.3375 54.4124 41.1525 53.5914 41.1505C53.4968 41.1505 53.4109 41.1505 53.325 41.1591C52.1426 41.2309 51.0151 41.683 50.1109 42.4482C47.9625 44.227 48.0828 46.7279 48.1429 47.931C48.1515 48.1029 48.1601 48.2833 48.1601 48.4466V49.1943C47.7304 50.1911 46.2437 52.6232 45.5562 53.7404L43.2531 53.749C42.936 53.3088 42.5191 52.95 42.0366 52.702C41.5542 52.4541 41.0198 52.324 40.4773 52.3224H35.321C34.5609 52.3248 33.8229 52.5792 33.2227 53.0457C32.6225 53.5122 32.1939 54.1645 32.0039 54.9005H1.80542C1.34958 54.9005 0.912408 55.0816 0.59008 55.4039C0.267752 55.7262 0.08667 56.1634 0.08667 56.6193C0.08667 57.0751 0.267752 57.5123 0.59008 57.8346C0.912408 58.1569 1.34958 58.338 1.80542 58.338H31.8835V68.6505H1.80542C1.34958 68.6505 0.912408 68.8316 0.59008 69.1539C0.267752 69.4762 0.0866699 69.9134 0.0866699 70.3693C0.0866699 70.8251 0.267752 71.2623 0.59008 71.5846C0.912408 71.9069 1.34958 72.088 1.80542 72.088H32.0039C32.1939 72.8241 32.6225 73.4763 33.2227 73.9428C33.823 74.4093 34.5609 74.6637 35.321 74.6661H40.4773C41.1034 74.6643 41.7171 74.4912 42.2518 74.1655C42.7866 73.8398 43.222 73.374 43.5109 72.8185C43.5882 72.8099 46.1148 72.7927 46.2781 72.8013L46.2953 72.8185C46.8737 73.1906 47.5014 73.4799 48.1601 73.6779C48.4591 73.7634 48.7686 73.8067 49.0796 73.8068H62.357C63.7728 73.808 65.1314 73.2479 66.135 72.2491C67.1386 71.2504 67.7053 69.8945 67.7109 68.4786C67.7109 68.3411 67.7023 68.2036 67.6937 68.0661C68.4701 67.1183 68.8951 65.9312 68.8968 64.706C68.897 64.453 68.8798 64.2003 68.8453 63.9497C69.4599 63.0638 69.7896 62.0115 69.7906 60.9333C69.7912 60.6309 69.7653 60.3289 69.7132 60.031ZM40.4773 71.2286H35.321V55.7599H40.4773V71.2286ZM65.2875 59.0599C65.1757 59.0685 65.107 59.1544 65.2531 59.2232C65.6473 59.404 65.9672 59.7151 66.1588 60.1042C66.3505 60.4932 66.4023 60.9364 66.3054 61.3592C66.2085 61.7819 65.969 62.1584 65.627 62.4252C65.2851 62.692 64.8617 62.8328 64.4281 62.824C64.4281 62.824 64.1531 62.9013 64.3851 63.013C64.7063 63.1642 64.9779 63.4037 65.1681 63.7035C65.3583 64.0033 65.4593 64.351 65.4593 64.706C65.4549 65.2105 65.2508 65.6928 64.8916 66.0471C64.5324 66.4014 64.0475 66.599 63.5429 66.5966H63.3624C63.2851 66.5966 63.1992 66.6138 63.1906 66.6997C63.1888 66.7222 63.1935 66.7447 63.2041 66.7645C63.2148 66.7843 63.231 66.8006 63.2507 66.8115C63.554 66.9734 63.8085 67.2132 63.9883 67.5063C64.168 67.7993 64.2664 68.1349 64.2734 68.4786C64.2719 68.7287 64.2212 68.976 64.124 69.2064C64.0269 69.4368 63.8853 69.6458 63.7073 69.8214C63.5293 69.997 63.3184 70.1358 63.0867 70.2298C62.855 70.3238 62.607 70.3712 62.357 70.3693H49.0796C48.4093 70.1802 47.9109 69.6904 47.275 69.4497C47.0687 69.381 44.482 69.3638 43.9148 69.3724V57.1779L46.7765 57.1693H46.7851C46.992 57.1679 47.1955 57.1164 47.3781 57.0191C47.5608 56.9218 47.717 56.7817 47.8335 56.6107C48.8132 54.9864 51.5976 50.6208 51.5976 49.6411V48.4466C51.5976 47.2693 51.2882 45.9372 52.3023 45.095C52.6372 44.8046 53.0552 44.6271 53.4968 44.588H53.5914C53.9185 44.5968 54.2403 44.6729 54.5367 44.8114C56.1695 45.5591 56.539 48.2661 56.7023 49.813C56.5055 51.5044 56.1487 53.1733 55.6367 54.7973C55.4132 55.5622 56.539 55.5708 56.539 55.5708L65.2015 55.5794C66.2585 55.5794 67.1179 56.1294 67.1179 57.1778C67.1123 57.6664 66.9193 58.1342 66.5786 58.4844C66.2379 58.8347 65.7757 59.0407 65.2875 59.0599Z" fill="#2D4356"/>
<path d="M65.2875 59.0599C65.1757 59.0685 65.107 59.1544 65.2531 59.2232C65.6473 59.404 65.9672 59.7151 66.1588 60.1042C66.3505 60.4932 66.4023 60.9364 66.3054 61.3592C66.2085 61.7819 65.969 62.1584 65.627 62.4252C65.2851 62.692 64.8617 62.8328 64.4281 62.824C64.4281 62.824 64.1531 62.9013 64.3851 63.013C64.7063 63.1642 64.9779 63.4037 65.1681 63.7035C65.3583 64.0033 65.4593 64.351 65.4593 64.706C65.4549 65.2105 65.2508 65.6928 64.8916 66.0471C64.5324 66.4014 64.0475 66.599 63.5429 66.5966H63.3624C63.2851 66.5966 63.1992 66.6138 63.1906 66.6997C63.1888 66.7222 63.1935 66.7447 63.2041 66.7645C63.2148 66.7843 63.231 66.8006 63.2507 66.8115C63.554 66.9734 63.8085 67.2132 63.9883 67.5063C64.168 67.7993 64.2664 68.1349 64.2734 68.4786C64.2719 68.7287 64.2212 68.976 64.124 69.2064C64.0269 69.4368 63.8853 69.6458 63.7073 69.8214C63.5293 69.997 63.3184 70.1358 63.0867 70.2298C62.855 70.3238 62.607 70.3712 62.357 70.3693H49.0796C48.4093 70.1802 47.9109 69.6904 47.275 69.4497C47.0687 69.381 44.482 69.3638 43.9148 69.3724V57.1779L46.7765 57.1693H46.7851C46.992 57.1679 47.1955 57.1164 47.3781 57.0191C47.5608 56.9218 47.717 56.7817 47.8335 56.6107C48.8132 54.9864 51.5976 50.6208 51.5976 49.6411V48.4466C51.5976 47.2693 51.2882 45.9372 52.3023 45.095C52.6372 44.8046 53.0552 44.6271 53.4968 44.588H53.5914C53.9185 44.5968 54.2403 44.6729 54.5367 44.8114C56.1695 45.5591 56.539 48.2661 56.7023 49.813C56.5055 51.5044 56.1487 53.1733 55.6367 54.7973C55.4132 55.5622 56.539 55.5708 56.539 55.5708L65.2015 55.5794C66.2585 55.5794 67.1179 56.1294 67.1179 57.1778C67.1123 57.6664 66.9193 58.1342 66.5786 58.4844C66.2379 58.8347 65.7757 59.0407 65.2875 59.0599Z" fill="#E1EBF4"/>
<path d="M35.321 55.7599H40.4773V71.2286H35.321V55.7599Z" fill="#FC785E"/>
<path d="M7.82105 0.759888C6.29133 0.759888 4.79597 1.2135 3.52406 2.06336C2.25215 2.91323 1.26081 4.12117 0.675418 5.53445C0.0900211 6.94772 -0.0631453 8.50284 0.235287 10.0032C0.53372 11.5035 1.27035 12.8816 2.35202 13.9633C3.43369 15.045 4.81182 15.7816 6.31215 16.08C7.81247 16.3785 9.36759 16.2253 10.7809 15.6399C12.1941 15.0545 13.4021 14.0632 14.2519 12.7913C15.1018 11.5193 15.5554 10.024 15.5554 8.49426C15.5523 6.44392 14.7365 4.47844 13.2867 3.02863C11.8369 1.57882 9.87139 0.762963 7.82105 0.759888ZM7.82105 12.7911C6.97121 12.7911 6.14045 12.5391 5.43383 12.067C4.72721 11.5948 4.17647 10.9238 3.85125 10.1386C3.52603 9.35345 3.44094 8.4895 3.60674 7.65598C3.77253 6.82247 4.18177 6.05684 4.7827 5.45591C5.38363 4.85498 6.14926 4.44575 6.98277 4.27995C7.81628 4.11416 8.68024 4.19925 9.46539 4.52447C10.2505 4.84969 10.9216 5.40043 11.3938 6.10705C11.8659 6.81366 12.1179 7.64442 12.1179 8.49426C12.1175 9.63374 11.6647 10.7264 10.8589 11.5322C10.0532 12.3379 8.96052 12.7907 7.82105 12.7911Z" fill="#2D4356"/>
<path d="M7.82104 12.7911C10.1941 12.7911 12.1179 10.8674 12.1179 8.49426C12.1179 6.12116 10.1941 4.19739 7.82104 4.19739C5.44795 4.19739 3.52417 6.12116 3.52417 8.49426C3.52417 10.8674 5.44795 12.7911 7.82104 12.7911Z" fill="#81D9E3"/>
<path d="M16.4148 16.2286C15.395 16.2286 14.3981 16.531 13.5501 17.0976C12.7022 17.6642 12.0413 18.4695 11.651 19.4117C11.2608 20.3539 11.1587 21.3906 11.3576 22.3908C11.5566 23.391 12.0477 24.3098 12.7688 25.0309C13.4899 25.752 14.4086 26.2431 15.4089 26.4421C16.4091 26.641 17.4458 26.5389 18.388 26.1486C19.3302 25.7584 20.1355 25.0975 20.7021 24.2495C21.2686 23.4016 21.571 22.4047 21.571 21.3849C21.57 20.0177 21.0264 18.7068 20.0596 17.7401C19.0929 16.7733 17.782 16.2297 16.4148 16.2286ZM16.4148 23.1036C16.0749 23.1036 15.7426 23.0028 15.4599 22.814C15.1773 22.6251 14.957 22.3567 14.8269 22.0426C14.6968 21.7286 14.6628 21.383 14.7291 21.0496C14.7954 20.7162 14.9591 20.4099 15.1995 20.1695C15.4398 19.9292 15.7461 19.7655 16.0795 19.6992C16.4129 19.6328 16.7585 19.6669 17.0725 19.797C17.3866 19.9271 17.655 20.1474 17.8439 20.43C18.0327 20.7126 18.1335 21.045 18.1335 21.3849C18.1322 21.8403 17.9507 22.2767 17.6287 22.5987C17.3066 22.9208 16.8702 23.1023 16.4148 23.1036Z" fill="#2D4356"/>
<path d="M16.4148 23.1036C17.364 23.1036 18.1335 22.3341 18.1335 21.3849C18.1335 20.4356 17.364 19.6661 16.4148 19.6661C15.4656 19.6661 14.696 20.4356 14.696 21.3849C14.696 22.3341 15.4656 23.1036 16.4148 23.1036Z" fill="#E1EBF4"/>
<path d="M102.352 0.759888C100.823 0.759888 99.3272 1.2135 98.0553 2.06336C96.7834 2.91323 95.7921 4.12117 95.2067 5.53445C94.6213 6.94772 94.4681 8.50284 94.7665 10.0032C95.065 11.5035 95.8016 12.8816 96.8833 13.9633C97.9649 15.045 99.3431 15.7816 100.843 16.08C102.344 16.3785 103.899 16.2253 105.312 15.6399C106.725 15.0545 107.933 14.0632 108.783 12.7913C109.633 11.5193 110.087 10.024 110.087 8.49426C110.084 6.44392 109.268 4.47844 107.818 3.02863C106.368 1.57882 104.403 0.762963 102.352 0.759888ZM102.352 12.7911C101.502 12.7911 100.672 12.5391 99.9651 12.067C99.2585 11.5948 98.7077 10.9238 98.3825 10.1386C98.0573 9.35345 97.9722 8.4895 98.138 7.65598C98.3038 6.82247 98.713 6.05684 99.3139 5.45591C99.9149 4.85498 100.681 4.44575 101.514 4.27995C102.348 4.11416 103.211 4.19925 103.997 4.52447C104.782 4.84969 105.453 5.40043 105.925 6.10705C106.397 6.81366 106.649 7.64442 106.649 8.49426C106.649 9.63374 106.196 10.7264 105.39 11.5322C104.584 12.3379 103.492 12.7907 102.352 12.7911Z" fill="#2D4356"/>
<path d="M102.352 12.7911C104.725 12.7911 106.649 10.8674 106.649 8.49426C106.649 6.12116 104.725 4.19739 102.352 4.19739C99.9792 4.19739 98.0554 6.12116 98.0554 8.49426C98.0554 10.8674 99.9792 12.7911 102.352 12.7911Z" fill="#81D9E3"/>
<path d="M93.7585 16.2286C92.7387 16.2286 91.7418 16.531 90.8939 17.0976C90.0459 17.6642 89.3851 18.4695 88.9948 19.4117C88.6045 20.3539 88.5024 21.3906 88.7014 22.3908C88.9003 23.391 89.3914 24.3098 90.1125 25.0309C90.8336 25.752 91.7524 26.2431 92.7526 26.4421C93.7528 26.641 94.7896 26.5389 95.7318 26.1486C96.6739 25.7584 97.4792 25.0975 98.0458 24.2495C98.6124 23.4016 98.9148 22.4047 98.9148 21.3849C98.9137 20.0177 98.3701 18.7068 97.4034 17.7401C96.4366 16.7733 95.1257 16.2297 93.7585 16.2286ZM93.7585 23.1036C93.4186 23.1036 93.0863 23.0028 92.8037 22.814C92.521 22.6251 92.3007 22.3567 92.1706 22.0426C92.0405 21.7286 92.0065 21.383 92.0728 21.0496C92.1391 20.7162 92.3028 20.4099 92.5432 20.1695C92.7836 19.9292 93.0898 19.7655 93.4232 19.6992C93.7566 19.6328 94.1022 19.6669 94.4163 19.797C94.7303 19.9271 94.9988 20.1474 95.1876 20.43C95.3765 20.7126 95.4773 21.045 95.4773 21.3849C95.476 21.8403 95.2944 22.2767 94.9724 22.5987C94.6504 22.9208 94.214 23.1023 93.7585 23.1036Z" fill="#2D4356"/>
<path d="M93.7585 23.1036C94.7078 23.1036 95.4773 22.3341 95.4773 21.3849C95.4773 20.4356 94.7078 19.6661 93.7585 19.6661C92.8093 19.6661 92.0398 20.4356 92.0398 21.3849C92.0398 22.3341 92.8093 23.1036 93.7585 23.1036Z" fill="#E1EBF4"/>
<path d="M7.82105 95.2911C6.29133 95.2911 4.79597 95.7448 3.52406 96.5946C2.25215 97.4445 1.26081 98.6524 0.675418 100.066C0.0900211 101.479 -0.0631453 103.034 0.235287 104.534C0.53372 106.035 1.27035 107.413 2.35202 108.495C3.43369 109.576 4.81182 110.313 6.31215 110.611C7.81247 110.91 9.36759 110.757 10.7809 110.171C12.1941 109.586 13.4021 108.594 14.2519 107.322C15.1018 106.051 15.5554 104.555 15.5554 103.026C15.5523 100.975 14.7365 99.0097 13.2867 97.5599C11.8369 96.1101 9.87139 95.2942 7.82105 95.2911ZM7.82105 107.322C6.97121 107.322 6.14045 107.07 5.43383 106.598C4.72721 106.126 4.17647 105.455 3.85125 104.67C3.52603 103.885 3.44094 103.021 3.60674 102.187C3.77253 101.354 4.18177 100.588 4.7827 99.9872C5.38363 99.3862 6.14926 98.977 6.98277 98.8112C7.81628 98.6454 8.68024 98.7305 9.46539 99.0557C10.2505 99.3809 10.9216 99.9317 11.3938 100.638C11.8659 101.345 12.1179 102.176 12.1179 103.026C12.1175 104.165 11.6647 105.258 10.8589 106.063C10.0532 106.869 8.96052 107.322 7.82105 107.322Z" fill="#2D4356"/>
<path d="M7.82104 107.322C10.1941 107.322 12.1179 105.399 12.1179 103.026C12.1179 100.652 10.1941 98.7286 7.82104 98.7286C5.44795 98.7286 3.52417 100.652 3.52417 103.026C3.52417 105.399 5.44795 107.322 7.82104 107.322Z" fill="#81D9E3"/>
<path d="M14.696 83.2599C13.6762 83.2599 12.6793 83.5623 11.8314 84.1289C10.9834 84.6955 10.3226 85.5007 9.93229 86.4429C9.54203 87.3851 9.43992 88.4219 9.63887 89.4221C9.83783 90.4223 10.3289 91.341 11.05 92.0622C11.7711 92.7833 12.6899 93.2744 13.6901 93.4733C14.6903 93.6723 15.7271 93.5702 16.6693 93.1799C17.6114 92.7896 18.4167 92.1287 18.9833 91.2808C19.5499 90.4329 19.8523 89.4359 19.8523 88.4161C19.8512 87.0489 19.3076 85.7381 18.3409 84.7713C17.3741 83.8046 16.0632 83.261 14.696 83.2599ZM14.696 90.1349C14.3561 90.1349 14.0238 90.0341 13.7412 89.8452C13.4585 89.6564 13.2382 89.3879 13.1081 89.0739C12.978 88.7598 12.944 88.4142 13.0103 88.0808C13.0766 87.7474 13.2403 87.4412 13.4807 87.2008C13.7211 86.9604 14.0273 86.7967 14.3607 86.7304C14.6941 86.6641 15.0397 86.6981 15.3538 86.8282C15.6678 86.9583 15.9363 87.1786 16.1251 87.4613C16.314 87.7439 16.4148 88.0762 16.4148 88.4161C16.4135 88.8716 16.2319 89.308 15.9099 89.63C15.5879 89.952 15.1515 90.1335 14.696 90.1349Z" fill="#2D4356"/>
<path d="M14.696 90.1349C15.6453 90.1349 16.4148 89.3654 16.4148 88.4161C16.4148 87.4669 15.6453 86.6974 14.696 86.6974C13.7468 86.6974 12.9773 87.4669 12.9773 88.4161C12.9773 89.3654 13.7468 90.1349 14.696 90.1349Z" fill="#E1EBF4"/>
<path d="M102.352 95.2911C100.823 95.2911 99.3272 95.7448 98.0553 96.5946C96.7834 97.4445 95.7921 98.6524 95.2067 100.066C94.6213 101.479 94.4681 103.034 94.7665 104.534C95.065 106.035 95.8016 107.413 96.8833 108.495C97.9649 109.576 99.3431 110.313 100.843 110.611C102.344 110.91 103.899 110.757 105.312 110.171C106.725 109.586 107.933 108.594 108.783 107.322C109.633 106.051 110.087 104.555 110.087 103.026C110.084 100.975 109.268 99.0097 107.818 97.5599C106.368 96.1101 104.403 95.2942 102.352 95.2911ZM102.352 107.322C101.502 107.322 100.672 107.07 99.9651 106.598C99.2585 106.126 98.7077 105.455 98.3825 104.67C98.0573 103.885 97.9722 103.021 98.138 102.187C98.3038 101.354 98.713 100.588 99.3139 99.9872C99.9149 99.3862 100.681 98.977 101.514 98.8112C102.348 98.6454 103.211 98.7305 103.997 99.0557C104.782 99.3809 105.453 99.9317 105.925 100.638C106.397 101.345 106.649 102.176 106.649 103.026C106.649 104.165 106.196 105.258 105.39 106.063C104.584 106.869 103.492 107.322 102.352 107.322Z" fill="#2D4356"/>
<path d="M102.352 107.322C104.725 107.322 106.649 105.399 106.649 103.026C106.649 100.652 104.725 98.7286 102.352 98.7286C99.9792 98.7286 98.0554 100.652 98.0554 103.026C98.0554 105.399 99.9792 107.322 102.352 107.322Z" fill="#81D9E3"/>
<path d="M95.4773 83.2599C94.4575 83.2599 93.4606 83.5623 92.6126 84.1289C91.7647 84.6955 91.1038 85.5007 90.7135 86.4429C90.3233 87.3851 90.2212 88.4219 90.4201 89.4221C90.6191 90.4223 91.1102 91.341 91.8313 92.0622C92.5524 92.7833 93.4711 93.2744 94.4714 93.4733C95.4716 93.6723 96.5083 93.5702 97.4505 93.1799C98.3927 92.7896 99.198 92.1287 99.7646 91.2808C100.331 90.4329 100.634 89.4359 100.634 88.4161C100.632 87.0489 100.089 85.7381 99.1221 84.7713C98.1554 83.8046 96.8445 83.261 95.4773 83.2599ZM95.4773 90.1349C95.1374 90.1349 94.8051 90.0341 94.5224 89.8452C94.2398 89.6564 94.0195 89.3879 93.8894 89.0739C93.7593 88.7598 93.7253 88.4142 93.7916 88.0808C93.8579 87.7474 94.0216 87.4412 94.262 87.2008C94.5023 86.9604 94.8086 86.7967 95.142 86.7304C95.4754 86.6641 95.821 86.6981 96.135 86.8282C96.4491 86.9583 96.7175 87.1786 96.9064 87.4613C97.0952 87.7439 97.196 88.0762 97.196 88.4161C97.1947 88.8716 97.0132 89.308 96.6912 89.63C96.3691 89.952 95.9327 90.1335 95.4773 90.1349Z" fill="#2D4356"/>
<path d="M95.4773 90.1349C96.4265 90.1349 97.196 89.3654 97.196 88.4161C97.196 87.4669 96.4265 86.6974 95.4773 86.6974C94.5281 86.6974 93.7585 87.4669 93.7585 88.4161C93.7585 89.3654 94.5281 90.1349 95.4773 90.1349Z" fill="#E1EBF4"/>
<path opacity="0.5" d="M100.625 46.7278C100.483 46.4571 100.267 46.232 100.002 46.0784C99.7378 45.9249 99.4353 45.8491 99.1296 45.8598H67.9773C67.6147 45.8601 67.2614 45.7454 66.968 45.5324C66.6747 45.3193 66.4564 45.0188 66.3445 44.6739L56.7195 15.0512C56.6074 14.7065 56.389 14.4061 56.0957 14.1931C55.8024 13.9801 55.4492 13.8654 55.0867 13.8654C54.7242 13.8654 54.371 13.9801 54.0777 14.1931C53.7844 14.4061 53.566 14.7065 53.4539 15.0512L43.8289 44.6739C43.717 45.0188 43.4987 45.3193 43.2053 45.5324C42.9119 45.7454 42.5586 45.8601 42.196 45.8598H11.0437C10.738 45.8491 10.4356 45.9249 10.171 46.0784C9.90651 46.232 9.69069 46.4571 9.5484 46.7278C9.4281 46.5188 9.35363 46.2865 9.32992 46.0465C9.30622 45.8065 9.33382 45.5642 9.4109 45.3356C9.51436 44.985 9.73025 44.6781 10.0253 44.4622C10.3204 44.2464 10.6782 44.1335 11.0437 44.1411H42.196C42.5586 44.1413 42.9119 44.0267 43.2053 43.8136C43.4987 43.6006 43.717 43.3 43.8289 42.9551L53.4539 13.3325C53.566 12.9878 53.7844 12.6874 54.0777 12.4744C54.371 12.2613 54.7242 12.1466 55.0867 12.1466C55.4492 12.1466 55.8024 12.2613 56.0957 12.4744C56.389 12.6874 56.6074 12.9878 56.7195 13.3325L66.3445 42.9551C66.4564 43.3 66.6747 43.6006 66.968 43.8136C67.2614 44.0267 67.6147 44.1413 67.9773 44.1411H99.1296C99.4951 44.1335 99.853 44.2464 100.148 44.4622C100.443 44.6781 100.659 44.985 100.762 45.3356C100.84 45.5642 100.867 45.8065 100.843 46.0465C100.82 46.2865 100.745 46.5188 100.625 46.7278Z" fill="#F9EDD2"/>
<path opacity="0.5" d="M31.8835 58.338V60.0568H1.80541C1.50357 60.0572 1.20695 59.978 0.945479 59.8272C0.684008 59.6764 0.46693 59.4593 0.316144 59.1978C0.165357 58.9364 0.0861944 58.6397 0.0866413 58.3379C0.0870882 58.0361 0.167129 57.7397 0.318689 57.4786C0.469133 57.7399 0.685769 57.9569 0.946774 58.1077C1.20778 58.2586 1.50394 58.338 1.80541 58.338H31.8835Z" fill="white"/>
<path opacity="0.45" d="M83.3171 99.0294C83.0266 99.2497 82.672 99.369 82.3074 99.369C81.9427 99.369 81.5881 99.2497 81.2976 99.0294L56.1007 80.7247C55.8074 80.5071 55.4519 80.3895 55.0867 80.3895C54.7214 80.3895 54.3659 80.5071 54.0726 80.7247L28.8757 99.0294C28.5816 99.2425 28.2276 99.3571 27.8644 99.3567C27.5012 99.3564 27.1474 99.2411 26.8537 99.0275C26.5599 98.8139 26.3413 98.5128 26.2291 98.1674C26.1168 97.822 26.1168 97.4499 26.2288 97.1044L26.3492 96.7349C26.4736 96.9619 26.6467 97.1585 26.8562 97.3106C27.1467 97.531 27.5013 97.6502 27.866 97.6502C28.2306 97.6502 28.5852 97.531 28.8757 97.3106L54.0726 79.006C54.3659 78.7883 54.7214 78.6708 55.0867 78.6708C55.4519 78.6708 55.8074 78.7883 56.1007 79.006L81.2976 97.3106C81.5881 97.531 81.9427 97.6502 82.3074 97.6502C82.672 97.6502 83.0266 97.531 83.3171 97.3106C83.5266 97.1585 83.6998 96.9619 83.8242 96.7349L83.9445 97.1044C84.0628 97.4499 84.0657 97.8245 83.9525 98.1717C83.8393 98.519 83.6163 98.82 83.3171 99.0294Z" fill="#AD9359"/>
<path opacity="0.5" d="M56.6078 50.7411C56.3929 49.1943 55.9203 47.1661 54.5367 46.5302C54.2403 46.3916 53.9185 46.3155 53.5914 46.3068H53.4968C53.011 46.3497 52.5552 46.5599 52.2072 46.9016C51.8593 47.2433 51.6407 47.6953 51.589 48.1802C51.5546 47.0716 51.3656 45.8771 52.3023 45.095C52.6372 44.8046 53.0552 44.6271 53.4968 44.588H53.5914C53.9185 44.5968 54.2403 44.6729 54.5367 44.8114C56.1695 45.5591 56.539 48.2661 56.7023 49.813C56.7066 50.125 56.6749 50.4364 56.6078 50.7411Z" fill="white"/>
<path opacity="0.5" d="M67.1179 57.1778C67.1165 57.4877 67.0367 57.7922 66.8859 58.063C66.6919 57.8044 66.4359 57.5988 66.1416 57.4651C65.8472 57.3314 65.5239 57.274 65.2015 57.2981L56.539 57.2895C56.539 57.2895 55.4132 57.281 55.6367 56.5161C55.7312 56.2153 55.8343 55.8458 55.9375 55.4419C56.1277 55.5236 56.332 55.5673 56.539 55.5708L65.2015 55.5794C66.2585 55.5794 67.1179 56.1294 67.1179 57.1778Z" fill="white"/>
<path opacity="0.3" d="M35.321 55.7599H40.4773V57.4786H35.321V55.7599Z" fill="#F9DBD7"/>
<path opacity="0.5" d="M35.321 69.5099H40.4773V71.2286H35.321V69.5099Z" fill="#A54B3F"/>
<path opacity="0.5" d="M31.8835 66.9318V68.6505H1.80541C1.50394 68.6505 1.20778 68.7299 0.946774 68.8808C0.685769 69.0316 0.469133 69.2486 0.318689 69.5099C0.167129 69.2489 0.0870882 68.9525 0.0866413 68.6506C0.0861944 68.3488 0.165357 68.0522 0.316144 67.7907C0.46693 67.5292 0.684008 67.3121 0.945479 67.1613C1.20695 67.0105 1.50357 66.9313 1.80541 66.9318H31.8835Z" fill="#9FA5AA"/>
<path opacity="0.5" d="M64.2734 68.4786C64.2719 68.7286 64.2212 68.9759 64.124 69.2063C64.0269 69.4367 63.8853 69.6457 63.7073 69.8213C63.5293 69.9969 63.3184 70.1357 63.0867 70.2297C62.855 70.3237 62.607 70.3711 62.357 70.3692H49.0796C48.4093 70.1802 47.9109 69.6903 47.275 69.4497C47.0687 69.3809 44.482 69.3637 43.9148 69.3723V67.6536C44.482 67.645 47.0687 67.6621 47.275 67.7309C47.9109 67.9716 48.4093 68.4614 49.0796 68.6505H62.357C62.707 68.6519 63.0507 68.5573 63.3507 68.377C63.6508 68.1967 63.8956 67.9376 64.0585 67.6278C64.2008 67.8887 64.2747 68.1814 64.2734 68.4786Z" fill="#9FA5AA"/>
<path opacity="0.3" d="M106.649 103.026C106.651 103.311 106.622 103.597 106.563 103.876C106.363 102.908 105.835 102.038 105.067 101.413C104.3 100.789 103.341 100.447 102.352 100.447C101.363 100.447 100.404 100.789 99.6371 101.413C98.87 102.038 98.3418 102.908 98.1413 103.876C98.0822 103.597 98.0533 103.311 98.0554 103.026C98.0554 101.886 98.5081 100.793 99.3139 99.9872C100.12 99.1813 101.213 98.7286 102.352 98.7286C103.492 98.7286 104.585 99.1813 105.391 99.9872C106.196 100.793 106.649 101.886 106.649 103.026Z" fill="#E8FBFC"/>
<path opacity="0.3" d="M12.1179 8.49426C12.12 8.78012 12.0912 9.06537 12.032 9.34504C11.8316 8.37638 11.3033 7.50644 10.5362 6.88185C9.76918 6.25727 8.81024 5.91623 7.82106 5.91623C6.83187 5.91623 5.87294 6.25727 5.10588 6.88185C4.33882 7.50644 3.81055 8.37638 3.61012 9.34504C3.55094 9.06537 3.52213 8.78012 3.52418 8.49426C3.52418 7.35466 3.97689 6.26173 4.78271 5.45591C5.58853 4.65009 6.68145 4.19739 7.82106 4.19739C8.96066 4.19739 10.0536 4.65009 10.8594 5.45591C11.6652 6.26173 12.1179 7.35466 12.1179 8.49426Z" fill="#E8FBFC"/>
<path opacity="0.25" d="M12.1179 8.49421C12.1179 9.63382 11.6652 10.7267 10.8594 11.5326C10.0536 12.3384 8.96066 12.7911 7.82106 12.7911C6.68145 12.7911 5.58853 12.3384 4.78271 11.5326C3.97689 10.7267 3.52418 9.63382 3.52418 8.49421C3.52213 8.20835 3.55094 7.92311 3.61012 7.64343C3.81055 8.6121 4.33882 9.48204 5.10588 10.1066C5.87294 10.7312 6.83187 11.0722 7.82106 11.0722C8.81024 11.0722 9.76918 10.7312 10.5362 10.1066C11.3033 9.48204 11.8316 8.6121 12.032 7.64343C12.0912 7.92311 12.12 8.20835 12.1179 8.49421Z" fill="#0F423C"/>
<path opacity="0.25" d="M106.649 8.49421C106.649 9.63382 106.196 10.7267 105.391 11.5326C104.585 12.3384 103.492 12.7911 102.352 12.7911C101.213 12.7911 100.12 12.3384 99.3139 11.5326C98.5081 10.7267 98.0554 9.63382 98.0554 8.49421C98.0533 8.20835 98.0822 7.92311 98.1413 7.64343C98.3418 8.6121 98.87 9.48204 99.6371 10.1066C100.404 10.7312 101.363 11.0722 102.352 11.0722C103.341 11.0722 104.3 10.7312 105.067 10.1066C105.835 9.48204 106.363 8.6121 106.563 7.64343C106.622 7.92311 106.651 8.20835 106.649 8.49421Z" fill="#0F423C"/>
<path opacity="0.3" d="M106.649 8.49426C106.651 8.78012 106.622 9.06537 106.563 9.34504C106.363 8.37638 105.835 7.50644 105.067 6.88185C104.3 6.25727 103.341 5.91623 102.352 5.91623C101.363 5.91623 100.404 6.25727 99.6371 6.88185C98.87 7.50644 98.3418 8.37638 98.1413 9.34504C98.0822 9.06537 98.0533 8.78012 98.0554 8.49426C98.0554 7.35466 98.5081 6.26173 99.3139 5.45591C100.12 4.65009 101.213 4.19739 102.352 4.19739C103.492 4.19739 104.585 4.65009 105.391 5.45591C106.196 6.26173 106.649 7.35466 106.649 8.49426Z" fill="#E8FBFC"/>
<path opacity="0.3" d="M12.1179 103.026C12.12 103.311 12.0912 103.597 12.032 103.876C11.8316 102.908 11.3033 102.038 10.5362 101.413C9.76918 100.789 8.81024 100.447 7.82106 100.447C6.83187 100.447 5.87294 100.789 5.10588 101.413C4.33882 102.038 3.81055 102.908 3.61012 103.876C3.55094 103.597 3.52213 103.311 3.52418 103.026C3.52418 101.886 3.97689 100.793 4.78271 99.9872C5.58853 99.1813 6.68145 98.7286 7.82106 98.7286C8.96066 98.7286 10.0536 99.1813 10.8594 99.9872C11.6652 100.793 12.1179 101.886 12.1179 103.026Z" fill="#E8FBFC"/>
<path opacity="0.25" d="M12.1179 103.025C12.1179 104.165 11.6652 105.258 10.8594 106.064C10.0536 106.87 8.96066 107.322 7.82106 107.322C6.68145 107.322 5.58853 106.87 4.78271 106.064C3.97689 105.258 3.52418 104.165 3.52418 103.025C3.52213 102.74 3.55094 102.454 3.61012 102.175C3.81055 103.143 4.33882 104.013 5.10588 104.638C5.87294 105.262 6.83187 105.603 7.82106 105.603C8.81024 105.603 9.76918 105.262 10.5362 104.638C11.3033 104.013 11.8316 103.143 12.032 102.175C12.0912 102.454 12.12 102.74 12.1179 103.025Z" fill="#0F423C"/>
<path opacity="0.25" d="M106.649 103.025C106.649 104.165 106.196 105.258 105.391 106.064C104.585 106.87 103.492 107.322 102.352 107.322C101.213 107.322 100.12 106.87 99.314 106.064C98.5081 105.258 98.0554 104.165 98.0554 103.025C98.0534 102.74 98.0822 102.454 98.1414 102.175C98.3418 103.143 98.8701 104.013 99.6371 104.638C100.404 105.262 101.363 105.603 102.352 105.603C103.341 105.603 104.3 105.262 105.067 104.638C105.835 104.013 106.363 103.143 106.563 102.175C106.622 102.454 106.651 102.74 106.649 103.025Z" fill="#0F423C"/>
</g>
<defs>
<clipPath id="clip0_475_26110">
<rect width="110" height="110" fill="white" transform="translate(0.0866699 0.759888)"/>
</clipPath>
</defs>
</svg>
