<svg width="90" height="92" viewBox="0 0 90 92" fill="none" xmlns="http://www.w3.org/2000/svg">
<path d="M29.582 30.0275C29.7701 31.9862 30.1092 33.4615 30.1092 33.4615C30.5583 33.4914 31.0284 33.6733 31.379 33.8431C31.7338 31.6362 32.558 31.2347 32.8354 30.0275H29.582Z" fill="#4A1539"/>
<path d="M57.1602 30.0275C57.4465 31.2816 58.2572 31.6155 58.6148 33.8431C59.0567 33.629 59.6884 33.3959 60.2288 33.4722C60.2645 32.2377 60.3422 30.9521 60.4063 30.0276L57.1602 30.0275Z" fill="#4A1539"/>
<path d="M57.3018 0.507812C61.7583 0.700736 65.3562 4.3505 65.4912 8.80859C65.5973 12.3159 63.595 15.3657 60.6602 16.79C60.4349 16.8995 60.2939 17.1241 60.2939 17.3682V24.1758H29.5762C29.5126 24.1758 29.4453 24.1823 29.3711 24.1943L28.791 24.2881V16.8594C28.7909 16.6372 28.6804 16.4367 28.5068 16.3271C26.01 14.7508 24.381 11.9195 24.5107 8.71777C24.69 4.29527 28.2761 0.699039 32.6982 0.507812C34.9602 0.410166 37.0408 1.19144 38.625 2.53711C38.8623 2.73835 39.2138 2.73865 39.4609 2.5293C40.9546 1.26398 42.8881 0.500115 44.999 0.5C47.1101 0.5 49.0443 1.26388 50.5381 2.5293C50.785 2.73854 51.1367 2.73839 51.374 2.53711C52.9583 1.19134 55.0395 0.410052 57.3018 0.507812Z" fill="white" stroke="#011B40"/>
<path d="M41.1077 17.049C41.1077 16.6475 40.9084 16.268 40.5688 16.0537C38.1173 14.5062 36.5203 11.7285 36.6476 8.5869C36.732 6.50389 37.5889 4.60844 38.9358 3.17864C38.7086 3.15877 38.4863 3.0751 38.301 2.9176C36.809 1.65022 34.8508 0.915454 32.7194 1.00756C28.5569 1.18756 25.1793 4.57522 25.0107 8.73825C24.8885 11.7532 26.4214 14.4191 28.774 15.9043C29.0999 16.11 29.2912 16.4742 29.2912 16.8595V23.7002C29.3841 23.6853 29.4787 23.6753 29.5759 23.6753H41.1079V17.049H41.1077Z" fill="white"/>
<path d="M59.5234 32.9379C60.0725 32.884 60.7477 32.9548 61.2354 33.4017C62.2705 34.3507 62.2623 35.5576 61.998 36.5951C61.8664 37.1118 61.666 37.6141 61.4795 38.057C61.2862 38.5163 61.1181 38.8896 61.0166 39.2064C60.8901 39.6017 60.799 40.0078 60.7432 40.4193C60.6628 41.0101 60.3872 41.7475 59.8633 42.2797C59.311 42.8407 58.4997 43.1496 57.4805 42.8422L57.1025 42.7279L57.126 42.3334C57.1484 41.9575 57.1611 41.5757 57.1611 41.1869V41.1527L57.165 41.1185L57.8457 36.1615C57.9483 35.4146 57.9416 34.6593 57.8232 33.9223L57.7715 33.6019L58.0439 33.4242C58.408 33.187 58.9648 32.9927 59.5234 32.9379Z" fill="#EFC597" stroke="#011B40"/>
<path d="M57.6609 41.1866L58.1596 37.5544C58.6224 38.7543 60.2382 38.9733 60.9965 37.916C60.8191 38.3356 60.6469 38.7237 60.5409 39.0545C60.4053 39.4778 60.3076 39.9117 60.2478 40.3518C60.109 41.3743 59.2846 42.8643 57.625 42.3636C57.6482 41.9781 57.6609 41.5861 57.6609 41.1866Z" fill="#DEB282"/>
<path d="M30.4727 32.9379C31.0312 32.9927 31.5881 33.187 31.9521 33.4242L32.2246 33.6019L32.1729 33.9223C32.0006 34.995 32.0908 35.8548 32.2725 37.0844C32.4548 38.3179 32.7236 39.894 32.8701 42.3334L32.8945 42.7279L32.5156 42.8422C31.4967 43.1495 30.686 42.8405 30.1338 42.2797C29.6098 41.7475 29.3332 41.0101 29.2529 40.4193C29.1971 40.0078 29.106 39.6017 28.9795 39.2064C28.8779 38.8896 28.7099 38.5162 28.5166 38.057C28.3301 37.6141 28.1296 37.1118 27.998 36.5951C27.7338 35.5575 27.7262 34.3507 28.7617 33.4017C29.2493 32.9549 29.9237 32.8841 30.4727 32.9379Z" fill="#EFC597" stroke="#011B40"/>
<path d="M32.3356 41.1866L31.8369 37.5544C31.3743 38.7543 29.7583 38.9733 29 37.916C29.1774 38.3356 29.3496 38.7237 29.4556 39.0545C29.5912 39.4778 29.6889 39.9117 29.7487 40.3518C29.8875 41.3743 30.7119 42.8643 32.3715 42.3636C32.3483 41.9781 32.3356 41.5861 32.3356 41.1866Z" fill="#DEB282"/>
<path d="M53.9072 52.7655C53.9602 54.3071 54.1869 56.5475 54.8701 58.0751L55.043 58.4608L54.6904 58.6952C54.6216 58.7409 54.562 58.7839 54.5107 58.8299L54.5117 58.8309L49.1748 63.6366C46.7944 65.7801 43.2019 65.7801 40.8213 63.6366L35.4844 58.8309C35.433 58.7847 35.3738 58.7412 35.3047 58.6952L34.9531 58.4608L35.126 58.0751C35.8092 56.5475 36.0357 54.307 36.0889 52.7655L36.1328 51.4852L36.9678 52.4579C37.7943 53.4208 38.6621 54.2245 39.4883 54.8661C41.0595 56.0863 42.9994 56.7499 44.998 56.7499C46.9967 56.7498 48.9364 56.0863 50.5078 54.8661C51.3339 54.2246 52.2007 53.4208 53.0273 52.4579L53.8623 51.4842L53.9072 52.7655Z" fill="#EFC597" stroke="black"/>
<path d="M46.908 57.0559C46.2832 57.1839 45.6436 57.2502 44.9979 57.2502C42.8887 57.2502 40.8407 56.5502 39.1813 55.2616C38.3295 54.5999 37.4379 53.7725 36.5887 52.7832C36.5353 54.3324 36.3077 56.6566 35.582 58.279C35.6639 58.3334 35.7437 58.3919 35.819 58.4596L41.1559 63.2654C43.0272 64.9505 45.7107 65.1946 47.8187 64.0002C44.5527 63.1394 43.9642 58.7413 46.908 57.0559Z" fill="#DEB282"/>
<path d="M57.5605 29.5275L57.6494 29.9161C57.7474 30.3452 57.8641 30.5607 58.0234 30.8292C58.1978 31.1231 58.4228 31.4777 58.6738 32.1329C59.1835 33.4627 59.3279 34.8978 59.1357 36.298L58.459 41.2238C58.4458 48.5248 54.5437 53.4908 51.2256 56.0675C49.4482 57.448 47.2548 58.1964 44.9971 58.1964C42.7397 58.1963 40.547 57.4477 38.7695 56.0675C35.4508 53.4905 31.547 48.5231 31.5352 41.2198C31.4419 40.2348 31.3136 39.3692 31.1885 38.5743C31.0636 37.7811 30.9396 37.0434 30.8633 36.3439C30.7085 34.9249 30.744 33.616 31.3369 32.0929L31.5166 31.6671C31.6911 31.2879 31.848 31.0362 31.9766 30.8185C32.1346 30.5509 32.2514 30.3339 32.3477 29.9152L32.4365 29.5275H57.5605Z" fill="#FFD8B7" stroke="#011B40"/>
<path d="M44.15 55.6724C41.7495 53.159 38.9275 48.3143 38.9275 41.1866L38.4227 36.2287C38.2203 34.2416 38.5842 32.39 39.1819 31.1257C39.3423 30.7863 39.455 30.4144 39.5209 30.0275H32.8349C32.6112 31.0013 32.2628 31.0927 31.8026 32.2743C30.6934 35.1237 31.6554 37.1608 32.0348 41.1866C32.0348 48.3143 35.8397 53.159 39.0762 55.6724C41.2974 57.3973 44.205 58.0873 47.0324 57.4799C45.9879 57.1774 45.0011 56.5638 44.15 55.6724Z" fill="#EFC597"/>
<path d="M37.1009 24.9409C36.4843 24.9409 35.9844 24.4411 35.9844 23.8243V19.2092C35.9844 18.5925 36.4843 18.0926 37.1009 18.0926C37.7176 18.0926 38.2175 18.5924 38.2175 19.2092V23.8243C38.2175 24.4411 37.7176 24.9409 37.1009 24.9409Z" fill="#06B9A3"/>
<path d="M44.9994 24.9409C44.3827 24.9409 43.8828 24.4411 43.8828 23.8243V19.2092C43.8828 18.5925 44.3827 18.0926 44.9994 18.0926C45.616 18.0926 46.1159 18.5924 46.1159 19.2092V23.8243C46.1159 24.4411 45.616 24.9409 44.9994 24.9409Z" fill="#06B9A3"/>
<path d="M52.8939 24.9409C52.2773 24.9409 51.7773 24.4411 51.7773 23.8243V19.2092C51.7773 18.5925 52.2773 18.0926 52.8939 18.0926C53.5105 18.0926 54.0105 18.5924 54.0105 19.2092V23.8243C54.0105 24.4411 53.5105 24.9409 52.8939 24.9409Z" fill="#06B9A3"/>
<path d="M29.5752 23.8778H60.4229C61.1291 23.8778 61.7098 24.4577 61.71 25.164V28.3896C61.71 29.0959 61.1293 29.6767 60.4229 29.6767H29.5752C28.869 29.6765 28.2891 29.0959 28.2891 28.3896V25.164C28.2892 24.4578 28.869 23.878 29.5752 23.8778Z" fill="url(#paint0_linear_806_8710)" stroke="black"/>
<path d="M47.9688 26.7895C47.9688 25.4771 47.393 24.4032 46.6892 24.4032H43.303C42.5992 24.4032 42.0234 25.477 42.0234 26.7895C42.0234 28.102 42.5992 29.1759 43.303 29.1759H46.6892C47.393 29.1759 47.9688 28.102 47.9688 26.7895Z" fill="#06B9A3"/>
<mask id="path-18-outside-1_806_8710" maskUnits="userSpaceOnUse" x="9.33984" y="57.8634" width="72" height="35" fill="black">
<rect fill="white" x="9.33984" y="57.8634" width="72" height="35"/>
<path d="M57.167 59.8634C59.9909 60.6877 62.9301 62.1425 65.5352 63.6115C66.8139 64.3325 67.3915 64.7543 68.4766 64.8429C74.8016 65.36 78.0277 69.239 79.6514 73.5021V90.9845C78.5472 90.9845 42.8012 90.9555 41.7148 90.8742C34.2696 90.9707 24.2219 90.9906 15.9893 90.9953C15.9905 90.9975 15.9919 90.9998 15.9932 91.0021C14.7345 91.0021 13.6605 90.9995 12.5312 90.9972C11.7755 90.9973 11.0438 90.9982 10.3408 90.9982C10.3409 90.2083 10.3406 88.6517 10.3408 86.754C10.3404 81.8981 10.3398 75.0511 10.3398 73.4992C11.964 69.2344 15.191 65.3535 21.5186 64.8361C21.7356 64.8183 21.9321 64.7863 22.1182 64.7423C22.1144 64.7453 22.1102 64.7481 22.1064 64.7511C22.8561 64.5761 23.4309 64.1911 24.459 63.6115C27.0641 62.1425 30.0034 60.6877 32.8271 59.8634C32.9228 60.231 33.1225 60.5755 33.4258 60.8488C37.6115 64.5699 38.5791 66.4746 41.7148 67.5978C42.7749 67.9775 43.8858 68.1701 44.9971 68.1701C47.3321 68.1701 49.6674 67.332 51.5293 65.6554L56.5684 60.8488C56.8717 60.5755 57.0714 60.231 57.167 59.8634Z"/>
</mask>
<path d="M57.167 59.8634C59.9909 60.6877 62.9301 62.1425 65.5352 63.6115C66.8139 64.3325 67.3915 64.7543 68.4766 64.8429C74.8016 65.36 78.0277 69.239 79.6514 73.5021V90.9845C78.5472 90.9845 42.8012 90.9555 41.7148 90.8742C34.2696 90.9707 24.2219 90.9906 15.9893 90.9953C15.9905 90.9975 15.9919 90.9998 15.9932 91.0021C14.7345 91.0021 13.6605 90.9995 12.5312 90.9972C11.7755 90.9973 11.0438 90.9982 10.3408 90.9982C10.3409 90.2083 10.3406 88.6517 10.3408 86.754C10.3404 81.8981 10.3398 75.0511 10.3398 73.4992C11.964 69.2344 15.191 65.3535 21.5186 64.8361C21.7356 64.8183 21.9321 64.7863 22.1182 64.7423C22.1144 64.7453 22.1102 64.7481 22.1064 64.7511C22.8561 64.5761 23.4309 64.1911 24.459 63.6115C27.0641 62.1425 30.0034 60.6877 32.8271 59.8634C32.9228 60.231 33.1225 60.5755 33.4258 60.8488C37.6115 64.5699 38.5791 66.4746 41.7148 67.5978C42.7749 67.9775 43.8858 68.1701 44.9971 68.1701C47.3321 68.1701 49.6674 67.332 51.5293 65.6554L56.5684 60.8488C56.8717 60.5755 57.0714 60.231 57.167 59.8634Z" fill="#EEF9FC"/>
<path d="M57.167 59.8634L57.4472 58.9035L56.4584 58.6149L56.1992 59.6117L57.167 59.8634ZM65.5352 63.6115L65.044 64.4825L65.044 64.4825L65.5352 63.6115ZM68.4766 64.8429L68.558 63.8462L68.5579 63.8462L68.4766 64.8429ZM79.6514 73.5021H80.6514V73.3181L80.5859 73.1462L79.6514 73.5021ZM79.6514 90.9845V91.9845H80.6514V90.9845H79.6514ZM41.7148 90.8742L41.7895 89.877L41.7458 89.8737L41.7019 89.8742L41.7148 90.8742ZM15.9893 90.9953L15.9887 89.9953L14.3056 89.9962L15.1113 91.4739L15.9893 90.9953ZM15.9932 91.0021V92.0021H17.68L16.8705 90.5222L15.9932 91.0021ZM12.5312 90.9972L12.5333 89.9972H12.5311L12.5312 90.9972ZM10.3408 90.9982L9.34082 90.9981L9.34076 91.9982H10.3408V90.9982ZM10.3408 86.754L11.3408 86.7542V86.754L10.3408 86.754ZM10.3398 73.4992L9.40531 73.1433L9.33985 73.3152L9.33984 73.4991L10.3398 73.4992ZM21.5186 64.8361L21.6001 65.8327L21.6001 65.8327L21.5186 64.8361ZM22.1182 64.7423L22.7437 65.5225L21.8882 63.7691L22.1182 64.7423ZM22.1064 64.7511L21.4791 63.9724L22.3338 65.7249L22.1064 64.7511ZM24.459 63.6115L24.9501 64.4825L24.9502 64.4825L24.459 63.6115ZM32.8271 59.8634L33.7949 59.6117L33.5356 58.6149L32.5469 58.9035L32.8271 59.8634ZM33.4258 60.8488L32.7564 61.5917L32.7614 61.5961L33.4258 60.8488ZM41.7148 67.5978L41.3776 68.5392L41.3777 68.5392L41.7148 67.5978ZM44.9971 68.1701L44.9971 69.1701H44.9971V68.1701ZM51.5293 65.6554L52.1985 66.3985L52.2091 66.3889L52.2195 66.379L51.5293 65.6554ZM56.5684 60.8488L55.8991 60.1058L55.8885 60.1153L55.8781 60.1252L56.5684 60.8488ZM57.167 59.8634L56.8868 60.8234C59.6012 61.6156 62.4622 63.0267 65.044 64.4825L65.5352 63.6115L66.0263 62.7404C63.398 61.2583 60.3806 59.7597 57.4472 58.9035L57.167 59.8634ZM65.5352 63.6115L65.044 64.4825C66.2263 65.1492 67.036 65.7286 68.3952 65.8396L68.4766 64.8429L68.5579 63.8462C67.7469 63.78 67.4015 63.5158 66.0263 62.7404L65.5352 63.6115ZM68.4766 64.8429L68.3951 65.8396C71.355 66.0816 73.5386 67.1013 75.1703 68.5219C76.8137 69.9527 77.9457 71.8334 78.7169 73.858L79.6514 73.5021L80.5859 73.1462C79.7333 70.9077 78.4406 68.7173 76.4836 67.0135C74.5151 65.2996 71.9232 64.1213 68.558 63.8462L68.4766 64.8429ZM79.6514 73.5021H78.6514V90.9845H79.6514H80.6514V73.5021H79.6514ZM79.6514 90.9845V89.9845C79.1001 89.9845 69.8883 89.9773 60.6783 89.9599C56.0733 89.9511 51.4696 89.9399 47.9495 89.9257C46.1892 89.9187 44.701 89.9109 43.6195 89.9023C43.0784 89.898 42.6408 89.8936 42.3223 89.8889C42.1629 89.8866 42.0354 89.8843 41.9406 89.8819C41.8932 89.8808 41.8559 89.8797 41.8279 89.8786C41.797 89.8775 41.787 89.8768 41.7895 89.877L41.7148 90.8742L41.6401 91.8714C41.9585 91.8952 44.4573 91.9117 47.9414 91.9257C51.4637 91.9399 56.0692 91.9511 60.6745 91.9599C69.8852 91.9773 79.0984 91.9845 79.6514 91.9845V90.9845ZM41.7148 90.8742L41.7019 89.8742C34.2637 89.9707 24.2219 89.9906 15.9887 89.9953L15.9893 90.9953L15.9898 91.9953C24.222 91.9906 34.2755 91.9707 41.7278 91.8741L41.7148 90.8742ZM15.9893 90.9953L15.1113 91.4739C15.1162 91.483 15.1204 91.4903 15.123 91.4949C15.1255 91.4992 15.1276 91.5029 15.1277 91.503C15.1284 91.5043 15.127 91.5018 15.1253 91.4989C15.1234 91.4956 15.12 91.4896 15.1158 91.482L15.9932 91.0021L16.8705 90.5222C16.8657 90.5134 16.8616 90.5063 16.8591 90.5019C16.8578 90.4996 16.8567 90.4978 16.856 90.4965C16.8554 90.4954 16.8548 90.4944 16.8547 90.4943C16.8541 90.4933 16.8556 90.4959 16.8574 90.4991C16.8594 90.5025 16.8629 90.5087 16.8672 90.5166L15.9893 90.9953ZM15.9932 91.0021V90.0021C14.7358 90.0021 13.663 89.9995 12.5333 89.9972L12.5312 90.9972L12.5292 91.9972C13.6581 91.9995 14.7333 92.0021 15.9932 92.0021V91.0021ZM12.5312 90.9972L12.5311 89.9972C11.7716 89.9973 11.0461 89.9982 10.3408 89.9982V90.9982V91.9982C11.0415 91.9982 11.7794 91.9973 12.5314 91.9972L12.5312 90.9972ZM10.3408 90.9982L11.3408 90.9982C11.3409 90.2078 11.3406 88.652 11.3408 86.7542L10.3408 86.754L9.34082 86.7539C9.3406 88.6514 9.34087 90.2088 9.34082 90.9981L10.3408 90.9982ZM10.3408 86.754L11.3408 86.754C11.3404 81.898 11.3398 75.051 11.3398 73.4992L10.3398 73.4992L9.33984 73.4991C9.33981 75.0511 9.34038 81.8982 9.34082 86.7541L10.3408 86.754ZM10.3398 73.4992L11.2744 73.855C12.0457 71.8295 13.1782 69.948 14.8221 68.5165C16.4544 67.0952 18.6389 66.0749 21.6001 65.8327L21.5186 64.8361L21.4371 63.8394C18.0706 64.1147 15.4778 65.2936 13.5087 67.0082C11.5512 68.7127 10.2581 70.904 9.40531 73.1433L10.3398 73.4992ZM21.5186 64.8361L21.6001 65.8327C21.8669 65.8109 22.1131 65.7711 22.3481 65.7155L22.1182 64.7423L21.8882 63.7691C21.7512 63.8015 21.6042 63.8257 21.437 63.8394L21.5186 64.8361ZM22.1182 64.7423L21.4926 63.9621C21.5045 63.9526 21.514 63.9454 21.519 63.9417C21.5216 63.9398 21.5237 63.9383 21.5246 63.9376C21.5254 63.937 21.5261 63.9365 21.5253 63.9371C21.5249 63.9374 21.5232 63.9387 21.5212 63.9401C21.519 63.9417 21.5159 63.944 21.5121 63.9468C21.5049 63.9522 21.4931 63.9611 21.4791 63.9724L22.1064 64.7511L22.7338 65.5299C22.7216 65.5396 22.7118 65.547 22.7065 65.551C22.7037 65.5531 22.7016 65.5546 22.7005 65.5555C22.6994 65.5562 22.6987 65.5568 22.6993 65.5563C22.6995 65.5562 22.7012 65.555 22.703 65.5536C22.7049 65.5522 22.708 65.55 22.7115 65.5473C22.7185 65.5422 22.73 65.5335 22.7437 65.5225L22.1182 64.7423ZM22.1064 64.7511L22.3338 65.7249C23.264 65.5077 24.0153 65.0096 24.9501 64.4825L24.459 63.6115L23.9678 62.7404C22.8466 63.3726 22.4482 63.6444 21.879 63.7773L22.1064 64.7511ZM24.459 63.6115L24.9502 64.4825C27.5319 63.0267 30.3931 61.6156 33.1074 60.8234L32.8271 59.8634L32.5469 58.9035C29.6137 59.7597 26.5962 61.2583 23.9678 62.7404L24.459 63.6115ZM32.8271 59.8634L31.8594 60.1152C32.0024 60.665 32.3023 61.1825 32.7564 61.5917L33.4258 60.8488L34.0952 60.1059C33.9427 59.9685 33.8432 59.797 33.7949 59.6117L32.8271 59.8634ZM33.4258 60.8488L32.7614 61.5961C34.8718 63.4723 36.0289 64.7574 37.2811 65.928C38.4987 67.0662 39.639 67.9164 41.3776 68.5392L41.7148 67.5978L42.0521 66.6564C40.6549 66.1559 39.7436 65.4921 38.647 64.467C37.585 63.4742 36.1655 61.9463 34.0902 60.1014L33.4258 60.8488ZM41.7148 67.5978L41.3777 68.5392C42.5454 68.9575 43.7703 69.1701 44.9971 69.1701L44.9971 68.1701L44.9971 67.1701C44.0013 67.1701 43.0045 66.9975 42.052 66.6564L41.7148 67.5978ZM44.9971 68.1701V69.1701C47.572 69.1701 50.1476 68.2453 52.1985 66.3985L51.5293 65.6554L50.8601 64.9123C49.1872 66.4187 47.0923 67.1701 44.9971 67.1701V68.1701ZM51.5293 65.6554L52.2195 66.379L57.2586 61.5724L56.5684 60.8488L55.8781 60.1252L50.8391 64.9318L51.5293 65.6554ZM56.5684 60.8488L57.2377 61.5918C57.6919 61.1825 57.9918 60.6649 58.1348 60.1151L57.167 59.8634L56.1992 59.6117C56.151 59.7971 56.0515 59.9684 55.8991 60.1058L56.5684 60.8488Z" fill="black" mask="url(#path-18-outside-1_806_8710)"/>
<path d="M33.4246 60.8491C33.1212 60.5757 32.9214 60.231 32.8257 59.8633C30.002 60.6875 27.0631 62.1427 24.458 63.6117C23.1792 64.3327 22.6019 64.7539 21.5167 64.8425C15.1914 65.3596 11.9651 69.2388 10.3416 73.502C10.3416 77.5792 10.34 88.4086 10.3398 90.9981C19.1524 90.9981 32.4481 90.9944 41.7136 90.8743V67.598C38.5778 66.4748 37.6103 64.5702 33.4246 60.8491Z" fill="white"/>
<path d="M22.1184 64.7426C21.9324 64.7865 21.7363 64.8182 21.5193 64.8359C15.1915 65.3533 11.964 69.2341 10.3398 73.499C10.3398 75.6328 10.3413 87.7815 10.3413 90.9942C12.4156 90.9942 13.9648 91.002 15.9937 91.002C15.9937 81.7576 15.9937 69.9364 22.1184 64.7426Z" fill="#CAE6EE"/>
<path d="M79.6511 90.9846C79.6511 89.6343 79.6511 82.5697 79.6511 73.5021C78.0274 69.2389 74.8013 65.3596 68.476 64.8426C67.3909 64.754 66.8134 64.3328 65.5346 63.6118C62.9295 62.1428 59.9908 60.6877 57.1669 59.8634C57.0713 60.2312 56.8714 60.5759 56.5678 60.8492L51.5287 65.6551C49.6668 67.3317 47.3319 68.17 44.9969 68.17C43.8856 68.17 42.775 67.9778 41.7148 67.5981V90.8746C42.7982 90.956 78.5468 90.9846 79.6511 90.9846Z" fill="#EEF9FC"/>
<path d="M47.5536 85.3458C48.6123 85.3458 49.4705 84.4876 49.4705 83.4289C49.4705 82.3702 48.6123 81.512 47.5536 81.512C46.4949 81.512 45.6367 82.3702 45.6367 83.4289C45.6367 84.4876 46.4949 85.3458 47.5536 85.3458Z" fill="#632855"/>
<path d="M44.9985 68.4696C42.6636 68.4696 40.3285 67.6313 38.4667 65.9547L33.1298 61.1488C32.305 60.406 32.2384 59.1353 32.9811 58.3103C33.7239 57.4856 34.9948 57.4193 35.8196 58.1618L41.1565 62.9677C43.3469 64.9399 46.6503 64.9399 48.8406 62.9677L54.1775 58.1618C55.0022 57.4191 56.2731 57.4856 57.0158 58.3103C57.7585 59.1353 57.692 60.406 56.8671 61.1488L51.5302 65.9547C49.6685 67.6313 47.3334 68.4696 44.9985 68.4696Z" fill="#FF738D"/>
<path d="M46.626 67.3525C45.9086 66.9501 45.0111 67.4684 45.0009 68.2908C44.9423 72.9794 47.8694 78.082 51.9871 80.3913C52.7045 80.7936 53.602 80.2754 53.6122 79.4529C53.6707 74.7647 50.7436 69.6619 46.626 67.3525Z" fill="#FF738D"/>
<path d="M53.2463 48.5943C52.6734 48.3433 51.9353 47.8255 51.6289 47.1881C50.727 45.3109 49.6574 42.2841 45.2367 44.0604C45.0827 44.1223 44.9116 44.1223 44.7577 44.0604C40.3369 42.2841 39.2673 45.3111 38.3654 47.1881C38.059 47.8255 37.3209 48.3433 36.748 48.5943C36.4973 48.7042 36.481 49.0622 36.7255 49.1855C38.4137 50.037 42.6815 48.7761 44.6054 47.2603C44.8366 47.078 45.1577 47.078 45.3891 47.2603C47.3128 48.7763 51.5808 50.037 53.269 49.1855C53.5133 49.0621 53.4972 48.7042 53.2463 48.5943Z" fill="#284268"/>
<path d="M49.1132 44.0826C49.2763 44.0826 49.4355 44.0994 49.5901 44.1291C48.6619 43.4538 47.3225 43.2221 45.2367 44.0602C45.0827 44.1223 44.9116 44.1223 44.7577 44.0602C40.3369 42.2841 39.2673 45.3109 38.3654 47.1879C38.059 47.8253 37.3209 48.3431 36.748 48.5943C36.4973 48.7042 36.481 49.0623 36.7255 49.1855C38.4137 50.037 42.6815 48.7761 44.6054 47.2603C44.8366 47.078 45.1577 47.078 45.3891 47.2603C45.9168 47.676 46.6213 48.0723 47.4 48.4113C45.748 46.859 46.8554 44.0826 49.1132 44.0826Z" fill="#284268"/>
<path d="M50.0665 37.9725C50.8497 37.9725 51.4846 37.3376 51.4846 36.5544C51.4846 35.7712 50.8497 35.1364 50.0665 35.1364C49.2833 35.1364 48.6484 35.7712 48.6484 36.5544C48.6484 37.3376 49.2833 37.9725 50.0665 37.9725Z" fill="#284268"/>
<path d="M38.9415 37.9725C39.7247 37.9725 40.3596 37.3376 40.3596 36.5544C40.3596 35.7712 39.7247 35.1364 38.9415 35.1364C38.1583 35.1364 37.5234 35.7712 37.5234 36.5544C37.5234 37.3376 38.1583 37.9725 38.9415 37.9725Z" fill="#284268"/>
<path d="M49.1298 62.7073L48.8406 62.9678C46.6504 64.9401 43.3469 64.9401 41.1565 62.9678L35.8196 58.162C34.9949 57.4195 33.7241 57.4857 32.9811 58.3105C32.2384 59.1354 32.3049 60.4062 33.1298 61.149L38.4667 65.9549C40.3286 67.6315 42.6635 68.4698 44.9986 68.4698C49.0858 68.4698 51.5547 65.9109 51.6301 65.8651C49.8087 66.2381 48.3544 64.3771 49.1298 62.7073Z" fill="#FF3C63"/>
<path d="M51.4714 72.1543C50.165 70.0218 48.4483 68.3745 46.626 67.3525C45.9086 66.9501 45.0111 67.4684 45.0009 68.2908C44.975 70.3614 45.5321 72.6493 46.7042 74.8295C46.4043 72.1849 49.4327 70.5639 51.4714 72.1543Z" fill="#FF3C63"/>
<path d="M43.3738 67.3525C44.0912 66.9501 44.9887 67.4684 44.9989 68.2908C45.0575 72.9794 42.1304 78.082 38.0127 80.3913C37.2953 80.7936 36.3978 80.2754 36.3876 79.4529C36.329 74.7647 39.256 69.6619 43.3738 67.3525Z" fill="#FF738D"/>
<path d="M38.5273 72.1543C39.8338 70.0218 41.5504 68.3745 43.3728 67.3525C44.0901 66.9501 44.9877 67.4684 44.9979 68.2908C45.0237 70.3614 44.4666 72.6493 43.2945 74.8295C43.593 72.1977 40.5741 70.5575 38.5273 72.1543Z" fill="#FF3C63"/>
<path d="M46.6399 69.7777C48.2096 68.8714 48.7474 66.8642 47.8411 65.2945C46.9348 63.7248 44.9276 63.187 43.3578 64.0933C41.7881 64.9996 41.2503 67.0068 42.1566 68.5765C43.0629 70.1462 45.0701 70.684 46.6399 69.7777Z" fill="#FFA6B7"/>
<path d="M44.9975 66.9371C44.3903 65.8856 44.4341 64.6393 44.9989 63.6578C44.4406 63.6569 43.8748 63.7958 43.3564 64.0949C41.7867 65.0013 41.2488 67.0083 42.1551 68.5782C43.0614 70.148 45.0687 70.6858 46.6384 69.7795C47.1568 69.4803 47.5597 69.0595 47.8383 68.5756C46.7057 68.5738 45.6045 67.9885 44.9975 66.9371Z" fill="#FF738D"/>
<defs>
<linearGradient id="paint0_linear_806_8710" x1="27.7891" y1="26.7771" x2="62.2095" y2="26.7771" gradientUnits="userSpaceOnUse">
<stop stop-color="#CAE6EE"/>
<stop offset="0.3125" stop-color="white"/>
<stop offset="0.663462" stop-color="white"/>
</linearGradient>
</defs>
</svg>
