<svg viewBox="0 0 86.0299 90" fill="none" xmlns="http://www.w3.org/2000/svg" xmlns:xlink="http://www.w3.org/1999/xlink" x="0" y="0"><g id="Group 1000004165">
<path id="Vector_123" d="M61.3526,55.023c-0.805,-0.192 -1.567,-0.419 -2.354,-0.677l-4.274,-1.731c-0.732,-0.336 -1.407,-0.693 -2.088,-1.066l-2.669,-1.46l-13.905,0.382l-3.261,1.636c-0.494,0.249 -0.948,0.483 -1.496,0.704l-4.274,1.57c-0.789,0.236 -1.568,0.45 -2.372,0.642c-2.905,0.702 -5.491,2.361 -7.339,4.71c-1.848,2.35 -2.851,5.253 -2.848,8.242v11.964h57.084v-11.964c0,-2.991 -1.007,-5.894 -2.858,-8.244c-1.851,-2.349 -4.439,-4.007 -7.346,-4.708z" fill="#6994FE"/>
<path id="Vector_124" d="M36.0626,50.471l-3.261,1.636c-0.494,0.249 -0.948,0.483 -1.496,0.704l-4.274,1.57c-0.789,0.236 -1.568,0.45 -2.372,0.642c-2.905,0.702 -5.491,2.361 -7.339,4.71c-1.848,2.35 -2.851,5.253 -2.848,8.242v11.964h5.489v-11.964c-0.003,-2.989 1,-5.892 2.848,-8.242c1.848,-2.349 4.433,-4.008 7.339,-4.71c0.803,-0.192 1.583,-0.406 2.371,-0.642l4.274,-1.57c0.549,-0.221 1.003,-0.455 1.497,-0.704l3.064,-1.781z" fill="#5682D8"/>
<path id="Vector_125" d="M59.2656,33.919c0.064,0.451 -0.001,0.911 -0.187,1.328c-0.186,0.416 -0.485,0.771 -0.864,1.025c-0.379,0.254 -0.822,0.396 -1.278,0.409c-0.455,0.014 -0.906,-0.102 -1.299,-0.333h-0.392v-3.82h0.392c0.336,-0.341 0.78,-0.554 1.256,-0.602c0.476,-0.048 0.954,0.072 1.351,0.339c0.276,0.19 0.508,0.435 0.684,0.72c0.176,0.284 0.291,0.602 0.337,0.934z" fill="#EFC597"/>
<path id="Vector_126" d="M55.6096,10.154c0,0.689 -0.078,1.376 -0.233,2.047c-2.155,-2.589 -5.245,-4.223 -8.598,-4.546c-3.353,-0.324 -6.698,0.689 -9.308,2.819c-0.004,-0.106 -0.006,-0.212 -0.006,-0.32c0,-2.406 0.956,-4.714 2.657,-6.415c1.702,-1.702 4.009,-2.658 6.415,-2.658c2.407,0 4.714,0.956 6.415,2.658c1.702,1.701 2.658,4.009 2.658,6.415z" fill="#6D7486"/>
<path id="Vector_127" d="M45.5506,7.596c-2.946,-0.004 -5.802,1.013 -8.082,2.878c0.035,1.031 0.249,2.049 0.633,3.008c0.48,-0.088 0.966,-0.135 1.453,-0.141h2.124l11.616,2.845c1.02,-1.134 1.736,-2.509 2.081,-3.994c-1.199,-1.442 -2.702,-2.601 -4.4,-3.395c-1.698,-0.794 -3.551,-1.205 -5.425,-1.201z" fill="#4A5160"/>
<path id="Vector_128" d="M31.3096,32.528v3.82h-0.417c-0.541,0.317 -1.184,0.413 -1.793,0.266c-0.61,-0.147 -1.139,-0.524 -1.477,-1.052c-0.337,-0.529 -0.456,-1.168 -0.333,-1.782c0.124,-0.615 0.481,-1.158 0.996,-1.515c0.397,-0.267 0.875,-0.387 1.351,-0.339c0.476,0.048 0.92,0.261 1.256,0.602z" fill="#EFC597"/>
<path id="Vector_129" d="M14.4726,79.939h57.084v8.965h-57.084z" fill="#FFD8B7"/>
<path id="Vector_130" d="M53.3106,16.204c-0.993,-1.394 -2.272,-2.56 -3.752,-3.42c-1.48,-0.86 -3.126,-1.394 -4.828,-1.568c-0.055,-0.005 -0.113,-0.009 -0.168,-0.009c-0.328,-0.003 -0.649,0.096 -0.92,0.282c-0.27,0.185 -0.477,0.45 -0.591,0.758c-0.067,0.312 -0.24,0.592 -0.49,0.791c-0.25,0.2 -0.561,0.307 -0.88,0.303h-2.125c-2.281,0.028 -4.46,0.95 -6.071,2.566c-1.61,1.616 -2.524,3.799 -2.544,6.08v6.313l24.7,1.405v-6.219c0.005,-2.612 -0.811,-5.159 -2.331,-7.282z" fill="#6D7486"/>
<path id="Vector_131" d="M36.1266,47.725l-0.064,0.013v9.47c0.86,1.002 1.927,1.806 3.127,2.357c1.2,0.552 2.505,0.837 3.825,0.837c1.321,0 2.626,-0.285 3.826,-0.837c1.2,-0.551 2.267,-1.355 3.127,-2.357v-9.146z" fill="#EFC597"/>
<path id="Vector_132" d="M45.8486,20.329c-4.761,6.72 -10.882,7.769 -14.907,7.971v9.324c-0.003,1.625 0.316,3.235 0.936,4.737c0.621,1.502 1.532,2.866 2.681,4.016c0.49,0.49 1.019,0.939 1.582,1.343c1.847,1.311 4.018,2.089 6.278,2.25c2.259,0.16 4.519,-0.305 6.532,-1.343c2.013,-1.037 3.702,-2.609 4.882,-4.542c1.18,-1.934 1.806,-4.154 1.809,-6.419v-7.938c-2.013,-6.741 -9.793,-9.399 -9.793,-9.399z" fill="#FFD8B7"/>
<path id="Vector_133" d="M58.8196,66.583c0.024,0 0.032,0.003 0.056,0.004l0.055,-0.002v-12.253l-4.188,-1.716c-0.024,-0.011 -0.02,-0.023 -0.02,-0.034v14.001z" fill="#B8D2D8"/>
<path id="Vector_134" d="M27.0816,66.597c0.042,-0.009 0.084,-0.013 0.126,-0.014h4.096v-13.801c0,0.009 0.005,0.02 -0.018,0.029l-4.19,1.557v12.217z" fill="#B8D2D8"/>
<path id="Vector_135" d="M59.5136,66.896c-0.009,-0.171 -0.078,-0.332 -0.196,-0.456c-0.117,-0.123 -0.275,-0.201 -0.445,-0.219c-0.023,-0.001 -0.063,-0.004 -0.087,-0.004h-31.576c-0.047,0.001 -0.094,0.005 -0.141,0.014c-0.153,0.033 -0.29,0.116 -0.39,0.237c-0.1,0.12 -0.157,0.271 -0.161,0.427l-1.615,22.009h36.226z" fill="#CAE6EE"/>
<path id="Vector_136" d="M53.1356,88.862v0.042h-18.538v-9.902c2.856,1.506 6.036,2.296 9.265,2.302c3.229,0.006 6.411,-0.772 9.273,-2.267z" fill="#B8D2D8"/>
<path id="Vector_137" d="M14.4726,79.939h5.489v8.965h-5.489z" fill="#D3AE92"/>
<path id="Vector_138" d="M52.4666,22.505v30.103c0,2.006 -0.797,3.93 -2.215,5.348c-1.418,1.418 -3.342,2.215 -5.348,2.215h-30.243c-2.005,0 -3.928,-0.796 -5.346,-2.213c-1.418,-1.418 -2.216,-3.34 -2.217,-5.345l-0.023,-34.563c0,-9.454 45.392,0.058 45.392,4.455z" fill="#707077"/>
<path id="Vector_139" d="M10.8556,18.049l0.025,34.565c0.001,2.005 0.799,3.927 2.217,5.344c1.418,1.417 3.341,2.213 5.346,2.213h-3.782c-2.005,0 -3.927,-0.796 -5.346,-2.213c-1.418,-1.417 -2.215,-3.339 -2.217,-5.344l-0.024,-34.565c0,-9.316 3.781,-7.425 3.781,0z" fill="#66666B"/>
<path id="Vector_140" d="M21.2696,56.911h17.017v15.127h-17.017z" fill="#FFD8B7"/>
<path id="Vector_141" d="M21.2696,57.479v14.559h5.672v-5.784c0.007,-0.963 0.377,-1.888 1.038,-2.588c0.661,-0.701 1.563,-1.125 2.524,-1.187c1.219,-0.093 2.408,-0.422 3.502,-0.969l4.281,-2.14v-1.891z" fill="#F2BD90"/>
<path id="Vector_142" d="M48.6876,37.342h1.891c1.003,0 1.964,0.398 2.674,1.108c0.709,0.709 1.107,1.671 1.107,2.674c0,1.003 -0.398,1.964 -1.107,2.674c-0.71,0.709 -1.671,1.107 -2.674,1.107h-1.891z" fill="#FFD8B7"/>
<path id="Vector_143" d="M51.9016,41.124c0,0.904 -0.325,1.779 -0.915,2.465c-0.589,0.686 -1.405,1.138 -2.299,1.275v0.041h1.891c1.003,0 1.964,-0.398 2.674,-1.107c0.709,-0.71 1.107,-1.671 1.107,-2.674c0,-1.003 -0.398,-1.965 -1.107,-2.674c-0.71,-0.71 -1.671,-1.108 -2.674,-1.108h-1.891v0.042c0.894,0.135 1.711,0.587 2.301,1.274c0.589,0.686 0.913,1.561 0.913,2.466z" fill="#F2BD90"/>
<path id="Vector_144" d="M17.1426,55.415l8.408,4.204c1.313,0.657 2.76,0.998 4.228,0.998c1.468,0 2.915,-0.341 4.228,-0.998l8.409,-4.204c1.884,-0.942 3.469,-2.391 4.577,-4.183c1.107,-1.792 1.694,-3.857 1.694,-5.964v-7.926l-1.891,-10.49c-12.605,-11.943 -21.429,-11.943 -34.034,0l-1.891,10.49v7.926c0,2.107 0.587,4.172 1.695,5.964c1.107,1.792 2.692,3.241 4.577,4.183z" fill="#FFD8B7"/>
<path id="Vector_145" d="M30.2686,51.294c-1.065,0 -2.066,-0.415 -2.819,-1.168c-0.292,-0.291 -0.292,-0.764 0,-1.056c0.291,-0.291 0.764,-0.292 1.056,0c0.471,0.471 1.097,0.731 1.763,0.731c0.666,0 1.293,-0.26 1.764,-0.731c0.291,-0.292 0.764,-0.291 1.056,0c0.291,0.292 0.291,0.765 0,1.056c-0.753,0.753 -1.755,1.168 -2.82,1.168z" fill="#284268"/>
<path id="Vector_146" d="M14.6526,37.342v16.379c-1.19,-1.063 -2.141,-2.366 -2.793,-3.823c-0.652,-1.457 -0.988,-3.034 -0.989,-4.63v-7.926z" fill="#F2BD90"/>
<path id="Vector_147" d="M10.8706,44.905h-1.89c-1.003,0 -1.965,-0.398 -2.674,-1.107c-0.709,-0.709 -1.108,-1.671 -1.108,-2.674c0,-1.003 0.399,-1.965 1.108,-2.674c0.709,-0.709 1.671,-1.108 2.674,-1.108h1.89z" fill="#FFD8B7"/>
<path id="Vector_148" d="M10.8706,37.342l3.192,2.553c0.139,0.111 0.306,0.18 0.483,0.201c0.177,0.02 0.356,-0.01 0.516,-0.087c0.161,-0.077 0.296,-0.198 0.391,-0.349c0.095,-0.15 0.145,-0.325 0.145,-0.503v-11.36h-4.727z" fill="#707077"/>
<path id="Vector_149" d="M8.9806,37.342h1.891v7.563h-1.891z" fill="#F2BD90"/>
<path id="Vector_150" d="M15.0816,29.688h-3.971v-11.345h13.425v1.891c0,2.507 -0.996,4.912 -2.769,6.685c-1.773,1.773 -4.178,2.769 -6.685,2.769z" fill="#787780"/>
<path id="Vector_151" d="M36.4536,29.585l12.233,1.994v-5.673c0,-3.009 -1.195,-5.894 -3.323,-8.022c-2.127,-2.127 -5.013,-3.322 -8.022,-3.322h-13.748l0.319,2.233c0.456,3.189 1.918,6.15 4.174,8.451c2.255,2.3 5.187,3.82 8.367,4.339z" fill="#787780"/>
<path id="Vector_152" d="M48.6876,37.342l-3.191,2.553c-0.139,0.111 -0.306,0.18 -0.483,0.201c-0.177,0.02 -0.356,-0.01 -0.516,-0.087c-0.161,-0.077 -0.296,-0.198 -0.391,-0.349c-0.095,-0.15 -0.146,-0.325 -0.146,-0.503v-11.36h4.727z" fill="#707077"/>
<path id="Vector_153" d="M22.2146,42.976c0.784,0 1.418,-0.635 1.418,-1.418c0,-0.783 -0.634,-1.418 -1.418,-1.418c-0.783,0 -1.418,0.635 -1.418,1.418c0,0.783 0.635,1.418 1.418,1.418z" fill="#575759"/>
<path id="Vector_154" d="M37.3436,42.976c0.783,0 1.418,-0.635 1.418,-1.418c0,-0.783 -0.635,-1.418 -1.418,-1.418c-0.783,0 -1.418,0.635 -1.418,1.418c0,0.783 0.635,1.418 1.418,1.418z" fill="#575759"/>
<path id="Vector_155" d="M56.2496,12.762c0,-2.06 -0.674,-4.064 -1.918,-5.707c-1.244,-1.642 -2.99,-2.834 -4.973,-3.392c-1.984,-0.559 -4.095,-0.454 -6.014,0.297c-1.918,0.752 -3.538,2.11 -4.614,3.867l0.002,0.01c-0.635,-1.871 -1.84,-3.497 -3.446,-4.648c-1.606,-1.152 -3.532,-1.771 -5.508,-1.771c-1.976,0 -3.902,0.619 -5.508,1.771c-1.606,1.151 -2.811,2.777 -3.445,4.648l0.002,-0.01c-0.727,-1.187 -1.706,-2.199 -2.868,-2.964c-1.162,-0.764 -2.479,-1.263 -3.856,-1.461c-1.377,-0.197 -2.781,-0.088 -4.112,0.32c-1.33,0.407 -2.554,1.104 -3.584,2.039c-1.03,0.935 -1.841,2.086 -2.375,3.371c-0.534,1.285 -0.778,2.672 -0.714,4.062c0.064,1.39 0.433,2.748 1.083,3.979c0.649,1.23 1.562,2.302 2.674,3.139v11.358h45.392v-11.347c1.175,-0.879 2.129,-2.021 2.785,-3.333c0.657,-1.313 0.998,-2.76 0.997,-4.228z" fill="white"/>
<path id="Vector_156" d="M12.7466,25.052v-4.74c-1.388,-1.045 -2.461,-2.453 -3.102,-4.068c-0.64,-1.615 -0.823,-3.376 -0.528,-5.088c0.295,-1.712 1.056,-3.31 2.2,-4.618c1.143,-1.308 2.625,-2.276 4.283,-2.797c-2.127,-0.67 -4.423,-0.566 -6.481,0.292c-2.058,0.859 -3.746,2.417 -4.767,4.4c-1.02,1.983 -1.306,4.263 -0.808,6.437c0.498,2.173 1.748,4.101 3.53,5.442v11.358h45.394v-2.836h-35.94c-1.003,0 -1.965,-0.399 -2.674,-1.108c-0.709,-0.709 -1.107,-1.671 -1.107,-2.674z" fill="#EDEDED"/>
<path id="Vector_157" d="M47.1816,67.201l-8.894,-3.388l-10.484,3.647l-6.533,-3.647l-8.894,3.388c-3.223,1.228 -5.997,3.406 -7.954,6.246c-1.957,2.84 -3.005,6.207 -3.005,9.656v3.588c0,0.502 0.2,0.983 0.554,1.337c0.355,0.355 0.836,0.554 1.337,0.554h52.942c0.501,0 0.982,-0.199 1.337,-0.554c0.354,-0.354 0.553,-0.835 0.553,-1.337v-3.588c0,-3.449 -1.048,-6.816 -3.005,-9.656c-1.957,-2.84 -4.731,-5.018 -7.954,-6.246z" fill="#C5F2FF"/>
<path id="Vector_158" d="M16.5426,88.582h39.706c0.502,0 0.983,-0.199 1.337,-0.554c0.355,-0.354 0.554,-0.835 0.554,-1.337v-3.588c0,-3.449 -1.048,-6.816 -3.005,-9.656c-1.957,-2.839 -4.731,-5.017 -7.954,-6.245l-8.894,-3.389l-20.474,7.121c-0.371,0.129 -0.692,0.37 -0.92,0.691c-0.227,0.32 -0.35,0.702 -0.35,1.095z" fill="#CAE6EE"/>
<path id="Vector_159" d="M58.1406,85.746v0.945c0,0.502 -0.199,0.983 -0.553,1.337c-0.355,0.355 -0.836,0.554 -1.337,0.554h-52.942c-0.501,0 -0.982,-0.199 -1.337,-0.554c-0.354,-0.354 -0.554,-0.835 -0.554,-1.337v-3.589c0,-2.394 0.505,-4.761 1.483,-6.947c0.977,-2.185 2.405,-4.14 4.19,-5.736v13.436c0,0.501 0.199,0.982 0.553,1.337c0.355,0.355 0.836,0.554 1.337,0.554z" fill="#9CE4F9"/>
<path id="Vector_160" d="M58.1396,85.746v0.945c0,0.502 -0.199,0.982 -0.554,1.337c-0.354,0.355 -0.835,0.554 -1.337,0.554h-39.706v-2.836z" fill="#EFDBC6"/>
<path id="Vector_161" d="M12.2896,82.91v5.672h-2.836v-5.672c0,-0.376 0.149,-0.737 0.415,-1.003c0.266,-0.266 0.626,-0.415 1.003,-0.415c0.376,0 0.736,0.149 1.002,0.415c0.266,0.266 0.416,0.627 0.416,1.003z" fill="#E2CDBA"/>
<path id="Vector_162" d="M50.1056,82.91v5.672h-2.836v-5.672c0,-0.376 0.149,-0.737 0.415,-1.003c0.266,-0.266 0.627,-0.415 1.003,-0.415c0.376,0 0.737,0.149 1.003,0.415c0.266,0.266 0.415,0.627 0.415,1.003z" fill="#E2CDBA"/>
<path id="Vector_163" d="M41.5186,67.241l-7.785,3.591c-1.243,0.573 -2.594,0.87 -3.962,0.87c-1.368,-0.001 -2.72,-0.298 -3.962,-0.871l-7.773,-3.59c-0.164,-0.076 -0.302,-0.197 -0.4,-0.349c-0.097,-0.152 -0.148,-0.329 -0.148,-0.509v-0.93c0,-0.444 0.111,-0.881 0.325,-1.271c0.213,-0.389 0.521,-0.719 0.895,-0.959c0.375,-0.239 0.803,-0.38 1.246,-0.411c0.444,-0.03 0.887,0.052 1.291,0.238l5.356,2.474c0.994,0.459 2.075,0.697 3.169,0.697c1.095,0 2.176,-0.237 3.17,-0.696l5.371,-2.476c0.404,-0.187 0.847,-0.268 1.29,-0.238c0.444,0.03 0.872,0.172 1.246,0.411c0.374,0.239 0.682,0.569 0.895,0.959c0.214,0.389 0.326,0.826 0.326,1.27v0.931c0,0.181 -0.052,0.358 -0.15,0.51c-0.097,0.152 -0.236,0.273 -0.4,0.349z" fill="#EA4B32"/>
<path id="Vector_164" d="M35.1866,78.862l-1.977,-0.922c-1.09,-0.508 -2.031,-1.289 -2.731,-2.267c-0.701,-0.977 -1.138,-2.119 -1.269,-3.315l-0.264,-2.42l2.627,-1.517l1.963,1.439c0.97,0.711 1.74,1.661 2.237,2.756c0.496,1.096 0.702,2.301 0.597,3.499l-0.189,2.173c-0.009,0.112 -0.046,0.221 -0.106,0.316c-0.061,0.095 -0.143,0.174 -0.241,0.231c-0.098,0.056 -0.208,0.088 -0.32,0.093c-0.113,0.005 -0.225,-0.018 -0.327,-0.066z" fill="#EA4B32"/>
<path id="Vector_165" d="M23.3796,78.289l-0.189,-2.173c-0.105,-1.198 0.101,-2.403 0.598,-3.499c0.496,-1.095 1.266,-2.045 2.236,-2.756l1.963,-1.439l2.627,1.517l-0.264,2.42c-0.131,1.196 -0.568,2.337 -1.269,3.315c-0.7,0.978 -1.641,1.759 -2.731,2.267l-1.977,0.921c-0.102,0.048 -0.214,0.07 -0.327,0.066c-0.112,-0.005 -0.222,-0.037 -0.32,-0.093c-0.097,-0.057 -0.18,-0.136 -0.24,-0.231c-0.061,-0.095 -0.097,-0.203 -0.107,-0.315z" fill="#EA4B32"/>
<path id="Vector_166" d="M29.7776,74.072c1.933,0 3.5,-1.567 3.5,-3.5c0,-1.933 -1.567,-3.5 -3.5,-3.5c-1.933,0 -3.5,1.567 -3.5,3.5c0,1.933 1.567,3.5 3.5,3.5z" fill="#D63B2B"/>
<path id="Vector_167" d="M80.8306,82.91h-24.58l-3.782,-15.127h32.143z" fill="#D78545"/>
<path id="Vector_168" d="M60.0316,82.91h-3.781l-3.782,-15.127h3.782z" fill="#CE783E"/>
<path id="Vector_169" d="M68.5406,56.439c-11.787,0 -15.423,5.82 -16.072,11.345l0.441,1.762c1.123,0.493 1.537,1.238 3.378,1.238c2.451,0 2.451,-1.614 4.901,-1.614c2.451,0 2.451,1.614 4.903,1.614c2.452,0 2.451,-1.614 4.901,-1.614c2.45,0 2.45,1.614 4.901,1.614c2.45,0 2.45,-1.614 4.901,-1.614c1.622,0 2.219,0.831 3.144,1.31l0.673,-2.696c-0.648,-5.525 -4.285,-11.345 -16.071,-11.345z" fill="#FACA31"/>
<path id="Vector_170" d="M82.7206,82.91h-28.361c-1.044,0 -1.891,0.846 -1.891,1.89v1.891c0,1.044 0.847,1.891 1.891,1.891h28.361c1.045,0 1.891,-0.847 1.891,-1.891v-1.891c0,-1.044 -0.846,-1.89 -1.891,-1.89z" fill="#6994FE"/>
<path id="Vector_171" d="M68.5396,63.529c0.783,0 1.418,-0.635 1.418,-1.418c0,-0.783 -0.635,-1.418 -1.418,-1.418c-0.784,0 -1.419,0.635 -1.419,1.418c0,0.783 0.635,1.418 1.419,1.418z" fill="#D88646"/>
<path id="Vector_172" d="M74.2106,65.42c0.784,0 1.418,-0.635 1.418,-1.418c0,-0.783 -0.634,-1.418 -1.418,-1.418c-0.783,0 -1.418,0.635 -1.418,1.418c0,0.783 0.635,1.418 1.418,1.418z" fill="#D88646"/>
<path id="Vector_173" d="M62.8676,65.42c0.783,0 1.418,-0.635 1.418,-1.418c0,-0.783 -0.635,-1.418 -1.418,-1.418c-0.784,0 -1.418,0.635 -1.418,1.418c0,0.783 0.634,1.418 1.418,1.418z" fill="#D88646"/>
<path id="Vector_174" d="M68.5406,56.439c0.654,0 1.285,0.019 1.89,0.053c-8.233,0.475 -11.977,4.077 -13.458,8.171c-0.303,0.861 -0.391,1.784 -0.255,2.687c0.136,0.904 0.49,1.76 1.033,2.495l0.372,0.51c-0.564,0.301 -1.196,0.449 -1.835,0.429c-1.841,0 -2.255,-0.745 -3.378,-1.238l-0.441,-1.762c0.649,-5.525 4.285,-11.345 16.072,-11.345z" fill="#F6A831"/>
<path id="Vector_175" d="M63.8126,52.185c-0.376,0 -0.737,-0.15 -1.003,-0.416c-0.266,-0.266 -0.415,-0.626 -0.415,-1.002c0,-1.533 0.819,-2.352 1.361,-2.893c0.444,-0.443 0.53,-0.559 0.53,-0.889c0,-0.33 -0.087,-0.445 -0.53,-0.889c-0.541,-0.541 -1.361,-1.361 -1.361,-2.892c0,-1.532 0.819,-2.352 1.361,-2.893c0.443,-0.443 0.53,-0.559 0.53,-0.888c0,-0.376 0.149,-0.737 0.415,-1.003c0.266,-0.266 0.627,-0.415 1.003,-0.415c0.376,0 0.737,0.149 1.002,0.415c0.266,0.266 0.416,0.627 0.416,1.003c0,1.533 -0.819,2.352 -1.362,2.893c-0.443,0.443 -0.529,0.558 -0.529,0.888c0,0.329 0.087,0.444 0.529,0.888c0.542,0.542 1.362,1.362 1.362,2.893c0,1.532 -0.819,2.352 -1.362,2.893c-0.443,0.443 -0.529,0.559 -0.529,0.889c0,0.376 -0.149,0.736 -0.415,1.002c-0.266,0.266 -0.627,0.416 -1.003,0.416z" fill="#EFDBC6"/>
<path id="Vector_176" d="M71.3746,52.185c-0.376,0 -0.736,-0.15 -1.002,-0.416c-0.266,-0.266 -0.416,-0.626 -0.416,-1.002c0,-1.533 0.819,-2.352 1.362,-2.893c0.443,-0.443 0.529,-0.559 0.529,-0.889c0,-0.33 -0.087,-0.445 -0.529,-0.889c-0.542,-0.541 -1.362,-1.361 -1.362,-2.892c0,-1.532 0.819,-2.352 1.362,-2.893c0.443,-0.443 0.529,-0.559 0.529,-0.888c0,-0.376 0.15,-0.737 0.416,-1.003c0.265,-0.266 0.626,-0.415 1.002,-0.415c0.376,0 0.737,0.149 1.003,0.415c0.266,0.266 0.415,0.627 0.415,1.003c0,1.533 -0.819,2.352 -1.361,2.893c-0.443,0.443 -0.529,0.558 -0.529,0.888c0,0.329 0.086,0.444 0.529,0.888c0.542,0.542 1.361,1.362 1.361,2.893c0,1.532 -0.819,2.352 -1.361,2.893c-0.443,0.443 -0.529,0.559 -0.529,0.889c0,0.376 -0.15,0.736 -0.416,1.002c-0.266,0.266 -0.626,0.416 -1.003,0.416z" fill="#EFDBC6"/>
<path id="Vector_177" d="M58.1406,88.582h-3.781c-0.502,0 -0.982,-0.199 -1.337,-0.554c-0.355,-0.354 -0.554,-0.835 -0.554,-1.337v-1.891c0,-0.501 0.199,-0.982 0.554,-1.337c0.355,-0.354 0.835,-0.553 1.337,-0.553h1.891v3.781c0,0.502 0.199,0.983 0.553,1.337c0.355,0.355 0.836,0.554 1.337,0.554z" fill="#3463D7"/>
<g id="Group_44">
<path id="Vector_178" d="M37.3436,42.976c0.783,0 1.418,-0.635 1.418,-1.418c0,-0.783 -0.635,-1.418 -1.418,-1.418c-0.783,0 -1.418,0.635 -1.418,1.418c0,0.783 0.635,1.418 1.418,1.418z" fill="#284268"/>
<path id="Vector_179" d="M22.2146,42.976c0.784,0 1.418,-0.635 1.418,-1.418c0,-0.783 -0.634,-1.418 -1.418,-1.418c-0.783,0 -1.418,0.635 -1.418,1.418c0,0.783 0.635,1.418 1.418,1.418z" fill="#284268"/>
<path id="Vector_180" d="M82.7206,81.492h-0.074l3.341,-13.365c0.041,-0.165 0.052,-0.336 0.032,-0.504c0,-0.002 0,-0.003 0,-0.005c-0.002,-0.014 -0.004,-0.028 -0.006,-0.043c0,-0.005 -0.001,-0.01 -0.002,-0.015c-0.432,-3.573 -1.887,-6.464 -4.328,-8.59c-3.009,-2.62 -7.431,-3.949 -13.143,-3.949c-5.713,0 -10.135,1.329 -13.144,3.949c-2.446,2.131 -3.903,5.028 -4.331,8.612c-1.065,-0.683 -2.197,-1.255 -3.379,-1.706l-4.394,-1.674c-0.198,-0.609 -0.536,-1.163 -0.987,-1.616c-0.452,-0.454 -1.003,-0.796 -1.611,-0.997h4.211c2.381,-0.003 4.664,-0.95 6.348,-2.633c1.683,-1.684 2.63,-3.967 2.633,-6.348v-7.476c0.592,-0.487 1.068,-1.099 1.395,-1.792c0.326,-0.693 0.496,-1.45 0.496,-2.216c0,-0.766 -0.17,-1.523 -0.496,-2.216c-0.327,-0.692 -0.803,-1.304 -1.395,-1.792v-16.114c1.191,-1.016 2.147,-2.28 2.8,-3.703c0.653,-1.423 0.988,-2.971 0.982,-4.537c-0.001,-2.16 -0.645,-4.271 -1.85,-6.063c-1.205,-1.793 -2.916,-3.186 -4.916,-4.002c-2,-0.817 -4.197,-1.019 -6.312,-0.582c-2.116,0.437 -4.053,1.494 -5.565,3.036c-0.975,-1.575 -2.336,-2.875 -3.954,-3.776c-1.618,-0.902 -3.44,-1.375 -5.292,-1.375c-1.852,0 -3.674,0.473 -5.292,1.375c-1.618,0.901 -2.979,2.201 -3.954,3.776c-1.026,-1.047 -2.253,-1.877 -3.608,-2.438c-1.354,-0.561 -2.808,-0.842 -4.274,-0.827c-1.466,0.016 -2.914,0.327 -4.257,0.917c-1.343,0.589 -2.552,1.444 -3.556,2.512c-1.004,1.069 -1.781,2.33 -2.285,3.707c-0.504,1.376 -0.724,2.841 -0.648,4.305c0.077,1.464 0.449,2.898 1.094,4.215c0.645,1.317 1.549,2.489 2.659,3.448l0.013,16.127c-0.591,0.487 -1.068,1.1 -1.394,1.793c-0.327,0.694 -0.496,1.451 -0.496,2.217c0.001,0.767 0.171,1.524 0.499,2.216c0.327,0.693 0.804,1.305 1.396,1.792l0.005,7.479c0.005,2.38 0.953,4.661 2.636,6.343c1.684,1.683 3.965,2.629 6.345,2.632h4.207c-0.325,0.107 -0.635,0.255 -0.924,0.44c-0.795,0.506 -1.389,1.275 -1.679,2.173l-4.394,1.674c-3.492,1.33 -6.497,3.69 -8.617,6.766c-2.12,3.077 -3.256,6.725 -3.256,10.461v3.588c0.001,0.877 0.35,1.718 0.971,2.339c0.62,0.62 1.461,0.969 2.338,0.97h79.412c0.878,-0.001 1.719,-0.35 2.339,-0.97c0.62,-0.621 0.969,-1.462 0.97,-2.339v-1.891c-0.001,-0.877 -0.35,-1.718 -0.97,-2.338c-0.62,-0.62 -1.461,-0.969 -2.339,-0.97zM57.2586,61.109c2.478,-2.158 6.274,-3.252 11.282,-3.252c5.008,0 8.803,1.094 11.281,3.252c1.85,1.612 2.977,3.827 3.35,6.589l-0.139,0.557c-0.696,-0.342 -1.463,-0.515 -2.238,-0.503c-1.651,0 -2.564,0.601 -3.231,1.041c-0.542,0.358 -0.87,0.573 -1.67,0.573c-0.8,0 -1.128,-0.215 -1.67,-0.573c-0.667,-0.44 -1.581,-1.041 -3.231,-1.041c-1.65,0 -2.564,0.601 -3.231,1.041c-0.542,0.358 -0.869,0.573 -1.67,0.573c-0.8,0 -1.129,-0.216 -1.672,-0.574c-0.667,-0.439 -1.581,-1.04 -3.231,-1.04c-1.65,0 -2.563,0.602 -3.23,1.042c-0.543,0.357 -0.87,0.573 -1.67,0.573c-0.888,0 -1.197,-0.192 -1.759,-0.542c-0.125,-0.078 -0.257,-0.16 -0.401,-0.244l-0.077,-0.311l-0.143,-0.572c0.374,-2.762 1.5,-4.977 3.35,-6.589zM82.3146,71.127l-2.591,10.365h-22.366l-2.353,-9.411c0.423,0.083 0.853,0.124 1.284,0.121c1.65,0 2.563,-0.602 3.23,-1.041c0.543,-0.358 0.87,-0.574 1.67,-0.574c0.801,0 1.128,0.216 1.671,0.574c0.667,0.439 1.581,1.041 3.233,1.041c1.652,0 2.564,-0.602 3.231,-1.041c0.542,-0.358 0.869,-0.574 1.67,-0.574c0.8,0 1.127,0.216 1.67,0.574c0.667,0.439 1.58,1.041 3.231,1.041c1.65,0 2.563,-0.602 3.23,-1.041c0.543,-0.358 0.87,-0.574 1.671,-0.574c0.687,0 1.026,0.203 1.519,0.54zM51.0506,52.608c-0.002,1.629 -0.65,3.191 -1.802,4.343c-1.152,1.152 -2.714,1.8 -4.343,1.802h-5.2v-0.398l3.344,-1.672c1.964,-0.974 3.643,-2.44 4.872,-4.255c1.229,-1.816 1.966,-3.919 2.139,-6.105h0.517c0.16,0 0.317,-0.008 0.473,-0.022zM12.2896,40.292l0.887,0.709c0.348,0.278 0.767,0.453 1.209,0.503c0.442,0.05 0.89,-0.025 1.291,-0.218c0.401,-0.192 0.74,-0.494 0.977,-0.871c0.237,-0.377 0.363,-0.813 0.363,-1.258v-6.069h25.526v6.069c-0.003,0.446 0.122,0.883 0.36,1.26c0.237,0.378 0.577,0.679 0.979,0.87c0.401,0.195 0.849,0.272 1.292,0.222c0.443,-0.051 0.862,-0.226 1.209,-0.506l0.887,-0.711v4.976c0.006,1.845 -0.505,3.655 -1.475,5.224c-0.97,1.569 -2.36,2.835 -4.013,3.654l-8.409,4.205c-1.116,0.555 -2.346,0.844 -3.593,0.844c-1.247,0 -2.477,-0.289 -3.593,-0.844l-8.409,-4.205c-1.653,-0.82 -3.043,-2.085 -4.013,-3.654c-0.97,-1.57 -1.481,-3.379 -1.475,-5.224zM11.7576,36.234c-0.002,-0.002 -0.005,-0.003 -0.008,-0.005c-0.25,-0.198 -0.559,-0.305 -0.878,-0.305h-1.89c-0.16,0 -0.319,0.008 -0.475,0.023l-0.001,-2.859h5.675v5.086zM45.3786,38.174v-5.086h5.672v2.859c-0.156,-0.015 -0.313,-0.023 -0.473,-0.023h-1.89c-0.004,0 -0.008,0 -0.011,0.001c-0.318,0.002 -0.627,0.111 -0.875,0.31zM36.8696,59.774v2.379l-4.521,2.086c-0.808,0.373 -1.686,0.566 -2.576,0.566c-0.889,-0.001 -1.768,-0.194 -2.575,-0.567l-4.508,-2.084v-2.381l2.228,1.114c1.511,0.751 3.175,1.142 4.862,1.142c1.687,0 3.351,-0.391 4.862,-1.142zM20.6516,64.339l5.357,2.473c0.136,0.063 0.272,0.121 0.41,0.176c-0.508,0.476 -0.91,1.053 -1.179,1.694c-0.019,0.012 -0.038,0.023 -0.055,0.036c-0.072,0.053 -0.14,0.11 -0.21,0.165l-6.067,-2.803v-0.627c0,-0.206 0.052,-0.409 0.151,-0.59c0.099,-0.181 0.242,-0.334 0.416,-0.445c0.174,-0.111 0.373,-0.177 0.578,-0.191c0.206,-0.014 0.412,0.024 0.599,0.111zM25.3456,72.699c0.505,1.046 1.361,1.88 2.419,2.358c-0.539,0.683 -1.229,1.23 -2.016,1.599l-1.047,0.487l-0.1,-1.151c-0.097,-1.148 0.163,-2.298 0.744,-3.293zM27.6976,70.572c0,-0.411 0.122,-0.814 0.35,-1.157c0.229,-0.342 0.554,-0.609 0.935,-0.767c0.38,-0.157 0.799,-0.199 1.203,-0.118c0.404,0.08 0.775,0.278 1.066,0.569c0.291,0.292 0.49,0.663 0.57,1.067c0.081,0.404 0.039,0.822 -0.118,1.203c-0.158,0.38 -0.425,0.706 -0.767,0.934c-0.343,0.229 -0.745,0.351 -1.157,0.351c-0.552,0 -1.081,-0.22 -1.472,-0.61c-0.39,-0.391 -0.61,-0.92 -0.61,-1.472zM34.2136,72.699c0.581,0.996 0.841,2.146 0.744,3.294l-0.1,1.15l-1.047,-0.489c-0.787,-0.368 -1.477,-0.916 -2.015,-1.598c1.057,-0.478 1.913,-1.312 2.418,-2.357zM34.5816,68.88c-0.069,-0.054 -0.136,-0.11 -0.207,-0.162c-0.018,-0.014 -0.037,-0.024 -0.055,-0.037c-0.27,-0.642 -0.673,-1.221 -1.182,-1.697c0.133,-0.054 0.267,-0.11 0.399,-0.17l5.371,-2.478c0.187,-0.086 0.393,-0.124 0.599,-0.11c0.206,0.014 0.404,0.08 0.578,0.191c0.174,0.111 0.317,0.264 0.416,0.445c0.099,0.181 0.151,0.384 0.151,0.59v0.628zM50.5776,43.487h-0.472v-4.727h0.472c0.627,0 1.228,0.249 1.672,0.692c0.443,0.444 0.692,1.045 0.692,1.672c0,0.626 -0.249,1.228 -0.692,1.671c-0.444,0.443 -1.045,0.692 -1.672,0.692zM4.7266,12.762c0,-1.741 0.566,-3.435 1.612,-4.828c1.047,-1.392 2.517,-2.406 4.189,-2.891c1.673,-0.484 3.458,-0.412 5.086,0.206c1.628,0.617 3.012,1.747 3.943,3.219c0.124,0.251 0.32,0.459 0.563,0.599c0.243,0.139 0.522,0.204 0.802,0.185c0.279,-0.019 0.547,-0.12 0.769,-0.291c0.222,-0.171 0.389,-0.404 0.479,-0.669c0.539,-1.591 1.563,-2.972 2.928,-3.951c1.365,-0.979 3.003,-1.505 4.682,-1.505c1.68,0 3.317,0.526 4.682,1.505c1.365,0.979 2.389,2.36 2.928,3.951c0.089,0.26 0.251,0.488 0.467,0.657c0.216,0.169 0.476,0.272 0.75,0.296c0.273,0.025 0.547,-0.031 0.79,-0.16c0.242,-0.129 0.441,-0.325 0.574,-0.565c0.623,-1.003 1.46,-1.856 2.451,-2.499c0.99,-0.643 2.11,-1.06 3.28,-1.221c1.17,-0.161 2.361,-0.062 3.489,0.29c1.127,0.352 2.163,0.948 3.034,1.745c0.871,0.798 1.555,1.778 2.004,2.87c0.449,1.093 0.652,2.27 0.594,3.45c-0.058,1.179 -0.375,2.332 -0.929,3.375c-0.554,1.043 -1.331,1.951 -2.276,2.659c-0.176,0.133 -0.319,0.304 -0.417,0.501c-0.099,0.197 -0.15,0.414 -0.15,0.634v9.928h-42.556v-9.94c0,-0.219 -0.051,-0.436 -0.149,-0.632c-0.098,-0.197 -0.24,-0.368 -0.416,-0.5c-0.998,-0.745 -1.807,-1.714 -2.363,-2.828c-0.557,-1.115 -0.844,-2.344 -0.84,-3.59zM6.6176,41.124c0.001,-0.627 0.25,-1.228 0.693,-1.671c0.443,-0.443 1.044,-0.692 1.671,-0.693h0.472v4.727h-0.472c-0.627,-0.001 -1.228,-0.25 -1.671,-0.693c-0.443,-0.443 -0.692,-1.044 -0.693,-1.67zM14.6626,58.753c-1.628,-0.002 -3.189,-0.65 -4.341,-1.801c-1.152,-1.151 -1.801,-2.711 -1.804,-4.34l-0.004,-6.311c0.154,0.014 0.31,0.022 0.468,0.022h0.517c0.173,2.186 0.91,4.289 2.139,6.104c1.229,1.816 2.907,3.282 4.872,4.255l3.343,1.673v0.398zM15.1266,72.72v14.444h-2.837v-4.254c0,-0.376 -0.149,-0.737 -0.415,-1.003c-0.266,-0.266 -0.627,-0.415 -1.003,-0.415c-0.376,0 -0.737,0.149 -1.002,0.415c-0.266,0.266 -0.416,0.627 -0.416,1.003v4.254h-6.145c-0.125,0 -0.245,-0.05 -0.334,-0.139c-0.089,-0.088 -0.138,-0.208 -0.138,-0.334v-3.588c0.011,-3.159 0.976,-6.24 2.769,-8.842c1.792,-2.601 4.328,-4.6 7.276,-5.736l3.356,-1.278c0.223,0.566 0.655,1.024 1.206,1.28l1.276,0.59l-1.372,0.477c-0.649,0.226 -1.211,0.649 -1.609,1.209c-0.398,0.56 -0.612,1.23 -0.612,1.917zM48.6876,81.492c-0.376,0 -0.737,0.149 -1.003,0.415c-0.266,0.266 -0.415,0.627 -0.415,1.003v4.254h-29.307v-14.444c0,-0.098 0.03,-0.194 0.087,-0.274c0.057,-0.08 0.137,-0.14 0.23,-0.172l4.149,-1.444l0.572,0.264c-0.948,1.54 -1.378,3.343 -1.225,5.145l0.189,2.173c0.03,0.339 0.141,0.667 0.324,0.954c0.183,0.287 0.433,0.526 0.728,0.696c0.295,0.171 0.626,0.267 0.967,0.282c0.34,0.015 0.679,-0.053 0.988,-0.197l1.976,-0.922c1.087,-0.507 2.052,-1.241 2.832,-2.152c0.78,0.911 1.745,1.645 2.832,2.152l1.976,0.922c0.309,0.145 0.648,0.212 0.988,0.198c0.34,-0.015 0.672,-0.112 0.967,-0.282c0.295,-0.17 0.545,-0.409 0.728,-0.697c0.183,-0.287 0.294,-0.614 0.324,-0.954l0.189,-2.173c0.152,-1.802 -0.277,-3.606 -1.226,-5.147l5.557,-2.563c0.552,-0.256 0.984,-0.715 1.207,-1.281l3.356,1.279c1.798,0.683 3.455,1.694 4.884,2.983c0.167,0.151 0.332,0.308 0.493,0.467l2.379,9.515h-0.074c-0.877,0.001 -1.718,0.35 -2.339,0.97c-0.62,0.62 -0.969,1.461 -0.97,2.338v1.891c0.001,0.158 0.014,0.316 0.038,0.473h-0.983v-4.254c0,-0.376 -0.15,-0.737 -0.416,-1.003c-0.266,-0.266 -0.626,-0.415 -1.002,-0.415zM83.1936,86.691c0,0.126 -0.05,0.246 -0.138,0.334c-0.089,0.089 -0.209,0.139 -0.335,0.139h-28.361c-0.125,0 -0.246,-0.05 -0.334,-0.139c-0.089,-0.088 -0.139,-0.208 -0.139,-0.334v-1.891c0,-0.125 0.05,-0.245 0.139,-0.334c0.088,-0.089 0.209,-0.138 0.334,-0.138h28.361c0.126,0 0.246,0.049 0.335,0.138c0.088,0.089 0.138,0.209 0.138,0.334z" fill="#011B40"/>
<path id="Vector_181" d="M68.5396,63.529c0.783,0 1.418,-0.635 1.418,-1.418c0,-0.783 -0.635,-1.418 -1.418,-1.418c-0.784,0 -1.419,0.635 -1.419,1.418c0,0.783 0.635,1.418 1.419,1.418z" fill="#232222"/>
<path id="Vector_182" d="M74.2106,65.42c0.784,0 1.418,-0.635 1.418,-1.418c0,-0.783 -0.634,-1.418 -1.418,-1.418c-0.783,0 -1.418,0.635 -1.418,1.418c0,0.783 0.635,1.418 1.418,1.418z" fill="#232222"/>
<path id="Vector_183" d="M62.8676,65.42c0.783,0 1.418,-0.635 1.418,-1.418c0,-0.783 -0.635,-1.418 -1.418,-1.418c-0.784,0 -1.418,0.635 -1.418,1.418c0,0.783 0.634,1.418 1.418,1.418z" fill="#232222"/>
<path id="Vector_184" d="M62.3946,50.767c0,0.376 0.149,0.736 0.415,1.002c0.266,0.266 0.627,0.416 1.003,0.416c0.376,0 0.737,-0.15 1.003,-0.416c0.266,-0.266 0.415,-0.626 0.415,-1.002c0,-0.33 0.087,-0.445 0.529,-0.889c0.542,-0.542 1.362,-1.361 1.362,-2.893c0,-1.531 -0.819,-2.351 -1.362,-2.893c-0.443,-0.443 -0.529,-0.559 -0.529,-0.888c0,-0.33 0.087,-0.445 0.529,-0.888c0.542,-0.542 1.362,-1.362 1.362,-2.893c0,-0.376 -0.15,-0.737 -0.416,-1.003c-0.265,-0.266 -0.626,-0.415 -1.002,-0.415c-0.376,0 -0.737,0.149 -1.003,0.415c-0.266,0.266 -0.415,0.627 -0.415,1.003c0,0.329 -0.087,0.445 -0.53,0.888c-0.542,0.542 -1.361,1.361 -1.361,2.893c0,1.531 0.819,2.351 1.361,2.892c0.444,0.444 0.53,0.559 0.53,0.889c0,0.33 -0.087,0.445 -0.53,0.889c-0.542,0.541 -1.361,1.36 -1.361,2.893z" fill="#232222"/>
<path id="Vector_185" d="M69.9566,50.767c0,0.376 0.15,0.736 0.416,1.002c0.266,0.266 0.626,0.416 1.002,0.416c0.377,0 0.737,-0.15 1.003,-0.416c0.266,-0.266 0.416,-0.626 0.416,-1.002c0,-0.33 0.086,-0.445 0.529,-0.889c0.542,-0.542 1.361,-1.361 1.361,-2.893c0,-1.531 -0.819,-2.351 -1.361,-2.893c-0.443,-0.443 -0.529,-0.559 -0.529,-0.888c0,-0.33 0.086,-0.445 0.529,-0.888c0.542,-0.542 1.361,-1.362 1.361,-2.893c0,-0.376 -0.149,-0.737 -0.415,-1.003c-0.266,-0.266 -0.627,-0.415 -1.003,-0.415c-0.376,0 -0.737,0.149 -1.002,0.415c-0.266,0.266 -0.416,0.627 -0.416,1.003c0,0.329 -0.087,0.445 -0.529,0.888c-0.542,0.542 -1.362,1.361 -1.362,2.893c0,1.531 0.819,2.351 1.362,2.892c0.443,0.444 0.529,0.559 0.529,0.889c0,0.33 -0.087,0.445 -0.529,0.889c-0.543,0.541 -1.362,1.36 -1.362,2.893z" fill="#232222"/>
</g>
</g></svg>