<svg viewBox="0 0 59.2773 90" fill="none" xmlns="http://www.w3.org/2000/svg" xmlns:xlink="http://www.w3.org/1999/xlink" x="0" y="0"><g id="Group 1000004166">
<path id="Vector" d="M47.9747,55.023c-0.805,-0.192 -1.566,-0.419 -2.353,-0.677l-4.274,-1.731c-0.732,-0.337 -1.407,-0.693 -2.088,-1.067l-2.669,-1.459l-13.9045,0.382l-3.2602,1.635c-0.494,0.249 -0.9477,0.483 -1.4966,0.705l-4.2738,1.57c-0.7885,0.236 -1.5679,0.45 -2.3711,0.642c-2.9057,0.701 -5.4907,2.36 -7.3386,4.709c-1.848,2.35 -2.8513,5.253 -2.8483,8.242v11.963h57.0821v-11.963c-0.001,-2.991 -1.008,-5.894 -2.859,-8.243c-1.851,-2.35 -4.438,-4.008 -7.346,-4.708z" fill="#6994FE"/>
<path id="Vector_2" d="M22.6862,50.471l-3.2602,1.636c-0.494,0.248 -0.9477,0.483 -1.4966,0.704l-4.2738,1.57c-0.7885,0.236 -1.5679,0.45 -2.3711,0.642c-2.9057,0.701 -5.4907,2.36 -7.3386,4.71c-1.848,2.349 -2.8513,5.252 -2.8483,8.241v11.964h5.4887v-11.964c-0.003,-2.989 1.0002,-5.892 2.8482,-8.241c1.8479,-2.35 4.433,-4.009 7.3387,-4.71c0.8031,-0.192 1.5825,-0.406 2.371,-0.642l4.2738,-1.57c0.5489,-0.221 1.0026,-0.456 1.4966,-0.704l3.0641,-1.782z" fill="#5682D8"/>
<path id="Vector_3" d="M45.8907,33.919c0.064,0.452 -0.001,0.912 -0.187,1.328c-0.186,0.416 -0.486,0.772 -0.864,1.026c-0.379,0.253 -0.822,0.395 -1.278,0.409c-0.456,0.013 -0.906,-0.102 -1.299,-0.333h-0.392v-3.82h0.392c0.336,-0.341 0.78,-0.554 1.256,-0.602c0.476,-0.048 0.954,0.071 1.351,0.338c0.275,0.19 0.508,0.435 0.684,0.72c0.176,0.285 0.29,0.603 0.337,0.934z" fill="#EFC597"/>
<path id="Vector_4" d="M42.2297,10.155c0,0.689 -0.078,1.376 -0.233,2.047c-2.155,-2.588 -5.244,-4.222 -8.597,-4.545c-3.353,-0.324 -6.6982,0.689 -9.3083,2.818c-0.0037,-0.106 -0.0055,-0.212 -0.0055,-0.32c0,-2.406 0.9558,-4.713 2.6571,-6.415c1.7013,-1.701 4.0087,-2.657 6.4147,-2.657c2.406,0 4.713,0.956 6.415,2.657c1.701,1.702 2.657,4.009 2.657,6.415z" fill="#6D7486"/>
<path id="Vector_5" d="M32.1747,7.597c-2.9453,-0.004 -5.8011,1.013 -8.081,2.878c0.035,1.032 0.2492,2.05 0.6331,3.008c0.4793,-0.088 0.9653,-0.135 1.4526,-0.141h2.1241l11.6162,2.845c1.019,-1.134 1.735,-2.508 2.08,-3.994c-1.199,-1.441 -2.701,-2.6 -4.4,-3.394c-1.698,-0.795 -3.55,-1.205 -5.425,-1.202z" fill="#4A5160"/>
<path id="Vector_6" d="M17.9347,32.529v3.82h-0.4171c-0.5409,0.317 -1.1837,0.412 -1.7933,0.265c-0.6097,-0.146 -1.1388,-0.523 -1.4762,-1.052c-0.3374,-0.528 -0.4569,-1.167 -0.3334,-1.782c0.1235,-0.615 0.4804,-1.158 0.9958,-1.515c0.3971,-0.267 0.875,-0.386 1.351,-0.338c0.4761,0.048 0.9204,0.261 1.2561,0.602z" fill="#EFC597"/>
<path id="Vector_7" d="M1.0976,79.938h57.0821v8.964h-57.0821z" fill="#FFD8B7"/>
<path id="Vector_8" d="M39.9307,16.205c-0.993,-1.393 -2.272,-2.559 -3.752,-3.419c-1.479,-0.86 -3.125,-1.395 -4.828,-1.568c-0.055,-0.005 -0.113,-0.009 -0.168,-0.009c-0.328,-0.003 -0.649,0.095 -0.919,0.281c-0.271,0.186 -0.477,0.451 -0.592,0.758c-0.0666,0.313 -0.2396,0.592 -0.4894,0.792c-0.2497,0.199 -0.5608,0.306 -0.8804,0.302h-2.1241c-2.2814,0.029 -4.4607,0.95 -6.0711,2.566c-1.6104,1.616 -2.5237,3.799 -2.5442,6.081v6.312l24.6992,1.405v-6.219c0.004,-2.611 -0.811,-5.158 -2.331,-7.282z" fill="#6D7486"/>
<path id="Vector_9" d="M22.7515,47.725l-0.064,0.013v9.469c0.8602,1.002 1.9268,1.806 3.1267,2.358c1.2,0.551 2.505,0.837 3.8255,0.837c1.321,0 2.626,-0.286 3.826,-0.837c1.2,-0.552 2.266,-1.356 3.126,-2.358v-9.146z" fill="#EFC597"/>
<path id="Vector_10" d="M32.4687,20.33c-4.7605,6.72 -10.8812,7.769 -14.9062,7.971v9.323c-0.0024,1.625 0.3159,3.235 0.9366,4.737c0.6208,1.502 1.5317,2.867 2.6808,4.016c0.4893,0.49 1.0182,0.939 1.5814,1.343c1.8466,1.311 4.0183,2.089 6.2776,2.249c2.2588,0.161 4.5188,-0.304 6.5318,-1.342c2.013,-1.038 3.702,-2.609 4.882,-4.542c1.18,-1.934 1.806,-4.154 1.809,-6.419v-7.937c-2.013,-6.74 -9.793,-9.399 -9.793,-9.399z" fill="#FFD8B7"/>
<path id="Vector_11" d="M35.1057,34.746c0.783,0 1.418,-0.635 1.418,-1.418c0,-0.783 -0.635,-1.418 -1.418,-1.418c-0.783,0 -1.418,0.635 -1.418,1.418c0,0.783 0.635,1.418 1.418,1.418z" fill="#284268"/>
<path id="Vector_12" d="M24.9806,34.746c0.7831,0 1.418,-0.635 1.418,-1.418c0,-0.783 -0.6349,-1.418 -1.418,-1.418c-0.7832,0 -1.4181,0.635 -1.4181,1.418c0,0.783 0.6349,1.418 1.4181,1.418z" fill="#284268"/>
<path id="Vector_13" d="M45.4447,66.582c0.023,0 0.032,0.003 0.055,0.004l0.056,-0.002v-12.252l-4.189,-1.717c-0.023,-0.011 -0.019,-0.022 -0.019,-0.033v14z" fill="#B8D2D8"/>
<path id="Vector_14" d="M13.707,66.596c0.0413,-0.009 0.0832,-0.013 0.1253,-0.014h4.0964v-13.801c0,0.01 0.0049,0.02 -0.0183,0.03l-4.1897,1.557v12.216z" fill="#B8D2D8"/>
<path id="Vector_15" d="M46.1367,66.895c-0.009,-0.171 -0.078,-0.332 -0.195,-0.456c-0.118,-0.123 -0.276,-0.201 -0.445,-0.218c-0.024,-0.002 -0.063,-0.005 -0.087,-0.005h-31.5753c-0.0473,0.001 -0.0944,0.005 -0.1409,0.014c-0.153,0.033 -0.2904,0.116 -0.3902,0.237c-0.0999,0.12 -0.1564,0.271 -0.1605,0.427l-1.6155,22.008h36.2254z" fill="#CAE6EE"/>
<path id="Vector_16" d="M39.7597,88.86v0.042h-18.5371v-9.901c2.8563,1.505 6.0354,2.295 9.2641,2.301c3.229,0.006 6.411,-0.772 9.273,-2.267z" fill="#B8D2D8"/>
<path id="Vector_17" d="M1.0976,79.938h5.4887v8.964h-5.4887z" fill="#D3AE92"/>
<g id="Group">
<path id="Vector_18" d="M29.9017,42.391c-1.0652,0 -2.0666,-0.415 -2.8197,-1.168c-0.2917,-0.292 -0.2917,-0.765 0.0001,-1.056c0.2915,-0.292 0.7644,-0.292 1.0561,0c0.471,0.471 1.0973,0.73 1.7635,0.73c0.666,0 1.292,-0.259 1.763,-0.73c0.292,-0.292 0.765,-0.292 1.056,0c0.292,0.291 0.292,0.764 0,1.056c-0.753,0.753 -1.754,1.168 -2.819,1.168z" fill="#284268"/>
<path id="Vector_19" d="M30.4767,15.331c-0.27,-0.107 -0.572,-0.102 -0.839,0.013c-0.2668,0.115 -0.4772,0.332 -0.585,0.602c-0.0873,0.218 -2.2031,5.35 -8.0273,5.776c-0.2833,0.021 -0.5476,0.151 -0.7372,0.362c-0.1897,0.212 -0.2899,0.488 -0.2797,0.772c0.0102,0.284 0.1301,0.553 0.3344,0.751c0.2044,0.197 0.4773,0.307 0.7614,0.308c0.0269,0 0.0549,0 0.0812,-0.003c7.228,-0.529 9.8042,-6.891 9.9102,-7.162c0.106,-0.27 0.1,-0.571 -0.016,-0.837c-0.116,-0.267 -0.333,-0.476 -0.603,-0.582z" fill="#284268"/>
<path id="Vector_20" d="M33.2167,18.064c0.035,-0.001 3.428,-0.145 4.942,2.808c0.066,0.128 0.157,0.242 0.267,0.336c0.109,0.093 0.237,0.164 0.374,0.208c0.137,0.044 0.282,0.061 0.425,0.049c0.144,-0.012 0.284,-0.052 0.412,-0.117c0.129,-0.066 0.243,-0.157 0.336,-0.266c0.093,-0.11 0.164,-0.238 0.208,-0.375c0.044,-0.137 0.061,-0.282 0.049,-0.425c-0.011,-0.144 -0.051,-0.284 -0.117,-0.412c-2.157,-4.204 -6.814,-4.009 -7.011,-3.998c-0.145,0.006 -0.287,0.041 -0.419,0.102c-0.131,0.062 -0.249,0.149 -0.346,0.256c-0.098,0.107 -0.173,0.233 -0.222,0.369c-0.049,0.137 -0.07,0.282 -0.062,0.427c0.007,0.145 0.043,0.286 0.106,0.417c0.063,0.131 0.151,0.248 0.259,0.345c0.108,0.096 0.235,0.17 0.372,0.218c0.137,0.047 0.282,0.067 0.427,0.058z" fill="#284268"/>
<path id="Vector_21" d="M48.2307,53.955c-2.962,-0.74 -5.813,-1.873 -8.475,-3.368l-2.067,-1.148v-0.836c2.586,-1.842 4.438,-4.539 5.229,-7.614c0.5,0.087 1.006,0.126 1.513,0.118c0.197,0.003 0.472,0.007 0.7,0.023c-0.113,0.25 -0.285,0.561 -0.406,0.779c-0.455,0.819 -0.926,1.667 -0.668,2.511c0.294,0.965 1.296,1.466 2.18,1.908c0.214,0.107 0.503,0.251 0.703,0.372c-0.298,0.339 -0.625,0.652 -0.977,0.933c-0.218,0.185 -0.424,0.359 -0.607,0.535c-0.209,0.203 -0.33,0.48 -0.335,0.771c-0.005,0.291 0.106,0.572 0.308,0.782c0.203,0.209 0.48,0.33 0.771,0.335c0.291,0.005 0.572,-0.106 0.781,-0.308c0.131,-0.127 0.31,-0.278 0.5,-0.439c0.881,-0.746 1.977,-1.674 1.848,-2.961c-0.104,-1.03 -1.116,-1.537 -2.009,-1.983c-0.347,-0.161 -0.681,-0.349 -0.998,-0.563c0.126,-0.283 0.268,-0.559 0.423,-0.827c0.512,-0.924 1.153,-2.074 0.555,-3.098c-0.542,-0.931 -1.707,-0.949 -2.735,-0.965c-0.368,0.005 -0.735,-0.018 -1.1,-0.067c-0.007,-0.303 0.002,-0.606 0.026,-0.908c0.003,-0.052 0.006,-0.106 0.009,-0.158c0.029,0 0.057,0.002 0.086,0.002c0.505,0.001 1.004,-0.107 1.463,-0.317c0.46,-0.209 0.869,-0.515 1.2,-0.896c0.331,-0.381 0.577,-0.829 0.72,-1.313c0.142,-0.484 0.18,-0.994 0.109,-1.493c-0.065,-0.481 -0.229,-0.942 -0.482,-1.355c-0.254,-0.414 -0.59,-0.769 -0.989,-1.045c-0.626,-0.433 -1.391,-0.618 -2.146,-0.518v-7.356c0.001,-2.551 -0.715,-5.051 -2.067,-7.214c1.033,-1.376 1.7,-2.991 1.938,-4.695c0.239,-1.703 0.042,-3.44 -0.574,-5.046c-0.615,-1.607 -1.627,-3.031 -2.943,-4.139c-1.315,-1.109 -2.89,-1.866 -4.577,-2.2c-1.688,-0.334 -3.432,-0.235 -5.071,0.288c-1.6387,0.524 -3.1177,1.455 -4.2988,2.705c-1.181,1.251 -2.0255,2.781 -2.4543,4.447c-0.4289,1.666 -0.4281,3.413 0.0022,5.079c-1.9818,0.613 -3.7154,1.845 -4.9477,3.514c-1.2324,1.669 -1.8988,3.688 -1.9021,5.763v5.254c-0.183,0.006 -0.483,0.01 -0.7035,0.013c-0.3602,0.006 -0.6698,0.011 -0.9514,0.023c-0.2908,0.013 -0.5648,0.14 -0.7617,0.355c-0.1968,0.214 -0.3004,0.498 -0.2879,0.789c0.0125,0.291 0.1401,0.565 0.3546,0.762c0.2145,0.196 0.4984,0.3 0.7893,0.287c0.2594,-0.011 0.5572,-0.015 0.8933,-0.021c0.211,-0.003 0.485,-0.007 0.668,-0.012v1.409c-0.7659,-0.107 -1.544,0.077 -2.1817,0.514c-0.4002,0.275 -0.7386,0.63 -0.9938,1.044c-0.2552,0.413 -0.4214,0.875 -0.4882,1.355c-0.1073,0.779 0.0473,1.571 0.4396,2.252c0.3922,0.681 0.9998,1.213 1.7272,1.511c0.2112,0.084 0.43,0.149 0.6535,0.192c-0.3701,0.72 -0.4855,1.543 -0.3276,2.337c0.158,0.793 0.58,1.51 1.1973,2.033c0.1536,0.13 0.277,0.292 0.3616,0.474c0.0847,0.183 0.1285,0.382 0.1285,0.583c0,0.201 -0.0438,0.4 -0.1285,0.583c-0.0846,0.182 -0.208,0.344 -0.3616,0.474c-0.3967,0.336 -0.7154,0.755 -0.934,1.226c-0.2187,0.472 -0.3319,0.986 -0.3319,1.506c0,0.52 0.1132,1.034 0.3319,1.505c0.2186,0.472 0.5373,0.891 0.934,1.227l0.0054,0.004c0.1526,0.131 0.2751,0.293 0.3589,0.475c0.0839,0.182 0.1271,0.381 0.1267,0.581c-0.0003,0.201 -0.0443,0.399 -0.1289,0.581c-0.0845,0.182 -0.2077,0.344 -0.3608,0.474c-0.1835,0.155 -0.3105,0.367 -0.3613,0.602c-1.6634,0.639 -3.3682,1.165 -5.1026,1.574c-3.1507,0.749 -5.9552,2.542 -7.9578,5.087c-2.0026,2.545 -3.0854,5.693 -3.0725,8.931v20.928c0.0007,0.292 0.1169,0.571 0.3232,0.777c0.2063,0.205 0.4859,0.321 0.7773,0.321h57.0761c0.291,0 0.571,-0.116 0.777,-0.321c0.207,-0.206 0.323,-0.485 0.324,-0.777v-20.928c0.009,-3.24 -1.077,-6.388 -3.082,-8.933c-2.006,-2.545 -4.812,-4.337 -7.965,-5.086zM43.3607,33.103c0.182,-0.133 0.633,-0.117 0.896,0.065c0.194,0.137 0.348,0.324 0.446,0.54c0.098,0.217 0.137,0.455 0.112,0.692c-0.026,0.236 -0.114,0.462 -0.255,0.652c-0.142,0.191 -0.332,0.341 -0.55,0.434c-0.207,0.082 -0.43,0.112 -0.65,0.088zM16.466,35.571c-0.231,0.029 -0.4656,0 -0.6825,-0.085c-0.2201,-0.091 -0.4116,-0.24 -0.5545,-0.431c-0.1428,-0.191 -0.2317,-0.416 -0.2573,-0.653c-0.0256,-0.237 0.013,-0.477 0.1117,-0.694c0.0987,-0.217 0.254,-0.403 0.4495,-0.539c0.1365,-0.092 0.295,-0.145 0.4591,-0.155c0.164,-0.01 0.3277,0.025 0.474,0.1zM42.4457,54.311c0.647,0.328 1.32,0.602 2.012,0.821v9.986h-2.012zM38.7317,52.511c0.501,0.276 0.969,0.537 1.518,0.787v11.82h-21.2224v-11.599c0.3053,-0.126 0.6029,-0.27 0.8916,-0.43l1.6698,-0.839v4.956c0.0128,0.264 0.1172,0.515 0.2953,0.71c0.9564,1.123 2.1454,2.026 3.4847,2.645c1.3394,0.618 2.7971,0.939 4.273,0.939c1.475,0 2.933,-0.321 4.272,-0.939c1.339,-0.619 2.528,-1.522 3.485,-2.645c0.177,-0.195 0.28,-0.446 0.291,-0.71v-5.26zM23.7841,56.789v-7.169c1.8051,0.926 3.7969,1.43 5.8251,1.475c2.0285,0.044 4.0405,-0.373 5.8835,-1.219v6.913c-0.751,0.798 -1.658,1.433 -2.665,1.865c-1.008,0.433 -2.093,0.654 -3.189,0.649c-2.2074,0.001 -4.208,-0.911 -5.8546,-2.514zM33.1597,2.182c2.048,0.002 4.016,0.791 5.498,2.204c1.482,1.412 2.365,3.34 2.466,5.384c-2.155,-1.817 -4.812,-2.936 -7.618,-3.206c-2.806,-0.27 -5.6279,0.321 -8.0896,1.695c0.4266,-1.732 1.4209,-3.272 2.8244,-4.373c1.4032,-1.102 3.1352,-1.702 4.9192,-1.704zM32.1747,8.695c1.619,-0.001 3.221,0.335 4.704,0.987c1.482,0.652 2.813,1.606 3.906,2.801c-0.209,0.685 -0.509,1.337 -0.892,1.941c-2.177,-2.435 -5.186,-3.969 -8.436,-4.299c-0.599,-0.062 -1.201,0.078 -1.711,0.398c-0.5103,0.319 -0.8992,0.8 -1.1051,1.365c-0.0182,0.044 -0.0328,0.089 -0.0437,0.135c-0.0151,0.066 -0.0528,0.124 -0.1065,0.164c-0.0538,0.041 -0.1201,0.061 -0.1873,0.057h-2.1241c-0.2347,0 -0.4667,0.031 -0.6974,0.047c-0.1214,-0.427 -0.2056,-0.865 -0.2516,-1.307c2.011,-1.484 4.4447,-2.287 6.9447,-2.289zM18.6614,21.99c0.002,-1.997 0.7937,-3.911 2.2021,-5.325c1.4085,-1.415 3.3194,-2.215 5.3155,-2.225h2.1241c0.552,0.002 1.0891,-0.18 1.5266,-0.516c0.438,-0.337 0.751,-0.809 0.891,-1.343c0.048,-0.095 0.125,-0.172 0.218,-0.223c0.094,-0.05 0.201,-0.07 0.307,-0.057c5.648,0.578 9.919,5.393 9.919,11.187v1.714c-3.11,-4.128 -8.076,-5.834 -8.341,-5.923c-0.225,-0.076 -0.469,-0.078 -0.695,-0.005c-0.226,0.073 -0.423,0.217 -0.562,0.41c-4.0307,5.69 -9.2462,7.074 -12.9053,7.435zM18.6614,29.33c4.025,-0.34 9.6221,-1.705 14.1883,-7.677c1.878,0.817 6.851,3.378 8.315,8.222v7.791c0,2.984 -1.185,5.846 -3.295,7.956c-2.111,2.111 -4.972,3.296 -7.957,3.296c-2.9837,0 -5.8456,-1.185 -7.9557,-3.296c-2.1101,-2.11 -3.2956,-4.972 -3.2956,-7.956zM17.9113,45.875c0.2946,-0.249 0.5468,-0.545 0.747,-0.875c0.7984,1.219 1.7878,2.3 2.9304,3.204v1.589l-2.4249,1.234c0.0086,-0.101 0.0143,-0.202 0.0143,-0.305c0.0004,-0.52 -0.1127,-1.033 -0.3313,-1.505c-0.2186,-0.472 -0.5375,-0.891 -0.9344,-1.226l-0.0053,-0.005c-0.1528,-0.13 -0.2753,-0.292 -0.3592,-0.475c-0.084,-0.182 -0.1272,-0.381 -0.1268,-0.582c0.0005,-0.2 0.0446,-0.399 0.1293,-0.581c0.0847,-0.182 0.208,-0.343 0.3613,-0.473zM14.8194,55.191c0.6863,-0.203 1.3585,-0.451 2.0125,-0.742v10.669h-2.0125zM10.4316,87.805h-8.2361v-6.77h8.7504zM12.6239,65.609c-0.1776,0.156 -0.3221,0.346 -0.4249,0.559c-0.1029,0.213 -0.162,0.444 -0.1739,0.68l-0.9147,11.992h-8.9149v-10.866c-0.0048,-2.748 0.9187,-5.416 2.6209,-7.574c1.7023,-2.157 4.0833,-3.675 6.757,-4.31c0.35,-0.084 0.6846,-0.171 1.0505,-0.261zM38.6037,87.805h-16.2832v-7.07c5.3057,2.21 11.1602,2.221 16.2832,0.028zM40.7987,87.805v-8.77c0.007,-0.187 -0.036,-0.372 -0.124,-0.537c-0.088,-0.164 -0.218,-0.303 -0.377,-0.402c-0.158,-0.098 -0.34,-0.154 -0.527,-0.159c-0.186,-0.006 -0.371,0.037 -0.536,0.125c-2.703,1.413 -5.708,2.148 -8.758,2.143c-3.0501,-0.006 -6.053,-0.752 -8.7506,-2.175c-0.1668,-0.089 -0.3535,-0.132 -0.5421,-0.126c-0.1885,0.005 -0.3724,0.059 -0.5337,0.157c-0.1613,0.098 -0.2945,0.236 -0.3865,0.401c-0.0921,0.164 -0.1399,0.35 -0.1388,0.539v8.804h-7.4919l1.5403,-20.491h30.9303l1.541,20.491zM57.0817,87.805h-8.236l-0.514,-6.77h8.75zM57.0817,78.84h-8.915l-0.915,-11.992c-0.012,-0.236 -0.071,-0.467 -0.174,-0.68c-0.102,-0.213 -0.247,-0.403 -0.424,-0.559v-9.786c0.366,0.095 0.707,0.185 1.05,0.267c2.674,0.635 5.055,2.153 6.757,4.31c1.702,2.158 2.626,4.826 2.621,7.574z" fill="#284268"/>
<path id="Vector_22" d="M16.8321,68.788c-0.2912,0 -0.5704,0.116 -0.7762,0.322c-0.2059,0.205 -0.3215,0.485 -0.3215,0.776v0.752c0,0.291 0.1156,0.57 0.3215,0.776c0.2058,0.206 0.485,0.322 0.7762,0.322c0.2911,0 0.5703,-0.116 0.7762,-0.322c0.2059,-0.206 0.3215,-0.485 0.3215,-0.776v-0.752c0,-0.291 -0.1156,-0.571 -0.3215,-0.776c-0.2059,-0.206 -0.4851,-0.322 -0.7762,-0.322z" fill="#284268"/>
<path id="Vector_23" d="M16.8321,73.136c-0.2912,0 -0.5704,0.116 -0.7762,0.322c-0.2059,0.206 -0.3215,0.485 -0.3215,0.776v10.245c0,0.292 0.1156,0.571 0.3215,0.777c0.2058,0.205 0.485,0.321 0.7762,0.321c0.2911,0 0.5703,-0.116 0.7762,-0.321c0.2059,-0.206 0.3215,-0.485 0.3215,-0.777v-10.245c0,-0.291 -0.1156,-0.57 -0.3215,-0.776c-0.2059,-0.206 -0.4851,-0.322 -0.7762,-0.322z" fill="#284268"/>
</g>
</g></svg>