<svg viewBox="0 0 83.5723 88.6906" fill="none" xmlns="http://www.w3.org/2000/svg" xmlns:xlink="http://www.w3.org/1999/xlink" x="0" y="0"><defs><linearGradient id="paint8_linear_796_10371" x1="76.42520000000013" y1="61.72629999999998" x2="40.29520000000002" y2="62.28530000000001" gradientUnits="userSpaceOnUse">
<stop stop-color="#E5E5E6"/>
<stop offset="0.325966" stop-color="white"/>
<stop offset="1" stop-color="#7C8085"/>
</linearGradient></defs><g id="Group 1000004170">
<g id="Group_74">
<path id="Vector_315" d="M35.8552,0.4343h-6.92c-3.67,0 -7.2,1.459 -9.79,4.055c-2.6,2.596 -4.06,6.117 -4.06,9.789v12.427l-3.68,9.358l2.14,2.905l3.21,-1.028l1.2,3.34l4.45,-0.428l2.1,2.013h16.23l1.46,-2.655l3.45,1.253l2.2,-3.009l3.04,0.728l2.25,-2.137l-3.44,-10.064v-12.703c0,-3.672 -1.46,-7.193 -4.05,-9.789c-2.6,-2.596 -6.12,-4.055 -9.79,-4.055z" fill="#6D7486"/>
<path id="Vector_316" d="M25.7952,43.9253c-1.13,0 -2.07,-0.315 -2.8,-0.94c-0.49,-0.423 -0.82,-0.929 -1.02,-1.392c-0.81,0.631 -2.01,1.068 -3.46,0.502c-1.46,-0.57 -2.07,-1.783 -2.32,-2.736c-0.79,0.393 -1.87,0.58 -3.09,0.007c-0.93,-0.441 -1.58,-1.312 -1.83,-2.453c-0.35,-1.649 0.19,-3.612 1.37,-5.003c1.31,-1.543 1.66,-5.437 1.68,-6.807c0.01,-0.321 0.23,-0.599 0.54,-0.683c0.31,-0.085 0.63,0.047 0.8,0.321c1.24,2.032 4.61,2.708 4.64,2.715c0.34,0.066 0.58,0.363 0.58,0.708c0,6.599 5.61,8.474 5.67,8.492c0.29,0.096 0.5,0.374 0.5,0.687v5.836c0,0.373 -0.29,0.684 -0.66,0.718c-0.2,0.019 -0.4,0.028 -0.6,0.028zM22.3152,39.4303c0.05,0 0.11,0.007 0.16,0.02c0.31,0.072 0.54,0.337 0.56,0.653c0,0.007 0.09,1.107 0.91,1.794c0.42,0.356 0.98,0.551 1.66,0.581v-4.649c-1.5,-0.668 -5.88,-3.122 -6.15,-9.095c-0.85,-0.233 -2.5,-0.788 -3.8,-1.862c-0.19,1.792 -0.67,4.514 -1.91,5.973c-0.89,1.045 -1.32,2.558 -1.06,3.765c0.11,0.489 0.37,1.139 1.04,1.452c1.42,0.67 2.36,-0.352 2.46,-0.471c0.2,-0.23 0.52,-0.314 0.81,-0.205c0.28,0.11 0.47,0.384 0.46,0.688c0,0.081 -0.01,2.055 1.59,2.678c1.67,0.653 2.61,-0.899 2.65,-0.966c0.13,-0.224 0.37,-0.356 0.62,-0.356z" fill="#284268"/>
<g id="Group_75">
<path id="Vector_317" d="M38.7652,43.9253c-0.2,0 -0.4,-0.009 -0.6,-0.028c-0.37,-0.034 -0.66,-0.345 -0.66,-0.718v-5.836c0,-0.313 0.21,-0.591 0.5,-0.687c0.23,-0.074 5.66,-1.926 5.66,-8.492c0,-0.345 0.25,-0.642 0.59,-0.708c0.03,-0.007 3.41,-0.692 4.64,-2.715c0.16,-0.274 0.49,-0.405 0.8,-0.321c0.31,0.084 0.53,0.362 0.53,0.683c0.03,1.372 0.38,5.267 1.69,6.807c1.18,1.391 1.72,3.355 1.36,5.004c-0.24,1.14 -0.89,2.011 -1.82,2.452c-1.22,0.573 -2.3,0.386 -3.09,-0.006c-0.25,0.952 -0.86,2.165 -2.32,2.735c-1.46,0.566 -2.65,0.129 -3.46,-0.502c-0.21,0.464 -0.53,0.969 -1.02,1.392c-0.74,0.625 -1.68,0.94 -2.8,0.94zM38.9452,37.8293v4.649c0.69,-0.03 1.25,-0.225 1.67,-0.581c0.81,-0.686 0.91,-1.787 0.91,-1.798c0.03,-0.314 0.25,-0.577 0.56,-0.648c0.31,-0.07 0.62,0.064 0.78,0.335c0.1,0.163 1.03,1.599 2.65,0.966c1.6,-0.623 1.59,-2.597 1.59,-2.681c-0.01,-0.306 0.18,-0.582 0.47,-0.689c0.29,-0.106 0.61,-0.021 0.8,0.214c0.1,0.114 1.04,1.137 2.46,0.466c0.66,-0.313 0.93,-0.963 1.03,-1.452c0.26,-1.207 -0.16,-2.72 -1.05,-3.765c-1.24,-1.459 -1.72,-4.181 -1.91,-5.973c-1.3,1.074 -2.95,1.629 -3.81,1.862c-0.26,5.973 -4.64,8.427 -6.15,9.095z" fill="#284268"/>
</g>
<path id="Vector_318" d="M12.8552,43.6903h38.58v45h-38.58z" fill="#6994FE"/>
</g>
<path id="Vector_319" d="M51.4252,67.7973h-11.25c-0.42,0 -0.83,0.17 -1.13,0.471c-0.31,0.302 -0.47,0.71 -0.47,1.137c0,0.426 0.16,0.835 0.47,1.136c0.3,0.301 0.71,0.471 1.13,0.471h11.25z" fill="#00325A"/>
<path id="Vector_320" d="M19.2852,43.6903h25.71v19.286c0,3.41 -1.35,6.68 -3.76,9.091c-2.41,2.411 -5.68,3.766 -9.09,3.766c-3.41,0 -6.68,-1.355 -9.09,-3.766c-2.42,-2.411 -3.77,-5.681 -3.77,-9.091z" fill="#5682D8"/>
<path id="Vector_321" d="M-0.0048,56.5473v32.143h12.86v-45c-3.41,0 -6.68,1.355 -9.09,3.766c-2.41,2.411 -3.77,5.681 -3.77,9.091z" fill="white"/>
<path id="Vector_322" d="M51.4252,43.6903v45h12.86v-32.143c0,-3.41 -1.35,-6.68 -3.76,-9.091c-2.42,-2.411 -5.69,-3.766 -9.1,-3.766z" fill="white"/>
<path id="Vector_323" d="M25.7152,43.6903h12.86v25.714c0,1.705 -0.68,3.341 -1.89,4.546c-1.2,1.206 -2.84,1.883 -4.54,1.883c-1.71,0 -3.34,-0.677 -4.55,-1.883c-1.2,-1.205 -1.88,-2.841 -1.88,-4.546z" fill="white"/>
<path id="Vector_324" d="M38.5752,45.2973l-3.69,3.686c-0.3,-0.302 -0.71,-0.471 -1.13,-0.471h-3.22c-0.43,0 -0.83,0.169 -1.14,0.471l-3.68,-3.686v12.858l3.68,-3.686c0.31,0.302 0.71,0.471 1.14,0.471h3.22c0.42,0 0.83,-0.169 1.13,-0.471l3.69,3.686z" fill="#D2D2D2"/>
<path id="Vector_325" d="M38.5752,43.6903l-6.43,6.429l-6.43,-6.429v-9.643h12.86z" fill="#E0B584"/>
<path id="Vector_326" d="M34.8252,40.4763h-5.36c-3.55,0 -6.96,-1.411 -9.47,-3.923c-2.51,-2.511 -3.92,-5.918 -3.92,-9.469v-8.197c0.85,0 0.52,0 1.93,-0.398c0.8,0 1.28,0.339 1.28,-0.513l9.45,-0.938c0,-0.853 3.55,-0.804 4.16,-1.407c0.6,-0.603 2.32,-1.285 3.18,-1.285l1.47,-2.386c0.85,0 1.47,2.199 2.08,2.802c0.6,0.602 2.75,1.913 2.75,2.765l2.62,0.449c0,0.852 2.62,0.662 3.22,1.264c0.6,0.603 0,1.346 0,2.081v5.763c0,3.551 -1.41,6.958 -3.92,9.469c-2.52,2.512 -5.92,3.923 -9.47,3.923z" fill="#F0C8A0"/>
<path id="Vector_327" d="M39.2552,26.0913c0.78,0 1.42,-0.635 1.42,-1.418c0,-0.783 -0.64,-1.418 -1.42,-1.418c-0.78,0 -1.42,0.635 -1.42,1.418c0,0.783 0.64,1.418 1.42,1.418z" fill="#284268"/>
<path id="Vector_328" d="M26.1252,26.0913c0.79,0 1.42,-0.635 1.42,-1.418c0,-0.783 -0.63,-1.418 -1.42,-1.418c-0.78,0 -1.41,0.635 -1.41,1.418c0,0.783 0.63,1.418 1.41,1.418z" fill="#284268"/>
<path id="Vector_329" d="M32.4052,35.8563c-1.07,0 -2.07,-0.414 -2.82,-1.168c-0.29,-0.291 -0.29,-0.764 0,-1.056c0.29,-0.291 0.76,-0.291 1.05,0c0.47,0.471 1.1,0.731 1.77,0.731c0.66,0 1.29,-0.26 1.76,-0.731c0.29,-0.291 0.76,-0.291 1.06,0c0.29,0.292 0.29,0.765 0,1.056c-0.76,0.754 -1.76,1.168 -2.82,1.168z" fill="#284268"/>
<path id="Vector_330" d="M15.6852,20.2383v7.881h-0.5c-0.75,0 -1.47,-0.293 -2,-0.816c-0.53,-0.523 -0.83,-1.234 -0.83,-1.977v-2.294c0,-0.744 0.3,-1.456 0.83,-1.979c0.53,-0.523 1.25,-0.815 2,-0.815z" fill="#E0B584" stroke="#284268"/>
<path id="Vector_331" d="M48.5952,19.8523v7.88h0.5c0.75,0 1.47,-0.292 2,-0.815c0.53,-0.523 0.83,-1.234 0.83,-1.978v-2.294c0,-0.743 -0.3,-1.454 -0.83,-1.977c-0.53,-0.523 -1.25,-0.816 -2,-0.816z" fill="#E0B584" stroke="#284268"/>
<path id="Vector_332" d="M25.2452,43.2193l6.9,6.9l-6.9,6.899c-0.23,0.225 -0.51,0.378 -0.82,0.44c-0.32,0.062 -0.64,0.03 -0.93,-0.091c-0.3,-0.122 -0.55,-0.328 -0.72,-0.592c-0.18,-0.264 -0.28,-0.575 -0.28,-0.893v-11.526c0,-0.318 0.1,-0.629 0.28,-0.893c0.17,-0.264 0.42,-0.47 0.72,-0.592c0.29,-0.121 0.61,-0.153 0.93,-0.091c0.31,0.062 0.59,0.215 0.82,0.439z" fill="#F96703"/>
<path id="Vector_333" d="M39.0452,43.2193l-6.9,6.9l6.9,6.899c0.22,0.225 0.51,0.378 0.82,0.44c0.31,0.062 0.64,0.03 0.93,-0.091c0.29,-0.122 0.54,-0.328 0.72,-0.592c0.18,-0.264 0.27,-0.575 0.27,-0.893v-11.526c0,-0.318 -0.09,-0.629 -0.27,-0.893c-0.18,-0.264 -0.43,-0.47 -0.72,-0.592c-0.29,-0.121 -0.62,-0.153 -0.93,-0.091c-0.31,0.062 -0.6,0.215 -0.82,0.439z" fill="#F96703"/>
<path id="Vector_334" d="M33.7552,46.9043h-3.22c-0.89,0 -1.61,0.72 -1.61,1.608v3.214c0,0.887 0.72,1.607 1.61,1.607h3.22c0.88,0 1.6,-0.72 1.6,-1.607v-3.214c0,-0.888 -0.72,-1.608 -1.6,-1.608z" fill="#A64401"/>
<path id="Vector_335" d="M32.1452,59.7623c0.88,0 1.6,-0.72 1.6,-1.607c0,-0.888 -0.72,-1.608 -1.6,-1.608c-0.89,0 -1.61,0.72 -1.61,1.608c0,0.887 0.72,1.607 1.61,1.607z" fill="#D2D2D2"/>
<path id="Vector_336" d="M32.1452,69.4053c0.88,0 1.6,-0.72 1.6,-1.608c0,-0.887 -0.72,-1.607 -1.6,-1.607c-0.89,0 -1.61,0.72 -1.61,1.607c0,0.888 0.72,1.608 1.61,1.608z" fill="#D2D2D2"/>
<path id="Vector_337" d="M-0.0048,75.8333h32.15v12.857h-32.15z" fill="white"/>
<path id="Vector_338" d="M32.1452,75.8333h6.43c2.56,0 5.01,1.016 6.82,2.824c1.8,1.809 2.82,4.261 2.82,6.819v3.214h-16.07z" fill="#F0C8A0"/>
<path id="Vector_339" d="M25.7152,88.6903h-19.29v-9.643c0,-0.852 0.34,-1.67 0.95,-2.273c0.6,-0.602 1.42,-0.941 2.27,-0.941h19.28c-0.85,0 -1.67,0.339 -2.27,0.941c-0.6,0.603 -0.94,1.421 -0.94,2.273z" fill="#06B9A3"/>
<path id="Vector_340" d="M81.9652,66.1903h-41.79c-0.89,0 -1.6,0.72 -1.6,1.607c0,0.888 0.71,1.608 1.6,1.608h41.79c0.89,0 1.61,-0.72 1.61,-1.608c0,-0.887 -0.72,-1.607 -1.61,-1.607z" fill="#E2E2E4"/>
<path id="Vector_341" d="M61.0752,46.9043c5.11,0 10.02,2.032 13.63,5.649c3.62,3.617 5.65,8.522 5.65,13.637h-38.57c0,-5.115 2.03,-10.02 5.65,-13.637c3.62,-3.617 8.52,-5.649 13.64,-5.649z" fill="url(#paint8_linear_796_10371)"/>
<path id="Vector_342" d="M51.4252,69.4043h19.29c0,1.705 -0.68,3.341 -1.88,4.546c-1.21,1.206 -2.84,1.883 -4.55,1.883h-12.86z" fill="#F0C8A0"/>
<path id="Vector_343" d="M51.4252,75.8333h12.86v1.607h-12.86z" fill="#D2D2D2"/>
<path id="Vector_344" d="M70.7152,69.4043h-19.29v1.608h19.09c0.13,-0.526 0.2,-1.065 0.2,-1.608z" fill="#D2AA82"/>
<path id="Vector_345" d="M41.8552,64.5833c-0.05,0.53 -0.07,1.066 -0.07,1.607h38.57c0,-0.541 -0.02,-1.077 -0.07,-1.607z" fill="#B0B2B5"/>
<path id="Vector_346" d="M61.0652,46.9053c1.78,0 3.22,-1.44 3.22,-3.215c0,-1.775 -1.44,-3.214 -3.22,-3.214c-1.77,0 -3.21,1.439 -3.21,3.214c0,1.775 1.44,3.215 3.21,3.215z" fill="#011B40"/>
<g id="Group_76">
<path id="Vector_347" d="M49.7652,20.7383c-0.2,0 -0.39,-0.081 -0.53,-0.229c-0.05,-0.055 -1.45,-1.453 -4.85,-1.453c-0.05,0 -0.11,-0.006 -0.16,-0.019c-0.16,-0.037 -3.73,-0.925 -6.64,-5.578c-1.67,1.991 -4.9,3.517 -9.65,4.544c-4.01,0.867 -7.58,1.045 -7.73,1.053c-0.02,0 -0.03,0 -0.04,0c-3.4,0 -4.8,1.398 -4.85,1.458c-0.2,0.205 -0.51,0.275 -0.77,0.176c-0.27,-0.099 -0.46,-0.343 -0.48,-0.628c-0.02,-0.399 -0.57,-9.844 3.54,-14.979c1.76,-2.202 4.78,-3.726 8.97,-4.53c3,-0.574 5.48,-0.557 5.7,-0.552c0.57,-0.007 10.55,-0.071 14.67,5.082c4.11,5.135 3.57,14.58 3.54,14.979c-0.02,0.287 -0.21,0.536 -0.48,0.633c-0.08,0.029 -0.16,0.043 -0.24,0.043zM32.1952,1.4433c-0.92,0 -9.92,0.117 -13.46,4.541c-2.91,3.636 -3.25,9.952 -3.26,12.676c0.95,-0.505 2.47,-1.043 4.67,-1.046c0.27,-0.013 3.74,-0.209 7.5,-1.024c5,-1.085 8.24,-2.751 9.35,-4.819c0.13,-0.233 0.37,-0.378 0.64,-0.378v0c0.26,0 0.51,0.145 0.63,0.378c2.47,4.546 5.71,5.689 6.22,5.844c2.16,0.016 3.66,0.546 4.59,1.045c0,-2.726 -0.35,-9.045 -3.25,-12.676c-3.71,-4.641 -13.44,-4.547 -13.54,-4.541c0,0 -0.01,0 -0.02,0c0,0 -0.03,0 -0.07,0z" fill="#284268"/>
</g>
</g></svg>