<svg width="2839" height="601" viewBox="0 0 2839 601" fill="none" xmlns="http://www.w3.org/2000/svg">
<path d="M1766.72 141.851L1773.57 116.521C1769.87 118.589 1764.34 120.251 1756.8 121.571C1745.34 123.584 1729.94 124.67 1713.46 124.64C1697.81 124.611 1665.83 123.545 1653.13 115.939L1659.99 141.652C1665.78 160.538 1682.27 152.636 1689.11 157.929C1693.99 161.699 1693.91 166.437 1694.97 168.885C1696.02 171.335 1698.27 174.067 1701.8 174.077L1706.88 174.089L1713.29 174.106L1719.7 174.113L1724.79 174.12C1728.31 174.122 1730.57 171.399 1731.64 168.953C1732.7 166.509 1732.64 161.77 1737.53 158.019C1744.4 152.752 1760.85 160.715 1766.72 141.851Z" fill="#F96703"/>
<path d="M1725.07 181.526L1701.73 181.5L1701.64 263.183C1709.18 268.626 1716.95 273.95 1724.96 279.139L1725.07 181.526Z" fill="#1F4E79"/>
<path d="M1713.47 117.291C1751.76 117.362 1770.11 111.824 1771.8 108.719C1777.58 81.8674 1783.24 58.7344 1806.09 17.2194L1775.95 17.1861C1766.61 37.0358 1762.03 56.6111 1758.41 72.4186C1759.54 55.9167 1763.05 37.4669 1770.2 17.1799L1734.52 17.1403L1729.14 62.5397L1728.28 17.1337L1713.56 17.118L1661.29 17.0596C1669.37 44.7153 1670.97 68.2717 1671.63 88.9157C1667.54 68.2095 1661.76 43.7026 1649.08 17.0464L1621.07 17.0156C1643.78 58.5042 1649.41 81.635 1655.11 108.442C1656.6 111.541 1674.95 117.219 1713.47 117.291Z" fill="#06B9A3"/>
<path d="M1259.32 447V218.093H1314.65V309.969H1404.85V218.093H1460.06V447H1404.85V355.013H1314.65V447H1259.32ZM1575.02 450.241C1557.06 450.241 1541.56 446.702 1528.52 439.623C1515.56 432.47 1505.57 422.299 1498.57 409.11C1491.64 395.846 1488.18 380.087 1488.18 361.831C1488.18 344.096 1491.68 328.598 1498.68 315.334C1505.69 301.996 1515.56 291.639 1528.3 284.262C1541.04 276.81 1556.06 273.085 1573.34 273.085C1585.56 273.085 1596.74 274.985 1606.88 278.785C1617.01 282.585 1625.76 288.211 1633.14 295.662C1640.52 303.114 1646.26 312.316 1650.35 323.27C1654.45 334.149 1656.5 346.63 1656.5 360.713V374.349H1507.29V342.606H1605.65C1605.57 336.794 1604.19 331.615 1601.51 327.07C1598.83 322.525 1595.14 318.985 1590.45 316.452C1585.83 313.844 1580.5 312.54 1574.46 312.54C1568.35 312.54 1562.88 313.918 1558.03 316.675C1553.19 319.358 1549.35 323.046 1546.52 327.741C1543.69 332.36 1542.2 337.614 1542.05 343.5V375.802C1542.05 382.806 1543.43 388.954 1546.18 394.244C1548.94 399.46 1552.85 403.521 1557.92 406.427C1562.99 409.333 1569.02 410.786 1576.03 410.786C1580.87 410.786 1585.27 410.116 1589.22 408.774C1593.17 407.433 1596.56 405.459 1599.39 402.851C1602.22 400.243 1604.34 397.038 1605.76 393.238L1655.94 394.691C1653.86 405.943 1649.27 415.741 1642.2 424.087C1635.19 432.358 1625.99 438.803 1614.59 443.423C1603.19 447.969 1590 450.241 1575.02 450.241ZM1739.07 218.093V447H1684.42V218.093H1739.07ZM1773.86 511.38V275.32H1827.96V304.716H1829.63C1831.87 299.5 1835.04 294.47 1839.14 289.627C1843.31 284.783 1848.6 280.834 1855.01 277.779C1861.49 274.65 1869.24 273.085 1878.25 273.085C1890.18 273.085 1901.32 276.214 1911.67 282.473C1922.11 288.733 1930.53 298.382 1936.93 311.422C1943.34 324.462 1946.55 341.079 1946.55 361.272C1946.55 380.72 1943.45 397.001 1937.27 410.116C1931.16 423.23 1922.89 433.066 1912.46 439.623C1902.1 446.18 1890.59 449.459 1877.92 449.459C1869.28 449.459 1861.79 448.043 1855.45 445.212C1849.12 442.38 1843.79 438.654 1839.47 434.035C1835.22 429.415 1831.94 424.46 1829.63 419.169H1828.52V511.38H1773.86ZM1827.4 361.16C1827.4 370.4 1828.63 378.447 1831.09 385.303C1833.62 392.158 1837.24 397.486 1841.93 401.286C1846.7 405.011 1852.4 406.874 1859.03 406.874C1865.74 406.874 1871.44 405.011 1876.13 401.286C1880.83 397.486 1884.37 392.158 1886.75 385.303C1889.21 378.447 1890.44 370.4 1890.44 361.16C1890.44 351.92 1889.21 343.91 1886.75 337.129C1884.37 330.349 1880.83 325.095 1876.13 321.37C1871.51 317.644 1865.81 315.781 1859.03 315.781C1852.32 315.781 1846.62 317.607 1841.93 321.258C1837.24 324.909 1833.62 330.125 1831.09 336.906C1828.63 343.687 1827.4 351.771 1827.4 361.16ZM2055.44 450.241C2037.48 450.241 2021.98 446.702 2008.94 439.623C1995.98 432.47 1985.99 422.299 1978.99 409.11C1972.06 395.846 1968.59 380.087 1968.59 361.831C1968.59 344.096 1972.1 328.598 1979.1 315.334C1986.1 301.996 1995.98 291.639 2008.72 284.262C2021.46 276.81 2036.48 273.085 2053.76 273.085C2065.98 273.085 2077.16 274.985 2087.29 278.785C2097.43 282.585 2106.18 288.211 2113.56 295.662C2120.94 303.114 2126.67 312.316 2130.77 323.27C2134.87 334.149 2136.92 346.63 2136.92 360.713V374.349H1987.71V342.606H2086.06C2085.99 336.794 2084.61 331.615 2081.93 327.07C2079.25 322.525 2075.56 318.985 2070.86 316.452C2066.24 313.844 2060.92 312.54 2054.88 312.54C2048.77 312.54 2043.29 313.918 2038.45 316.675C2033.61 319.358 2029.77 323.046 2026.94 327.741C2024.11 332.36 2022.62 337.614 2022.47 343.5V375.802C2022.47 382.806 2023.85 388.954 2026.6 394.244C2029.36 399.46 2033.27 403.521 2038.34 406.427C2043.41 409.333 2049.44 410.786 2056.45 410.786C2061.29 410.786 2065.69 410.116 2069.63 408.774C2073.58 407.433 2076.97 405.459 2079.81 402.851C2082.64 400.243 2084.76 397.038 2086.18 393.238L2136.36 394.691C2134.28 405.943 2129.69 415.741 2122.61 424.087C2115.61 432.358 2106.41 438.803 2095.01 443.423C2083.61 447.969 2070.42 450.241 2055.44 450.241ZM2164.84 447V275.32H2217.93V306.616H2219.71C2222.84 295.29 2227.95 286.87 2235.03 281.356C2242.11 275.767 2250.34 272.973 2259.73 272.973C2262.26 272.973 2264.87 273.159 2267.55 273.532C2270.24 273.83 2272.73 274.314 2275.04 274.985V322.487C2272.43 321.593 2269.01 320.885 2264.76 320.364C2260.59 319.842 2256.86 319.581 2253.58 319.581C2247.1 319.581 2241.25 321.034 2236.03 323.94C2230.89 326.772 2226.83 330.758 2223.85 335.9C2220.94 340.967 2219.49 346.928 2219.49 353.783V447H2164.84ZM2447.2 327.741L2397.01 329.082C2396.49 325.505 2395.07 322.338 2392.76 319.581C2390.45 316.75 2387.44 314.552 2383.71 312.987C2380.06 311.348 2375.81 310.528 2370.97 310.528C2364.63 310.528 2359.23 311.795 2354.76 314.328C2350.37 316.862 2348.2 320.289 2348.28 324.611C2348.2 327.964 2349.55 330.87 2352.3 333.329C2355.13 335.788 2360.16 337.763 2367.39 339.253L2400.48 345.512C2417.61 348.791 2430.36 354.23 2438.7 361.831C2447.12 369.431 2451.37 379.49 2451.44 392.009C2451.37 403.782 2447.87 414.028 2440.94 422.746C2434.08 431.464 2424.69 438.245 2412.77 443.088C2400.85 447.857 2387.21 450.241 2371.86 450.241C2347.35 450.241 2328.01 445.212 2313.85 435.152C2299.77 425.018 2291.72 411.457 2289.71 394.468L2343.7 393.126C2344.89 399.386 2347.98 404.155 2352.97 407.433C2357.97 410.712 2364.34 412.351 2372.09 412.351C2379.09 412.351 2384.79 411.047 2389.19 408.439C2393.58 405.831 2395.82 402.366 2395.89 398.044C2395.82 394.17 2394.11 391.077 2390.75 388.767C2387.4 386.383 2382.15 384.52 2374.99 383.179L2345.04 377.479C2327.82 374.349 2315.01 368.574 2306.59 360.154C2298.17 351.66 2294 340.855 2294.07 327.741C2294 316.265 2297.05 306.467 2303.24 298.345C2309.42 290.148 2318.21 283.889 2329.61 279.567C2341.01 275.246 2354.46 273.085 2369.96 273.085C2393.21 273.085 2411.54 277.965 2424.95 287.727C2438.37 297.413 2445.78 310.751 2447.2 327.741Z" fill="#1F4E79"/>
<path d="M170.57 457.133H29.2488V74.7997H170.384C209.339 74.7997 242.88 82.4539 271.007 97.7621C299.259 112.946 321.039 134.85 336.347 163.476C351.656 191.976 359.31 226.078 359.31 265.78C359.31 305.606 351.656 339.832 336.347 368.457C321.164 397.082 299.446 419.049 271.194 434.357C242.942 449.541 209.401 457.133 170.57 457.133ZM121.658 378.351H167.023C188.43 378.351 206.538 374.742 221.349 367.524C236.284 360.181 247.547 348.295 255.139 331.866C262.855 315.314 266.714 293.285 266.714 265.78C266.714 238.275 262.855 216.37 255.139 200.066C247.423 183.638 236.035 171.814 220.975 164.596C206.041 157.253 187.621 153.581 165.716 153.581H121.658V378.351ZM481.902 460.374C463.944 460.374 448.445 456.835 435.405 449.756C422.44 442.603 412.455 432.431 405.45 419.243C398.521 405.979 395.056 390.219 395.056 371.964C395.056 354.229 398.558 338.73 405.562 325.467C412.566 312.129 422.44 301.771 435.181 294.395C447.923 286.943 462.938 283.218 480.225 283.218C492.445 283.218 503.622 285.118 513.756 288.918C523.89 292.718 532.646 298.344 540.022 305.795C547.399 313.247 553.137 322.449 557.235 333.403C561.333 344.282 563.382 356.763 563.382 370.846V384.482H414.169V352.739H512.527C512.452 346.927 511.074 341.748 508.391 337.203C505.709 332.657 502.02 329.118 497.326 326.585C492.706 323.977 487.378 322.673 481.343 322.673C475.233 322.673 469.756 324.051 464.912 326.808C460.069 329.491 456.232 333.179 453.4 337.873C450.569 342.493 449.078 347.747 448.929 353.633V385.935C448.929 392.939 450.308 399.087 453.065 404.377C455.822 409.593 459.734 413.654 464.801 416.56C469.868 419.466 475.903 420.919 482.908 420.919C487.751 420.919 492.147 420.248 496.096 418.907C500.046 417.566 503.436 415.591 506.268 412.983C509.099 410.375 511.223 407.171 512.639 403.371L562.824 404.824C560.737 416.076 556.155 425.874 549.076 434.22C542.072 442.491 532.869 448.936 521.468 453.556C510.068 458.101 496.879 460.374 481.902 460.374ZM741.182 337.873L690.997 339.215C690.475 335.638 689.059 332.471 686.749 329.714C684.439 326.883 681.422 324.684 677.696 323.12C674.045 321.48 669.798 320.661 664.954 320.661C658.62 320.661 653.218 321.927 648.747 324.461C644.351 326.994 642.19 330.422 642.265 334.744C642.19 338.097 643.531 341.003 646.288 343.462C649.12 345.921 654.15 347.896 661.377 349.386L694.462 355.645C711.6 358.924 724.342 364.363 732.687 371.964C741.107 379.564 745.355 389.623 745.429 402.142C745.355 413.915 741.852 424.16 734.923 432.879C728.067 441.597 718.679 448.377 706.756 453.221C694.834 457.99 681.198 460.374 665.848 460.374C641.333 460.374 621.997 455.344 607.839 445.285C593.756 435.151 585.709 421.59 583.697 404.601L637.682 403.259C638.874 409.518 641.967 414.287 646.959 417.566C651.951 420.845 658.322 422.484 666.072 422.484C673.076 422.484 678.776 421.18 683.173 418.572C687.569 415.964 689.804 412.499 689.879 408.177C689.804 404.303 688.091 401.21 684.738 398.9C681.384 396.516 676.131 394.653 668.978 393.312L639.023 387.611C621.811 384.482 608.994 378.707 600.574 370.287C592.154 361.792 587.981 350.988 588.056 337.873C587.981 326.398 591.036 316.6 597.221 308.478C603.406 300.281 612.198 294.022 623.599 289.7C635 285.378 648.449 283.218 663.948 283.218C687.196 283.218 705.527 288.098 718.939 297.859C732.352 307.546 739.766 320.884 741.182 337.873ZM772.338 457.133V285.453H826.994V457.133H772.338ZM799.722 265.446C792.047 265.446 785.452 262.913 779.938 257.846C774.424 252.704 771.667 246.519 771.667 239.292C771.667 232.138 774.424 226.028 779.938 220.961C785.452 215.82 792.047 213.249 799.722 213.249C807.471 213.249 814.066 215.82 819.505 220.961C825.019 226.028 827.776 232.138 827.776 239.292C827.776 246.519 825.019 252.704 819.505 257.846C814.066 262.913 807.471 265.446 799.722 265.446Z" fill="#06B9A3"/>
<path d="M2650.86 267.959L2650.42 271.725L2655.13 272.276L2655.57 268.511L2650.86 267.959Z" fill="white"/>
<path d="M2647.93 279.627L2646.66 283.205L2651.14 284.791L2652.41 281.213L2647.93 279.627Z" fill="white"/>
<path d="M2654.01 274.84L2649.38 273.772L2648.53 277.468L2653.15 278.534L2654.01 274.84Z" fill="white"/>
<path d="M2662.42 261.711V265.501L2672.01 265.468V261.679L2662.42 261.711Z" fill="white"/>
<path d="M2659.63 283.788L2658.37 287.365L2667.46 290.585L2668.72 287.008L2659.63 283.788Z" fill="white"/>
<path d="M2655.24 290.151L2653.52 293.531L2661.86 297.789L2663.59 294.409L2655.24 290.151Z" fill="white"/>
<path d="M2641.39 261.149L2634.34 259.104L2627.77 281.752L2634.83 283.799C2636.49 284.28 2638.23 283.324 2638.71 281.663L2643.53 265.031C2644.01 263.369 2643.06 261.632 2641.39 261.149Z" fill="white"/>
<path d="M2672.59 274.286L2673.03 270.522L2663.33 269.392L2662.89 273.157L2672.59 274.286Z" fill="white"/>
<path d="M2642.57 287.985L2646.79 290.135L2648.52 286.758L2644.3 284.606L2642.57 287.985Z" fill="white"/>
<path d="M2650 265.539L2654.74 265.523V261.733L2650 261.749L2650 265.539Z" fill="white"/>
<path d="M2708 274.595L2698.28 273.463L2697.84 277.228L2707.56 278.359L2708 274.595Z" fill="white"/>
<path d="M2706.56 261.573L2696.97 261.605V265.395L2706.56 265.362V261.573Z" fill="white"/>
<path d="M2695.09 284.366L2694.23 288.062L2703.58 290.22L2704.43 286.524L2695.09 284.366Z" fill="white"/>
<path d="M2692.42 295.389L2691.15 298.966L2700.24 302.187L2701.51 298.61L2692.42 295.389Z" fill="white"/>
<path d="M2621.12 279.823L2627.68 257.175L2559.18 225.294C2548.74 220.583 2536.77 220.623 2526.35 225.4L2519.09 228.733C2517.23 229.433 2518.08 230.596 2519.6 231.297C2530.18 236.944 2535.36 249.227 2532.02 260.743L2526.78 278.813L2565.16 289.94C2565.68 288.128 2566.54 286.657 2567.4 285.184C2571.95 286.494 2576.69 287.004 2581.71 286.366C2582.17 306.781 2590.47 318.99 2596.41 327.481C2596.94 328.239 2598.35 327.753 2598.07 326.87C2593.49 312.58 2593.85 283.907 2602.13 274.942C2608.27 275.896 2614.7 277.567 2621.12 279.823Z" fill="white"/>
<path d="M2676.03 289.657L2674.77 293.233L2683.87 296.463L2685.14 292.887L2676.03 289.657Z" fill="white"/>
<path d="M2661.45 276.571L2660.59 280.267L2669.95 282.433L2670.8 278.737L2661.45 276.571Z" fill="white"/>
<path d="M2670.26 297.813L2668.54 301.193L2676.87 305.443L2678.59 302.063L2670.26 297.813Z" fill="white"/>
<path d="M2685.22 305.484L2683.5 308.863L2691.84 313.12L2693.57 309.741L2685.22 305.484Z" fill="white"/>
<path d="M2679.69 265.445L2689.29 265.419V261.629L2679.69 261.655V265.445Z" fill="white"/>
<path d="M2680.37 275.196L2690.07 276.326L2690.52 272.562L2680.82 271.432L2680.37 275.196Z" fill="white"/>
<path d="M2678.29 280.468L2677.43 284.163L2686.79 286.329L2687.64 282.634L2678.29 280.468Z" fill="white"/>
<path d="M1211.52 404.221C1211.52 426.158 1197.17 429.766 1183.55 429.766H898.884C885.259 429.766 870.914 426.158 870.914 404.221H1211.52Z" fill="#06B9A3"/>
<path opacity="0.6" d="M1353 567.503C1353 586.005 1213.31 601 1041 601C868.689 601 729 586.002 729 567.503C729 548.996 868.689 534 1041 534C1213.31 534 1353 548.996 1353 567.503Z" fill="url(#paint0_radial_7_37)"/>
<path d="M1026.86 243.132H1057.86C1061.35 243.132 1064.21 240.274 1064.21 236.783C1064.21 233.293 1061.35 230.435 1057.86 230.435H1026.86C1023.36 230.435 1020.51 233.293 1020.51 236.783C1020.51 240.274 1023.36 243.132 1026.86 243.132Z" fill="#1F4E79"/>
<path d="M894.547 387.892H1190.19C1188.37 318.102 1127.34 261.06 1051.29 256.872V251.412H1033.45V256.872C957.397 261.06 896.369 318.102 894.547 387.892Z" fill="#F96703"/>
<path d="M1158.24 347.376C1159.78 346.789 1161.57 347.572 1162.15 349.125C1164.3 354.68 1165.98 360.453 1167.13 366.226L1158.24 347.376ZM1158.24 347.376C1156.67 347.931 1155.82 349.671 1156.45 351.21C1158.45 356.479 1160.03 361.902 1161.15 367.384C1161.44 368.827 1162.75 369.804 1164.16 369.804C1164.37 369.804 1164.55 369.767 1164.69 369.739C1164.7 369.736 1164.72 369.733 1164.73 369.731C1166.38 369.415 1167.46 367.87 1167.13 366.227L1158.24 347.376Z" fill="white" stroke="white" stroke-width="1.31427"/>
<path d="M1150.92 339.218L1150.92 339.218L1150.92 339.227C1151.5 340.257 1152.56 340.805 1153.64 340.805C1154.07 340.805 1154.56 340.729 1155.03 340.484C1156.53 339.731 1157.12 337.901 1156.33 336.453C1138 302.323 1102.59 278.391 1061.64 272.374C1059.97 272.102 1058.42 273.241 1058.17 274.871C1057.88 276.542 1059.1 278.029 1060.74 278.265C1099.81 284.008 1133.51 306.787 1150.92 339.218Z" fill="white" stroke="white" stroke-width="1.31427"/>
<path d="M115.114 315.754C115.114 315.754 90.5526 298.38 78.4695 315.983C64.4439 336.427 101.23 395.967 140.071 374.149L115.114 315.754Z" fill="white"/>
<path d="M287.619 238.419C287.619 238.419 290.995 208.521 312.17 211.214C336.767 214.344 356.742 281.42 314.615 295.899L287.619 238.419Z" fill="white"/>
<path d="M306.561 229.48C335.216 292.552 311.088 365.236 252.677 391.794C194.261 418.384 123.673 388.808 95.0157 325.738C66.3671 262.66 90.4977 189.975 148.916 163.404C207.322 136.813 277.91 166.404 306.561 229.48Z" fill="#FCD5C0"/>
<path d="M306.561 229.48C335.216 292.552 311.088 365.236 252.677 391.794C194.261 418.384 123.673 388.808 95.0157 325.738C66.3671 262.66 90.4977 189.975 148.916 163.404C207.322 136.813 277.91 166.404 306.561 229.48Z" fill="white"/>
<path d="M178.507 288.615C182.778 298.14 171.017 291.486 161.998 295.529C152.985 299.57 150.126 312.781 145.855 303.252C141.586 293.73 145.436 282.732 154.45 278.691C163.47 274.651 174.238 279.092 178.507 288.615Z" fill="#1F4E79"/>
<path d="M256.57 253.621C260.84 263.147 249.079 256.493 240.063 260.535C231.05 264.576 228.189 277.788 223.917 268.259C219.648 258.736 223.499 247.739 232.515 243.697C241.532 239.658 252.301 244.098 256.57 253.621Z" fill="#1F4E79"/>
<path d="M196.977 335.485C205.152 345.568 218.851 349.515 230.658 344.222C242.47 338.927 248.638 326.074 246.55 313.262" stroke="#1F4E79" stroke-width="0.87618" stroke-miterlimit="10" stroke-linecap="round"/>
<path d="M270.95 311.565C280.283 332.384 266.618 358.774 240.434 370.512C214.247 382.251 185.454 374.895 176.121 354.076C166.789 333.26 191.344 331.163 217.531 319.424C243.72 307.687 261.62 290.751 270.95 311.565Z" fill="#F96703"/>
<path d="M250.246 357.549L250.246 357.549C246.853 349.987 238.263 346.43 231.082 349.649C223.895 352.871 220.836 361.65 224.226 369.213C227.617 376.777 236.206 380.333 243.393 377.112C250.575 373.892 253.636 365.112 250.246 357.549ZM245.582 381.994C235.884 386.342 224.229 381.547 219.625 371.276C215.021 361.006 219.196 349.117 228.894 344.769C238.59 340.423 250.243 345.216 254.847 355.486C259.451 365.757 255.277 377.648 245.582 381.994Z" fill="#1F4E79" stroke="black" stroke-width="0.43809"/>
<path d="M245.531 336.78C249.934 346.602 245.964 357.942 236.669 362.109C227.369 366.278 216.265 361.696 211.861 351.874C207.459 342.054 211.43 330.714 220.727 326.546C230.021 322.38 241.129 326.96 245.531 336.78Z" fill="white"/>
<path d="M180.24 197.724C182.125 188.758 180.501 179.418 175.661 171.428C172.273 165.844 167.576 161.418 162.084 158.444C158.983 159.399 155.906 160.49 152.862 161.738C152.994 161.773 153.128 161.784 153.262 161.822C160.341 163.702 166.396 168.301 170.316 174.774C174.238 181.243 175.557 188.805 174.026 196.071C173.027 200.825 170.287 204.818 166.31 207.304C162.326 209.803 157.582 210.491 152.961 209.259C146.902 207.644 143.032 201.262 144.342 195.031C145.127 191.272 148.748 189.017 152.404 189.984C154.395 190.518 155.669 192.618 155.236 194.666C154.869 196.429 155.96 198.225 157.676 198.684C159.391 199.141 161.086 198.076 161.457 196.315C162.622 190.752 159.166 185.05 153.75 183.601C146.658 181.72 139.655 186.104 138.125 193.377C136.076 203.129 142.128 213.117 151.617 215.642C156.861 217.035 162.202 216.612 166.963 214.477C167.918 214.049 168.853 213.552 169.749 212.985C175.158 209.604 178.88 204.181 180.24 197.724Z" fill="#1F4E79"/>
<path d="M2556.37 245.485C2556.27 245.61 2556.18 245.743 2556.09 245.883C2556.01 245.986 2556 246.115 2555.93 246.219C2555.87 246.322 2555.85 246.298 2555.81 246.35C2555.07 247.598 2554.59 248.985 2554.4 250.425L2554.4 250.486L2501.56 462.569C2501.19 464.014 2501.27 465.534 2501.76 466.939C2502.26 468.343 2503.15 469.571 2504.34 470.47C2505.53 471.369 2506.96 471.898 2508.44 471.993C2509.93 472.088 2511.41 471.744 2512.7 471.003L2702.33 362.405L2702.38 362.407C2703.1 362.073 2703.78 361.665 2704.41 361.189C2704.86 360.905 2705.29 360.572 2705.67 360.195L2705.71 360.197C2705.78 360.132 2705.83 360.058 2705.9 359.992L2705.95 359.949L2705.95 359.903C2706.17 359.696 2706.37 359.476 2706.55 359.246C2711.97 352.078 2707.72 341.568 2692.74 325.169C2678.3 309.949 2662.56 296.019 2645.7 283.537C2623.18 266.347 2569.23 228.486 2556.37 245.485ZM2691.46 347.618C2691.14 347.52 2690.76 347.373 2690.4 347.259C2689.65 347.02 2688.91 346.751 2688.07 346.433C2687.43 346.191 2686.77 345.942 2686.06 345.66C2684.85 345.165 2683.55 344.605 2682.15 343.965C2681.37 343.611 2680.51 343.201 2679.68 342.806C2678.62 342.303 2677.51 341.752 2676.35 341.138C2675.4 340.654 2674.43 340.163 2673.38 339.629C2671.7 338.741 2669.92 337.78 2668.08 336.748C2667.22 336.261 2666.32 335.757 2665.41 335.23C2663.19 333.953 2660.91 332.612 2658.48 331.121C2657.87 330.744 2657.22 330.304 2656.59 329.934C2654.34 328.531 2652.01 327.044 2649.61 325.472L2647.58 324.143C2644.7 322.246 2641.71 320.214 2638.62 318.049L2636.53 316.557C2633.23 314.206 2629.89 311.761 2626.37 309.118C2622.84 306.475 2619.5 303.824 2616.3 301.264L2614.48 299.807C2611.44 297.345 2608.56 294.936 2605.83 292.579C2605.39 292.202 2604.97 291.833 2604.53 291.449C2601.94 289.204 2599.47 287.019 2597.17 284.917L2596.59 284.397C2594.2 282.192 2592 280.094 2589.93 278.071L2588.79 276.94C2586.81 274.974 2584.95 273.073 2583.28 271.296L2582.78 270.757C2581.21 269.067 2579.78 267.475 2578.48 266.003L2577.93 265.378C2576.63 263.852 2575.49 262.448 2574.49 261.149L2573.95 260.433C2573 259.166 2572.15 257.98 2571.5 256.962C2581.84 260.014 2604.9 271.592 2636.62 295.593C2668.33 319.593 2685.64 338.469 2691.46 347.618Z" fill="#F96703"/>
<path d="M2578.73 419.011C2579.72 416.897 2580.06 414.537 2579.7 412.229C2579.35 409.921 2578.33 407.77 2576.75 406.046C2575.18 404.323 2573.13 403.105 2570.86 402.547C2568.59 401.989 2566.21 402.116 2564.02 402.911C2561.82 403.707 2559.91 405.136 2558.53 407.016C2557.15 408.897 2556.35 411.146 2556.25 413.478C2556.15 415.81 2556.73 418.121 2557.94 420.118C2559.15 422.115 2560.93 423.708 2563.04 424.696C2565.88 426.021 2569.12 426.166 2572.06 425.1C2575 424.034 2577.4 421.844 2578.73 419.011Z" fill="white"/>
<path d="M2624.59 338.073C2625.39 336.375 2625.66 334.478 2625.38 332.624C2625.1 330.77 2624.27 329.041 2623.01 327.656C2621.74 326.271 2620.09 325.293 2618.27 324.845C2616.45 324.396 2614.54 324.498 2612.77 325.137C2611.01 325.777 2609.48 326.924 2608.37 328.436C2607.25 329.947 2606.62 331.754 2606.53 333.628C2606.45 335.502 2606.92 337.358 2607.89 338.963C2608.87 340.567 2610.29 341.848 2611.99 342.642C2614.27 343.706 2616.87 343.823 2619.24 342.966C2621.6 342.11 2623.53 340.35 2624.59 338.073Z" fill="white"/>
<path d="M2548.71 369.088C2551.75 370.514 2555.15 371.005 2558.48 370.499C2561.8 369.993 2564.9 368.512 2567.38 366.245C2569.86 363.977 2571.62 361.024 2572.42 357.76C2573.22 354.495 2573.04 351.065 2571.9 347.905C2570.75 344.744 2568.69 341.994 2565.98 340.003C2563.27 338.011 2560.04 336.868 2556.68 336.718C2553.32 336.568 2549.99 337.417 2547.11 339.158C2544.24 340.899 2541.94 343.455 2540.52 346.5C2538.61 350.582 2538.4 355.254 2539.94 359.489C2541.47 363.725 2544.63 367.178 2548.71 369.088Z" fill="white"/>
<path d="M2708.05 120.847C2707.14 120.436 2706.16 120.208 2705.16 120.176C2704.17 120.145 2703.17 120.31 2702.24 120.663C2701.3 121.016 2700.45 121.549 2699.72 122.232C2698.99 122.916 2698.41 123.736 2698 124.646C2685.62 152.048 2649.82 227.081 2633.06 244.409C2632.36 245.128 2631.82 245.976 2631.45 246.905C2631.09 247.834 2630.91 248.827 2630.92 249.825C2630.94 250.824 2631.15 251.81 2631.55 252.726C2631.95 253.642 2632.53 254.47 2633.24 255.164C2633.96 255.858 2634.81 256.404 2635.74 256.77C2636.67 257.137 2637.66 257.316 2638.66 257.299C2639.66 257.282 2640.64 257.068 2641.56 256.67C2642.48 256.272 2643.3 255.697 2644 254.979C2666.03 232.21 2710.01 135.027 2711.86 130.895C2712.69 129.058 2712.75 126.967 2712.04 125.083C2711.32 123.199 2709.89 121.675 2708.05 120.847Z" fill="#1F4E79"/>
<path d="M2688.04 287.603C2687.87 289.61 2688.5 291.603 2689.8 293.142C2691.1 294.681 2692.96 295.642 2694.97 295.812L2733.79 299.052L2734.1 299.066C2735.59 299.131 2737.08 298.753 2738.36 297.979C2739.64 297.205 2740.66 296.07 2741.3 294.715L2755.3 265.057L2802.7 276.496C2804.54 276.938 2806.48 276.679 2808.14 275.767C2809.8 274.856 2811.06 273.359 2811.67 271.569L2828.26 223.301C2828.88 221.405 2828.73 219.341 2827.84 217.555C2826.95 215.768 2825.39 214.403 2823.51 213.755C2821.62 213.106 2819.55 213.225 2817.75 214.087C2815.95 214.949 2814.57 216.484 2813.89 218.36L2799.53 260.133L2752.82 248.861C2751.12 248.453 2749.33 248.642 2747.76 249.396C2746.18 250.15 2744.92 251.425 2744.17 253.004L2729.78 283.489L2696.22 280.671C2695.23 280.577 2694.22 280.683 2693.27 280.982C2692.32 281.281 2691.43 281.768 2690.67 282.414C2689.91 283.06 2689.28 283.851 2688.83 284.742C2688.38 285.633 2688.11 286.606 2688.04 287.603Z" fill="#1F4E79"/>
<path d="M2622.96 125.582C2621.56 125.846 2620.27 126.494 2619.23 127.453C2618.19 128.412 2617.43 129.644 2617.05 131.01L2612.69 146.735L2597.24 152.052C2595.91 152.52 2594.73 153.35 2593.84 154.451C2592.96 155.551 2592.39 156.877 2592.22 158.28C2592.04 159.683 2592.26 161.107 2592.85 162.392C2593.44 163.677 2594.38 164.771 2595.56 165.553L2609.16 174.559L2609.42 190.9C2609.44 192.317 2609.86 193.699 2610.63 194.89C2611.4 196.081 2612.49 197.032 2613.77 197.637C2615.05 198.242 2616.48 198.477 2617.89 198.314C2619.29 198.151 2620.63 197.598 2621.74 196.716L2634.52 186.559L2650.13 191.326C2651.48 191.74 2652.93 191.767 2654.3 191.403C2655.67 191.039 2656.91 190.299 2657.88 189.267C2658.85 188.235 2659.51 186.951 2659.79 185.562C2660.07 184.172 2659.96 182.732 2659.46 181.404L2653.75 166.115L2663.11 152.748C2663.92 151.586 2664.39 150.221 2664.47 148.805C2664.55 147.389 2664.23 145.98 2663.54 144.736C2662.86 143.493 2661.85 142.465 2660.61 141.769C2659.38 141.074 2657.97 140.737 2656.55 140.798L2640.25 141.499L2630.43 128.469C2629.58 127.339 2628.43 126.469 2627.11 125.959C2625.79 125.449 2624.35 125.319 2622.96 125.582ZM2636.94 156.852L2641.84 156.643L2639.03 160.671C2638.32 161.681 2637.87 162.848 2637.71 164.071C2637.56 165.293 2637.7 166.535 2638.14 167.69L2639.85 172.329L2635.15 170.889C2633.97 170.529 2632.72 170.461 2631.51 170.691C2630.3 170.921 2629.17 171.441 2628.2 172.208L2624.35 175.27L2624.26 170.353C2624.24 169.116 2623.93 167.901 2623.33 166.814C2622.74 165.728 2621.89 164.802 2620.86 164.118L2616.76 161.404L2621.4 159.799C2622.56 159.398 2623.61 158.719 2624.46 157.821C2625.3 156.923 2625.92 155.833 2626.25 154.644L2627.56 149.911L2630.52 153.845C2631.26 154.835 2632.24 155.628 2633.36 156.152C2634.48 156.677 2635.71 156.917 2636.95 156.852L2636.94 156.852Z" fill="#1F4E79"/>
<path d="M2775.08 198.397C2774.6 197.062 2773.76 195.889 2772.65 195.009C2771.54 194.13 2770.2 193.578 2768.79 193.418L2756.01 191.954L2749.96 180.59C2749.29 179.339 2748.29 178.3 2747.07 177.589C2745.84 176.878 2744.44 176.524 2743.02 176.568C2741.61 176.611 2740.23 177.049 2739.05 177.834C2737.87 178.618 2736.93 179.717 2736.34 181.006L2731.03 192.718L2718.35 194.956C2716.95 195.202 2715.65 195.834 2714.6 196.78C2713.54 197.726 2712.77 198.948 2712.37 200.309C2711.98 201.67 2711.97 203.114 2712.35 204.48C2712.73 205.845 2713.48 207.077 2714.53 208.036L2724.03 216.739L2722.24 229.483C2722.04 230.887 2722.24 232.319 2722.82 233.616C2723.39 234.913 2724.32 236.023 2725.49 236.822C2726.66 237.62 2728.03 238.074 2729.45 238.133C2730.87 238.191 2732.27 237.852 2733.51 237.154L2744.71 230.805L2756.28 236.443C2757.55 237.064 2758.98 237.315 2760.38 237.17C2761.79 237.025 2763.13 236.488 2764.26 235.621C2765.38 234.754 2766.23 233.59 2766.73 232.262C2767.22 230.934 2767.33 229.495 2767.05 228.106L2764.49 215.489L2773.43 206.233C2774.41 205.211 2775.08 203.935 2775.37 202.551C2775.67 201.166 2775.57 199.727 2775.08 198.397ZM2750.75 207.822C2749.9 208.705 2749.28 209.781 2748.93 210.958C2748.59 212.134 2748.53 213.377 2748.77 214.58L2749.07 216.022L2747.74 215.378C2746.64 214.839 2745.41 214.577 2744.18 214.616C2742.95 214.654 2741.75 214.991 2740.68 215.598L2739.4 216.301L2739.61 214.85C2739.78 213.629 2739.65 212.385 2739.23 211.224C2738.82 210.064 2738.12 209.022 2737.22 208.189L2736.13 207.197L2737.58 206.942C2738.79 206.729 2739.93 206.225 2740.9 205.473C2741.88 204.722 2742.65 203.745 2743.17 202.626L2743.78 201.292L2744.48 202.593C2745.06 203.681 2745.9 204.611 2746.92 205.304C2747.93 205.997 2749.11 206.432 2750.33 206.571L2751.79 206.735L2750.75 207.822Z" fill="#1F4E79"/>
<path d="M2792.12 333.868C2791.64 332.534 2790.8 331.36 2789.69 330.479C2788.58 329.598 2787.25 329.045 2785.84 328.882L2773.05 327.426L2767.01 316.062C2766.34 314.811 2765.34 313.772 2764.11 313.061C2762.89 312.35 2761.48 311.996 2760.07 312.04C2758.65 312.083 2757.28 312.522 2756.1 313.306C2754.92 314.09 2753.98 315.189 2753.39 316.478L2748.04 328.182L2735.37 330.419C2733.97 330.664 2732.67 331.296 2731.61 332.242C2730.56 333.189 2729.79 334.412 2729.39 335.775C2728.99 337.137 2728.98 338.583 2729.36 339.949C2729.75 341.316 2730.5 342.548 2731.55 343.507L2741.05 352.202L2739.26 364.954C2739.07 366.358 2739.27 367.79 2739.84 369.087C2740.41 370.384 2741.34 371.494 2742.51 372.293C2743.68 373.091 2745.06 373.545 2746.47 373.604C2747.89 373.662 2749.3 373.323 2750.53 372.625L2761.73 366.276L2773.29 371.929C2774.56 372.55 2775.98 372.802 2777.39 372.657C2778.8 372.511 2780.15 371.974 2781.27 371.105C2782.39 370.237 2783.24 369.073 2783.74 367.743C2784.23 366.414 2784.34 364.973 2784.06 363.584L2781.5 350.974L2790.44 341.711C2791.42 340.691 2792.1 339.416 2792.4 338.03C2792.7 336.644 2792.6 335.203 2792.12 333.868ZM2767.79 343.286C2766.94 344.17 2766.32 345.246 2765.98 346.423C2765.63 347.6 2765.58 348.842 2765.82 350.044L2766.11 351.487L2764.79 350.843C2763.68 350.302 2762.46 350.039 2761.23 350.076C2760 350.113 2758.79 350.449 2757.72 351.054L2756.44 351.758L2756.64 350.299C2756.82 349.08 2756.69 347.836 2756.27 346.677C2755.85 345.518 2755.16 344.477 2754.25 343.645L2753.17 342.647L2754.62 342.391C2755.83 342.178 2756.98 341.674 2757.95 340.923C2758.92 340.171 2759.7 339.194 2760.21 338.076L2760.82 336.733L2761.52 338.035C2762.1 339.122 2762.94 340.053 2763.96 340.746C2764.97 341.439 2766.15 341.873 2767.37 342.013L2768.83 342.184L2767.79 343.286Z" fill="#1F4E79"/>
<path d="M2657.32 105.329C2658.21 103.445 2658.52 101.34 2658.21 99.2803C2657.9 97.2203 2656.99 95.2978 2655.59 93.7559C2654.19 92.214 2652.36 91.1218 2650.34 90.6176C2648.32 90.1133 2646.2 90.2196 2644.24 90.923C2642.28 91.6264 2640.57 92.8952 2639.33 94.5692C2638.09 96.2431 2637.37 98.247 2637.27 100.327C2637.17 102.408 2637.69 104.471 2638.76 106.257C2639.84 108.042 2641.41 109.47 2643.3 110.359C2645.82 111.549 2648.72 111.688 2651.35 110.745C2653.98 109.801 2656.12 107.854 2657.32 105.329Z" fill="#1F4E79"/>
<path d="M2580.72 193.728C2579.83 195.612 2579.52 197.717 2579.83 199.777C2580.13 201.838 2581.05 203.761 2582.45 205.303C2583.85 206.845 2585.67 207.938 2587.69 208.442C2589.71 208.946 2591.84 208.839 2593.8 208.136C2595.76 207.432 2597.47 206.162 2598.71 204.487C2599.95 202.813 2600.66 200.808 2600.76 198.727C2600.86 196.647 2600.34 194.583 2599.27 192.798C2598.19 191.012 2596.62 189.585 2594.73 188.697C2592.21 187.508 2589.31 187.369 2586.68 188.312C2584.06 189.256 2581.91 191.203 2580.72 193.728Z" fill="#1F4E79"/>
<path d="M2702.23 239.365C2700.34 238.476 2698.24 238.165 2696.18 238.472C2694.12 238.779 2692.19 239.691 2690.65 241.091C2689.11 242.492 2688.02 244.318 2687.51 246.339C2687.01 248.36 2687.12 250.486 2687.82 252.446C2688.52 254.407 2689.79 256.115 2691.47 257.354C2693.14 258.593 2695.15 259.307 2697.23 259.407C2699.31 259.507 2701.37 258.987 2703.16 257.913C2704.94 256.84 2706.37 255.261 2707.26 253.377C2708.45 250.851 2708.59 247.957 2707.64 245.33C2706.7 242.702 2704.75 240.557 2702.23 239.365Z" fill="#1F4E79"/>
<path d="M2823.04 308.041C2821.16 307.152 2819.05 306.842 2816.99 307.149C2814.93 307.457 2813.01 308.368 2811.47 309.768C2809.93 311.168 2808.83 312.994 2808.33 315.015C2807.82 317.036 2807.93 319.161 2808.63 321.121C2809.34 323.082 2810.61 324.789 2812.28 326.029C2813.95 327.268 2815.96 327.983 2818.04 328.083C2820.12 328.184 2822.18 327.665 2823.97 326.593C2825.75 325.521 2827.18 323.943 2828.07 322.06C2828.66 320.809 2829 319.454 2829.07 318.073C2829.13 316.691 2828.93 315.31 2828.46 314.008C2827.99 312.706 2827.27 311.509 2826.34 310.485C2825.41 309.461 2824.29 308.631 2823.04 308.041Z" fill="#1F4E79"/>
<defs>
<radialGradient id="paint0_radial_7_37" cx="0" cy="0" r="1" gradientUnits="userSpaceOnUse" gradientTransform="translate(1041 567.443) scale(221.554 33.4906)">
<stop stop-color="#023D47" stop-opacity="0.7"/>
<stop offset="0.482" stop-color="#012D38" stop-opacity="0.3626"/>
<stop offset="1" stop-color="#00212D" stop-opacity="0"/>
</radialGradient>
</defs>
</svg>
