<svg width="2890" height="860" viewBox="0 0 2890 860" fill="none" xmlns="http://www.w3.org/2000/svg">
<path d="M1817.72 141.851L1824.57 116.521C1820.87 118.589 1815.34 120.251 1807.8 121.571C1796.34 123.584 1780.94 124.67 1764.46 124.64C1748.81 124.611 1716.83 123.545 1704.13 115.939L1710.99 141.652C1716.78 160.538 1733.27 152.636 1740.11 157.929C1744.99 161.699 1744.91 166.437 1745.97 168.885C1747.02 171.335 1749.27 174.067 1752.8 174.077L1757.88 174.089L1764.29 174.106L1770.7 174.113L1775.79 174.12C1779.31 174.122 1781.57 171.399 1782.64 168.953C1783.7 166.509 1783.64 161.77 1788.53 158.019C1795.4 152.752 1811.85 160.715 1817.72 141.851Z" fill="#F96703"/>
<path d="M1776.07 181.526L1752.74 181.5L1752.65 263.183C1760.18 268.626 1767.95 273.95 1775.96 279.139L1776.07 181.526Z" fill="#1F4E79"/>
<path d="M1764.47 117.291C1802.76 117.362 1821.11 111.824 1822.8 108.719C1828.58 81.8674 1834.24 58.7344 1857.09 17.2194L1826.95 17.1861C1817.61 37.0358 1813.03 56.6111 1809.41 72.4186C1810.54 55.9167 1814.05 37.4669 1821.2 17.1799L1785.52 17.1403L1780.14 62.5397L1779.28 17.1337L1764.56 17.118L1712.29 17.0596C1720.37 44.7153 1721.97 68.2717 1722.63 88.9157C1718.54 68.2095 1712.76 43.7026 1700.08 17.0464L1672.07 17.0156C1694.78 58.5042 1700.41 81.635 1706.11 108.442C1707.6 111.541 1725.95 117.219 1764.47 117.291Z" fill="#06B9A3"/>
<path d="M1310.32 447V218.093H1365.65V309.969H1455.85V218.093H1511.06V447H1455.85V355.013H1365.65V447H1310.32ZM1626.02 450.241C1608.06 450.241 1592.56 446.702 1579.52 439.623C1566.56 432.47 1556.57 422.299 1549.57 409.11C1542.64 395.846 1539.18 380.087 1539.18 361.831C1539.18 344.096 1542.68 328.598 1549.68 315.334C1556.69 301.996 1566.56 291.639 1579.3 284.262C1592.04 276.81 1607.06 273.085 1624.34 273.085C1636.56 273.085 1647.74 274.985 1657.88 278.785C1668.01 282.585 1676.76 288.211 1684.14 295.662C1691.52 303.114 1697.26 312.316 1701.35 323.27C1705.45 334.149 1707.5 346.63 1707.5 360.713V374.349H1558.29V342.606H1656.65C1656.57 336.794 1655.19 331.615 1652.51 327.07C1649.83 322.525 1646.14 318.985 1641.45 316.452C1636.83 313.844 1631.5 312.54 1625.46 312.54C1619.35 312.54 1613.88 313.918 1609.03 316.675C1604.19 319.358 1600.35 323.046 1597.52 327.741C1594.69 332.36 1593.2 337.614 1593.05 343.5V375.802C1593.05 382.806 1594.43 388.954 1597.18 394.244C1599.94 399.46 1603.85 403.521 1608.92 406.427C1613.99 409.333 1620.02 410.786 1627.03 410.786C1631.87 410.786 1636.27 410.116 1640.22 408.774C1644.17 407.433 1647.56 405.459 1650.39 402.851C1653.22 400.243 1655.34 397.038 1656.76 393.238L1706.94 394.691C1704.86 405.943 1700.27 415.741 1693.2 424.087C1686.19 432.358 1676.99 438.803 1665.59 443.423C1654.19 447.969 1641 450.241 1626.02 450.241ZM1790.07 218.093V447H1735.42V218.093H1790.07ZM1824.86 511.38V275.32H1878.96V304.716H1880.63C1882.87 299.5 1886.04 294.47 1890.14 289.627C1894.31 284.783 1899.6 280.834 1906.01 277.779C1912.49 274.65 1920.24 273.085 1929.25 273.085C1941.18 273.085 1952.32 276.214 1962.67 282.473C1973.11 288.733 1981.53 298.382 1987.93 311.422C1994.34 324.462 1997.55 341.079 1997.55 361.272C1997.55 380.72 1994.45 397.001 1988.27 410.116C1982.16 423.23 1973.89 433.066 1963.46 439.623C1953.1 446.18 1941.59 449.459 1928.92 449.459C1920.28 449.459 1912.79 448.043 1906.45 445.212C1900.12 442.38 1894.79 438.654 1890.47 434.035C1886.22 429.415 1882.94 424.46 1880.63 419.169H1879.52V511.38H1824.86ZM1878.4 361.16C1878.4 370.4 1879.63 378.447 1882.09 385.303C1884.62 392.158 1888.24 397.486 1892.93 401.286C1897.7 405.011 1903.4 406.874 1910.03 406.874C1916.74 406.874 1922.44 405.011 1927.13 401.286C1931.83 397.486 1935.37 392.158 1937.75 385.303C1940.21 378.447 1941.44 370.4 1941.44 361.16C1941.44 351.92 1940.21 343.91 1937.75 337.129C1935.37 330.349 1931.83 325.095 1927.13 321.37C1922.51 317.644 1916.81 315.781 1910.03 315.781C1903.32 315.781 1897.62 317.607 1892.93 321.258C1888.24 324.909 1884.62 330.125 1882.09 336.906C1879.63 343.687 1878.4 351.771 1878.4 361.16ZM2106.44 450.241C2088.48 450.241 2072.98 446.702 2059.94 439.623C2046.98 432.47 2036.99 422.299 2029.99 409.11C2023.06 395.846 2019.59 380.087 2019.59 361.831C2019.59 344.096 2023.1 328.598 2030.1 315.334C2037.1 301.996 2046.98 291.639 2059.72 284.262C2072.46 276.81 2087.48 273.085 2104.76 273.085C2116.98 273.085 2128.16 274.985 2138.29 278.785C2148.43 282.585 2157.18 288.211 2164.56 295.662C2171.94 303.114 2177.67 312.316 2181.77 323.27C2185.87 334.149 2187.92 346.63 2187.92 360.713V374.349H2038.71V342.606H2137.06C2136.99 336.794 2135.61 331.615 2132.93 327.07C2130.25 322.525 2126.56 318.985 2121.86 316.452C2117.24 313.844 2111.92 312.54 2105.88 312.54C2099.77 312.54 2094.29 313.918 2089.45 316.675C2084.61 319.358 2080.77 323.046 2077.94 327.741C2075.11 332.36 2073.62 337.614 2073.47 343.5V375.802C2073.47 382.806 2074.85 388.954 2077.6 394.244C2080.36 399.46 2084.27 403.521 2089.34 406.427C2094.41 409.333 2100.44 410.786 2107.45 410.786C2112.29 410.786 2116.69 410.116 2120.63 408.774C2124.58 407.433 2127.97 405.459 2130.81 402.851C2133.64 400.243 2135.76 397.038 2137.18 393.238L2187.36 394.691C2185.28 405.943 2180.69 415.741 2173.61 424.087C2166.61 432.358 2157.41 438.803 2146.01 443.423C2134.61 447.969 2121.42 450.241 2106.44 450.241ZM2215.84 447V275.32H2268.93V306.616H2270.71C2273.84 295.29 2278.95 286.87 2286.03 281.356C2293.11 275.767 2301.34 272.973 2310.73 272.973C2313.26 272.973 2315.87 273.159 2318.55 273.532C2321.24 273.83 2323.73 274.314 2326.04 274.985V322.487C2323.43 321.593 2320.01 320.885 2315.76 320.364C2311.59 319.842 2307.86 319.581 2304.58 319.581C2298.1 319.581 2292.25 321.034 2287.03 323.94C2281.89 326.772 2277.83 330.758 2274.85 335.9C2271.94 340.967 2270.49 346.928 2270.49 353.783V447H2215.84ZM2498.2 327.741L2448.01 329.082C2447.49 325.505 2446.07 322.338 2443.76 319.581C2441.45 316.75 2438.44 314.552 2434.71 312.987C2431.06 311.348 2426.81 310.528 2421.97 310.528C2415.63 310.528 2410.23 311.795 2405.76 314.328C2401.37 316.862 2399.2 320.289 2399.28 324.611C2399.2 327.964 2400.55 330.87 2403.3 333.329C2406.13 335.788 2411.16 337.763 2418.39 339.253L2451.48 345.512C2468.61 348.791 2481.36 354.23 2489.7 361.831C2498.12 369.431 2502.37 379.49 2502.44 392.009C2502.37 403.782 2498.87 414.028 2491.94 422.746C2485.08 431.464 2475.69 438.245 2463.77 443.088C2451.85 447.857 2438.21 450.241 2422.86 450.241C2398.35 450.241 2379.01 445.212 2364.85 435.152C2350.77 425.018 2342.72 411.457 2340.71 394.468L2394.7 393.126C2395.89 399.386 2398.98 404.155 2403.97 407.433C2408.97 410.712 2415.34 412.351 2423.09 412.351C2430.09 412.351 2435.79 411.047 2440.19 408.439C2444.58 405.831 2446.82 402.366 2446.89 398.044C2446.82 394.17 2445.11 391.077 2441.75 388.767C2438.4 386.383 2433.15 384.52 2425.99 383.179L2396.04 377.479C2378.82 374.349 2366.01 368.574 2357.59 360.154C2349.17 351.66 2345 340.855 2345.07 327.741C2345 316.265 2348.05 306.467 2354.24 298.345C2360.42 290.148 2369.21 283.889 2380.61 279.567C2392.01 275.246 2405.46 273.085 2420.96 273.085C2444.21 273.085 2462.54 277.965 2475.95 287.727C2489.37 297.413 2496.78 310.751 2498.2 327.741Z" fill="#1F4E79"/>
<path d="M221.57 457.133H80.2488V74.7997H221.384C260.339 74.7997 293.88 82.4539 322.007 97.7621C350.259 112.946 372.039 134.85 387.347 163.476C402.656 191.976 410.31 226.078 410.31 265.78C410.31 305.606 402.656 339.832 387.347 368.457C372.164 397.082 350.446 419.049 322.194 434.357C293.942 449.541 260.401 457.133 221.57 457.133ZM172.658 378.351H218.023C239.43 378.351 257.538 374.742 272.349 367.524C287.284 360.181 298.547 348.295 306.139 331.866C313.855 315.314 317.714 293.285 317.714 265.78C317.714 238.275 313.855 216.37 306.139 200.066C298.423 183.638 287.035 171.814 271.975 164.596C257.041 157.253 238.621 153.581 216.716 153.581H172.658V378.351ZM532.902 460.374C514.944 460.374 499.445 456.835 486.405 449.756C473.44 442.603 463.455 432.431 456.45 419.243C449.521 405.979 446.056 390.219 446.056 371.964C446.056 354.229 449.558 338.73 456.562 325.467C463.566 312.129 473.44 301.771 486.181 294.395C498.923 286.943 513.938 283.218 531.225 283.218C543.445 283.218 554.622 285.118 564.756 288.918C574.89 292.718 583.646 298.344 591.022 305.795C598.399 313.247 604.137 322.449 608.235 333.403C612.333 344.282 614.382 356.763 614.382 370.846V384.482H465.169V352.739H563.527C563.452 346.927 562.074 341.748 559.391 337.203C556.709 332.657 553.02 329.118 548.326 326.585C543.706 323.977 538.378 322.673 532.343 322.673C526.233 322.673 520.756 324.051 515.912 326.808C511.069 329.491 507.232 333.179 504.4 337.873C501.569 342.493 500.078 347.747 499.929 353.633V385.935C499.929 392.939 501.308 399.087 504.065 404.377C506.822 409.593 510.734 413.654 515.801 416.56C520.868 419.466 526.903 420.919 533.908 420.919C538.751 420.919 543.147 420.248 547.096 418.907C551.046 417.566 554.436 415.591 557.268 412.983C560.099 410.375 562.223 407.171 563.639 403.371L613.824 404.824C611.737 416.076 607.155 425.874 600.076 434.22C593.072 442.491 583.869 448.936 572.468 453.556C561.068 458.101 547.879 460.374 532.902 460.374ZM792.182 337.873L741.997 339.215C741.475 335.638 740.059 332.471 737.749 329.714C735.439 326.883 732.422 324.684 728.696 323.12C725.045 321.48 720.798 320.661 715.954 320.661C709.62 320.661 704.218 321.927 699.747 324.461C695.351 326.994 693.19 330.422 693.265 334.744C693.19 338.097 694.531 341.003 697.288 343.462C700.12 345.921 705.15 347.896 712.377 349.386L745.462 355.645C762.6 358.924 775.342 364.363 783.687 371.964C792.107 379.564 796.355 389.623 796.429 402.142C796.355 413.915 792.852 424.16 785.923 432.879C779.067 441.597 769.679 448.377 757.756 453.221C745.834 457.99 732.198 460.374 716.848 460.374C692.333 460.374 672.997 455.344 658.839 445.285C644.756 435.151 636.709 421.59 634.697 404.601L688.682 403.259C689.874 409.518 692.967 414.287 697.959 417.566C702.951 420.845 709.322 422.484 717.072 422.484C724.076 422.484 729.776 421.18 734.173 418.572C738.569 415.964 740.804 412.499 740.879 408.177C740.804 404.303 739.091 401.21 735.738 398.9C732.384 396.516 727.131 394.653 719.978 393.312L690.023 387.611C672.811 384.482 659.994 378.707 651.574 370.287C643.154 361.792 638.981 350.988 639.056 337.873C638.981 326.398 642.036 316.6 648.221 308.478C654.406 300.281 663.198 294.022 674.599 289.7C686 285.378 699.449 283.218 714.948 283.218C738.196 283.218 756.527 288.098 769.939 297.859C783.352 307.546 790.766 320.884 792.182 337.873ZM823.338 457.133V285.453H877.994V457.133H823.338ZM850.722 265.446C843.047 265.446 836.452 262.913 830.938 257.846C825.424 252.704 822.667 246.519 822.667 239.292C822.667 232.138 825.424 226.028 830.938 220.961C836.452 215.82 843.047 213.249 850.722 213.249C858.471 213.249 865.066 215.82 870.505 220.961C876.019 226.028 878.776 232.138 878.776 239.292C878.776 246.519 876.019 252.704 870.505 257.846C865.066 262.913 858.471 265.446 850.722 265.446Z" fill="#06B9A3"/>
<path d="M1262.52 404.221C1262.52 426.158 1248.17 429.766 1234.55 429.766H949.884C936.259 429.766 921.914 426.158 921.914 404.221H1262.52Z" fill="#06B9A3"/>
<path d="M1077.86 243.132H1108.86C1112.35 243.132 1115.21 240.274 1115.21 236.783C1115.21 233.293 1112.35 230.435 1108.86 230.435H1077.86C1074.36 230.435 1071.51 233.293 1071.51 236.783C1071.51 240.274 1074.36 243.132 1077.86 243.132Z" fill="#1F4E79"/>
<path d="M945.547 387.892H1241.19C1239.37 318.102 1178.34 261.06 1102.29 256.872V251.412H1084.45V256.872C1008.4 261.06 947.369 318.102 945.547 387.892Z" fill="#F96703"/>
<path d="M1213.15 349.125C1212.57 347.572 1210.78 346.789 1209.24 347.376C1207.67 347.931 1206.82 349.671 1207.45 351.21C1209.45 356.479 1211.03 361.902 1212.15 367.384C1212.43 368.827 1213.75 369.804 1215.16 369.804C1215.37 369.804 1215.55 369.767 1215.69 369.739C1215.7 369.736 1215.72 369.733 1215.73 369.731C1217.38 369.415 1218.46 367.87 1218.13 366.227L1213.15 349.125ZM1213.15 349.125C1215.3 354.68 1216.98 360.453 1218.13 366.226L1213.15 349.125Z" fill="white" stroke="white" stroke-width="1.31427"/>
<path d="M1201.92 339.218L1201.92 339.218L1201.92 339.227C1202.5 340.257 1203.56 340.805 1204.64 340.805C1205.07 340.805 1205.56 340.729 1206.03 340.483C1207.53 339.731 1208.12 337.901 1207.33 336.453C1189 302.323 1153.59 278.391 1112.64 272.374C1110.97 272.102 1109.42 273.241 1109.17 274.871C1108.88 276.542 1110.1 278.029 1111.74 278.265C1150.81 284.008 1184.51 306.787 1201.92 339.218Z" fill="white" stroke="white" stroke-width="1.31427"/>
<path d="M166.114 315.754C166.114 315.754 141.553 298.38 129.47 315.983C115.444 336.427 152.23 395.967 191.071 374.149L166.114 315.754Z" fill="white"/>
<path d="M338.619 238.419C338.619 238.419 341.995 208.521 363.17 211.214C387.767 214.344 407.742 281.42 365.615 295.899L338.619 238.419Z" fill="white"/>
<path d="M357.561 229.48C386.216 292.552 362.088 365.236 303.677 391.794C245.261 418.384 174.673 388.808 146.016 325.738C117.367 262.66 141.498 189.975 199.916 163.404C258.322 136.813 328.91 166.404 357.561 229.48Z" fill="#FCD5C0"/>
<path d="M357.561 229.48C386.216 292.552 362.088 365.236 303.677 391.794C245.261 418.384 174.673 388.808 146.016 325.738C117.367 262.66 141.498 189.975 199.916 163.404C258.322 136.813 328.91 166.404 357.561 229.48Z" fill="white"/>
<path d="M229.507 288.615C233.778 298.14 222.017 291.486 212.998 295.529C203.985 299.57 201.126 312.781 196.855 303.252C192.586 293.73 196.436 282.732 205.45 278.691C214.47 274.651 225.238 279.092 229.507 288.615Z" fill="#1F4E79"/>
<path d="M307.57 253.621C311.84 263.147 300.079 256.493 291.063 260.535C282.05 264.576 279.189 277.788 274.917 268.259C270.648 258.736 274.499 247.739 283.515 243.697C292.532 239.658 303.301 244.098 307.57 253.621Z" fill="#1F4E79"/>
<path d="M247.977 335.485C256.152 345.568 269.851 349.515 281.658 344.222C293.47 338.927 299.638 326.074 297.55 313.262" stroke="#1F4E79" stroke-width="0.87618" stroke-miterlimit="10" stroke-linecap="round"/>
<path d="M321.95 311.565C331.283 332.384 317.618 358.774 291.434 370.512C265.247 382.251 236.454 374.895 227.121 354.076C217.789 333.26 242.344 331.163 268.531 319.424C294.72 307.687 312.62 290.751 321.95 311.565Z" fill="#F96703"/>
<path d="M301.246 357.549L301.246 357.549C297.853 349.987 289.263 346.43 282.082 349.649C274.895 352.871 271.836 361.65 275.226 369.213C278.617 376.777 287.206 380.333 294.393 377.112C301.575 373.892 304.636 365.112 301.246 357.549ZM296.582 381.994C286.884 386.342 275.229 381.547 270.625 371.276C266.021 361.006 270.196 349.117 279.894 344.769C289.59 340.423 301.243 345.216 305.847 355.486C310.451 365.757 306.277 377.648 296.582 381.994Z" fill="#1F4E79" stroke="black" stroke-width="0.43809"/>
<path d="M296.531 336.78C300.934 346.602 296.964 357.942 287.669 362.109C278.369 366.278 267.265 361.696 262.861 351.874C258.459 342.054 262.43 330.714 271.727 326.546C281.021 322.38 292.129 326.96 296.531 336.78Z" fill="white"/>
<path d="M231.24 197.724C233.125 188.758 231.501 179.418 226.661 171.428C223.273 165.844 218.576 161.418 213.084 158.444C209.983 159.399 206.906 160.49 203.862 161.738C203.994 161.773 204.128 161.784 204.262 161.822C211.341 163.702 217.396 168.301 221.316 174.774C225.238 181.243 226.557 188.805 225.026 196.071C224.027 200.825 221.287 204.818 217.31 207.304C213.326 209.803 208.582 210.491 203.961 209.259C197.902 207.644 194.032 201.262 195.342 195.031C196.127 191.272 199.748 189.017 203.404 189.984C205.395 190.518 206.669 192.618 206.236 194.666C205.869 196.429 206.96 198.225 208.676 198.684C210.391 199.141 212.086 198.076 212.457 196.315C213.622 190.752 210.166 185.05 204.75 183.601C197.658 181.72 190.655 186.104 189.125 193.377C187.076 203.129 193.128 213.117 202.617 215.642C207.861 217.035 213.202 216.612 217.963 214.477C218.918 214.049 219.853 213.552 220.749 212.985C226.158 209.604 229.88 204.181 231.24 197.724Z" fill="#1F4E79"/>
<path d="M2607.37 245.485C2607.28 245.61 2607.18 245.743 2607.09 245.883C2607.02 245.986 2607 246.115 2606.94 246.219C2606.87 246.322 2606.85 246.298 2606.82 246.35C2606.07 247.598 2605.59 248.985 2605.41 250.425L2605.4 250.486L2552.56 462.569C2552.2 464.014 2552.27 465.534 2552.77 466.939C2553.26 468.343 2554.16 469.571 2555.35 470.47C2556.53 471.369 2557.96 471.898 2559.45 471.993C2560.93 472.088 2562.42 471.744 2563.71 471.003L2753.33 362.405L2753.39 362.407C2754.1 362.073 2754.78 361.665 2755.41 361.189C2755.87 360.905 2756.29 360.572 2756.68 360.195L2756.72 360.197C2756.79 360.132 2756.84 360.058 2756.9 359.992L2756.96 359.949L2756.96 359.903C2757.17 359.696 2757.37 359.476 2757.56 359.246C2762.98 352.078 2758.72 341.568 2743.75 325.169C2729.31 309.949 2713.57 296.019 2696.7 283.537C2674.18 266.347 2620.23 228.486 2607.37 245.485ZM2742.47 347.618C2742.14 347.52 2741.76 347.373 2741.41 347.259C2740.66 347.02 2739.91 346.751 2739.07 346.433C2738.43 346.191 2737.77 345.942 2737.07 345.66C2735.85 345.165 2734.55 344.605 2733.16 343.965C2732.38 343.611 2731.52 343.201 2730.68 342.806C2729.62 342.303 2728.51 341.752 2727.36 341.138C2726.4 340.654 2725.43 340.163 2724.38 339.629C2722.7 338.741 2720.93 337.78 2719.09 336.748C2718.22 336.261 2717.32 335.757 2716.42 335.23C2714.19 333.953 2711.91 332.612 2709.49 331.121C2708.87 330.744 2708.22 330.304 2707.59 329.934C2705.34 328.531 2703.02 327.044 2700.61 325.472L2698.59 324.143C2695.7 322.246 2692.72 320.214 2689.62 318.049L2687.53 316.557C2684.23 314.206 2680.9 311.761 2677.37 309.118C2673.84 306.475 2670.5 303.824 2667.3 301.264L2665.48 299.807C2662.45 297.345 2659.56 294.936 2656.84 292.579C2656.39 292.202 2655.97 291.833 2655.53 291.449C2652.94 289.204 2650.48 287.019 2648.17 284.917L2647.59 284.397C2645.21 282.192 2643.01 280.094 2640.94 278.071L2639.79 276.94C2637.81 274.974 2635.95 273.073 2634.28 271.296L2633.79 270.757C2632.21 269.067 2630.78 267.475 2629.49 266.003L2628.94 265.378C2627.63 263.852 2626.5 262.448 2625.5 261.149L2624.96 260.433C2624 259.166 2623.16 257.98 2622.5 256.962C2632.84 260.014 2655.9 271.592 2687.62 295.593C2719.34 319.593 2736.64 338.469 2742.47 347.618Z" fill="#F96703"/>
<path d="M2629.73 419.011C2630.72 416.897 2631.06 414.537 2630.7 412.229C2630.35 409.921 2629.33 407.77 2627.75 406.046C2626.18 404.323 2624.13 403.105 2621.86 402.547C2619.59 401.989 2617.21 402.116 2615.02 402.911C2612.82 403.707 2610.91 405.136 2609.53 407.016C2608.15 408.897 2607.35 411.146 2607.25 413.478C2607.15 415.81 2607.73 418.121 2608.94 420.118C2610.15 422.115 2611.93 423.708 2614.04 424.696C2616.88 426.021 2620.12 426.166 2623.06 425.1C2626 424.034 2628.4 421.844 2629.73 419.011Z" fill="white"/>
<path d="M2675.6 338.073C2676.39 336.375 2676.67 334.478 2676.38 332.624C2676.1 330.77 2675.28 329.041 2674.01 327.656C2672.75 326.271 2671.1 325.293 2669.28 324.845C2667.46 324.396 2665.54 324.498 2663.78 325.137C2662.01 325.777 2660.48 326.924 2659.37 328.436C2658.26 329.947 2657.62 331.754 2657.54 333.628C2657.45 335.502 2657.93 337.358 2658.9 338.963C2659.87 340.567 2661.3 341.848 2662.99 342.642C2665.27 343.706 2667.88 343.823 2670.24 342.966C2672.6 342.11 2674.53 340.35 2675.6 338.073Z" fill="white"/>
<path d="M2599.71 369.088C2602.76 370.514 2606.16 371.005 2609.48 370.499C2612.8 369.993 2615.9 368.512 2618.38 366.245C2620.87 363.977 2622.62 361.024 2623.42 357.76C2624.23 354.495 2624.05 351.065 2622.9 347.905C2621.75 344.744 2619.7 341.994 2616.99 340.003C2614.28 338.011 2611.04 336.868 2607.68 336.718C2604.32 336.568 2600.99 337.417 2598.12 339.158C2595.24 340.899 2592.95 343.455 2591.52 346.5C2589.62 350.582 2589.41 355.254 2590.94 359.489C2592.48 363.725 2595.63 367.178 2599.71 369.088Z" fill="white"/>
<path d="M2759.06 120.847C2758.15 120.436 2757.17 120.208 2756.17 120.176C2755.17 120.145 2754.18 120.31 2753.24 120.663C2752.31 121.016 2751.45 121.549 2750.73 122.232C2750 122.916 2749.41 123.736 2749 124.646C2736.62 152.048 2700.82 227.081 2684.06 244.409C2683.37 245.128 2682.82 245.976 2682.46 246.905C2682.09 247.834 2681.91 248.827 2681.93 249.825C2681.94 250.824 2682.16 251.81 2682.56 252.726C2682.95 253.642 2683.53 254.47 2684.25 255.164C2684.97 255.858 2685.81 256.404 2686.74 256.77C2687.67 257.137 2688.66 257.316 2689.66 257.299C2690.66 257.282 2691.65 257.068 2692.56 256.67C2693.48 256.272 2694.31 255.697 2695 254.979C2717.03 232.21 2761.01 135.027 2762.86 130.895C2763.69 129.058 2763.76 126.967 2763.04 125.083C2762.33 123.199 2760.89 121.675 2759.06 120.847Z" fill="#1F4E79"/>
<path d="M2739.04 287.603C2738.87 289.61 2739.51 291.603 2740.81 293.142C2742.11 294.681 2743.96 295.642 2745.97 295.812L2784.8 299.052L2785.1 299.066C2786.6 299.131 2788.08 298.753 2789.36 297.979C2790.64 297.205 2791.67 296.07 2792.31 294.715L2806.3 265.057L2853.71 276.496C2855.55 276.938 2857.49 276.679 2859.14 275.767C2860.8 274.856 2862.06 273.359 2862.67 271.569L2879.26 223.301C2879.88 221.405 2879.73 219.341 2878.84 217.555C2877.95 215.768 2876.4 214.403 2874.51 213.755C2872.62 213.106 2870.56 213.225 2868.76 214.087C2866.96 214.949 2865.57 216.484 2864.89 218.36L2850.54 260.133L2803.82 248.861C2802.12 248.453 2800.34 248.642 2798.76 249.396C2797.19 250.15 2795.92 251.425 2795.17 253.004L2780.79 283.489L2747.23 280.671C2746.23 280.577 2745.23 280.683 2744.28 280.982C2743.32 281.281 2742.44 281.768 2741.68 282.414C2740.91 283.06 2740.29 283.851 2739.83 284.742C2739.38 285.633 2739.11 286.606 2739.04 287.603Z" fill="#1F4E79"/>
<path d="M2673.96 125.582C2672.57 125.846 2671.28 126.494 2670.23 127.453C2669.19 128.412 2668.43 129.644 2668.05 131.01L2663.69 146.735L2648.25 152.052C2646.91 152.52 2645.73 153.35 2644.85 154.451C2643.96 155.551 2643.4 156.877 2643.22 158.28C2643.05 159.683 2643.27 161.107 2643.86 162.392C2644.45 163.677 2645.38 164.771 2646.56 165.553L2660.16 174.559L2660.42 190.9C2660.45 192.317 2660.87 193.699 2661.64 194.89C2662.4 196.081 2663.49 197.032 2664.77 197.637C2666.06 198.242 2667.48 198.477 2668.89 198.314C2670.3 198.151 2671.63 197.598 2672.74 196.716L2685.52 186.559L2701.13 191.326C2702.48 191.74 2703.93 191.767 2705.3 191.403C2706.67 191.039 2707.91 190.299 2708.88 189.267C2709.85 188.235 2710.52 186.951 2710.8 185.562C2711.08 184.172 2710.96 182.732 2710.47 181.404L2704.76 166.115L2714.11 152.748C2714.92 151.586 2715.39 150.221 2715.47 148.805C2715.55 147.389 2715.23 145.98 2714.55 144.736C2713.87 143.493 2712.85 142.465 2711.61 141.769C2710.38 141.074 2708.97 140.737 2707.56 140.798L2691.26 141.499L2681.44 128.469C2680.59 127.339 2679.43 126.469 2678.11 125.959C2676.79 125.449 2675.35 125.319 2673.96 125.582ZM2687.94 156.852L2692.85 156.643L2690.03 160.671C2689.32 161.681 2688.87 162.848 2688.72 164.071C2688.56 165.293 2688.71 166.535 2689.14 167.69L2690.86 172.329L2686.15 170.889C2684.98 170.529 2683.73 170.461 2682.52 170.691C2681.31 170.921 2680.17 171.441 2679.2 172.208L2675.36 175.27L2675.26 170.353C2675.25 169.116 2674.93 167.901 2674.34 166.814C2673.75 165.728 2672.9 164.802 2671.87 164.118L2667.77 161.404L2672.4 159.799C2673.57 159.398 2674.62 158.719 2675.46 157.821C2676.31 156.923 2676.92 155.833 2677.25 154.644L2678.56 149.911L2681.52 153.845C2682.27 154.835 2683.24 155.628 2684.36 156.152C2685.48 156.677 2686.72 156.917 2687.95 156.852L2687.94 156.852Z" fill="#1F4E79"/>
<path d="M2826.09 198.397C2825.61 197.062 2824.77 195.889 2823.66 195.009C2822.55 194.13 2821.21 193.578 2819.8 193.418L2807.01 191.954L2800.97 180.59C2800.3 179.339 2799.3 178.3 2798.07 177.589C2796.85 176.878 2795.45 176.524 2794.03 176.568C2792.61 176.611 2791.24 177.049 2790.06 177.834C2788.88 178.618 2787.94 179.717 2787.35 181.006L2782.03 192.718L2769.35 194.956C2767.96 195.202 2766.66 195.834 2765.6 196.78C2764.55 197.726 2763.78 198.948 2763.38 200.309C2762.98 201.67 2762.97 203.114 2763.36 204.48C2763.74 205.845 2764.49 207.077 2765.54 208.036L2775.04 216.739L2773.25 229.483C2773.05 230.887 2773.25 232.319 2773.82 233.616C2774.4 234.913 2775.32 236.023 2776.5 236.822C2777.67 237.62 2779.04 238.074 2780.46 238.133C2781.88 238.191 2783.28 237.852 2784.51 237.154L2795.72 230.805L2807.29 236.443C2808.56 237.064 2809.98 237.315 2811.39 237.17C2812.8 237.025 2814.14 236.488 2815.26 235.621C2816.38 234.754 2817.24 233.59 2817.73 232.262C2818.23 230.934 2818.34 229.495 2818.06 228.106L2815.5 215.489L2824.44 206.233C2825.41 205.211 2826.09 203.935 2826.38 202.551C2826.67 201.166 2826.57 199.727 2826.09 198.397ZM2801.76 207.822C2800.91 208.705 2800.29 209.781 2799.94 210.958C2799.6 212.134 2799.54 213.377 2799.78 214.58L2800.08 216.022L2798.75 215.378C2797.64 214.839 2796.42 214.577 2795.19 214.616C2793.96 214.654 2792.76 214.991 2791.68 215.598L2790.4 216.301L2790.61 214.85C2790.79 213.629 2790.66 212.385 2790.24 211.224C2789.83 210.064 2789.13 209.022 2788.22 208.189L2787.13 207.197L2788.58 206.942C2789.79 206.729 2790.94 206.225 2791.91 205.473C2792.88 204.722 2793.66 203.745 2794.17 202.626L2794.79 201.292L2795.49 202.593C2796.07 203.681 2796.91 204.611 2797.92 205.304C2798.94 205.997 2800.11 206.432 2801.34 206.571L2802.8 206.735L2801.76 207.822Z" fill="#1F4E79"/>
<path d="M2843.12 333.868C2842.64 332.534 2841.8 331.36 2840.69 330.479C2839.58 329.598 2838.25 329.045 2836.84 328.882L2824.05 327.426L2818.01 316.062C2817.34 314.811 2816.34 313.772 2815.11 313.061C2813.89 312.35 2812.48 311.996 2811.07 312.04C2809.65 312.083 2808.28 312.522 2807.1 313.306C2805.92 314.09 2804.98 315.189 2804.39 316.478L2799.04 328.182L2786.37 330.419C2784.97 330.664 2783.67 331.296 2782.61 332.242C2781.56 333.189 2780.79 334.412 2780.39 335.775C2779.99 337.137 2779.98 338.583 2780.36 339.949C2780.75 341.316 2781.5 342.548 2782.55 343.507L2792.05 352.202L2790.26 364.954C2790.07 366.358 2790.27 367.79 2790.84 369.087C2791.41 370.384 2792.34 371.494 2793.51 372.293C2794.68 373.091 2796.06 373.545 2797.47 373.604C2798.89 373.662 2800.3 373.323 2801.53 372.625L2812.73 366.276L2824.29 371.929C2825.56 372.55 2826.98 372.802 2828.39 372.657C2829.8 372.511 2831.15 371.974 2832.27 371.105C2833.39 370.237 2834.24 369.073 2834.74 367.743C2835.23 366.414 2835.34 364.973 2835.06 363.584L2832.5 350.974L2841.44 341.711C2842.42 340.691 2843.1 339.416 2843.4 338.03C2843.7 336.644 2843.6 335.203 2843.12 333.868ZM2818.79 343.286C2817.94 344.17 2817.32 345.246 2816.98 346.423C2816.63 347.6 2816.58 348.842 2816.82 350.044L2817.11 351.487L2815.79 350.843C2814.68 350.302 2813.46 350.039 2812.23 350.076C2811 350.113 2809.79 350.449 2808.72 351.054L2807.44 351.758L2807.64 350.299C2807.82 349.08 2807.69 347.836 2807.27 346.677C2806.85 345.518 2806.16 344.477 2805.25 343.645L2804.17 342.647L2805.62 342.391C2806.83 342.178 2807.98 341.674 2808.95 340.923C2809.92 340.171 2810.7 339.194 2811.21 338.076L2811.82 336.733L2812.52 338.035C2813.1 339.122 2813.94 340.052 2814.96 340.746C2815.97 341.439 2817.15 341.873 2818.37 342.013L2819.83 342.184L2818.79 343.286Z" fill="#1F4E79"/>
<path d="M2708.32 105.329C2709.21 103.445 2709.52 101.34 2709.21 99.2803C2708.9 97.2203 2707.99 95.2978 2706.59 93.7559C2705.19 92.214 2703.37 91.1218 2701.35 90.6176C2699.33 90.1133 2697.2 90.2196 2695.24 90.923C2693.28 91.6264 2691.57 92.8952 2690.33 94.5692C2689.09 96.2431 2688.38 98.247 2688.28 100.327C2688.18 102.408 2688.7 104.471 2689.77 106.257C2690.84 108.042 2692.42 109.47 2694.3 110.359C2696.83 111.549 2699.72 111.688 2702.35 110.745C2704.98 109.801 2707.13 107.854 2708.32 105.329Z" fill="#1F4E79"/>
<path d="M2631.72 193.728C2630.83 195.612 2630.52 197.717 2630.83 199.777C2631.13 201.838 2632.05 203.761 2633.45 205.303C2634.85 206.845 2636.67 207.938 2638.69 208.442C2640.71 208.946 2642.84 208.839 2644.8 208.136C2646.76 207.432 2648.47 206.162 2649.71 204.487C2650.95 202.813 2651.66 200.808 2651.76 198.727C2651.86 196.647 2651.34 194.583 2650.27 192.798C2649.19 191.012 2647.62 189.585 2645.73 188.697C2643.21 187.508 2640.31 187.369 2637.68 188.312C2635.06 189.256 2632.91 191.203 2631.72 193.728Z" fill="#1F4E79"/>
<path d="M2753.23 239.365C2751.35 238.476 2749.24 238.165 2747.18 238.472C2745.12 238.779 2743.2 239.691 2741.66 241.091C2740.11 242.492 2739.02 244.318 2738.52 246.339C2738.01 248.36 2738.12 250.486 2738.82 252.446C2739.53 254.407 2740.8 256.115 2742.47 257.354C2744.15 258.593 2746.15 259.307 2748.23 259.407C2750.31 259.507 2752.38 258.987 2754.16 257.913C2755.95 256.84 2757.37 255.261 2758.26 253.377C2759.45 250.851 2759.59 247.957 2758.65 245.33C2757.7 242.702 2755.75 240.557 2753.23 239.365Z" fill="#1F4E79"/>
<path d="M2874.04 308.041C2872.16 307.152 2870.05 306.842 2867.99 307.149C2865.93 307.457 2864.01 308.368 2862.47 309.768C2860.93 311.168 2859.83 312.994 2859.33 315.015C2858.82 317.036 2858.93 319.161 2859.63 321.121C2860.34 323.082 2861.61 324.789 2863.28 326.029C2864.95 327.268 2866.96 327.983 2869.04 328.083C2871.12 328.184 2873.18 327.665 2874.97 326.593C2876.75 325.521 2878.18 323.943 2879.07 322.06C2879.66 320.809 2880 319.454 2880.07 318.073C2880.13 316.691 2879.93 315.31 2879.46 314.008C2878.99 312.706 2878.27 311.509 2877.34 310.485C2876.41 309.461 2875.29 308.631 2874.04 308.041Z" fill="#1F4E79"/>
<path opacity="0.6" d="M1405 546.503C1405 565.005 1265.31 580 1093 580C920.689 580 781 565.002 781 546.503C781 527.996 920.689 513 1093 513C1265.31 513 1405 527.996 1405 546.503Z" fill="url(#paint0_radial_5_246)"/>
<path d="M535.267 773.754V778.296C535.267 788.349 532.33 796.464 526.456 802.641C520.582 808.818 512.769 811.907 503.019 811.907C493.33 811.907 485.517 808.818 479.583 802.641C473.708 796.464 470.771 788.349 470.771 778.296V703.444C470.771 693.331 473.708 685.216 479.583 679.099C485.517 672.922 493.33 669.834 503.019 669.834C512.769 669.834 520.582 672.922 526.456 679.099C532.33 685.216 535.267 693.331 535.267 703.444V707.986H521.641V703.444C521.641 697.449 519.946 692.634 516.554 689.001C513.163 685.307 508.651 683.46 503.019 683.46C497.387 683.46 492.875 685.307 489.484 689.001C486.093 692.634 484.397 697.449 484.397 703.444V778.296C484.397 784.292 486.093 789.136 489.484 792.831C492.875 796.464 497.387 798.281 503.019 798.281C508.651 798.281 513.163 796.464 516.554 792.831C519.946 789.136 521.641 784.292 521.641 778.296V773.754H535.267ZM584.782 811.18C578.605 811.18 573.185 809.848 568.522 807.183C563.859 804.519 560.195 800.794 557.53 796.01C554.866 791.165 553.533 785.533 553.533 779.114V740.144C553.533 733.845 554.866 728.304 557.53 723.52C560.195 718.675 563.859 714.92 568.522 712.256C573.185 709.531 578.605 708.168 584.782 708.168C594.048 708.168 601.527 711.105 607.219 716.979C612.912 722.854 615.758 730.575 615.758 740.144V779.114C615.758 788.682 612.912 796.434 607.219 802.369C601.527 808.243 594.048 811.18 584.782 811.18ZM584.782 798.008C590.293 798.008 594.623 796.313 597.772 792.921C600.982 789.53 602.587 785.079 602.587 779.568V739.689C602.587 734.178 600.982 729.757 597.772 726.427C594.623 723.035 590.293 721.34 584.782 721.34C579.271 721.34 574.881 723.035 571.61 726.427C568.34 729.757 566.705 734.178 566.705 739.689V779.568C566.705 785.079 568.34 789.53 571.61 792.921C574.881 796.313 579.271 798.008 584.782 798.008ZM638.763 809V710.439H651.935V723.611L649.664 720.976C651.966 716.858 655.024 713.709 658.839 711.529C662.654 709.288 667.105 708.168 672.193 708.168C680.429 708.168 687.06 711.014 692.086 716.707C697.113 722.399 699.626 730.06 699.626 739.689V809H686.454V739.689C686.454 734.178 684.88 729.757 681.731 726.427C678.642 723.035 674.524 721.34 669.376 721.34C664.108 721.34 659.869 723.035 656.659 726.427C653.51 729.757 651.935 734.178 651.935 739.689V809H638.763ZM724.281 809V710.439H737.452V723.611L735.181 720.976C737.483 716.858 740.541 713.709 744.356 711.529C748.171 709.288 752.623 708.168 757.71 708.168C765.946 708.168 772.577 711.014 777.603 716.707C782.63 722.399 785.143 730.06 785.143 739.689V809H771.971V739.689C771.971 734.178 770.397 729.757 767.248 726.427C764.159 723.035 760.041 721.34 754.894 721.34C749.625 721.34 745.386 723.035 742.176 726.427C739.027 729.757 737.452 734.178 737.452 739.689V809H724.281ZM838.14 811.18C831.963 811.18 826.542 809.848 821.879 807.183C817.216 804.519 813.552 800.794 810.888 796.01C808.223 791.165 806.891 785.533 806.891 779.114V740.144C806.891 733.845 808.223 728.304 810.888 723.52C813.552 718.675 817.216 714.92 821.879 712.256C826.542 709.531 831.963 708.168 838.14 708.168C847.405 708.168 854.884 711.105 860.577 716.979C866.27 722.854 869.116 730.575 869.116 740.144V761.673H817.428V748.955H855.944V739.689C855.944 734.178 854.339 729.757 851.13 726.427C847.981 723.035 843.651 721.34 838.14 721.34C832.629 721.34 828.238 723.035 824.968 726.427C821.698 729.757 820.063 734.178 820.063 739.689V779.568C820.063 785.079 821.698 789.53 824.968 792.921C828.238 796.313 832.629 798.008 838.14 798.008C843.651 798.008 847.981 796.313 851.13 792.921C854.339 789.53 855.944 785.079 855.944 779.568V777.297H869.116V779.114C869.116 788.682 866.27 796.434 860.577 802.369C854.884 808.243 847.405 811.18 838.14 811.18ZM919.753 811.18C913.576 811.18 908.156 809.848 903.493 807.183C898.83 804.519 895.166 800.794 892.502 796.01C889.837 791.165 888.505 785.533 888.505 779.114V740.144C888.505 733.845 889.837 728.304 892.502 723.52C895.166 718.675 898.83 714.92 903.493 712.256C908.156 709.531 913.576 708.168 919.753 708.168C929.019 708.168 936.498 711.105 942.191 716.979C947.883 722.854 950.73 730.575 950.73 740.144V741.96H937.558V739.689C937.558 734.178 935.953 729.757 932.744 726.427C929.594 723.035 925.264 721.34 919.753 721.34C914.242 721.34 909.852 723.035 906.582 726.427C903.311 729.757 901.676 734.178 901.676 739.689V779.568C901.676 785.079 903.311 789.53 906.582 792.921C909.852 796.313 914.242 798.008 919.753 798.008C925.264 798.008 929.594 796.313 932.744 792.921C935.953 789.53 937.558 785.079 937.558 779.568V777.297H950.73V779.114C950.73 788.682 947.883 796.434 942.191 802.369C936.498 808.243 929.019 811.18 919.753 811.18ZM1007.34 810.09C997.949 810.09 990.409 807.123 984.717 801.188C979.085 795.192 976.268 787.168 976.268 777.115V722.702H958.555V710.257H976.268V685.458H989.44V710.257H1013.97V722.702H989.44V777.115C989.44 783.111 991.075 787.925 994.346 791.559C997.616 795.132 1001.95 796.918 1007.34 796.918H1013.97V810.09H1007.34ZM1329.4 773.754V778.296C1329.4 788.349 1326.47 796.464 1320.59 802.641C1314.72 808.818 1306.91 811.907 1297.16 811.907C1287.47 811.907 1279.66 808.818 1273.72 802.641C1267.85 796.464 1264.91 788.349 1264.91 778.296V703.444C1264.91 693.331 1267.85 685.216 1273.72 679.099C1279.66 672.922 1287.47 669.834 1297.16 669.834C1306.91 669.834 1314.72 672.922 1320.59 679.099C1326.47 685.216 1329.4 693.331 1329.4 703.444V707.986H1315.78V703.444C1315.78 697.449 1314.08 692.634 1310.69 689.001C1307.3 685.307 1302.79 683.46 1297.16 683.46C1291.52 683.46 1287.01 685.307 1283.62 689.001C1280.23 692.634 1278.53 697.449 1278.53 703.444V778.296C1278.53 784.292 1280.23 789.136 1283.62 792.831C1287.01 796.464 1291.52 798.281 1297.16 798.281C1302.79 798.281 1307.3 796.464 1310.69 792.831C1314.08 789.136 1315.78 784.292 1315.78 778.296V773.754H1329.4ZM1373.11 811.18C1364.02 811.18 1357 808.667 1352.03 803.64C1347.07 798.614 1344.58 792.255 1344.58 784.564C1344.58 779.78 1345.46 775.813 1347.22 772.664C1348.97 769.454 1351.21 766.85 1353.94 764.852C1356.72 762.853 1359.66 761.249 1362.75 760.037C1366.44 758.523 1370.2 757.342 1374.01 756.495C1377.89 755.586 1381.46 754.648 1384.73 753.679C1388 752.649 1390.64 751.256 1392.64 749.5C1394.63 747.744 1395.63 745.261 1395.63 742.051V739.689C1395.63 734.178 1393.97 729.757 1390.64 726.427C1387.37 723.035 1383.01 721.34 1377.56 721.34C1372.05 721.34 1367.69 723.035 1364.48 726.427C1361.33 729.757 1359.75 734.178 1359.75 739.689V742.414H1346.58V740.144C1346.58 730.575 1349.43 722.854 1355.12 716.979C1360.81 711.105 1368.29 708.168 1377.56 708.168C1383.67 708.168 1389.06 709.531 1393.73 712.256C1398.45 714.92 1402.14 718.645 1404.81 723.429C1407.47 728.213 1408.81 733.785 1408.81 740.144V809H1395.63V795.374L1397.81 798.281C1395.51 802.399 1392.27 805.578 1388.09 807.819C1383.92 810.06 1378.92 811.18 1373.11 811.18ZM1375.83 798.644C1382.01 798.644 1386.85 796.918 1390.37 793.466C1393.88 789.954 1395.63 784.958 1395.63 778.478V761.037C1391.94 763.338 1387.82 764.912 1383.28 765.76C1378.74 766.548 1374.41 767.638 1370.29 769.031C1366.66 770.242 1363.66 771.968 1361.3 774.208C1358.93 776.389 1357.75 779.507 1357.75 783.565C1357.75 787.986 1359.33 791.619 1362.48 794.466C1365.63 797.251 1370.08 798.644 1375.83 798.644ZM1433.08 809V710.439H1446.25V724.61L1443.98 721.885C1446.28 717.827 1449.34 714.708 1453.15 712.528C1456.97 710.348 1461.39 709.258 1466.42 709.258H1470.69V722.43H1463.69C1458.42 722.43 1454.18 724.065 1450.97 727.335C1447.82 730.605 1446.25 734.996 1446.25 740.507V809H1433.08ZM1512.7 811.18C1506.52 811.18 1501.1 809.848 1496.44 807.183C1491.77 804.519 1488.11 800.794 1485.44 796.01C1482.78 791.165 1481.45 785.533 1481.45 779.114V740.144C1481.45 733.845 1482.78 728.304 1485.44 723.52C1488.11 718.675 1491.77 714.92 1496.44 712.256C1501.1 709.531 1506.52 708.168 1512.7 708.168C1521.96 708.168 1529.44 711.105 1535.13 716.979C1540.83 722.854 1543.67 730.575 1543.67 740.144V761.673H1491.98V748.955H1530.5V739.689C1530.5 734.178 1528.9 729.757 1525.69 726.427C1522.54 723.035 1518.21 721.34 1512.7 721.34C1507.18 721.34 1502.79 723.035 1499.52 726.427C1496.25 729.757 1494.62 734.178 1494.62 739.689V779.568C1494.62 785.079 1496.25 789.53 1499.52 792.921C1502.79 796.313 1507.18 798.008 1512.7 798.008C1518.21 798.008 1522.54 796.313 1525.69 792.921C1528.9 789.53 1530.5 785.079 1530.5 779.568V777.297H1543.67V779.114C1543.67 788.682 1540.83 796.434 1535.13 802.369C1529.44 808.243 1521.96 811.18 1512.7 811.18ZM1896 672.74V686.366H1854.67V734.057H1891.1V747.683H1854.67V795.374H1896V809H1841.04V672.74H1896ZM1905.74 809L1932.72 759.583L1905.74 710.439H1920L1942.35 750.953H1936.54L1958.79 710.439H1973.05L1946.07 759.583L1973.05 809H1958.79L1936.54 768.213H1942.35L1920 809H1905.74ZM2015.15 811.18C2008.98 811.18 2003.56 809.848 1998.89 807.183C1994.23 804.519 1990.57 800.794 1987.9 796.01C1985.24 791.165 1983.9 785.533 1983.9 779.114V740.144C1983.9 733.845 1985.24 728.304 1987.9 723.52C1990.57 718.675 1994.23 714.92 1998.89 712.256C2003.56 709.531 2008.98 708.168 2015.15 708.168C2024.42 708.168 2031.9 711.105 2037.59 716.979C2043.28 722.854 2046.13 730.575 2046.13 740.144V741.96H2032.96V739.689C2032.96 734.178 2031.35 729.757 2028.14 726.427C2024.99 723.035 2020.66 721.34 2015.15 721.34C2009.64 721.34 2005.25 723.035 2001.98 726.427C1998.71 729.757 1997.08 734.178 1997.08 739.689V779.568C1997.08 785.079 1998.71 789.53 2001.98 792.921C2005.25 796.313 2009.64 798.008 2015.15 798.008C2020.66 798.008 2024.99 796.313 2028.14 792.921C2031.35 789.53 2032.96 785.079 2032.96 779.568V777.297H2046.13V779.114C2046.13 788.682 2043.28 796.434 2037.59 802.369C2031.9 808.243 2024.42 811.18 2015.15 811.18ZM2094.1 811.18C2087.93 811.18 2082.51 809.848 2077.84 807.183C2073.18 804.519 2069.52 800.794 2066.85 796.01C2064.19 791.165 2062.86 785.533 2062.86 779.114V740.144C2062.86 733.845 2064.19 728.304 2066.85 723.52C2069.52 718.675 2073.18 714.92 2077.84 712.256C2082.51 709.531 2087.93 708.168 2094.1 708.168C2103.37 708.168 2110.85 711.105 2116.54 716.979C2122.24 722.854 2125.08 730.575 2125.08 740.144V761.673H2073.39V748.955H2111.91V739.689C2111.91 734.178 2110.3 729.757 2107.1 726.427C2103.95 723.035 2099.62 721.34 2094.1 721.34C2088.59 721.34 2084.2 723.035 2080.93 726.427C2077.66 729.757 2076.03 734.178 2076.03 739.689V779.568C2076.03 785.079 2077.66 789.53 2080.93 792.921C2084.2 796.313 2088.59 798.008 2094.1 798.008C2099.62 798.008 2103.95 796.313 2107.1 792.921C2110.3 789.53 2111.91 785.079 2111.91 779.568V777.297H2125.08V779.114C2125.08 788.682 2122.24 796.434 2116.54 802.369C2110.85 808.243 2103.37 811.18 2094.1 811.18ZM2147.38 809V672.74H2160.55V809H2147.38Z" fill="#112129"/>
<circle cx="1122.39" cy="755.703" r="39.8662" fill="#F96703"/>
<circle cx="1706.36" cy="755.703" r="39.8662" fill="#06B9A3"/>
<defs>
<radialGradient id="paint0_radial_5_246" cx="0" cy="0" r="1" gradientUnits="userSpaceOnUse" gradientTransform="translate(1093 546.443) scale(221.554 33.4906)">
<stop stop-color="#023D47" stop-opacity="0.7"/>
<stop offset="0.482" stop-color="#012D38" stop-opacity="0.3626"/>
<stop offset="1" stop-color="#00212D" stop-opacity="0"/>
</radialGradient>
</defs>
</svg>
