<svg width="25" height="25" viewBox="0 0 25 25" fill="none" xmlns="http://www.w3.org/2000/svg">
<g clip-path="url(#clip0_1132_35412)">
<path d="M17.0001 21.2187C16.1667 21.2187 15.4584 20.9271 14.8751 20.3437C14.2917 19.7604 14.0001 19.0521 14.0001 18.2187C14.0001 18.1187 14.0251 17.8854 14.0751 17.5187L7.05007 13.4187C6.7834 13.6687 6.47506 13.8648 6.12506 14.0068C5.77506 14.1488 5.40006 14.2194 5.00006 14.2187C4.16673 14.2187 3.4584 13.9271 2.87506 13.3437C2.29173 12.7604 2.00006 12.0521 2.00006 11.2188C2.00006 10.3854 2.29173 9.67708 2.87506 9.09375C3.4584 8.51042 4.16673 8.21875 5.00006 8.21875C5.40006 8.21875 5.77506 8.28975 6.12506 8.43175C6.47506 8.57375 6.7834 8.76942 7.05007 9.01875L14.0751 4.91875C14.0417 4.80208 14.0211 4.68975 14.0131 4.58175C14.0051 4.47375 14.0007 4.35275 14.0001 4.21875C14.0001 3.38542 14.2917 2.67708 14.8751 2.09375C15.4584 1.51042 16.1667 1.21875 17.0001 1.21875C17.8334 1.21875 18.5417 1.51042 19.1251 2.09375C19.7084 2.67708 20.0001 3.38542 20.0001 4.21875C20.0001 5.05208 19.7084 5.76042 19.1251 6.34375C18.5417 6.92708 17.8334 7.21875 17.0001 7.21875C16.6001 7.21875 16.2251 7.14775 15.8751 7.00575C15.5251 6.86375 15.2167 6.66808 14.9501 6.41875L7.92507 10.5188C7.9584 10.6354 7.9794 10.7481 7.98806 10.8567C7.99673 10.9654 8.00073 11.0861 8.00006 11.2187C7.9994 11.3514 7.9954 11.4724 7.98806 11.5817C7.98073 11.6911 7.95973 11.8034 7.92507 11.9187L14.9501 16.0187C15.2167 15.7687 15.5251 15.5731 15.8751 15.4317C16.2251 15.2904 16.6001 15.2194 17.0001 15.2187C17.8334 15.2187 18.5417 15.5104 19.1251 16.0937C19.7084 16.6771 20.0001 17.3854 20.0001 18.2187C20.0001 19.0521 19.7084 19.7604 19.1251 20.3437C18.5417 20.9271 17.8334 21.2187 17.0001 21.2187ZM17.0001 19.2187C17.2834 19.2187 17.5211 19.1231 17.7131 18.9317C17.9051 18.7404 18.0007 18.5028 18.0001 18.2187C17.9994 17.9347 17.9034 17.6974 17.7121 17.5068C17.5207 17.3161 17.2834 17.2201 17.0001 17.2187C16.7167 17.2174 16.4794 17.3134 16.2881 17.5068C16.0967 17.7001 16.0007 17.9374 16.0001 18.2187C15.9994 18.5001 16.0954 18.7377 16.2881 18.9317C16.4807 19.1257 16.7181 19.2214 17.0001 19.2187ZM5.00006 12.2187C5.2834 12.2187 5.52106 12.1227 5.71306 11.9307C5.90506 11.7387 6.00073 11.5014 6.00006 11.2187C5.9994 10.9361 5.9034 10.6988 5.71206 10.5068C5.52073 10.3148 5.2834 10.2187 5.00006 10.2187C4.71673 10.2187 4.4794 10.3148 4.28806 10.5068C4.09673 10.6988 4.00073 10.9361 4.00006 11.2187C3.9994 11.5014 4.0954 11.7391 4.28806 11.9318C4.48073 12.1244 4.71806 12.2201 5.00006 12.2187ZM17.0001 5.21875C17.2834 5.21875 17.5211 5.12275 17.7131 4.93075C17.9051 4.73875 18.0007 4.50142 18.0001 4.21875C17.9994 3.93608 17.9034 3.69875 17.7121 3.50675C17.5207 3.31475 17.2834 3.21875 17.0001 3.21875C16.7167 3.21875 16.4794 3.31475 16.2881 3.50675C16.0967 3.69875 16.0007 3.93608 16.0001 4.21875C15.9994 4.50142 16.0954 4.73908 16.2881 4.93175C16.4807 5.12442 16.7181 5.22008 17.0001 5.21875Z" fill="white"/>
</g>
<defs>
<clipPath id="clip0_1132_35412">
<rect width="24" height="24" fill="white" transform="translate(0.195621) rotate(0.467014)"/>
</clipPath>
</defs>
</svg>
