<svg width="24" height="24" viewBox="0 0 24 24" fill="none" xmlns="http://www.w3.org/2000/svg">
<g clip-path="url(#clip0_289_6350)">
<path d="M7.20263 13.7117C7.45707 13.9449 7.85241 13.9278 8.08569 13.6733C8.59775 13.1148 9.28941 13.1474 9.66432 13.5563C9.8976 13.8108 10.293 13.8279 10.5474 13.5947C10.8018 13.3614 10.8189 12.966 10.5857 12.7116C9.63913 11.6792 8.09222 11.8166 7.16432 12.8286C6.93107 13.083 6.94819 13.4784 7.20263 13.7117Z" fill="#FF7021"/>
<path d="M12.8276 13.7117C13.0821 13.9449 13.4774 13.9278 13.7107 13.6733C14.2228 13.1148 14.9144 13.1474 15.2893 13.5563C15.5226 13.8108 15.918 13.8279 16.1724 13.5947C16.4268 13.3614 16.4439 12.966 16.2107 12.7116C15.2641 11.6792 13.7172 11.8166 12.7893 12.8286C12.5561 13.083 12.5732 13.4784 12.8276 13.7117Z" fill="#FF7021"/>
<path d="M12.0016 19.4993C10.3933 19.4993 9.08496 18.191 9.08496 16.5827C9.08496 16.3527 9.27163 16.166 9.50163 16.166H14.5016C14.7316 16.166 14.9183 16.3527 14.9183 16.5827C14.9183 18.191 13.61 19.4993 12.0016 19.4993ZM9.95996 16.9993C10.1533 17.9493 10.995 18.666 12.0016 18.666C13.0083 18.666 13.8491 17.9493 14.0433 16.9993H9.95996Z" fill="#1F4E79"/>
<path d="M12.0015 21.585C7.40655 21.585 3.66821 17.8459 3.66821 13.25C3.66821 8.65421 7.40655 4.91504 12.0015 4.91504C16.5965 4.91504 20.3349 8.65421 20.3349 13.25C20.3349 17.8459 16.5965 21.585 12.0015 21.585ZM12.0015 5.74837C7.86655 5.74837 4.50155 9.11337 4.50155 13.25C4.50155 17.3867 7.86655 20.7517 12.0015 20.7517C16.1365 20.7517 19.5015 17.3867 19.5015 13.25C19.5015 9.11337 16.1365 5.74837 12.0015 5.74837Z" fill="#1F4E79"/>
<path d="M19.9167 15.333C19.8392 15.333 19.7609 15.3313 19.6842 15.3205C19.4567 15.2888 19.2976 15.078 19.3292 14.8505C19.3609 14.623 19.5726 14.468 19.7992 14.4955C19.8376 14.5005 19.8784 14.4988 19.9167 14.4997C20.6059 14.4997 21.1667 13.9388 21.1667 13.2497C21.1667 12.5605 20.6059 11.9997 19.9167 11.9997C19.8784 11.9988 19.8384 11.998 19.7992 12.0038C19.5709 12.028 19.3601 11.8772 19.3292 11.6488C19.2976 11.4213 19.4559 11.2105 19.6842 11.1788C20.9092 11.0088 22.0001 12.023 22.0001 13.2497C22.0001 14.3988 21.0651 15.333 19.9167 15.333Z" fill="#1F4E79"/>
<path d="M4.08333 15.3328C2.935 15.3328 2 14.3987 2 13.2495C2 12.0228 3.08833 11.0095 4.31583 11.1787C4.54333 11.2103 4.7025 11.4212 4.67083 11.6487C4.63917 11.8762 4.43 12.0295 4.20083 12.0037C4.16083 11.9978 4.12 11.9987 4.08333 11.9995C3.39417 11.9995 2.83333 12.5603 2.83333 13.2495C2.83333 13.952 3.41333 14.5012 4.12167 14.4995C4.1475 14.4995 4.17417 14.4987 4.2 14.4953C4.42833 14.4662 4.63833 14.622 4.67 14.8503C4.70167 15.0787 4.54333 15.2887 4.315 15.3203C4.23917 15.3312 4.16083 15.3328 4.08333 15.3328Z" fill="#1F4E79"/>
<path d="M12.4175 9.08297C11.5941 9.08297 10.8041 8.7813 10.1925 8.23214C10.0208 8.07797 10.0066 7.81464 10.1608 7.64297C10.315 7.4713 10.5783 7.45797 10.7491 7.6113C11.2075 8.0238 11.8 8.24964 12.4175 8.24964C13.7958 8.24964 14.9166 7.12797 14.9166 5.75047C14.9166 4.37297 13.7958 3.2513 12.4175 3.2513C11.0391 3.2513 9.91829 4.37297 9.91829 5.75047C9.91829 5.98047 9.73163 6.16714 9.50163 6.16714C9.27163 6.16714 9.08496 5.98047 9.08496 5.75047C9.08496 3.91297 10.58 2.41797 12.4175 2.41797C14.255 2.41797 15.75 3.91297 15.75 5.75047C15.75 7.58797 14.255 9.08297 12.4175 9.08297Z" fill="#1F4E79"/>
</g>
<defs>
<clipPath id="clip0_289_6350">
<rect width="20" height="20" fill="white" transform="translate(2 2)"/>
</clipPath>
</defs>
</svg>
