<svg width="24" height="24" viewBox="0 0 24 24" fill="none" xmlns="http://www.w3.org/2000/svg">
<path d="M8.51737 18.8647C4.90639 18.8647 1.96899 15.9269 1.96899 12.3164C1.96899 11.4164 2.14867 10.5436 2.50273 9.72327C2.57103 9.56514 2.75477 9.49197 2.9133 9.56026C3.07143 9.62855 3.1446 9.81229 3.07631 9.97083C2.75599 10.7127 2.59338 11.5017 2.59338 12.3164C2.59338 15.583 5.25111 18.2403 8.51737 18.2403C8.85517 18.2403 9.19542 18.2115 9.52834 18.1542C9.69826 18.1253 9.85964 18.2391 9.88891 18.409C9.91818 18.579 9.80395 18.7403 9.63403 18.7696C9.26615 18.8326 8.89013 18.8647 8.51737 18.8647ZM3.4755 8.95782C3.41168 8.95782 3.34745 8.93831 3.29176 8.89766C3.15233 8.79603 3.12184 8.60091 3.22347 8.46148C3.81899 7.64481 4.60639 6.96758 5.5007 6.50254C6.42509 6.02164 7.46818 5.76758 8.51737 5.76758C9.88525 5.76758 11.1958 6.18506 12.3072 6.9753C12.4479 7.0753 12.4808 7.27002 12.3808 7.41067C12.2808 7.55132 12.0861 7.58424 11.9454 7.48424C10.9401 6.76961 9.75477 6.39197 8.51737 6.39197C6.6316 6.39197 4.84095 7.30294 3.72794 8.82937C3.66656 8.91311 3.57184 8.95782 3.4755 8.95782Z" fill="#1F4E79" stroke="#1F4E79" stroke-width="0.2"/>
<path d="M8.51752 16.205C6.37321 16.205 4.62891 14.4607 4.62891 12.3164C4.62891 10.172 6.37321 8.42773 8.51752 8.42773C9.46793 8.42773 10.383 8.77448 11.0939 9.40416C11.2232 9.51838 11.235 9.71595 11.1208 9.84481C11.0065 9.97408 10.8094 9.98586 10.6801 9.87164C10.0834 9.34318 9.31549 9.05212 8.51752 9.05212C6.71752 9.05212 5.2533 10.5164 5.2533 12.3164C5.2533 14.1164 6.71752 15.5806 8.51752 15.5806C8.83297 15.5806 9.14476 15.5355 9.44517 15.4468C9.61061 15.3981 9.78419 15.4924 9.83297 15.6574C9.88175 15.8229 9.78744 15.9964 9.6224 16.0452C9.26427 16.1513 8.89273 16.205 8.51752 16.205Z" fill="#1F4E79"/>
<path d="M16.5413 19.5677H10.0999C10.0048 19.5677 9.91493 19.5242 9.85558 19.4503L9.78037 19.3555C9.04135 18.4279 8.80233 17.3958 9.06981 16.2885C9.16859 15.8803 9.30924 15.3832 9.47265 14.8072C10.0979 12.6019 11.0426 9.26977 10.3348 7.93156L10.1816 7.64172C10.1304 7.54498 10.1336 7.42831 10.1901 7.33481C10.2466 7.24091 10.3483 7.18359 10.4576 7.18359H16.1836C16.293 7.18359 16.3946 7.24091 16.4511 7.33481C16.5076 7.42872 16.5109 7.54498 16.4596 7.64172L16.3064 7.93156C15.5991 9.26977 16.5438 12.6019 17.1686 14.8072C17.332 15.3828 17.4727 15.8803 17.5714 16.2885C17.8389 17.3958 17.5999 18.4279 16.8609 19.3555L16.7857 19.4499C16.7263 19.5242 16.6365 19.5677 16.5413 19.5677ZM10.2503 18.9433H16.3909C16.9897 18.1799 17.1824 17.3364 16.9649 16.4352C16.869 16.0389 16.7296 15.547 16.5682 14.9775C15.9007 12.6234 14.9954 9.42953 15.6751 7.80839H10.9661C11.6458 9.42994 10.7405 12.6238 10.0731 14.9779C9.91167 15.5474 9.77224 16.0393 9.67631 16.4356C9.45883 17.3364 9.65192 18.1799 10.2503 18.9433Z" fill="#1F4E79" stroke="#1F4E79" stroke-width="0.2"/>
<path d="M14.515 7.80825C14.3427 7.80825 14.2028 7.66841 14.2028 7.49605V5.51434C14.2028 5.34199 14.3427 5.20215 14.515 5.20215C14.6874 5.20215 14.8272 5.34199 14.8272 5.51434V7.49605C14.8272 7.66882 14.6874 7.80825 14.515 7.80825ZM12.1264 7.80825C11.954 7.80825 11.8142 7.66841 11.8142 7.49605V5.51434C11.8142 5.34199 11.954 5.20215 12.1264 5.20215C12.2988 5.20215 12.4386 5.34199 12.4386 5.51434V7.49605C12.4386 7.66882 12.2988 7.80825 12.1264 7.80825Z" fill="#1F4E79"/>
<path d="M17.2523 5.82633H10.5495C10.3771 5.82633 10.2373 5.6865 10.2373 5.51414V5.42308C10.2373 3.80682 11.2828 2.49219 12.5682 2.49219H19.0402C19.2125 2.49219 19.3523 2.63202 19.3523 2.80438V4.65072C19.3523 4.77064 19.2836 4.87959 19.1759 4.93202L17.3881 5.79544C17.3458 5.81576 17.2995 5.82633 17.2523 5.82633ZM10.8694 5.20194H17.1812L18.7284 4.45479V3.11658H12.5682C11.6824 3.11658 10.9523 4.03365 10.8694 5.20194Z" fill="#1F4E79"/>
<path d="M19.1828 8.58721C19.0361 8.58721 18.8938 8.54128 18.7747 8.44697L18.6828 8.3742C17.7593 7.6425 16.804 6.88599 16.0519 5.67949C15.9609 5.53315 16.0056 5.34046 16.1519 5.24941C16.2983 5.15835 16.491 5.20307 16.582 5.34941C17.2767 6.46404 18.1479 7.15429 19.0706 7.88477L19.1629 7.95754C19.1751 7.96689 19.2442 7.96567 19.3174 7.8929L19.3897 7.82055C19.4324 7.77786 19.4593 7.73071 19.4715 7.69819C18.8385 7.08843 18.1418 6.32461 17.7028 5.27908C17.6361 5.12014 17.7105 4.93721 17.8694 4.87014C18.0284 4.80347 18.2113 4.87786 18.2784 5.03681C18.6832 6.00063 19.3219 6.69046 19.9511 7.2925C20.0483 7.38559 20.1028 7.51607 20.1044 7.65957C20.1064 7.86323 20.0044 8.08843 19.8312 8.26201L19.7588 8.33437C19.5918 8.50144 19.3832 8.58721 19.1828 8.58721Z" fill="#1F4E79"/>
<path d="M20.2788 4.61733H19.0406C18.8682 4.61733 18.7284 4.47749 18.7284 4.30514C18.7284 4.13278 18.8682 3.99294 19.0406 3.99294H19.967V3.47302H19.0406C18.8682 3.47302 18.7284 3.33319 18.7284 3.16083C18.7284 2.98847 18.8682 2.84863 19.0406 2.84863H20.2788C20.4512 2.84863 20.591 2.98847 20.591 3.16083V4.30514C20.591 4.4779 20.4512 4.61733 20.2788 4.61733Z" fill="#1F4E79" stroke="#1F4E79" stroke-width="0.2"/>
<path d="M15.7467 9.32654H10.8906C10.7182 9.32654 10.5784 9.1867 10.5784 9.01434C10.5784 8.84199 10.7182 8.70215 10.8906 8.70215H15.7471C15.9194 8.70215 16.0593 8.84199 16.0593 9.01434C16.0593 9.1867 15.919 9.32654 15.7467 9.32654Z" fill="#1F4E79"/>
<path d="M16.606 14.2592H10.041C9.8686 14.2592 9.72876 14.1193 9.72876 13.947C9.72876 13.7746 9.8686 13.6348 10.041 13.6348H16.6056C16.7779 13.6348 16.9178 13.7746 16.9178 13.947C16.9178 14.1193 16.7784 14.2592 16.606 14.2592Z" fill="#FF7021"/>
<path d="M16.9548 15.5033H9.69305C9.5207 15.5033 9.38086 15.3635 9.38086 15.1911C9.38086 15.0187 9.5207 14.8789 9.69305 14.8789H16.9548C17.1272 14.8789 17.267 15.0187 17.267 15.1911C17.267 15.3635 17.1276 15.5033 16.9548 15.5033Z" fill="#FF7021"/>
<path d="M3.78653 6.93731C3.66336 6.93731 3.55157 6.86495 3.50157 6.75235L3.12677 5.91129L2.28978 5.54015C2.17718 5.49015 2.10441 5.37836 2.10401 5.25519C2.1036 5.13202 2.17636 5.01983 2.28896 4.96983L3.13002 4.59503L3.50116 3.75804C3.55116 3.64544 3.66295 3.57267 3.78612 3.57227H3.78653C3.9097 3.57227 4.02149 3.64462 4.07149 3.75723L4.44628 4.59828L5.28327 4.96942C5.39588 5.01942 5.46864 5.13121 5.46905 5.25438C5.46945 5.37755 5.39669 5.48975 5.28409 5.53975L4.44303 5.91454L4.07189 6.75153C4.02189 6.86454 3.9101 6.93731 3.78653 6.93731ZM3.18449 5.25397L3.48937 5.38934C3.5601 5.42064 3.61661 5.47714 3.64791 5.54747L3.78571 5.85682L3.92108 5.55194C3.95238 5.48121 4.00888 5.4247 4.07921 5.3934L4.38856 5.2556L4.08368 5.12023C4.01295 5.08893 3.95644 5.03243 3.92514 4.9621L3.78734 4.65275L3.65197 4.95763C3.62067 5.02836 3.56417 5.08487 3.49384 5.11617L3.18449 5.25397Z" fill="#FF7021"/>
<path d="M7.78286 13.3914C7.65969 13.3914 7.5479 13.3191 7.4979 13.2064L7.12311 12.3654L6.28611 11.9943C6.17351 11.9443 6.10075 11.8325 6.10034 11.7093C6.10034 11.5861 6.1727 11.4739 6.2853 11.4239L7.12636 11.0491L7.4975 10.2121C7.5475 10.0995 7.65929 10.0268 7.78246 10.0264H7.78286C7.90603 10.0264 8.01782 10.0987 8.06782 10.2113L8.44262 11.0524L9.27961 11.4235C9.39221 11.4735 9.46498 11.5853 9.46538 11.7085C9.46538 11.8321 9.39302 11.9438 9.28042 11.9938L8.43937 12.3686L8.06823 13.2056C8.01823 13.3186 7.90644 13.3914 7.78286 13.3914ZM7.18042 11.7081L7.4853 11.8434C7.55603 11.8747 7.61254 11.9312 7.64384 12.0016L7.78164 12.3109L7.91701 12.006C7.94831 11.9353 8.00481 11.8788 8.07514 11.8475L8.38449 11.7097L8.07961 11.5743C8.00888 11.543 7.95237 11.4865 7.92107 11.4162L7.78327 11.1069L7.6479 11.4117C7.6166 11.4825 7.5601 11.539 7.48977 11.5703L7.18042 11.7081Z" fill="#FF7021"/>
<path d="M3.11294 10.8855C2.98977 10.8855 2.87798 10.8132 2.82798 10.7006L2.45319 9.85953L1.61619 9.48839C1.50359 9.43839 1.43083 9.32661 1.43042 9.20343C1.43002 9.08026 1.50278 8.96807 1.61538 8.91807L2.45644 8.54327L2.82758 7.70628C2.87758 7.59368 2.98936 7.52091 3.11254 7.52051H3.11294C3.23611 7.52051 3.3479 7.59287 3.3979 7.70547L3.7727 8.54652L4.60969 8.91766C4.72229 8.96766 4.79506 9.07945 4.79546 9.20262C4.79587 9.32579 4.7231 9.43799 4.6105 9.48799L3.76945 9.86278L3.39831 10.6998C3.34831 10.8128 3.23652 10.8855 3.11294 10.8855ZM2.5105 9.20181L2.81538 9.33717C2.88611 9.36848 2.94262 9.42498 2.97392 9.4953L3.11172 9.80465L3.24709 9.49978C3.27839 9.42904 3.33489 9.37254 3.40522 9.34124L3.71457 9.20343L3.40969 9.06807C3.33896 9.03677 3.28245 8.98026 3.25115 8.90994L3.11376 8.60059L2.97839 8.90547C2.94709 8.9762 2.89058 9.0327 2.82026 9.064L2.5105 9.20181Z" fill="#FF7021"/>
</svg>
