<svg width="24" height="24" viewBox="0 0 24 24" fill="none" xmlns="http://www.w3.org/2000/svg">
<g clip-path="url(#clip0_289_6334)">
<g clip-path="url(#clip1_289_6334)">
<path d="M8.27068 19.7598C7.96661 19.6728 7.64653 19.4895 7.40885 19.1438C7.13536 19.1066 6.61571 18.9855 6.33074 18.5966C6.23992 18.4722 6.14912 18.2855 6.14275 18.0313C5.84525 17.9982 5.44235 17.8932 5.1969 17.582C5.0933 17.4505 4.99328 17.2473 4.99625 16.9559C4.70466 16.9495 4.50524 16.8426 4.37717 16.7345C4.0743 16.4792 3.98288 16.073 3.96005 15.7743C3.70593 15.7596 3.52225 15.6627 3.40105 15.5675C3.02186 15.2701 2.91828 14.7467 2.89031 14.4719C2.23706 13.99 2.20222 13.2202 2.28299 12.8594C2.31563 12.7128 2.4481 12.6103 2.59835 12.6156C5.1175 12.7009 6.78576 10.9418 8.25787 9.38954C8.64586 8.98045 9.12834 8.77172 9.6923 8.76894C10.2563 8.76616 10.7408 8.97024 11.1326 9.37571L12.7779 11.0769C13.1698 11.482 13.3578 11.9734 13.3363 12.5367C13.3147 13.1001 13.0899 13.5757 12.668 13.9497C11.0677 15.3693 9.25341 16.978 9.25448 19.4982C9.25467 19.6484 9.14766 19.7772 9.00013 19.8052C8.82463 19.8378 8.55443 19.8409 8.27068 19.7598ZM7.67901 18.548C7.75796 18.5705 7.8264 18.6239 7.86665 18.6976C8.07378 19.0748 8.40828 19.1751 8.63732 19.1962C8.69441 18.0769 9.07383 17.0383 9.79284 16.0305C10.4518 15.107 11.2969 14.3297 12.253 13.4818C12.5464 13.2216 12.6967 12.9043 12.7117 12.512C12.7266 12.1197 12.6013 11.7921 12.3285 11.5099L10.6832 9.80869C10.4105 9.52648 10.0871 9.39044 9.69457 9.39237C9.30208 9.39429 8.98026 9.53354 8.71028 9.81825C7.8308 10.7455 7.026 11.5639 6.08082 12.1917C5.04946 12.8768 3.99874 13.2215 2.87824 13.2411C2.89176 13.4703 2.98075 13.8082 3.35079 14.0281C3.44481 14.0838 3.50258 14.1848 3.50345 14.2942C3.50554 14.4406 3.56184 14.9003 3.78688 15.0758C3.8235 15.1045 3.93482 15.1912 4.20001 15.1288C4.29846 15.1054 4.40214 15.1317 4.47823 15.1982C4.55421 15.2652 4.593 15.3647 4.58242 15.4652C4.56765 15.6145 4.57168 16.0824 4.77969 16.2569C4.8837 16.3441 5.05517 16.3551 5.28831 16.2894C5.39865 16.2584 5.51764 16.2903 5.59724 16.3727C5.67724 16.4552 5.70519 16.5748 5.67043 16.6845C5.59718 16.9155 5.60228 17.087 5.68579 17.1941C5.85303 17.4077 6.32044 17.4276 6.47121 17.4179C6.57205 17.4112 6.66987 17.4535 6.73373 17.5318C6.79759 17.6101 6.82035 17.7139 6.7937 17.8115C6.72211 18.0752 6.80567 18.1896 6.83342 18.2271C7.00395 18.4602 7.45884 18.5298 7.60475 18.5356C7.63093 18.5372 7.65517 18.5411 7.67901 18.548Z" fill="#1F4E79" stroke="#1F4E79" stroke-width="0.2"/>
<path d="M10.8992 15.3994C10.8484 15.3848 10.8005 15.3572 10.7611 15.3163L6.83098 11.2524C6.71123 11.1285 6.71451 10.9307 6.83839 10.811C6.96226 10.6912 7.16004 10.6945 7.27978 10.8184L11.2099 14.8823C11.3296 15.0062 11.3263 15.204 11.2025 15.3237C11.1195 15.404 11.0032 15.4291 10.8992 15.3994Z" fill="#1F4E79"/>
<path d="M12.0829 14.2764C11.9953 14.2514 11.9194 14.1886 11.8814 14.0983L11.7592 13.8114C11.609 13.4585 11.3598 13.1944 11.0184 13.0266C10.5514 12.7967 10.206 12.44 9.99213 11.9654C9.8411 11.63 9.59693 11.378 9.26707 11.2156C8.78458 10.9778 8.4336 10.6069 8.22348 10.113L8.10176 9.8275C8.03418 9.66907 8.1082 9.4856 8.26663 9.41802C8.42545 9.35055 8.60852 9.42446 8.67611 9.58289L8.79772 9.8688C8.94996 10.2265 9.19347 10.4838 9.54303 10.6557C10.0063 10.8837 10.3489 11.2383 10.5613 11.7091C10.7163 12.0528 10.9558 12.3006 11.2939 12.4666C11.7731 12.7025 12.123 13.0728 12.3334 13.5671L12.4555 13.8545C12.523 14.0133 12.4491 14.1963 12.2906 14.2639C12.222 14.2925 12.1489 14.2953 12.0829 14.2764Z" fill="#1F4E79"/>
<path d="M12.1306 11.2454C12.0798 11.2308 12.0319 11.2032 11.9924 11.1623C11.8726 11.0384 11.8759 10.8407 11.9998 10.7209L18.841 4.10454C18.9924 3.95799 18.9965 3.71605 18.85 3.56464L18.8431 3.55761C18.7726 3.48461 18.6771 3.44333 18.5748 3.44157C18.4726 3.43982 18.3759 3.47771 18.3029 3.54816L11.4617 10.1645C11.3378 10.2843 11.14 10.281 11.0203 10.1571C10.9006 10.0333 10.9038 9.83549 11.0277 9.71574L17.8689 3.09936C18.0618 2.91268 18.3163 2.81251 18.5855 2.8172C18.8547 2.82189 19.1057 2.93044 19.292 3.12323L19.2989 3.13027C19.6845 3.52931 19.674 4.1677 19.275 4.55334L12.4338 11.1697C12.3508 11.25 12.2345 11.2751 12.1306 11.2454Z" fill="#1F4E79" stroke="#1F4E79" stroke-width="0.2"/>
</g>
<path d="M4.12161 6.4366H4.88849V7.20348C4.88849 7.52562 5.14962 7.78676 5.47177 7.78676C5.79392 7.78676 6.05505 7.52562 6.05505 7.20348V6.4366H6.82188C7.14399 6.4366 7.40517 6.17547 7.40517 5.85332C7.40517 5.53117 7.14403 5.27004 6.82188 5.27004H6.05505V4.5032C6.05505 4.18109 5.79392 3.91992 5.47177 3.91992C5.14962 3.91992 4.88849 4.18105 4.88849 4.5032V5.27004H4.12161C3.7995 5.27004 3.53833 5.53117 3.53833 5.85332C3.53833 6.17547 3.79946 6.4366 4.12161 6.4366Z" fill="#1F4E79"/>
<path d="M19.2048 15.2662H18.4379V14.4993C18.4379 14.1772 18.1768 13.916 17.8547 13.916C17.5325 13.916 17.2714 14.1771 17.2714 14.4993V15.2662H16.5045C16.1824 15.2662 15.9213 15.5273 15.9213 15.8495C15.9213 16.1716 16.1824 16.4327 16.5045 16.4327H17.2714V17.1996C17.2714 17.5217 17.5325 17.7829 17.8547 17.7829C18.1768 17.7829 18.4379 17.5217 18.4379 17.1996V16.4327H19.2048C19.5269 16.4327 19.7881 16.1716 19.7881 15.8495C19.7881 15.5273 19.5269 15.2662 19.2048 15.2662Z" fill="#FF7021"/>
<path d="M18.3217 8.44186C18.3926 8.68018 18.6175 8.84893 18.8652 8.85576C19.1143 8.86264 19.3438 8.70197 19.4283 8.46897C19.5134 8.23444 19.4331 7.96635 19.2381 7.81268C19.057 7.6699 18.8008 7.65139 18.5993 7.76135C18.3593 7.89233 18.2436 8.18076 18.3217 8.44186Z" fill="#1F4E79"/>
<path d="M10.7758 4.735C10.9724 4.89578 11.2575 4.90992 11.4691 4.76922C11.6568 4.64434 11.7576 4.41406 11.721 4.19152C11.6798 3.94078 11.4764 3.74094 11.2242 3.70637C10.9737 3.67207 10.7194 3.81027 10.6154 4.04148C10.5081 4.28 10.572 4.56891 10.7758 4.735Z" fill="#FF7021"/>
<path d="M14.5526 18.3283C14.5069 18.0843 14.297 17.8942 14.0524 17.8637C13.8066 17.833 13.5585 17.9681 13.4537 18.1933C13.3499 18.4166 13.3966 18.6871 13.5735 18.8599C13.7516 19.0337 14.0284 19.0741 14.2492 18.96C14.4758 18.8428 14.6052 18.5792 14.5526 18.3283Z" fill="#1F4E79"/>
</g>
<defs>
<clipPath id="clip0_289_6334">
<rect width="20" height="20" fill="white" transform="translate(1 1)"/>
</clipPath>
<clipPath id="clip1_289_6334">
<rect width="20" height="20" fill="white" transform="translate(3.49854 -2) rotate(15.9579)"/>
</clipPath>
</defs>
</svg>
