<svg width="64" height="65" viewBox="0 0 64 65" fill="none" xmlns="http://www.w3.org/2000/svg">
<path d="M31.5308 1.60132C14.6064 1.60132 0.870605 15.5213 0.870605 32.7124C0.870605 49.8858 14.6064 63.8235 31.5308 63.8235C48.4553 63.8235 62.1911 49.9035 62.1911 32.7124C62.1911 15.5213 48.4553 1.60132 31.5308 1.60132Z" fill="#06B9A3"/>
<path d="M31.5308 29.7613C36.6205 29.7613 40.7464 25.5747 40.7464 20.4102C40.7464 15.2457 36.6205 11.0591 31.5308 11.0591C26.4412 11.0591 22.3152 15.2457 22.3152 20.4102C22.3152 25.5747 26.4412 29.7613 31.5308 29.7613Z" fill="url(#paint0_linear_868_3784)"/>
<path d="M31.5308 31.6279C20.8786 31.6279 12.2587 38.4724 12.2587 46.899C12.2587 55.3257 50.803 55.3435 50.803 46.899C50.803 38.4546 42.1831 31.6279 31.5308 31.6279Z" fill="#EDF0F2"/>
<defs>
<linearGradient id="paint0_linear_868_3784" x1="22.3152" y1="11.0591" x2="40.7464" y2="11.0591" gradientUnits="userSpaceOnUse">
<stop stop-color="#FED46E"/>
</linearGradient>
</defs>
</svg>
