<svg width="16" height="16" viewBox="0 0 16 16" fill="none" xmlns="http://www.w3.org/2000/svg">
<g clip-path="url(#clip0_502_33701)">
<path d="M7.53651 1.94931L5.83599 5.39723L2.0313 5.95192C1.34901 6.05088 1.07557 6.89202 1.57037 7.37379L4.32297 10.0561L3.67193 13.8451C3.55474 14.53 4.27609 15.0431 4.88026 14.7228L8.28391 12.9337L11.6876 14.7228C12.2917 15.0405 13.0131 14.53 12.8959 13.8451L12.2448 10.0561L14.9974 7.37379C15.4922 6.89202 15.2188 6.05088 14.5365 5.95192L10.7318 5.39723L9.0313 1.94931C8.72662 1.33473 7.8438 1.32692 7.53651 1.94931Z" fill="#D9D9D9"/>
<path d="M2.03143 5.95195L5.73389 5.13649L7.73389 1.63705C8.0437 1.4743 8.23389 1.63705 8.23389 1.63705C8.23389 1.63705 7.97934 12.3191 8.28403 12.9337L4.88038 14.7228C4.27622 15.0431 3.55486 14.5301 3.67205 13.8452L4.32309 10.0561L1.57049 7.37382C1.0757 6.89205 1.34913 6.05091 2.03143 5.95195Z" fill="#06B9A3"/>
</g>
<defs>
<clipPath id="clip0_502_33701">
<rect width="15" height="15" fill="white" transform="translate(0.783936 0.652435)"/>
</clipPath>
</defs>
</svg>
