<svg width="25" height="25" viewBox="0 0 25 25" fill="none" xmlns="http://www.w3.org/2000/svg">
<g clip-path="url(#clip0_223_4182)">
<path d="M12.1958 0.0978104C5.57079 0.0438092 0.152413 5.36785 0.0984083 11.9933C0.0443519 18.6251 5.37517 24.043 12.0001 24.097C18.6287 24.151 24.0426 18.8206 24.0967 12.1889C24.1507 5.56346 18.8244 0.151841 12.1958 0.0978104ZM12.8987 18.775C12.618 19.0207 12.294 19.1427 11.9281 19.1398C11.5495 19.1367 11.2203 19.0116 10.9405 18.764C10.6601 18.5168 10.5215 18.1728 10.5251 17.7324C10.5283 17.3416 10.6678 17.0139 10.9429 16.7496C11.2179 16.4853 11.5537 16.3547 11.9508 16.358C12.3415 16.3612 12.6693 16.4971 12.9341 16.7658C13.1984 17.0345 13.3295 17.3644 13.3263 17.7552C13.3222 18.1893 13.1799 18.5293 12.8987 18.775ZM16.444 10.188C16.2267 10.5834 15.9696 10.9237 15.6723 11.21C15.3758 11.4962 14.8429 11.977 14.0739 12.6529C13.8618 12.8436 13.6911 13.0112 13.563 13.1556C13.4348 13.3005 13.3389 13.4329 13.276 13.5535C13.2127 13.674 13.1638 13.7948 13.1289 13.9155C13.0941 14.0358 13.0413 14.2482 12.9697 14.5516C12.847 15.1957 12.4753 15.5152 11.8551 15.5102C11.5325 15.5075 11.2624 15.4001 11.0432 15.1873C10.8249 14.9746 10.7177 14.6606 10.7211 14.2451C10.7253 13.7242 10.8099 13.2736 10.9743 12.8932C11.1377 12.5128 11.355 12.1799 11.6239 11.8934C11.8932 11.6069 12.2556 11.2674 12.7119 10.874C13.1118 10.5299 13.4008 10.2703 13.5788 10.095C13.7573 9.91943 13.9076 9.7237 14.03 9.50784C14.1533 9.29154 14.2148 9.05668 14.2169 8.80238C14.2209 8.30595 14.0405 7.88616 13.6738 7.5421C13.3075 7.19804 12.8328 7.02339 12.2496 7.01864C11.5671 7.01307 11.0633 7.18108 10.738 7.52267C10.4126 7.86426 10.1361 8.36886 9.90706 9.03696C9.68995 9.73634 9.28686 10.0836 8.69824 10.0788C8.35085 10.0759 8.05871 9.95112 7.82174 9.70432C7.58522 9.45753 7.46812 9.19142 7.47045 8.90595C7.47525 8.31688 7.6694 7.72124 8.05244 7.11947C8.43593 6.51771 8.99202 6.02122 9.72114 5.63052C10.4498 5.23937 11.2985 5.04749 12.2656 5.05537C13.165 5.06271 13.9573 5.23539 14.643 5.57305C15.3288 5.9102 15.8572 6.36584 16.2279 6.93985C16.5982 7.51342 16.7811 8.13519 16.7756 8.80512C16.7722 9.33145 16.6614 9.79272 16.444 10.188Z" fill="#06B9A3"/>
</g>
<defs>
<clipPath id="clip0_223_4182">
<rect width="24" height="24" fill="white" transform="translate(0.195679) rotate(0.467014)"/>
</clipPath>
</defs>
</svg>
