<svg width="24" height="24" viewBox="0 0 24 24" fill="none" xmlns="http://www.w3.org/2000/svg">
<g clip-path="url(#clip0_1014_11827)">
<path d="M12 22C6.478 22 2 17.522 2 12C2 6.478 6.478 2 12 2C17.522 2 22 6.478 22 12C22 17.522 17.522 22 12 22Z" fill="url(#paint0_linear_1014_11827)"/>
<path d="M12 6.40383C13.822 6.40383 14.038 6.40983 14.758 6.44383C15.424 6.47383 15.786 6.58583 16.026 6.67983C16.344 6.80383 16.572 6.95183 16.81 7.18983C17.048 7.42783 17.196 7.65583 17.32 7.97383C17.414 8.21383 17.524 8.57583 17.556 9.24183C17.588 9.96183 17.596 10.1778 17.596 11.9998C17.596 13.8218 17.59 14.0378 17.556 14.7578C17.526 15.4238 17.414 15.7858 17.32 16.0258C17.196 16.3438 17.048 16.5718 16.81 16.8098C16.572 17.0478 16.344 17.1958 16.026 17.3198C15.786 17.4138 15.424 17.5238 14.758 17.5558C14.038 17.5878 13.822 17.5958 12 17.5958C10.178 17.5958 9.962 17.5898 9.242 17.5558C8.576 17.5258 8.214 17.4138 7.974 17.3198C7.656 17.1958 7.428 17.0478 7.19 16.8098C6.952 16.5718 6.804 16.3438 6.68 16.0258C6.586 15.7858 6.476 15.4238 6.444 14.7578C6.412 14.0378 6.404 13.8218 6.404 11.9998C6.404 10.1778 6.41 9.96183 6.444 9.24183C6.474 8.57583 6.586 8.21383 6.68 7.97383C6.804 7.65583 6.952 7.42783 7.19 7.18983C7.428 6.95183 7.656 6.80383 7.974 6.67983C8.214 6.58583 8.576 6.47583 9.242 6.44383C9.962 6.40983 10.178 6.40383 12 6.40383ZM12 5.17383C10.146 5.17383 9.914 5.18183 9.186 5.21583C8.46 5.24983 7.964 5.36383 7.528 5.53383C7.08 5.70583 6.698 5.93983 6.32 6.31983C5.94 6.69983 5.708 7.07983 5.532 7.52983C5.364 7.96383 5.248 8.45983 5.214 9.18783C5.18 9.91583 5.172 10.1478 5.172 12.0018C5.172 13.8558 5.18 14.0878 5.214 14.8158C5.248 15.5418 5.362 16.0378 5.532 16.4738C5.706 16.9198 5.94 17.3018 6.32 17.6798C6.7 18.0598 7.08 18.2918 7.53 18.4678C7.964 18.6358 8.46 18.7518 9.188 18.7858C9.916 18.8198 10.148 18.8278 12.002 18.8278C13.856 18.8278 14.088 18.8198 14.816 18.7858C15.542 18.7518 16.038 18.6378 16.474 18.4678C16.92 18.2938 17.302 18.0598 17.68 17.6798C18.06 17.2998 18.292 16.9198 18.468 16.4698C18.636 16.0358 18.752 15.5398 18.786 14.8118C18.82 14.0838 18.828 13.8518 18.828 11.9978C18.828 10.1438 18.82 9.91183 18.786 9.18383C18.752 8.45783 18.638 7.96183 18.468 7.52583C18.294 7.07983 18.06 6.69783 17.68 6.31983C17.3 5.93983 16.92 5.70783 16.47 5.53183C16.036 5.36383 15.54 5.24783 14.812 5.21383C14.086 5.18183 13.854 5.17383 12 5.17383Z" fill="white"/>
<path d="M12 8.49414C10.064 8.49414 8.49402 10.0641 8.49402 12.0001C8.49402 13.9361 10.064 15.5061 12 15.5061C13.936 15.5061 15.506 13.9361 15.506 12.0001C15.506 10.0641 13.936 8.49414 12 8.49414ZM12 14.2761C10.744 14.2761 9.72402 13.2581 9.72402 12.0001C9.72402 10.7421 10.744 9.72414 12 9.72414C13.256 9.72414 14.276 10.7421 14.276 12.0001C14.276 13.2581 13.256 14.2761 12 14.2761Z" fill="white"/>
<path d="M15.644 9.17613C16.0968 9.17613 16.464 8.80901 16.464 8.35613C16.464 7.90326 16.0968 7.53613 15.644 7.53613C15.1911 7.53613 14.824 7.90326 14.824 8.35613C14.824 8.80901 15.1911 9.17613 15.644 9.17613Z" fill="white"/>
</g>
<defs>
<linearGradient id="paint0_linear_1014_11827" x1="4.92894" y1="19.0711" x2="19.0711" y2="4.92894" gradientUnits="userSpaceOnUse">
<stop stop-color="#FFD521"/>
<stop offset="0.0551048" stop-color="#FFD020"/>
<stop offset="0.1241" stop-color="#FEC01E"/>
<stop offset="0.2004" stop-color="#FCA71B"/>
<stop offset="0.2821" stop-color="#FA8316"/>
<stop offset="0.3681" stop-color="#F85510"/>
<stop offset="0.4563" stop-color="#F51E09"/>
<stop offset="0.5" stop-color="#F30005"/>
<stop offset="0.5035" stop-color="#F20007"/>
<stop offset="0.5966" stop-color="#E1003B"/>
<stop offset="0.6879" stop-color="#D30067"/>
<stop offset="0.7757" stop-color="#C70088"/>
<stop offset="0.8589" stop-color="#BF00A0"/>
<stop offset="0.9357" stop-color="#BB00AF"/>
<stop offset="1" stop-color="#B900B4"/>
</linearGradient>
<clipPath id="clip0_1014_11827">
<rect width="20" height="20" fill="white" transform="translate(2 2)"/>
</clipPath>
</defs>
</svg>
