<svg width="24" height="24" viewBox="0 0 24 24" fill="none" xmlns="http://www.w3.org/2000/svg">
<g clip-path="url(#clip0_670_11224)">
<path d="M10.5607 10.9621C10.6827 10.8401 10.6827 10.6422 10.5606 10.5202C10.4386 10.3982 10.2408 10.3982 10.1187 10.5203C10.0174 10.6216 9.88267 10.6774 9.73939 10.6774C9.59607 10.6774 9.46134 10.6215 9.36001 10.5202C9.23794 10.3982 9.04013 10.3982 8.91806 10.5202C8.79603 10.6423 8.79603 10.8401 8.91806 10.9622C9.13744 11.1815 9.42916 11.3024 9.73939 11.3024C10.0496 11.3024 10.3413 11.1815 10.5607 10.9621Z" fill="#1F4E79"/>
<path d="M15.1104 8.23484C15.2757 8.28477 15.45 8.19148 15.5001 8.02629L15.8531 6.8602H17.321L17.674 8.02629C17.7883 8.41758 18.3949 8.23031 18.2722 7.84516L17.8517 6.45605C17.8515 6.45531 17.8513 6.45457 17.8511 6.45387L16.8862 3.26656C16.8085 2.97621 16.3656 2.97629 16.288 3.26656L15.3231 6.45387C15.3229 6.45461 15.3227 6.45535 15.3224 6.45605L14.9019 7.84516C14.8519 8.01039 14.9452 8.18484 15.1104 8.23484ZM16.5871 4.43566L17.1318 6.2352H16.0423L16.5871 4.43566Z" fill="#FF7021"/>
<path d="M21.6094 4.68359C21.4368 4.68359 21.2969 4.82352 21.2969 4.99609V5.23238C21.0041 4.99289 20.6302 4.84895 20.2233 4.84895C19.2867 4.84895 18.5248 5.61094 18.5248 6.5475C18.5248 7.48406 19.2868 8.24605 20.2233 8.24605C20.6302 8.24605 21.0041 8.10211 21.2969 7.86262V7.93551C21.2969 8.10809 21.4368 8.24801 21.6094 8.24801C21.782 8.24801 21.9219 8.10809 21.9219 7.93551V4.99609C21.9219 4.82352 21.782 4.68359 21.6094 4.68359ZM20.2233 7.62105C19.6314 7.62105 19.1498 7.13945 19.1498 6.5475C19.1498 5.95555 19.6314 5.47395 20.2233 5.47395C20.8153 5.47395 21.2969 5.95551 21.2969 6.54746C21.2969 7.13941 20.8153 7.62105 20.2233 7.62105Z" fill="#FF7021"/>
<path d="M12.4562 12.8613C12.1601 12.7433 11.8566 12.6201 11.5522 12.4943C11.5048 12.4747 11.4541 12.4327 11.4541 12.3737V12.1145C12.2866 11.6314 12.8983 10.8081 13.0972 9.83621C13.7853 9.72012 14.3113 9.12035 14.3113 8.39973C14.3113 8.05613 14.1931 7.73082 13.9761 7.46992V5.07137C13.9761 3.4268 12.6382 2.08887 10.9936 2.08887H8.72694C7.66761 2.08887 6.78936 2.87918 6.65104 3.90121C5.99624 4.03715 5.50272 4.61855 5.50272 5.31309V7.46988C5.28569 7.73082 5.16745 8.05613 5.16745 8.39973C5.16745 9.12035 5.69343 9.72012 6.38159 9.83621C6.5805 10.8082 7.19218 11.6314 8.02472 12.1145V12.3737C8.02472 12.4327 7.97401 12.4747 7.92663 12.4943C7.35397 12.731 6.75679 12.9434 6.22987 13.1309C5.58468 13.3604 5.02749 13.5586 4.62175 13.7575C3.81179 14.1546 3.15995 15.568 2.62901 18.0783C2.25104 19.8655 2.08132 21.5726 2.07964 21.5896C2.0628 21.7614 2.18839 21.9143 2.36015 21.9311C2.37054 21.9321 2.38081 21.9326 2.39104 21.9326C2.54987 21.9326 2.68585 21.812 2.70167 21.6506C2.70331 21.6339 2.87026 19.9566 3.24155 18.2027C3.873 15.2198 4.54968 14.4889 4.89686 14.3186C5.27054 14.1354 5.81222 13.9427 6.43933 13.7196C6.58663 13.6673 6.73976 13.6127 6.89604 13.5564L7.7753 15.0794C7.86089 15.2353 8.08058 15.2843 8.22436 15.1797L9.42686 14.3434V21.62C9.42097 22.0256 10.0578 22.0254 10.0519 21.62V14.3435L11.2544 15.1798C11.3985 15.2846 11.6178 15.2353 11.7034 15.0795L12.57 13.5786C13.3798 13.8966 14.1125 14.1674 14.6218 14.335C14.7107 14.3642 15.0678 14.5571 15.932 15.8114C16.2716 16.3042 16.5684 16.7869 16.7169 17.0339L16.4864 17.3668C16.388 17.5087 16.4234 17.7034 16.5653 17.8016C16.6196 17.8393 16.6816 17.8573 16.743 17.8573C16.842 17.8573 16.9394 17.8103 17.0001 17.7227L18.5166 15.5332C18.7041 15.9263 18.9546 16.1297 19.6688 16.1297C19.7583 16.1297 19.8419 16.1244 19.9205 16.1139C19.4648 17.4111 18.6099 18.5626 17.8989 19.5196C17.7255 19.7532 17.5616 19.9737 17.4127 20.1838C17.1398 20.5691 16.7922 20.7687 16.3797 20.7768C15.7436 20.7899 15.0087 20.3468 14.4071 19.5894L13.9703 17.3598C13.9371 17.1905 13.773 17.08 13.6035 17.1133C13.4341 17.1465 13.3237 17.3107 13.3569 17.48L14.1799 21.6804C14.2539 22.0809 14.8767 21.9558 14.7932 21.5602L14.6243 20.6982C15.18 21.1496 15.7866 21.4021 16.3544 21.4021C16.3669 21.4021 16.3796 21.402 16.3921 21.4017C17.0051 21.3895 17.5344 21.0933 17.9228 20.5451C18.0676 20.3407 18.2294 20.1229 18.4007 19.8924C19.2904 18.6947 20.3963 17.2055 20.7536 15.4462C20.8516 15.1769 20.8964 14.821 20.8964 14.3643C20.8964 13.7148 20.8797 13.2668 20.657 12.9708C20.4663 12.7173 20.1773 12.6357 19.8363 12.6102V9.24457C19.8363 9.07199 19.6964 8.93207 19.5238 8.93207C19.3512 8.93207 19.2113 9.07199 19.2113 9.24457V12.6188C18.8864 12.6738 18.6202 12.8426 18.4328 13.1154C18.0946 13.6079 18.0967 14.312 18.2464 14.8258L17.1064 16.4716C16.9416 16.2043 16.7092 15.8381 16.4488 15.46C15.5056 14.0904 15.0659 13.8232 14.8171 13.7414C14.2865 13.5668 13.5057 13.2768 12.6476 12.9375L12.4562 12.8613ZM13.1667 9.17098V9.14797V7.62797C13.2687 7.6693 13.3624 7.73109 13.4426 7.81129C13.5997 7.9684 13.6863 8.17742 13.6863 8.39969C13.6863 8.74813 13.4711 9.04719 13.1667 9.17098ZM7.2571 5.20746V4.18375C7.2571 3.37199 7.91518 2.71391 8.72694 2.71391H10.9936C12.2956 2.71391 13.3511 3.76937 13.3511 5.07141V7.02926C13.1939 6.97238 13.0264 6.94262 12.8542 6.94262C10.0917 6.94262 8.97003 6.55133 8.54604 6.31699C8.38464 6.22777 8.21358 6.1577 8.03772 6.10211C7.89597 6.0573 7.72522 5.97453 7.57226 5.82078C7.33655 5.58383 7.27503 5.31082 7.2571 5.20746ZM6.6321 4.55863V5.20746C6.6321 5.84449 7.05624 6.38414 7.6369 6.55941C7.51647 6.73902 7.24366 6.94262 6.62464 6.94262C6.45249 6.94262 6.28495 6.97238 6.12772 7.02926V5.31313C6.12772 4.97336 6.33632 4.6816 6.6321 4.55863ZM6.31214 9.17098C6.00765 9.04719 5.79245 8.74812 5.79245 8.39973C5.79245 8.17746 5.87901 7.96848 6.0362 7.81133C6.1164 7.73109 6.21007 7.6693 6.3121 7.62801V9.14801L6.31214 9.17098ZM6.93714 9.14801V7.5518C7.63155 7.47879 8.01245 7.16324 8.20046 6.84004C8.74577 7.15633 9.94108 7.5375 12.5417 7.56586V9.14801C12.5417 10.6932 11.2846 11.9503 9.73944 11.9503C8.19429 11.9503 6.93714 10.6932 6.93714 9.14801ZM9.7394 12.5753C10.1205 12.5753 10.4873 12.5127 10.83 12.3973C10.8359 12.5773 10.9085 12.7461 11.0305 12.8768C10.8724 13.0988 10.5071 13.433 9.7394 13.433C8.97171 13.433 8.6064 13.0989 8.44831 12.8769C8.57026 12.7461 8.64284 12.5773 8.64874 12.3973C8.99151 12.5127 9.35827 12.5753 9.7394 12.5753ZM8.14667 14.4726L7.49136 13.3375C7.6269 13.2862 7.76327 13.2335 7.89944 13.1794C8.05901 13.4262 8.36632 13.7611 8.91585 13.9376L8.14667 14.4726ZM11.3321 14.4726L10.563 13.9376C11.1114 13.7615 11.4185 13.4275 11.5784 13.1809C11.714 13.2363 11.8491 13.2911 11.9831 13.3451L11.3321 14.4726ZM19.1767 15.4156C19.1024 15.3506 19.0426 15.1892 18.96 14.9658C18.9367 14.9029 18.9117 14.8353 18.8839 14.7629C18.7384 14.3846 18.7226 13.7973 18.9481 13.4691C19.0614 13.3041 19.2268 13.2238 19.4535 13.2238C19.8881 13.2238 20.0921 13.2593 20.1575 13.3464C20.2626 13.4861 20.2714 13.9258 20.2714 14.3643C20.2714 14.7589 20.2358 15.0504 20.1657 15.2353C20.1648 15.2373 20.1641 15.2395 20.1632 15.2416C20.1418 15.2965 20.1175 15.3423 20.0898 15.3777C20.0287 15.4561 19.9369 15.5046 19.6688 15.5046C19.3191 15.5046 19.2205 15.4538 19.1767 15.4156Z" fill="#1F4E79" stroke="#1F4E79" stroke-width="0.1"/>
<path d="M5.87523 17.1133C5.70601 17.0801 5.54167 17.1905 5.50847 17.3599L4.68542 21.5603C4.60191 21.9561 5.22484 22.0808 5.29874 21.6804L6.12179 17.48C6.15499 17.3107 6.0446 17.1465 5.87523 17.1133Z" fill="#1F4E79"/>
</g>
<defs>
<clipPath id="clip0_670_11224">
<rect width="20" height="20" fill="white" transform="translate(2 2)"/>
</clipPath>
</defs>
</svg>
