<svg width="32" height="32" viewBox="0 0 32 32" fill="none" xmlns="http://www.w3.org/2000/svg">
<g clip-path="url(#clip0_835_11407)">
<path d="M27.9719 11.0533L27.9251 6.20138C27.9215 5.82395 27.6144 5.52051 27.2378 5.52051C27.2355 5.52051 27.2333 5.52051 27.231 5.52051C26.8514 5.5242 26.5465 5.83495 26.5502 6.21457L26.5778 9.07476L24.3405 5.82732C24.1698 5.57945 23.8575 5.47151 23.5702 5.56088C23.2827 5.65032 23.0869 5.91632 23.0869 6.21732V11.2291C23.0869 11.6088 23.3947 11.9166 23.7744 11.9166C24.1541 11.9166 24.4619 11.6088 24.4619 11.2291V8.42707L26.589 11.5146C26.7884 11.8034 27.1222 11.9261 27.4397 11.8271C27.763 11.7263 27.972 11.4251 27.972 11.0599C27.972 11.0578 27.972 11.0556 27.9719 11.0533Z" fill="#0F5391"/>
<path d="M4.59902 11.9025C4.64895 11.9111 4.68364 11.9171 5.23708 11.9171C5.50614 11.9171 5.89783 11.9156 6.47339 11.9124C6.85308 11.9103 7.1592 11.6008 7.15702 11.2211C7.15483 10.8414 6.84502 10.5354 6.46564 10.5374C6.14183 10.5393 5.73777 10.5409 5.40295 10.5414V6.20801C5.40295 5.82832 5.09514 5.52051 4.71545 5.52051C4.33577 5.52051 4.02795 5.82832 4.02795 6.20801V11.2249C4.02802 11.5596 4.26914 11.8458 4.59902 11.9025Z" fill="#0F5391"/>
<path d="M21.4019 11.9166C21.7815 11.9166 22.0894 11.6088 22.0894 11.2291V6.20801C22.0894 5.82832 21.7815 5.52051 21.4019 5.52051C21.0222 5.52051 20.7144 5.82832 20.7144 6.20801V11.2291C20.7144 11.6089 21.0222 11.9166 21.4019 11.9166Z" fill="#0F5391"/>
<path d="M17.0396 11.9166C18.7174 11.9166 19.8892 10.6014 19.8892 8.71851C19.8892 8.33882 19.5813 8.03101 19.2017 8.03101H17.7032C17.3235 8.03101 17.0157 8.33882 17.0157 8.71851C17.0157 9.0982 17.3235 9.40601 17.7032 9.40601H18.4241C18.2555 10.0168 17.8351 10.5416 17.0396 10.5416C16.0377 10.5416 15.2225 9.72376 15.2225 8.71851C15.2225 7.71326 16.0377 6.89545 17.0396 6.89545C17.4035 6.89545 17.7545 7.00282 18.0543 7.20595C18.3687 7.41876 18.7962 7.33657 19.0091 7.02226C19.222 6.70788 19.1398 6.28038 18.8254 6.06751C18.297 5.70963 17.6795 5.52051 17.0396 5.52051C15.2795 5.52051 13.8475 6.9552 13.8475 8.71857C13.8475 10.4819 15.2795 11.9166 17.0396 11.9166Z" fill="#0F5391"/>
<path d="M10.2057 11.9166C11.9659 11.9166 13.3978 10.482 13.3978 8.71857C13.3978 6.95513 11.9659 5.52051 10.2057 5.52051C8.44561 5.52051 7.01367 6.9552 7.01367 8.71857C7.01367 10.4819 8.44561 11.9166 10.2057 11.9166ZM10.2057 6.89551C11.2077 6.89551 12.0228 7.71332 12.0228 8.71857C12.0228 9.72382 11.2077 10.5416 10.2057 10.5416C9.2038 10.5416 8.38867 9.72382 8.38867 8.71857C8.38867 7.71332 9.2038 6.89551 10.2057 6.89551Z" fill="#0F5391"/>
<path d="M25.9383 14.3311C25.9373 14.3311 25.9363 14.3311 25.9354 14.3311C25.9345 14.3311 25.9336 14.3311 25.9327 14.3311H6.06738C2.72181 14.3311 0 17.0529 0 20.3984V20.4114C0 23.7569 2.72181 26.4788 6.06738 26.4788H25.9326H25.9353H25.9382H25.9398C29.2814 26.4788 31.9999 23.7602 31.9999 20.4186V20.3912C32 17.0496 29.2814 14.3311 25.9383 14.3311ZM6.06738 25.1038C3.48 25.1038 1.375 22.9988 1.375 20.4114V20.3984C1.375 17.8111 3.48 15.706 6.06738 15.706H22.0986C20.7437 16.8183 19.8781 18.5056 19.8781 20.3912V20.4186C19.8781 22.3042 20.7438 23.9914 22.0986 25.1037H6.06738V25.1038ZM30.625 20.4186C30.625 23.002 28.5232 25.1038 25.9398 25.1038H25.9383C23.3549 25.1038 21.2531 23.0021 21.2531 20.4186V20.3912C21.2531 17.8079 23.3549 15.7061 25.9398 15.7061C28.5232 15.7061 30.625 17.8078 30.625 20.3912V20.4186Z" fill="#33CCCC"/>
<path d="M27.8799 19.2867V18.5982C27.8799 17.5263 27.0092 16.6543 25.939 16.6543C24.8689 16.6543 23.9982 17.5263 23.9982 18.5982V19.2867C23.6064 19.578 23.3522 20.0444 23.3522 20.5689V22.1677C23.3522 23.0482 24.0686 23.7647 24.9492 23.7647H26.929C27.8095 23.7647 28.526 23.0483 28.526 22.1677V20.5689C28.526 20.0444 28.2717 19.578 27.8799 19.2867ZM25.3732 18.5982C25.3732 18.2845 25.6271 18.0294 25.9391 18.0294C26.2511 18.0294 26.505 18.2845 26.505 18.5982V18.972H25.3733L25.3732 18.5982ZM27.151 22.1677C27.151 22.29 27.0514 22.3897 26.929 22.3897H24.9492C24.8268 22.3897 24.7272 22.2901 24.7272 22.1677V20.5689C24.7272 20.4465 24.8268 20.3469 24.9492 20.3469H26.929C27.0514 20.3469 27.151 20.4465 27.151 20.5689V22.1677Z" fill="#33CCCC"/>
</g>
<defs>
<clipPath id="clip0_835_11407">
<rect width="32" height="32" fill="white"/>
</clipPath>
</defs>
</svg>
