<svg width="25" height="25" viewBox="0 0 25 25" fill="none" xmlns="http://www.w3.org/2000/svg">
<g clip-path="url(#clip0_223_4194)">
<path d="M7.02573 22C6.62573 22 6.27573 21.85 5.97573 21.55C5.67573 21.25 5.52573 20.9 5.52573 20.5L5.52573 6.25L5.25073 6.25C5.03407 6.25 4.8549 6.17917 4.71323 6.0375C4.57157 5.89583 4.50073 5.71667 4.50073 5.5C4.50073 5.28333 4.57157 5.10417 4.71323 4.9625C4.8549 4.82083 5.03407 4.75 5.25073 4.75L9.20073 4.75C9.20073 4.53333 9.27157 4.35417 9.41323 4.2125C9.5549 4.07083 9.73407 4 9.95073 4L15.0507 4C15.2674 4 15.4466 4.07083 15.5882 4.2125C15.7299 4.35417 15.8007 4.53333 15.8007 4.75L19.7507 4.75C19.9674 4.75 20.1466 4.82083 20.2882 4.9625C20.4299 5.10417 20.5007 5.28333 20.5007 5.5C20.5007 5.71667 20.4299 5.89583 20.2882 6.0375C20.1466 6.17917 19.9674 6.25 19.7507 6.25L19.4757 6.25L19.4757 20.5C19.4757 20.9 19.3257 21.25 19.0257 21.55C18.7257 21.85 18.3757 22 17.9757 22L7.02573 22ZM7.02573 6.25L7.02573 20.5L17.9757 20.5L17.9757 6.25L7.02573 6.25ZM9.67573 17.6C9.67573 17.8167 9.74657 17.9958 9.88823 18.1375C10.0299 18.2792 10.2091 18.35 10.4257 18.35C10.6424 18.35 10.8216 18.2792 10.9632 18.1375C11.1049 17.9958 11.1757 17.8167 11.1757 17.6L11.1757 9.125C11.1757 8.90833 11.1049 8.72917 10.9632 8.5875C10.8216 8.44583 10.6424 8.375 10.4257 8.375C10.2091 8.375 10.0299 8.44583 9.88823 8.5875C9.74657 8.72917 9.67573 8.90833 9.67573 9.125L9.67573 17.6ZM13.8257 17.6C13.8257 17.8167 13.8966 17.9958 14.0382 18.1375C14.1799 18.2792 14.3591 18.35 14.5757 18.35C14.7924 18.35 14.9716 18.2792 15.1132 18.1375C15.2549 17.9958 15.3257 17.8167 15.3257 17.6L15.3257 9.125C15.3257 8.90833 15.2549 8.72917 15.1132 8.5875C14.9716 8.44583 14.7924 8.375 14.5757 8.375C14.3591 8.375 14.1799 8.44583 14.0382 8.5875C13.8966 8.72917 13.8257 8.90833 13.8257 9.125L13.8257 17.6ZM7.02573 6.25L7.02573 20.5L7.02573 6.25Z" fill="#EA4335"/>
</g>
<defs>
<clipPath id="clip0_223_4194">
<rect width="24" height="24" fill="white" transform="translate(0.195801 0.583008) rotate(0.467014)"/>
</clipPath>
</defs>
</svg>
