<svg width="65" height="65" viewBox="0 0 65 65" fill="none" xmlns="http://www.w3.org/2000/svg">
<path d="M61.0179 29.6724C61.0179 45.2519 48.3879 57.8764 32.8082 57.8764C17.2342 57.8764 4.60419 45.2519 4.60419 29.6724C4.60419 14.0929 17.2342 1.46265 32.8082 1.46265C48.3877 1.46265 61.0179 14.0929 61.0179 29.6724Z" fill="#D6EBFE"/>
<path d="M42.1999 37.1477C44.3739 34.0144 46.4564 28.4645 43.0117 24.951C41.9907 23.9097 40.5144 23.3767 39.0952 23.716C38.2382 23.921 37.4589 24.4192 37.4589 25.5544V30.0205C38.2739 36.8337 22.7992 34.0164 22.7992 39.8684V57.415C24.2517 60.166 28.3082 62.398 31.2632 62.398H42.5839" fill="white"/>
<path d="M40.5009 39.9715C40.5009 41.741 41.9372 43.1752 43.7089 43.1752H52.1689C53.9407 43.1752 55.3769 41.7407 55.3769 39.9715C55.3769 38.202 53.9407 36.7677 52.1689 36.7677H43.7089C41.9372 36.7677 40.5009 38.2022 40.5009 39.9715Z" fill="white"/>
<path d="M40.5009 46.3792C40.5009 48.1487 41.9372 49.5829 43.7089 49.5829H51.0159C52.7877 49.5829 54.2237 48.1484 54.2237 46.3792C54.2237 44.6097 52.7874 43.1754 51.0159 43.1754H43.7089C41.9372 43.1754 40.5009 44.6097 40.5009 46.3792Z" fill="white"/>
<path d="M40.5009 52.787C40.5009 54.5565 41.9372 55.9908 43.7089 55.9908H49.8632C51.6349 55.9908 53.0712 54.5563 53.0712 52.787C53.0712 51.0175 51.6349 49.5833 49.8632 49.5833H43.7089C41.9372 49.583 40.5009 51.0175 40.5009 52.787Z" fill="white"/>
<path d="M40.5009 59.1945C40.5009 60.964 41.9372 62.3982 43.7089 62.3982H48.7102C50.4819 62.3982 51.9182 60.9637 51.9182 59.1945C51.9182 57.425 50.4819 55.9907 48.7102 55.9907H43.7089C41.9372 55.9907 40.5009 57.4252 40.5009 59.1945Z" fill="white"/>
<path d="M10.2454 60.1706V37.1134C10.2454 35.3309 11.6904 33.8859 13.4729 33.8859H19.5719C21.3544 33.8859 22.7994 35.3309 22.7994 37.1134V60.1706C22.7994 61.9531 21.3544 63.3981 19.5719 63.3981H13.4729C11.6904 63.3979 10.2454 61.9529 10.2454 60.1706Z" fill="#4B91F3"/>
<path d="M52.1687 36.2037H43.7085C43.6215 36.2037 43.5365 36.211 43.451 36.2167C45.5357 32.5927 46.5822 27.7872 43.4145 24.5562C42.2127 23.3305 40.5065 22.8 38.9645 23.1675C37.63 23.4865 36.895 24.3342 36.895 25.5545V30.0207C36.895 30.0432 36.8965 30.0652 36.8987 30.088C37.2392 32.9317 34.3095 33.8292 29.8007 34.8732C27.3135 35.4495 24.776 36.0425 23.3632 37.3395V37.1135C23.3632 35.0227 21.6622 33.322 19.5717 33.322H13.473C11.3822 33.322 9.68121 35.0227 9.68121 37.1135V60.171C9.68121 62.2617 11.3822 63.9625 13.473 63.9625H19.572C21.6625 63.9625 23.3635 62.2617 23.3635 60.171V59.171C25.2867 61.3117 28.575 62.963 31.2632 62.963C34.319 62.9525 45.654 62.944 48.7102 62.963C50.7902 62.963 52.4822 61.2727 52.4822 59.1947C52.4822 58.0457 51.963 57.0167 51.1485 56.3252C52.5965 55.7985 53.635 54.4137 53.635 52.7872C53.635 51.6382 53.1157 50.6092 52.3012 49.9177C53.7492 49.391 54.7877 48.0062 54.7877 46.3797C54.7877 45.2307 54.2687 44.2017 53.454 43.5102C54.9017 42.9835 55.9405 41.5987 55.9405 39.9722C55.9407 37.894 54.2485 36.2037 52.1687 36.2037ZM22.235 60.1707C22.235 61.639 21.0402 62.834 19.572 62.834H13.473C12.0042 62.834 10.8095 61.639 10.8095 60.1707V37.1132C10.8095 35.645 12.0042 34.4502 13.473 34.4502H19.572C21.0405 34.4502 22.235 35.6452 22.235 37.1132V60.1707ZM31.2632 61.8345C28.4357 61.8345 24.716 59.675 23.3635 57.2712V39.869C23.3635 37.522 26.6142 36.7695 30.0557 35.9725C34.0052 35.058 38.48 34.0217 38.0232 29.9885V25.5545C38.0232 25.0877 38.1602 24.52 39.2267 24.2647C40.3867 23.985 41.6827 24.4015 42.609 25.3462C45.8475 28.6492 43.6587 34.0005 41.8055 36.724C40.6895 37.379 39.9367 38.5877 39.9367 39.9715C39.9367 41.3255 40.6575 42.5112 41.7332 43.1755C40.6575 43.84 39.9367 45.0255 39.9367 46.379C39.9367 47.733 40.6575 48.9187 41.7332 49.583C40.6575 50.2475 39.9367 51.433 39.9367 52.7865C39.9367 54.1405 40.6575 55.3262 41.7332 55.9905C40.6575 56.655 39.9367 57.8405 39.9367 59.194C39.9367 60.2217 40.3515 61.1535 41.0215 61.834H31.2632V61.8345ZM51.354 59.1945C51.354 60.65 50.168 61.8345 48.7102 61.8345H43.7087C42.251 61.8345 41.0652 60.65 41.0652 59.1945C41.0652 57.739 42.251 56.555 43.7087 56.555H48.7102C50.1677 56.555 51.354 57.739 51.354 59.1945ZM52.5067 52.7867C52.5067 54.2422 51.3207 55.4267 49.863 55.4267C47.7115 55.4267 47.487 55.4267 43.7087 55.4267C42.251 55.4267 41.0652 54.2422 41.0652 52.7867C41.0652 51.3312 42.251 50.1472 43.7087 50.1472H49.863C51.3207 50.1475 52.5067 51.3312 52.5067 52.7867ZM53.6595 46.3792C53.6595 47.8347 52.4735 49.0192 51.0157 49.0192C48.4597 49.0192 46.578 49.0192 43.7087 49.0192C42.251 49.0192 41.0652 47.8347 41.0652 46.3792C41.0652 44.9237 42.251 43.7397 43.7087 43.7397H51.0157C52.4735 43.7397 53.6595 44.9237 53.6595 46.3792ZM52.1687 42.6115C50.0135 42.6115 45.8657 42.6115 43.7085 42.6115C42.2507 42.6115 41.065 41.427 41.065 39.9715C41.065 38.516 42.2507 37.332 43.7085 37.332H52.1687C53.6265 37.332 54.8122 38.516 54.8122 39.9715C54.8122 41.427 53.6265 42.6115 52.1687 42.6115Z" fill="black"/>
</svg>
