<svg width="24" height="24" viewBox="0 0 24 24" fill="none" xmlns="http://www.w3.org/2000/svg">
<path d="M11 16C11 11.5505 9.69167 9.28049 9.63659 9.1861C9.56899 9.07081 9.47599 9.00393 9.37806 9.00017C9.28014 8.9964 9.1853 9.05606 9.11442 9.16602C9.04354 9.27598 9.00242 9.42724 9.0001 9.58651C8.99779 9.74578 9.03447 9.90003 9.10208 10.0153C9.11368 10.0356 10.2614 12.0619 10.2614 16H11Z" fill="#FF7021"/>
<path d="M14.8863 9.16723C14.8512 9.1126 14.81 9.06972 14.7647 9.04105C14.7195 9.01238 14.6713 8.99847 14.6228 9.00013C14.5743 9.00179 14.5264 9.01898 14.482 9.05071C14.4376 9.08245 14.3974 9.12811 14.3638 9.18508C14.3083 9.27948 13 11.5499 13 16H13.7388C13.7388 12.0768 14.8787 10.0505 14.8983 10.0148C14.9656 9.89962 15.0022 9.7458 14.9999 9.58696C14.9976 9.42812 14.9568 9.2772 14.8863 9.16723Z" fill="#FF7021"/>
<path fill-rule="evenodd" clip-rule="evenodd" d="M19.4399 13.3915C19.3245 13.6157 19.2632 13.8638 19.261 14.116L19.2611 15.0446C19.2615 18.2192 19.2616 19.2108 19.2614 19.4793V19.5135V19.5671C19.2612 19.7517 19.1878 19.9288 19.0572 20.0593C18.9267 20.1899 18.7497 20.2633 18.565 20.2635H5.43441C5.24977 20.2633 5.07276 20.1899 4.9422 20.0593C4.81165 19.9288 4.73821 19.7517 4.738 19.5671C4.73878 15.6524 4.73878 14.4969 4.73878 14.2034V14.116C4.73657 13.8638 4.67527 13.6157 4.55981 13.3915C4.44435 13.1673 4.27794 12.9733 4.07394 12.8251C3.2212 12.1989 2.63471 11.2753 2.43062 10.2372C2.22652 9.19909 2.41971 8.1222 2.97192 7.21979C3.52412 6.31737 4.39508 5.65523 5.41232 5.36449C6.42955 5.07375 7.51887 5.17562 8.46456 5.64992C8.84837 5.06225 9.37261 4.57953 9.98989 4.24541C10.6072 3.9113 11.298 3.73633 11.9999 3.73633C12.7018 3.73633 13.3926 3.9113 14.0099 4.24541C14.6271 4.57953 15.1514 5.06225 15.5352 5.64992C16.4809 5.17562 17.5702 5.07375 18.5874 5.36449C19.6047 5.65523 20.4756 6.31737 21.0278 7.21979C21.58 8.1222 21.7732 9.19909 21.5691 10.2372C21.365 11.2753 20.7786 12.1989 19.9258 12.8251C19.7218 12.9733 19.5554 13.1673 19.4399 13.3915ZM18.7141 15.591V14.116C18.7164 13.7781 18.7979 13.4454 18.952 13.1447C19.1061 12.8439 19.3286 12.5835 19.6016 12.3843C20.3416 11.8406 20.8512 11.0394 21.0299 10.1387C21.2087 9.23793 21.0436 8.30291 20.5672 7.51784C20.0908 6.73277 19.3376 6.15458 18.4561 5.89719C17.5746 5.63981 16.6287 5.72189 15.8047 6.12726C16.0793 6.69858 16.2219 7.32433 16.2219 7.9582C16.2223 8.19699 16.2021 8.43537 16.1616 8.6707C16.1492 8.74212 16.1089 8.80568 16.0496 8.84739C16.0202 8.86804 15.9871 8.88271 15.952 8.89056C15.917 8.8984 15.8808 8.89927 15.8454 8.89312C15.774 8.88069 15.7104 8.84039 15.6687 8.7811C15.627 8.72181 15.6106 8.64837 15.623 8.57695C15.6579 8.37256 15.6754 8.16555 15.675 7.9582C15.6754 7.14605 15.4068 6.35665 14.9111 5.71333C14.4154 5.07001 13.7206 4.60901 12.9351 4.40236C12.1497 4.1957 11.318 4.25504 10.5699 4.5711C9.82175 4.88715 9.19939 5.44212 8.80003 6.14929C8.3846 6.88598 8.23515 7.74313 8.37675 8.57695C8.38291 8.61231 8.38204 8.64854 8.37419 8.68357C8.36635 8.7186 8.35168 8.75174 8.33102 8.7811C8.31037 8.81046 8.28413 8.83546 8.25382 8.85468C8.2235 8.8739 8.1897 8.88696 8.15433 8.89312C8.11897 8.89927 8.08273 8.8984 8.04771 8.89056C8.01268 8.88271 7.97954 8.86804 7.95018 8.84739C7.92082 8.82674 7.89582 8.8005 7.8766 8.77019C7.85737 8.73987 7.84431 8.70606 7.83816 8.6707C7.79765 8.43537 7.77747 8.19699 7.77785 7.9582C7.7779 7.32433 7.92048 6.69858 8.19503 6.12726C7.371 5.72137 6.4248 5.63892 5.54299 5.89617C4.66117 6.15342 3.90772 6.7317 3.43119 7.517C2.95466 8.3023 2.78962 9.23763 2.96861 10.1386C3.1476 11.0396 3.65764 11.8408 4.39816 12.3843C4.6712 12.5835 4.89375 12.8439 5.04793 13.1446C5.20212 13.4454 5.28365 13.7781 5.28597 14.116V15.591H18.7141ZM18.6702 19.6734C18.6982 19.6453 18.7141 16.1379 18.7141 16.1379H5.28519V19.5677C5.28527 19.6074 5.30105 19.6453 5.32908 19.6734C5.3571 19.7014 5.39509 19.7172 5.43472 19.7173H18.5646C18.6042 19.7172 18.6422 19.7014 18.6702 19.6734Z" fill="#1F4E79"/>
<path d="M19.261 14.116C19.2632 13.8638 19.3245 13.6157 19.4399 13.3915C19.5554 13.1673 19.7218 12.9733 19.9258 12.8251C20.7786 12.1989 21.365 11.2753 21.5691 10.2372C21.7732 9.19909 21.58 8.1222 21.0278 7.21979C20.4756 6.31737 19.6047 5.65523 18.5874 5.36449C17.5702 5.07375 16.4809 5.17562 15.5352 5.64992C15.1514 5.06225 14.6271 4.57953 14.0099 4.24541C13.3926 3.9113 12.7018 3.73633 11.9999 3.73633C11.298 3.73633 10.6072 3.9113 9.98989 4.24541C9.37261 4.57953 8.84837 5.06225 8.46456 5.64992C7.51887 5.17562 6.42955 5.07375 5.41232 5.36449C4.39508 5.65523 3.52412 6.31737 2.97192 7.21979C2.41971 8.1222 2.22652 9.19909 2.43062 10.2372C2.63471 11.2753 3.2212 12.1989 4.07394 12.8251C4.27794 12.9733 4.44435 13.1673 4.55981 13.3915C4.67527 13.6157 4.73657 13.8638 4.73878 14.116V14.2034C4.73878 14.4969 4.73878 15.6524 4.738 19.5671C4.73821 19.7517 4.81165 19.9288 4.9422 20.0593C5.07276 20.1899 5.24977 20.2633 5.43441 20.2635H18.565C18.7497 20.2633 18.9267 20.1899 19.0572 20.0593C19.1878 19.9288 19.2612 19.7517 19.2614 19.5671V19.5135M19.261 14.116L19.2611 15.0446M19.261 14.116C19.261 14.4446 19.261 14.7538 19.2611 15.0446M19.2614 19.5135C19.2614 19.4866 19.2614 19.4793 19.2614 19.4793M19.2614 19.5135V19.4793M19.2614 19.4793C19.2616 19.2108 19.2615 18.2192 19.2611 15.0446M5.28519 19.5677C5.28527 19.6074 5.30105 19.6453 5.32908 19.6734C5.3571 19.7014 5.39509 19.7172 5.43472 19.7173H18.5646C18.6042 19.7172 18.6422 19.7014 18.6702 19.6734C18.6982 19.6453 18.7141 16.1379 18.7141 16.1379H5.28519M5.28519 19.5677C5.28519 19.5677 5.28519 17.4773 5.28519 16.1379M5.28519 19.5677V16.1379M18.7141 14.116V15.591H5.28597V14.116C5.28365 13.7781 5.20212 13.4454 5.04793 13.1446C4.89375 12.8439 4.6712 12.5835 4.39816 12.3843C3.65764 11.8408 3.1476 11.0396 2.96861 10.1386C2.78962 9.23763 2.95466 8.3023 3.43119 7.517C3.90772 6.7317 4.66117 6.15342 5.54299 5.89617C6.4248 5.63892 7.371 5.72137 8.19503 6.12726C7.92048 6.69858 7.7779 7.32433 7.77785 7.9582C7.77747 8.19699 7.79765 8.43537 7.83816 8.6707C7.84431 8.70606 7.85737 8.73987 7.8766 8.77019C7.89582 8.8005 7.92082 8.82674 7.95018 8.84739C7.97954 8.86804 8.01268 8.88271 8.04771 8.89056C8.08273 8.8984 8.11897 8.89927 8.15433 8.89312C8.1897 8.88696 8.2235 8.8739 8.25382 8.85468C8.28413 8.83546 8.31037 8.81046 8.33102 8.7811C8.35168 8.75174 8.36635 8.7186 8.37419 8.68357C8.38204 8.64854 8.38291 8.61231 8.37675 8.57695C8.23515 7.74313 8.3846 6.88598 8.80003 6.14929C9.19939 5.44212 9.82175 4.88715 10.5699 4.5711C11.318 4.25504 12.1497 4.1957 12.9351 4.40236C13.7206 4.60901 14.4154 5.07001 14.9111 5.71333C15.4068 6.35665 15.6754 7.14605 15.675 7.9582C15.6754 8.16555 15.6579 8.37256 15.623 8.57695C15.6106 8.64837 15.627 8.72181 15.6687 8.7811C15.7104 8.84039 15.774 8.88069 15.8454 8.89312C15.8808 8.89927 15.917 8.8984 15.952 8.89056C15.9871 8.88271 16.0202 8.86804 16.0496 8.84739C16.1089 8.80568 16.1492 8.74212 16.1616 8.6707C16.2021 8.43537 16.2223 8.19699 16.2219 7.9582C16.2219 7.32433 16.0793 6.69858 15.8047 6.12726C16.6287 5.72189 17.5746 5.63981 18.4561 5.89719C19.3376 6.15458 20.0908 6.73277 20.5672 7.51784C21.0436 8.30291 21.2087 9.23793 21.0299 10.1387C20.8512 11.0394 20.3416 11.8406 19.6016 12.3843C19.3286 12.5835 19.1061 12.8439 18.952 13.1447C18.7979 13.4454 18.7164 13.7781 18.7141 14.116Z" stroke="#1F4E79" stroke-width="0.3"/>
<path d="M13.2636 17.9277C13.2636 17.6777 13.1895 17.4334 13.0507 17.2256C12.9118 17.0178 12.7145 16.8559 12.4836 16.7602C12.2527 16.6646 11.9986 16.6396 11.7535 16.6883C11.5084 16.7371 11.2833 16.8574 11.1065 17.0342C10.9298 17.2109 10.8095 17.436 10.7607 17.6811C10.712 17.9263 10.737 18.1803 10.8326 18.4112C10.9283 18.6421 11.0902 18.8395 11.298 18.9783C11.5058 19.1171 11.7501 19.1913 12 19.1913C12.335 19.1907 12.6561 19.0574 12.8929 18.8206C13.1298 18.5837 13.2631 18.2626 13.2636 17.9277ZM11.2833 17.9277C11.2833 17.7859 11.3254 17.6473 11.4041 17.5295C11.4829 17.4116 11.5948 17.3197 11.7258 17.2655C11.8567 17.2112 12.0008 17.1971 12.1399 17.2247C12.2789 17.2524 12.4066 17.3206 12.5068 17.4209C12.6071 17.5211 12.6753 17.6488 12.703 17.7878C12.7306 17.9269 12.7165 18.071 12.6622 18.2019C12.608 18.3329 12.5161 18.4448 12.3982 18.5236C12.2804 18.6023 12.1418 18.6444 12 18.6444C11.81 18.6441 11.6279 18.5685 11.4935 18.4342C11.3592 18.2998 11.2836 18.1177 11.2833 17.9277Z" fill="#FF7021"/>
</svg>
