<svg width="24" height="24" viewBox="0 0 24 24" fill="none" xmlns="http://www.w3.org/2000/svg">
<g clip-path="url(#clip0_670_11237)">
<path d="M13.2023 5.68086H12.8117V4.26562C12.8117 3.46875 12.1632 2.82031 11.3664 2.82031H9.29761C8.50073 2.82031 7.85229 3.46875 7.85229 4.26562V5.68086H7.46167V4.26562C7.46167 3.25312 8.28511 2.42969 9.29761 2.42969H11.3664C12.3789 2.42969 13.2023 3.25312 13.2023 4.26562V5.68086Z" fill="#1F4E79" stroke="#1F4E79" stroke-width="0.35"/>
<path d="M12.2179 5.68086H11.8273V4.26562C11.8273 4.01133 11.6207 3.80469 11.3664 3.80469H9.29761C9.04331 3.80469 8.83667 4.01133 8.83667 4.26562V5.68086H8.44604V4.26562C8.44604 3.79609 8.82808 3.41406 9.29761 3.41406H11.3664C11.8359 3.41406 12.2179 3.79609 12.2179 4.26562V5.68086Z" fill="#1F4E79" stroke="#1F4E79" stroke-width="0.35"/>
<path d="M12.2953 17.1096H4.26562C3.4793 17.1096 2.83984 16.4701 2.83984 15.6838V9.78027H3.23047V15.6834C3.23047 16.2541 3.69492 16.7186 4.26562 16.7186H12.2949V17.1096H12.2953ZM17.8242 12.3639H17.4336V9.78027H17.8242V12.3639Z" fill="#1F4E79" stroke="#1F4E79" stroke-width="0.35"/>
<path d="M12.573 11.4336L12.548 11.0437C14.3922 10.9258 15.7023 10.609 17.0699 9.95039C17.5547 9.7168 17.8438 9.25664 17.8438 8.71875V6.91211C17.8438 6.34141 17.3793 5.87695 16.8086 5.87695H3.85547C3.28477 5.87695 2.82031 6.34141 2.82031 6.91211V8.71875C2.82031 9.25664 3.10977 9.71719 3.59414 9.95039C4.96172 10.609 6.27148 10.9258 8.11602 11.0437L8.09102 11.4336C6.19297 11.3121 4.84102 10.9844 3.42461 10.3023C2.80156 10.0023 2.42969 9.41016 2.42969 8.71875V6.91211C2.42969 6.12578 3.06914 5.48633 3.85547 5.48633H16.8086C17.5949 5.48633 18.2344 6.12578 18.2344 6.91211V8.71875C18.2344 9.41016 17.8625 10.0023 17.2395 10.3023C15.823 10.9844 14.4711 11.3121 12.573 11.4336Z" fill="#1F4E79" stroke="#1F4E79" stroke-width="0.35"/>
<path d="M11.5652 12.4902H9.09883C8.44141 12.4902 7.90625 11.9555 7.90625 11.2977C7.90625 10.6398 8.44102 10.1055 9.09883 10.1055H11.5652C12.2227 10.1055 12.7578 10.6402 12.7578 11.298C12.7578 11.9551 12.2227 12.4902 11.5652 12.4902ZM9.09883 10.4961C8.65664 10.4961 8.29688 10.8559 8.29688 11.2977C8.29688 11.7398 8.65664 12.0996 9.09883 12.0996H11.5652C12.0074 12.0996 12.3672 11.7398 12.3672 11.298C12.3672 10.8559 12.0074 10.4961 11.5652 10.4961H9.09883Z" fill="#FF7021" stroke="#FF7021" stroke-width="0.35"/>
<path d="M16.8348 21.5707C14.2235 21.5707 12.0992 19.4465 12.0992 16.8352C12.0992 14.2238 14.2235 12.0996 16.8348 12.0996C19.4461 12.0996 21.5703 14.2238 21.5703 16.8352C21.5703 19.4465 19.4461 21.5707 16.8348 21.5707ZM16.8348 12.4902C14.4391 12.4902 12.4899 14.4395 12.4899 16.8352C12.4899 19.2309 14.4391 21.1801 16.8348 21.1801C19.2305 21.1801 21.1797 19.2309 21.1797 16.8352C21.1797 14.4395 19.2305 12.4902 16.8348 12.4902Z" fill="#1F4E79" stroke="#1F4E79" stroke-width="0.35"/>
<path d="M16.8347 20.5398C14.7914 20.5398 13.1293 18.8773 13.1293 16.8344C13.1293 14.791 14.7918 13.1289 16.8347 13.1289C18.8781 13.1289 20.5402 14.7914 20.5402 16.8344C20.5402 18.8777 18.8781 20.5398 16.8347 20.5398ZM16.8347 13.5191C15.007 13.5191 13.5199 15.0063 13.5199 16.834C13.5199 18.6617 15.007 20.1488 16.8347 20.1488C18.6625 20.1488 20.1496 18.6617 20.1496 16.834C20.1496 15.0063 18.6625 13.5191 16.8347 13.5191Z" fill="#FF7021"/>
<path d="M16.8347 19.8873C16.7269 19.8873 16.6394 19.7998 16.6394 19.692V19.5178C16.6394 19.41 16.7269 19.3225 16.8347 19.3225C16.9425 19.3225 17.03 19.41 17.03 19.5178V19.692C17.03 19.8002 16.9425 19.8873 16.8347 19.8873ZM18.855 19.0506C18.805 19.0506 18.755 19.0314 18.7167 18.9936L18.5937 18.8705C18.5175 18.7943 18.5175 18.6705 18.5937 18.5943C18.6699 18.5182 18.7937 18.5182 18.8699 18.5943L18.9929 18.7174C19.0691 18.7936 19.0691 18.9174 18.9929 18.9936C18.955 19.0314 18.905 19.0506 18.855 19.0506ZM14.8144 19.0506C14.7644 19.0506 14.7144 19.0314 14.6761 18.9936C14.6 18.9174 14.6 18.7936 14.6761 18.7174L14.7992 18.5943C14.8753 18.5182 14.9992 18.5182 15.0753 18.5943C15.1515 18.6705 15.1515 18.7943 15.0753 18.8705L14.9523 18.9936C14.9144 19.0314 14.8644 19.0506 14.8144 19.0506ZM19.6917 17.0303H19.5175C19.4097 17.0303 19.3222 16.9428 19.3222 16.835C19.3222 16.7271 19.4097 16.6396 19.5175 16.6396H19.6917C19.7996 16.6396 19.8871 16.7271 19.8871 16.835C19.8871 16.9428 19.8 17.0303 19.6917 17.0303ZM14.1515 17.0303H13.9773C13.8695 17.0303 13.782 16.9428 13.782 16.835C13.782 16.7271 13.8695 16.6396 13.9773 16.6396H14.1515C14.2593 16.6396 14.3468 16.7271 14.3468 16.835C14.3468 16.9428 14.2597 17.0303 14.1515 17.0303ZM18.732 15.133C18.682 15.133 18.632 15.1139 18.5937 15.076C18.5175 14.9998 18.5175 14.876 18.5937 14.7998L18.7167 14.6768C18.7929 14.6006 18.9167 14.6006 18.9929 14.6768C19.0691 14.7529 19.0691 14.8768 18.9929 14.9529L18.8699 15.076C18.832 15.1139 18.782 15.133 18.732 15.133ZM14.9375 15.133C14.8875 15.133 14.8375 15.1139 14.7992 15.076L14.6761 14.9529C14.6 14.8768 14.6 14.7529 14.6761 14.6768C14.7523 14.6006 14.8761 14.6006 14.9523 14.6768L15.0753 14.7998C15.1515 14.876 15.1515 14.9998 15.0753 15.076C15.0375 15.1139 14.9875 15.133 14.9375 15.133ZM16.8347 14.3471C16.7269 14.3471 16.6394 14.2596 16.6394 14.1518V13.9775C16.6394 13.8697 16.7269 13.7822 16.8347 13.7822C16.9425 13.7822 17.03 13.8697 17.03 13.9775V14.1518C17.03 14.26 16.9425 14.3471 16.8347 14.3471Z" fill="#1F4E79"/>
<path d="M16.8348 17.3863C16.5305 17.3863 16.2832 17.1391 16.2832 16.8348C16.2832 16.5305 16.5305 16.2832 16.8348 16.2832C17.1387 16.2832 17.3863 16.5305 17.3863 16.8348C17.3863 17.1391 17.1387 17.3863 16.8348 17.3863ZM16.8348 16.6738C16.7461 16.6738 16.6738 16.7461 16.6738 16.8348C16.6738 16.9234 16.7461 16.9957 16.8348 16.9957C16.9234 16.9957 16.9957 16.9234 16.9957 16.8348C16.9957 16.7461 16.9234 16.6738 16.8348 16.6738Z" fill="#1F4E79"/>
<path d="M17.9179 18.1135C17.8679 18.1135 17.8179 18.0943 17.7796 18.0564L16.9671 17.2439C16.891 17.1678 16.891 17.0439 16.9671 16.9678C17.0433 16.8916 17.1671 16.8916 17.2433 16.9678L18.0558 17.7803C18.132 17.8564 18.132 17.9803 18.0558 18.0564C18.0179 18.0943 17.9679 18.1135 17.9179 18.1135ZM16.8347 16.6451C16.7269 16.6451 16.6394 16.5576 16.6394 16.4498V14.8115C16.6394 14.7037 16.7269 14.6162 16.8347 14.6162C16.9425 14.6162 17.03 14.7037 17.03 14.8115V16.4498C17.03 16.5576 16.9425 16.6451 16.8347 16.6451Z" fill="#1F4E79"/>
</g>
<defs>
<clipPath id="clip0_670_11237">
<rect width="20" height="20" fill="white" transform="translate(2 2)"/>
</clipPath>
</defs>
</svg>
