<svg width="65" height="65" viewBox="0 0 65 65" fill="none" xmlns="http://www.w3.org/2000/svg">
<g clip-path="url(#clip0_868_3796)">
<path d="M32.7678 64.2276C49.9589 64.2276 63.8951 50.2914 63.8951 33.1003C63.8951 15.9092 49.9589 1.97302 32.7678 1.97302C15.5767 1.97302 1.64053 15.9092 1.64053 33.1003C1.64053 50.2914 15.5767 64.2276 32.7678 64.2276Z" fill="#FDBF5E"/>
<path d="M7.74962 10.7002C4.74356 10.7002 2.41629 13.1244 2.41629 16.0335V22.3366H13.1799V16.0335C13.1799 13.1244 10.7557 10.7002 7.74962 10.7002Z" fill="white"/>
<path d="M13.1799 23.4033H2.41629C1.83447 23.4033 1.44659 23.0154 1.44659 22.4336V16.1305C1.44659 12.6396 4.25872 9.82751 7.74962 9.82751C11.2405 9.82751 14.0527 12.6396 14.0527 16.1305V22.4336C14.1496 22.9184 13.6648 23.4033 13.1799 23.4033ZM3.38599 21.4639H12.2102V16.1305C12.2102 13.7063 10.2708 11.7669 7.84659 11.7669C5.42235 11.7669 3.48296 13.7063 3.48296 16.1305V21.4639H3.38599Z" fill="#193651"/>
<path d="M50.8042 16.1306C50.8042 13.1245 48.3799 10.7972 45.4708 10.7972H7.74963C10.7557 10.7972 13.083 13.2215 13.083 16.1306V16.2275V22.4336V59.1851C13.083 60.8336 14.3436 62.0942 15.9921 62.0942H39.1678L50.8042 50.4579V16.1306Z" fill="#E1E6E9"/>
<path d="M39.1678 62.9669H16.089C13.9557 62.9669 12.2102 61.2215 12.2102 59.0881V16.2275C12.2102 13.7063 10.2708 11.7669 7.84659 11.7669C7.26478 11.7669 6.8769 11.379 6.8769 10.7972C6.8769 10.2154 7.26478 9.82751 7.84659 9.82751H45.4708C48.9617 9.82751 51.7739 12.6396 51.7739 16.1305V50.4578C51.7739 50.7487 51.6769 50.9427 51.483 51.1366L39.8466 62.773C39.6527 62.8699 39.4587 62.9669 39.1678 62.9669ZM12.3072 11.6699C13.3739 12.8336 14.0527 14.3851 14.0527 16.0336V58.9912C14.0527 60.0578 14.9254 60.9305 15.992 60.9305H38.683L49.7375 49.876V16.1305C49.7375 13.7063 47.7981 11.7669 45.3739 11.7669H12.3072V11.6699Z" fill="#193651"/>
<path d="M17.0587 58.1185V16.2275C17.0587 15.6457 17.0587 15.1609 16.9617 14.676H45.4708C46.3436 14.676 46.9254 15.3548 46.9254 16.1306V50.4578L39.1678 58.2154H17.0587V58.1185Z" fill="white"/>
<path d="M39.1678 61.9972L50.8042 50.3608H42.0769C40.4284 50.3608 39.1678 51.6214 39.1678 53.2699V61.9972Z" fill="white"/>
<path d="M39.1678 62.9669C39.0708 62.9669 38.8769 62.9669 38.7799 62.8699C38.3921 62.676 38.1981 62.3851 38.1981 61.9972V53.2699C38.1981 51.1366 39.9436 49.3911 42.0769 49.3911H50.8042C51.1921 49.3911 51.5799 49.5851 51.6769 49.9729C51.8708 50.3608 51.7739 50.7487 51.483 51.0396L39.8466 62.676C39.6527 62.8699 39.4587 62.9669 39.1678 62.9669ZM42.0769 51.4275C41.0102 51.4275 40.1375 52.3002 40.1375 53.3669V59.7669L48.4769 51.4275H42.0769Z" fill="#193651"/>
<path d="M20.0648 22.1427H43.8224V24.0821H20.0648V22.1427Z" fill="#193651"/>
<path d="M20.0648 22.1427H43.8224V24.0821H20.0648V22.1427Z" fill="#CFD0D1"/>
<path d="M20.0648 27.573H43.8224V29.5124H20.0648V27.573Z" fill="#CFD0D1"/>
<path d="M20.0648 33.0033H43.8224V34.9427H20.0648V33.0033Z" fill="#CFD0D1"/>
<path d="M20.0648 38.5305H43.8224V40.4699H20.0648V38.5305Z" fill="#CFD0D1"/>
<path d="M20.0648 43.9608H43.8224V45.9002H20.0648V43.9608Z" fill="#CFD0D1"/>
<path d="M20.0648 49.4882H22.0042V51.4276H20.0648V49.4882Z" fill="#193651"/>
<path d="M23.9436 49.4882H25.883V51.4276H23.9436V49.4882Z" fill="#193651"/>
<path d="M27.8224 49.4882H29.7617V51.4276H27.8224V49.4882Z" fill="#193651"/>
<path d="M31.7011 49.4882H33.6405V51.4276H31.7011V49.4882Z" fill="#193651"/>
<path d="M55.0708 39.5972C59.3017 39.5972 62.7314 36.1674 62.7314 31.9366C62.7314 27.7058 59.3017 24.276 55.0708 24.276C50.84 24.276 47.4102 27.7058 47.4102 31.9366C47.4102 36.1674 50.84 39.5972 55.0708 39.5972Z" fill="#4FBF9F"/>
<path d="M55.0708 40.6639C50.3193 40.6639 46.4405 36.7851 46.4405 32.0336C46.4405 27.2821 50.3193 23.4033 55.0708 23.4033C59.8224 23.4033 63.7011 27.2821 63.7011 32.0336C63.7011 36.7851 59.8224 40.6639 55.0708 40.6639ZM55.0708 25.2457C51.386 25.2457 48.3799 28.2518 48.3799 31.9367C48.3799 35.6215 51.386 38.6276 55.0708 38.6276C58.7557 38.6276 61.7617 35.6215 61.7617 31.9367C61.7617 28.2518 58.7557 25.2457 55.0708 25.2457Z" fill="#193651"/>
<path d="M53.1314 18.4578C57.3623 18.4578 60.792 15.028 60.792 10.7972C60.792 6.56637 57.3623 3.1366 53.1314 3.1366C48.9006 3.1366 45.4708 6.56637 45.4708 10.7972C45.4708 15.028 48.9006 18.4578 53.1314 18.4578Z" fill="#F16051"/>
<path d="M53.1314 19.5245C48.3799 19.5245 44.5011 15.6457 44.5011 10.8942C44.5011 6.1427 48.3799 2.26392 53.1314 2.26392C57.883 2.26392 61.7617 6.1427 61.7617 10.8942C61.7617 15.6457 57.883 19.5245 53.1314 19.5245ZM53.1314 4.10634C49.4466 4.10634 46.4405 7.1124 46.4405 10.7972C46.4405 14.4821 49.4466 17.4882 53.1314 17.4882C56.8163 17.4882 59.8224 14.4821 59.8224 10.7972C59.8224 7.1124 56.8163 4.10634 53.1314 4.10634Z" fill="#193651"/>
<path d="M29.2769 17.4882C33.5077 17.4882 36.9375 14.0584 36.9375 9.8276C36.9375 5.59676 33.5077 2.16699 29.2769 2.16699C25.0461 2.16699 21.6163 5.59676 21.6163 9.8276C21.6163 14.0584 25.0461 17.4882 29.2769 17.4882Z" fill="#2EA2DB"/>
<path d="M29.2769 18.4579C24.5254 18.4579 20.6466 14.5791 20.6466 9.82757C20.6466 5.07605 24.5254 1.19727 29.2769 1.19727C34.0284 1.19727 37.9072 5.07605 37.9072 9.82757C37.9072 14.5791 34.1254 18.4579 29.2769 18.4579ZM29.2769 3.13666C25.592 3.13666 22.586 6.14272 22.586 9.82757C22.586 13.5124 25.592 16.5185 29.2769 16.5185C32.9617 16.5185 35.9678 13.5124 35.9678 9.82757C36.0648 6.14272 32.9617 3.13666 29.2769 3.13666Z" fill="#193651"/>
<path d="M29.9557 5.56091H28.6951L25.883 11.9609L25.786 12.0579H27.1436L27.8224 10.6033H30.8284L31.5072 12.0579H32.8648L29.9557 5.56091ZM30.3436 9.4397H28.3072L29.2769 7.11243L30.3436 9.4397Z" fill="white"/>
<path d="M56.0405 13.4155C56.3314 13.0276 56.5254 12.6398 56.5254 12.1549C56.5254 11.767 56.4284 11.3792 56.1375 11.0882C55.9436 10.8943 55.6527 10.7004 55.3618 10.6034C55.4587 10.6034 55.4587 10.5064 55.6527 10.4095C55.9436 10.1185 56.1375 9.73067 56.1375 9.24582C56.1375 8.85794 55.9436 8.37309 55.6527 8.08218C55.4587 7.88824 55.2648 7.79128 54.8769 7.59734C54.586 7.59734 54.1981 7.50037 53.8102 7.50037H51.289V13.9973H54.1981C54.9739 14.0943 55.6527 13.9004 56.0405 13.4155ZM52.4527 10.2155V8.76097H53.7133C54.1011 8.76097 54.3921 8.85794 54.489 8.95491C54.683 9.05188 54.683 9.24582 54.683 9.53673C54.683 9.73067 54.683 10.2155 53.6163 10.2155H52.4527ZM55.1678 12.0579C55.1678 12.3489 55.0708 12.5428 54.8769 12.6398C54.683 12.7367 54.3921 12.8337 54.0042 12.8337H52.4527V11.3792H53.9072C54.7799 11.3792 55.1678 11.5731 55.1678 12.0579Z" fill="white"/>
<path d="M56.8163 33.3912C56.5254 33.6821 56.2345 33.8761 56.0405 33.973C55.7496 34.07 55.4587 34.167 55.1678 34.167C54.586 34.167 54.1011 33.973 53.7133 33.5851C53.3254 33.1973 53.1314 32.6155 53.1314 32.0336C53.1314 31.4518 53.3254 30.87 53.7133 30.4821C54.1011 30.0942 54.683 29.9003 55.2648 29.9003C55.6527 29.9003 55.9436 29.9973 56.1375 30.0942C56.4284 30.1912 56.7193 30.3851 57.0102 30.6761L57.1072 30.773L57.883 29.8033L57.786 29.7064C57.1072 28.9306 56.2345 28.5427 55.2648 28.5427C54.2951 28.5427 53.4224 28.8336 52.7436 29.5124C52.0648 30.1912 51.7739 30.967 51.7739 31.9367C51.7739 32.9064 52.0648 33.6821 52.7436 34.3609C53.4224 35.0397 54.1981 35.3306 55.1678 35.3306C56.1375 35.3306 57.0102 34.9427 57.689 34.167L57.786 34.07L56.8163 33.3912Z" fill="white"/>
</g>
<defs>
<clipPath id="clip0_868_3796">
<rect width="64" height="64" fill="white" transform="translate(0.670837 0.712402)"/>
</clipPath>
</defs>
</svg>
