<svg width="229" height="40" viewBox="0 0 229 40" fill="none" xmlns="http://www.w3.org/2000/svg">
<rect width="229" height="40" rx="4" fill="#FFC107"/>
<path d="M21.616 24.32C22.016 24.32 22.352 24.272 22.624 24.176C22.896 24.08 23.112 23.952 23.272 23.792C23.4373 23.632 23.5547 23.4453 23.624 23.232C23.6987 23.0187 23.736 22.792 23.736 22.552C23.736 22.3013 23.696 22.0773 23.616 21.88C23.536 21.6773 23.4107 21.5067 23.24 21.368C23.0693 21.224 22.848 21.1147 22.576 21.04C22.3093 20.9653 21.9867 20.928 21.608 20.928H19.44V24.32H21.616ZM19.44 16.096V19.44H21.152C21.888 19.44 22.4427 19.3067 22.816 19.04C23.1947 18.7733 23.384 18.3493 23.384 17.768C23.384 17.1653 23.2133 16.736 22.872 16.48C22.5307 16.224 21.9973 16.096 21.272 16.096H19.44ZM21.272 14.432C22.0293 14.432 22.6773 14.504 23.216 14.648C23.7547 14.792 24.1947 14.9973 24.536 15.264C24.8827 15.5307 25.136 15.8533 25.296 16.232C25.456 16.6107 25.536 17.0373 25.536 17.512C25.536 17.784 25.496 18.0453 25.416 18.296C25.336 18.5413 25.2107 18.7733 25.04 18.992C24.8747 19.2053 24.6613 19.4 24.4 19.576C24.144 19.752 23.8373 19.9013 23.48 20.024C25.0693 20.3813 25.864 21.24 25.864 22.6C25.864 23.0907 25.7707 23.544 25.584 23.96C25.3973 24.376 25.1253 24.736 24.768 25.04C24.4107 25.3387 23.9707 25.5733 23.448 25.744C22.9253 25.9147 22.328 26 21.656 26H17.288V14.432H21.272ZM32.8859 20.952C32.8859 20.696 32.8485 20.456 32.7739 20.232C32.7045 20.0027 32.5979 19.8027 32.4539 19.632C32.3099 19.4613 32.1259 19.328 31.9019 19.232C31.6832 19.1307 31.4272 19.08 31.1339 19.08C30.5632 19.08 30.1125 19.2427 29.7819 19.568C29.4565 19.8933 29.2485 20.3547 29.1579 20.952H32.8859ZM29.1179 22.144C29.1499 22.5653 29.2245 22.9307 29.3419 23.24C29.4592 23.544 29.6139 23.7973 29.8059 24C29.9979 24.1973 30.2245 24.3467 30.4859 24.448C30.7525 24.544 31.0459 24.592 31.3659 24.592C31.6859 24.592 31.9605 24.5547 32.1899 24.48C32.4245 24.4053 32.6272 24.3227 32.7979 24.232C32.9739 24.1413 33.1259 24.0587 33.2539 23.984C33.3872 23.9093 33.5152 23.872 33.6379 23.872C33.8032 23.872 33.9259 23.9333 34.0059 24.056L34.5739 24.776C34.3552 25.032 34.1099 25.248 33.8379 25.424C33.5659 25.5947 33.2805 25.7333 32.9819 25.84C32.6885 25.9413 32.3872 26.0133 32.0779 26.056C31.7739 26.0987 31.4779 26.12 31.1899 26.12C30.6192 26.12 30.0885 26.0267 29.5979 25.84C29.1072 25.648 28.6805 25.368 28.3179 25C27.9552 24.6267 27.6699 24.168 27.4619 23.624C27.2539 23.0747 27.1499 22.44 27.1499 21.72C27.1499 21.16 27.2405 20.6347 27.4219 20.144C27.6032 19.648 27.8619 19.2187 28.1979 18.856C28.5392 18.488 28.9525 18.1973 29.4379 17.984C29.9285 17.7707 30.4805 17.664 31.0939 17.664C31.6112 17.664 32.0885 17.7467 32.5259 17.912C32.9632 18.0773 33.3392 18.32 33.6539 18.64C33.9685 18.9547 34.2139 19.344 34.3899 19.808C34.5712 20.2667 34.6619 20.792 34.6619 21.384C34.6619 21.6827 34.6299 21.8853 34.5659 21.992C34.5019 22.0933 34.3792 22.144 34.1979 22.144H29.1179ZM42.2248 19.528C42.1661 19.6027 42.1074 19.6613 42.0487 19.704C41.9954 19.7467 41.9154 19.768 41.8088 19.768C41.7074 19.768 41.6087 19.7387 41.5127 19.68C41.4167 19.616 41.3021 19.5467 41.1687 19.472C41.0354 19.392 40.8754 19.3227 40.6887 19.264C40.5074 19.2 40.2807 19.168 40.0087 19.168C39.6621 19.168 39.3581 19.232 39.0967 19.36C38.8354 19.4827 38.6167 19.6613 38.4407 19.896C38.2701 20.1307 38.1421 20.416 38.0567 20.752C37.9714 21.0827 37.9287 21.4587 37.9287 21.88C37.9287 22.3173 37.9741 22.7067 38.0647 23.048C38.1607 23.3893 38.2967 23.6773 38.4727 23.912C38.6487 24.1413 38.8621 24.3173 39.1127 24.44C39.3634 24.5573 39.6461 24.616 39.9607 24.616C40.2754 24.616 40.5287 24.5787 40.7207 24.504C40.9181 24.424 41.0834 24.3387 41.2167 24.248C41.3501 24.152 41.4647 24.0667 41.5608 23.992C41.6621 23.912 41.7741 23.872 41.8967 23.872C42.0567 23.872 42.1767 23.9333 42.2568 24.056L42.8247 24.776C42.6061 25.032 42.3687 25.248 42.1128 25.424C41.8567 25.5947 41.5901 25.7333 41.3127 25.84C41.0407 25.9413 40.7581 26.0133 40.4647 26.056C40.1767 26.0987 39.8887 26.12 39.6007 26.12C39.0941 26.12 38.6167 26.0267 38.1687 25.84C37.7207 25.648 37.3287 25.3707 36.9927 25.008C36.6567 24.6453 36.3901 24.2027 36.1927 23.68C36.0007 23.152 35.9047 22.552 35.9047 21.88C35.9047 21.2773 35.9901 20.72 36.1607 20.208C36.3367 19.6907 36.5927 19.2453 36.9287 18.872C37.2647 18.4933 37.6807 18.1973 38.1767 17.984C38.6727 17.7707 39.2434 17.664 39.8887 17.664C40.5021 17.664 41.0381 17.7627 41.4967 17.96C41.9607 18.1573 42.3767 18.44 42.7448 18.808L42.2248 19.528ZM47.7549 17.664C48.3629 17.664 48.9149 17.7627 49.4109 17.96C49.9122 18.1573 50.3389 18.4373 50.6909 18.8C51.0482 19.1627 51.3229 19.6053 51.5149 20.128C51.7069 20.6507 51.8029 21.2347 51.8029 21.88C51.8029 22.5307 51.7069 23.1173 51.5149 23.64C51.3229 24.1627 51.0482 24.608 50.6909 24.976C50.3389 25.344 49.9122 25.6267 49.4109 25.824C48.9149 26.0213 48.3629 26.12 47.7549 26.12C47.1415 26.12 46.5842 26.0213 46.0829 25.824C45.5815 25.6267 45.1522 25.344 44.7949 24.976C44.4429 24.608 44.1682 24.1627 43.9709 23.64C43.7789 23.1173 43.6829 22.5307 43.6829 21.88C43.6829 21.2347 43.7789 20.6507 43.9709 20.128C44.1682 19.6053 44.4429 19.1627 44.7949 18.8C45.1522 18.4373 45.5815 18.1573 46.0829 17.96C46.5842 17.7627 47.1415 17.664 47.7549 17.664ZM47.7549 24.6C48.4375 24.6 48.9415 24.3707 49.2669 23.912C49.5975 23.4533 49.7629 22.7813 49.7629 21.896C49.7629 21.0107 49.5975 20.336 49.2669 19.872C48.9415 19.408 48.4375 19.176 47.7549 19.176C47.0615 19.176 46.5469 19.4107 46.2109 19.88C45.8802 20.344 45.7149 21.016 45.7149 21.896C45.7149 22.776 45.8802 23.448 46.2109 23.912C46.5469 24.3707 47.0615 24.6 47.7549 24.6ZM53.5104 26V17.792H54.7184C54.9744 17.792 55.1424 17.912 55.2224 18.152L55.3504 18.76C55.4944 18.6 55.6437 18.4533 55.7984 18.32C55.9584 18.1867 56.1264 18.072 56.3024 17.976C56.4837 17.88 56.6757 17.8053 56.8784 17.752C57.0864 17.6933 57.313 17.664 57.5584 17.664C58.0757 17.664 58.4997 17.8053 58.8304 18.088C59.1664 18.3653 59.417 18.736 59.5824 19.2C59.7104 18.928 59.8704 18.696 60.0624 18.504C60.2544 18.3067 60.465 18.1467 60.6944 18.024C60.9237 17.9013 61.1664 17.8107 61.4224 17.752C61.6837 17.6933 61.945 17.664 62.2064 17.664C62.6597 17.664 63.0624 17.7333 63.4144 17.872C63.7664 18.0107 64.0624 18.2133 64.3024 18.48C64.5424 18.7467 64.7237 19.072 64.8464 19.456C64.9744 19.84 65.0384 20.28 65.0384 20.776V26H63.0624V20.776C63.0624 20.2533 62.9477 19.8613 62.7184 19.6C62.489 19.3333 62.153 19.2 61.7104 19.2C61.5077 19.2 61.3184 19.2347 61.1424 19.304C60.9717 19.3733 60.8197 19.4747 60.6864 19.608C60.5584 19.736 60.457 19.8987 60.3824 20.096C60.3077 20.2933 60.2704 20.52 60.2704 20.776V26H58.2864V20.776C58.2864 20.2267 58.1744 19.8267 57.9504 19.576C57.7317 19.3253 57.409 19.2 56.9824 19.2C56.6944 19.2 56.425 19.272 56.1744 19.416C55.929 19.5547 55.6997 19.7467 55.4864 19.992V26H53.5104ZM72.4046 20.952C72.4046 20.696 72.3673 20.456 72.2926 20.232C72.2233 20.0027 72.1166 19.8027 71.9726 19.632C71.8286 19.4613 71.6446 19.328 71.4206 19.232C71.202 19.1307 70.946 19.08 70.6526 19.08C70.082 19.08 69.6313 19.2427 69.3006 19.568C68.9753 19.8933 68.7673 20.3547 68.6766 20.952H72.4046ZM68.6366 22.144C68.6686 22.5653 68.7433 22.9307 68.8606 23.24C68.978 23.544 69.1326 23.7973 69.3246 24C69.5166 24.1973 69.7433 24.3467 70.0046 24.448C70.2713 24.544 70.5646 24.592 70.8846 24.592C71.2046 24.592 71.4793 24.5547 71.7086 24.48C71.9433 24.4053 72.146 24.3227 72.3166 24.232C72.4926 24.1413 72.6446 24.0587 72.7726 23.984C72.906 23.9093 73.034 23.872 73.1566 23.872C73.322 23.872 73.4446 23.9333 73.5246 24.056L74.0926 24.776C73.874 25.032 73.6286 25.248 73.3566 25.424C73.0846 25.5947 72.7993 25.7333 72.5006 25.84C72.2073 25.9413 71.906 26.0133 71.5966 26.056C71.2926 26.0987 70.9966 26.12 70.7086 26.12C70.138 26.12 69.6073 26.0267 69.1166 25.84C68.626 25.648 68.1993 25.368 67.8366 25C67.474 24.6267 67.1886 24.168 66.9806 23.624C66.7726 23.0747 66.6686 22.44 66.6686 21.72C66.6686 21.16 66.7593 20.6347 66.9406 20.144C67.122 19.648 67.3806 19.2187 67.7166 18.856C68.058 18.488 68.4713 18.1973 68.9566 17.984C69.4473 17.7707 69.9993 17.664 70.6126 17.664C71.13 17.664 71.6073 17.7467 72.0446 17.912C72.482 18.0773 72.858 18.32 73.1726 18.64C73.4873 18.9547 73.7326 19.344 73.9086 19.808C74.09 20.2667 74.1806 20.792 74.1806 21.384C74.1806 21.6827 74.1486 21.8853 74.0846 21.992C74.0206 22.0933 73.898 22.144 73.7166 22.144H68.6366ZM85.8469 21.632L84.4389 17.784C84.3695 17.6133 84.2975 17.4107 84.2229 17.176C84.1482 16.9413 84.0735 16.688 83.9989 16.416C83.9295 16.688 83.8575 16.944 83.7829 17.184C83.7082 17.4187 83.6362 17.624 83.5669 17.8L82.1669 21.632H85.8469ZM89.6469 26H87.9829C87.7962 26 87.6442 25.9547 87.5269 25.864C87.4095 25.768 87.3215 25.6507 87.2629 25.512L86.3989 23.152H81.6069L80.7429 25.512C80.7002 25.6347 80.6175 25.7467 80.4949 25.848C80.3722 25.9493 80.2202 26 80.0389 26H78.3589L82.9109 14.432H85.1029L89.6469 26ZM100.764 16.536C100.7 16.648 100.63 16.7307 100.556 16.784C100.486 16.832 100.398 16.856 100.292 16.856C100.18 16.856 100.057 16.816 99.9236 16.736C99.7956 16.6507 99.641 16.5573 99.4596 16.456C99.2783 16.3547 99.065 16.264 98.8196 16.184C98.5796 16.0987 98.2943 16.056 97.9636 16.056C97.665 16.056 97.4036 16.0933 97.1796 16.168C96.9556 16.2373 96.7663 16.336 96.6116 16.464C96.4623 16.592 96.3503 16.7467 96.2756 16.928C96.201 17.104 96.1636 17.2987 96.1636 17.512C96.1636 17.784 96.2383 18.0107 96.3876 18.192C96.5423 18.3733 96.745 18.528 96.9956 18.656C97.2463 18.784 97.5316 18.8987 97.8516 19C98.1716 19.1013 98.4996 19.2107 98.8356 19.328C99.1716 19.44 99.4996 19.5733 99.8196 19.728C100.14 19.8773 100.425 20.0693 100.676 20.304C100.926 20.5333 101.126 20.816 101.276 21.152C101.43 21.488 101.508 21.896 101.508 22.376C101.508 22.8987 101.417 23.3893 101.236 23.848C101.06 24.3013 100.798 24.6987 100.452 25.04C100.11 25.376 99.6916 25.6427 99.1956 25.84C98.6996 26.032 98.1316 26.128 97.4916 26.128C97.1236 26.128 96.761 26.0907 96.4036 26.016C96.0463 25.9467 95.7023 25.8453 95.3716 25.712C95.0463 25.5787 94.7396 25.4187 94.4516 25.232C94.1636 25.0453 93.9076 24.8373 93.6836 24.608L94.3156 23.576C94.369 23.5013 94.4383 23.44 94.5236 23.392C94.609 23.3387 94.6996 23.312 94.7956 23.312C94.929 23.312 95.073 23.368 95.2276 23.48C95.3823 23.5867 95.5663 23.7067 95.7796 23.84C95.993 23.9733 96.241 24.096 96.5236 24.208C96.8116 24.3147 97.1556 24.368 97.5556 24.368C98.169 24.368 98.6436 24.224 98.9796 23.936C99.3156 23.6427 99.4836 23.224 99.4836 22.68C99.4836 22.376 99.4063 22.128 99.2516 21.936C99.1023 21.744 98.9023 21.584 98.6516 21.456C98.401 21.3227 98.1156 21.2107 97.7956 21.12C97.4756 21.0293 97.1503 20.9307 96.8196 20.824C96.489 20.7173 96.1636 20.5893 95.8436 20.44C95.5236 20.2907 95.2383 20.096 94.9876 19.856C94.737 19.616 94.5343 19.3173 94.3796 18.96C94.2303 18.5973 94.1556 18.152 94.1556 17.624C94.1556 17.2027 94.2383 16.792 94.4036 16.392C94.5743 15.992 94.8196 15.6373 95.1396 15.328C95.4596 15.0187 95.8543 14.7707 96.3236 14.584C96.793 14.3973 97.3316 14.304 97.9396 14.304C98.6223 14.304 99.2516 14.4107 99.8276 14.624C100.404 14.8373 100.894 15.136 101.3 15.52L100.764 16.536ZM108.53 20.952C108.53 20.696 108.492 20.456 108.418 20.232C108.348 20.0027 108.242 19.8027 108.098 19.632C107.954 19.4613 107.77 19.328 107.546 19.232C107.327 19.1307 107.071 19.08 106.778 19.08C106.207 19.08 105.756 19.2427 105.426 19.568C105.1 19.8933 104.892 20.3547 104.802 20.952H108.53ZM104.762 22.144C104.794 22.5653 104.868 22.9307 104.986 23.24C105.103 23.544 105.258 23.7973 105.45 24C105.642 24.1973 105.868 24.3467 106.13 24.448C106.396 24.544 106.69 24.592 107.01 24.592C107.33 24.592 107.604 24.5547 107.834 24.48C108.068 24.4053 108.271 24.3227 108.442 24.232C108.618 24.1413 108.77 24.0587 108.898 23.984C109.031 23.9093 109.159 23.872 109.282 23.872C109.447 23.872 109.57 23.9333 109.65 24.056L110.218 24.776C109.999 25.032 109.754 25.248 109.482 25.424C109.21 25.5947 108.924 25.7333 108.626 25.84C108.332 25.9413 108.031 26.0133 107.722 26.056C107.418 26.0987 107.122 26.12 106.834 26.12C106.263 26.12 105.732 26.0267 105.242 25.84C104.751 25.648 104.324 25.368 103.962 25C103.599 24.6267 103.314 24.168 103.106 23.624C102.898 23.0747 102.794 22.44 102.794 21.72C102.794 21.16 102.884 20.6347 103.066 20.144C103.247 19.648 103.506 19.2187 103.842 18.856C104.183 18.488 104.596 18.1973 105.082 17.984C105.572 17.7707 106.124 17.664 106.738 17.664C107.255 17.664 107.732 17.7467 108.17 17.912C108.607 18.0773 108.983 18.32 109.298 18.64C109.612 18.9547 109.858 19.344 110.034 19.808C110.215 20.2667 110.306 20.792 110.306 21.384C110.306 21.6827 110.274 21.8853 110.21 21.992C110.146 22.0933 110.023 22.144 109.842 22.144H104.762ZM113.852 19.216C114.108 18.7253 114.412 18.3413 114.764 18.064C115.116 17.7813 115.532 17.64 116.012 17.64C116.391 17.64 116.695 17.7227 116.924 17.888L116.796 19.368C116.77 19.464 116.73 19.5333 116.676 19.576C116.628 19.6133 116.562 19.632 116.476 19.632C116.396 19.632 116.276 19.6187 116.116 19.592C115.962 19.5653 115.81 19.552 115.66 19.552C115.442 19.552 115.247 19.584 115.076 19.648C114.906 19.712 114.751 19.8053 114.612 19.928C114.479 20.0453 114.359 20.1893 114.252 20.36C114.151 20.5307 114.055 20.7253 113.964 20.944V26H111.988V17.792H113.148C113.351 17.792 113.492 17.8293 113.572 17.904C113.652 17.9733 113.706 18.1013 113.732 18.288L113.852 19.216ZM125.557 17.792L122.301 26H120.509L117.253 17.792H118.885C119.035 17.792 119.157 17.8267 119.253 17.896C119.355 17.9653 119.421 18.0533 119.453 18.16L121.037 22.544C121.123 22.8 121.197 23.0507 121.261 23.296C121.325 23.5413 121.381 23.7867 121.429 24.032C121.483 23.7867 121.541 23.5413 121.605 23.296C121.669 23.0507 121.747 22.8 121.837 22.544L123.453 18.16C123.491 18.0533 123.557 17.9653 123.653 17.896C123.749 17.8267 123.864 17.792 123.997 17.792H125.557ZM128.858 17.792V26H126.874V17.792H128.858ZM129.13 15.4C129.13 15.5707 129.096 15.7307 129.026 15.88C128.957 16.0293 128.864 16.16 128.746 16.272C128.634 16.384 128.501 16.4747 128.346 16.544C128.192 16.608 128.026 16.64 127.85 16.64C127.68 16.64 127.517 16.608 127.362 16.544C127.213 16.4747 127.082 16.384 126.97 16.272C126.858 16.16 126.768 16.0293 126.698 15.88C126.634 15.7307 126.602 15.5707 126.602 15.4C126.602 15.224 126.634 15.0587 126.698 14.904C126.768 14.7493 126.858 14.616 126.97 14.504C127.082 14.392 127.213 14.304 127.362 14.24C127.517 14.1707 127.68 14.136 127.85 14.136C128.026 14.136 128.192 14.1707 128.346 14.24C128.501 14.304 128.634 14.392 128.746 14.504C128.864 14.616 128.957 14.7493 129.026 14.904C129.096 15.0587 129.13 15.224 129.13 15.4ZM136.953 19.528C136.894 19.6027 136.836 19.6613 136.777 19.704C136.724 19.7467 136.644 19.768 136.537 19.768C136.436 19.768 136.337 19.7387 136.241 19.68C136.145 19.616 136.03 19.5467 135.897 19.472C135.764 19.392 135.604 19.3227 135.417 19.264C135.236 19.2 135.009 19.168 134.737 19.168C134.39 19.168 134.086 19.232 133.825 19.36C133.564 19.4827 133.345 19.6613 133.169 19.896C132.998 20.1307 132.87 20.416 132.785 20.752C132.7 21.0827 132.657 21.4587 132.657 21.88C132.657 22.3173 132.702 22.7067 132.793 23.048C132.889 23.3893 133.025 23.6773 133.201 23.912C133.377 24.1413 133.59 24.3173 133.841 24.44C134.092 24.5573 134.374 24.616 134.689 24.616C135.004 24.616 135.257 24.5787 135.449 24.504C135.646 24.424 135.812 24.3387 135.945 24.248C136.078 24.152 136.193 24.0667 136.289 23.992C136.39 23.912 136.502 23.872 136.625 23.872C136.785 23.872 136.905 23.9333 136.985 24.056L137.553 24.776C137.334 25.032 137.097 25.248 136.841 25.424C136.585 25.5947 136.318 25.7333 136.041 25.84C135.769 25.9413 135.486 26.0133 135.193 26.056C134.905 26.0987 134.617 26.12 134.329 26.12C133.822 26.12 133.345 26.0267 132.897 25.84C132.449 25.648 132.057 25.3707 131.721 25.008C131.385 24.6453 131.118 24.2027 130.921 23.68C130.729 23.152 130.633 22.552 130.633 21.88C130.633 21.2773 130.718 20.72 130.889 20.208C131.065 19.6907 131.321 19.2453 131.657 18.872C131.993 18.4933 132.409 18.1973 132.905 17.984C133.401 17.7707 133.972 17.664 134.617 17.664C135.23 17.664 135.766 17.7627 136.225 17.96C136.689 18.1573 137.105 18.44 137.473 18.808L136.953 19.528ZM144.139 20.952C144.139 20.696 144.102 20.456 144.027 20.232C143.958 20.0027 143.851 19.8027 143.707 19.632C143.563 19.4613 143.379 19.328 143.155 19.232C142.936 19.1307 142.68 19.08 142.387 19.08C141.816 19.08 141.366 19.2427 141.035 19.568C140.71 19.8933 140.502 20.3547 140.411 20.952H144.139ZM140.371 22.144C140.403 22.5653 140.478 22.9307 140.595 23.24C140.712 23.544 140.867 23.7973 141.059 24C141.251 24.1973 141.478 24.3467 141.739 24.448C142.006 24.544 142.299 24.592 142.619 24.592C142.939 24.592 143.214 24.5547 143.443 24.48C143.678 24.4053 143.88 24.3227 144.051 24.232C144.227 24.1413 144.379 24.0587 144.507 23.984C144.64 23.9093 144.768 23.872 144.891 23.872C145.056 23.872 145.179 23.9333 145.259 24.056L145.827 24.776C145.608 25.032 145.363 25.248 145.091 25.424C144.819 25.5947 144.534 25.7333 144.235 25.84C143.942 25.9413 143.64 26.0133 143.331 26.056C143.027 26.0987 142.731 26.12 142.443 26.12C141.872 26.12 141.342 26.0267 140.851 25.84C140.36 25.648 139.934 25.368 139.571 25C139.208 24.6267 138.923 24.168 138.715 23.624C138.507 23.0747 138.403 22.44 138.403 21.72C138.403 21.16 138.494 20.6347 138.675 20.144C138.856 19.648 139.115 19.2187 139.451 18.856C139.792 18.488 140.206 18.1973 140.691 17.984C141.182 17.7707 141.734 17.664 142.347 17.664C142.864 17.664 143.342 17.7467 143.779 17.912C144.216 18.0773 144.592 18.32 144.907 18.64C145.222 18.9547 145.467 19.344 145.643 19.808C145.824 20.2667 145.915 20.792 145.915 21.384C145.915 21.6827 145.883 21.8853 145.819 21.992C145.755 22.0933 145.632 22.144 145.451 22.144H140.371ZM155.76 20.248C156.155 20.248 156.499 20.2 156.792 20.104C157.086 20.0027 157.328 19.8613 157.52 19.68C157.718 19.4933 157.864 19.2693 157.96 19.008C158.056 18.7413 158.104 18.4453 158.104 18.12C158.104 17.8107 158.056 17.5307 157.96 17.28C157.864 17.0293 157.72 16.816 157.528 16.64C157.336 16.464 157.094 16.3307 156.8 16.24C156.507 16.144 156.16 16.096 155.76 16.096H154.152V20.248H155.76ZM155.76 14.432C156.534 14.432 157.203 14.5227 157.768 14.704C158.334 14.8853 158.8 15.1387 159.168 15.464C159.536 15.7893 159.808 16.1787 159.984 16.632C160.166 17.0853 160.256 17.5813 160.256 18.12C160.256 18.68 160.163 19.1947 159.976 19.664C159.79 20.128 159.51 20.528 159.136 20.864C158.763 21.2 158.294 21.4613 157.728 21.648C157.168 21.8347 156.512 21.928 155.76 21.928H154.152V26H152V14.432H155.76ZM163.534 19.216C163.79 18.7253 164.094 18.3413 164.446 18.064C164.798 17.7813 165.214 17.64 165.694 17.64C166.072 17.64 166.376 17.7227 166.606 17.888L166.478 19.368C166.451 19.464 166.411 19.5333 166.358 19.576C166.31 19.6133 166.243 19.632 166.158 19.632C166.078 19.632 165.958 19.6187 165.798 19.592C165.643 19.5653 165.491 19.552 165.342 19.552C165.123 19.552 164.928 19.584 164.758 19.648C164.587 19.712 164.432 19.8053 164.294 19.928C164.16 20.0453 164.04 20.1893 163.934 20.36C163.832 20.5307 163.736 20.7253 163.646 20.944V26H161.67V17.792H162.83C163.032 17.792 163.174 17.8293 163.254 17.904C163.334 17.9733 163.387 18.1013 163.414 18.288L163.534 19.216ZM171.236 17.664C171.844 17.664 172.396 17.7627 172.892 17.96C173.393 18.1573 173.82 18.4373 174.172 18.8C174.529 19.1627 174.804 19.6053 174.996 20.128C175.188 20.6507 175.284 21.2347 175.284 21.88C175.284 22.5307 175.188 23.1173 174.996 23.64C174.804 24.1627 174.529 24.608 174.172 24.976C173.82 25.344 173.393 25.6267 172.892 25.824C172.396 26.0213 171.844 26.12 171.236 26.12C170.623 26.12 170.065 26.0213 169.564 25.824C169.063 25.6267 168.633 25.344 168.276 24.976C167.924 24.608 167.649 24.1627 167.452 23.64C167.26 23.1173 167.164 22.5307 167.164 21.88C167.164 21.2347 167.26 20.6507 167.452 20.128C167.649 19.6053 167.924 19.1627 168.276 18.8C168.633 18.4373 169.063 18.1573 169.564 17.96C170.065 17.7627 170.623 17.664 171.236 17.664ZM171.236 24.6C171.919 24.6 172.423 24.3707 172.748 23.912C173.079 23.4533 173.244 22.7813 173.244 21.896C173.244 21.0107 173.079 20.336 172.748 19.872C172.423 19.408 171.919 19.176 171.236 19.176C170.543 19.176 170.028 19.4107 169.692 19.88C169.361 20.344 169.196 21.016 169.196 21.896C169.196 22.776 169.361 23.448 169.692 23.912C170.028 24.3707 170.543 24.6 171.236 24.6ZM184.142 17.792L180.886 26H179.094L175.838 17.792H177.47C177.619 17.792 177.742 17.8267 177.838 17.896C177.939 17.9653 178.006 18.0533 178.038 18.16L179.622 22.544C179.707 22.8 179.782 23.0507 179.846 23.296C179.91 23.5413 179.966 23.7867 180.014 24.032C180.067 23.7867 180.126 23.5413 180.19 23.296C180.254 23.0507 180.331 22.8 180.422 22.544L182.038 18.16C182.075 18.0533 182.142 17.9653 182.238 17.896C182.334 17.8267 182.448 17.792 182.582 17.792H184.142ZM187.443 17.792V26H185.459V17.792H187.443ZM187.715 15.4C187.715 15.5707 187.68 15.7307 187.611 15.88C187.541 16.0293 187.448 16.16 187.331 16.272C187.219 16.384 187.085 16.4747 186.931 16.544C186.776 16.608 186.611 16.64 186.435 16.64C186.264 16.64 186.101 16.608 185.947 16.544C185.797 16.4747 185.667 16.384 185.555 16.272C185.443 16.16 185.352 16.0293 185.283 15.88C185.219 15.7307 185.187 15.5707 185.187 15.4C185.187 15.224 185.219 15.0587 185.283 14.904C185.352 14.7493 185.443 14.616 185.555 14.504C185.667 14.392 185.797 14.304 185.947 14.24C186.101 14.1707 186.264 14.136 186.435 14.136C186.611 14.136 186.776 14.1707 186.931 14.24C187.085 14.304 187.219 14.392 187.331 14.504C187.448 14.616 187.541 14.7493 187.611 14.904C187.68 15.0587 187.715 15.224 187.715 15.4ZM194.809 19.888C194.585 19.616 194.34 19.424 194.073 19.312C193.812 19.2 193.529 19.144 193.225 19.144C192.927 19.144 192.657 19.2 192.417 19.312C192.177 19.424 191.972 19.5947 191.801 19.824C191.631 20.048 191.5 20.336 191.409 20.688C191.319 21.0347 191.273 21.4453 191.273 21.92C191.273 22.4 191.311 22.808 191.385 23.144C191.465 23.4747 191.577 23.7467 191.721 23.96C191.865 24.168 192.041 24.32 192.249 24.416C192.457 24.5067 192.689 24.552 192.945 24.552C193.356 24.552 193.705 24.4667 193.993 24.296C194.281 24.1253 194.553 23.8827 194.809 23.568V19.888ZM196.785 14.112V26H195.577C195.316 26 195.151 25.88 195.081 25.64L194.913 24.848C194.583 25.2267 194.201 25.5333 193.769 25.768C193.343 26.0027 192.844 26.12 192.273 26.12C191.825 26.12 191.415 26.0267 191.041 25.84C190.668 25.6533 190.345 25.384 190.073 25.032C189.807 24.6747 189.599 24.2347 189.449 23.712C189.305 23.1893 189.233 22.592 189.233 21.92C189.233 21.312 189.316 20.7467 189.481 20.224C189.647 19.7013 189.884 19.248 190.193 18.864C190.503 18.48 190.873 18.1813 191.305 17.968C191.737 17.7493 192.223 17.64 192.761 17.64C193.22 17.64 193.612 17.712 193.937 17.856C194.263 18 194.553 18.1947 194.809 18.44V14.112H196.785ZM204.223 20.952C204.223 20.696 204.186 20.456 204.111 20.232C204.042 20.0027 203.935 19.8027 203.791 19.632C203.647 19.4613 203.463 19.328 203.239 19.232C203.021 19.1307 202.765 19.08 202.471 19.08C201.901 19.08 201.45 19.2427 201.119 19.568C200.794 19.8933 200.586 20.3547 200.495 20.952H204.223ZM200.455 22.144C200.487 22.5653 200.562 22.9307 200.679 23.24C200.797 23.544 200.951 23.7973 201.143 24C201.335 24.1973 201.562 24.3467 201.823 24.448C202.09 24.544 202.383 24.592 202.703 24.592C203.023 24.592 203.298 24.5547 203.527 24.48C203.762 24.4053 203.965 24.3227 204.135 24.232C204.311 24.1413 204.463 24.0587 204.591 23.984C204.725 23.9093 204.853 23.872 204.975 23.872C205.141 23.872 205.263 23.9333 205.343 24.056L205.911 24.776C205.693 25.032 205.447 25.248 205.175 25.424C204.903 25.5947 204.618 25.7333 204.319 25.84C204.026 25.9413 203.725 26.0133 203.415 26.056C203.111 26.0987 202.815 26.12 202.527 26.12C201.957 26.12 201.426 26.0267 200.935 25.84C200.445 25.648 200.018 25.368 199.655 25C199.293 24.6267 199.007 24.168 198.799 23.624C198.591 23.0747 198.487 22.44 198.487 21.72C198.487 21.16 198.578 20.6347 198.759 20.144C198.941 19.648 199.199 19.2187 199.535 18.856C199.877 18.488 200.29 18.1973 200.775 17.984C201.266 17.7707 201.818 17.664 202.431 17.664C202.949 17.664 203.426 17.7467 203.863 17.912C204.301 18.0773 204.677 18.32 204.991 18.64C205.306 18.9547 205.551 19.344 205.727 19.808C205.909 20.2667 205.999 20.792 205.999 21.384C205.999 21.6827 205.967 21.8853 205.903 21.992C205.839 22.0933 205.717 22.144 205.535 22.144H200.455ZM209.546 19.216C209.802 18.7253 210.106 18.3413 210.458 18.064C210.81 17.7813 211.226 17.64 211.706 17.64C212.085 17.64 212.389 17.7227 212.618 17.888L212.49 19.368C212.464 19.464 212.424 19.5333 212.37 19.576C212.322 19.6133 212.256 19.632 212.17 19.632C212.09 19.632 211.97 19.6187 211.81 19.592C211.656 19.5653 211.504 19.552 211.354 19.552C211.136 19.552 210.941 19.584 210.77 19.648C210.6 19.712 210.445 19.8053 210.306 19.928C210.173 20.0453 210.053 20.1893 209.946 20.36C209.845 20.5307 209.749 20.7253 209.658 20.944V26H207.682V17.792H208.842C209.045 17.792 209.186 17.8293 209.266 17.904C209.346 17.9733 209.4 18.1013 209.426 18.288L209.546 19.216Z" fill="black"/>
</svg>
