<svg width="25" height="25" viewBox="0 0 25 25" fill="none" xmlns="http://www.w3.org/2000/svg">
<g clip-path="url(#clip0_256_4426)">
<path d="M16 1.99993L8.00001 1.99993C7.20436 1.99993 6.4413 2.316 5.87869 2.87861C5.31608 3.44122 5.00001 4.20428 5.00001 4.99993L5.00001 20.9999C4.99931 21.1761 5.04518 21.3494 5.13299 21.5022C5.22079 21.655 5.3474 21.7818 5.50001 21.8699C5.65203 21.9577 5.82447 22.0039 6.00001 22.0039C6.17554 22.0039 6.34799 21.9577 6.50001 21.8699L12 18.6899L17.5 21.8699C17.6524 21.9563 17.8248 22.0011 18 21.9999C18.1752 22.0011 18.3476 21.9563 18.5 21.8699C18.6526 21.7818 18.7792 21.655 18.867 21.5022C18.9548 21.3494 19.0007 21.1761 19 20.9999L19 4.99993C19 4.20428 18.6839 3.44122 18.1213 2.87861C17.5587 2.316 16.7957 1.99993 16 1.99993Z" fill="black"/>
</g>
<defs>
<clipPath id="clip0_256_4426">
<rect width="24" height="24" fill="white" transform="translate(0.195557 0.166016) rotate(0.467014)"/>
</clipPath>
</defs>
</svg>
