<svg width="24" height="24" viewBox="0 0 24 24" fill="none" xmlns="http://www.w3.org/2000/svg">
<g clip-path="url(#clip0_289_6357)">
<path d="M7.08063 15.1268C7.08063 15.7728 7.60612 16.2983 8.25208 16.2983C8.89808 16.2983 9.42361 15.7728 9.42361 15.1268V14.2495C9.42361 13.9279 9.68525 13.6662 10.0068 13.6662C10.3284 13.6662 10.5901 13.9279 10.5901 14.2495C10.5901 14.8955 11.1156 15.421 11.7616 15.421C12.4075 15.421 12.9331 14.8955 12.9331 14.2495V12.5H7.08063V15.1268Z" fill="#FF7021"/>
<path fill-rule="evenodd" clip-rule="evenodd" d="M20.6765 13.0581H19.684C19.7285 12.7456 19.7606 12.5204 19.7839 12.3577C19.8423 11.9484 19.8443 11.9341 19.8445 11.9197L19.8445 11.9147C19.8449 11.8958 19.8429 11.8712 19.8379 11.8477C19.812 11.7273 19.7481 11.5121 19.6663 11.3059C18.9053 9.38621 16.6587 7.94013 13.906 7.4764V7.11131C13.906 6.35903 13.294 5.74707 12.5417 5.74707H11.4583C10.706 5.74707 10.0941 6.35903 10.0941 7.11131V7.47605C7.34039 7.93942 5.09294 9.38562 4.33184 11.3053C4.26369 11.4765 4.20706 11.6534 4.16369 11.831C4.15455 11.8684 4.15325 11.9053 4.158 11.9407C4.15997 11.9592 4.20394 12.2674 4.25043 12.5932L4.31667 13.0581H3.32353C2.59212 13.0581 2 13.6503 2 14.3816C2 15.1114 2.59376 15.7051 3.32353 15.7051H4.69404C4.78581 16.3443 4.85283 16.8173 4.90244 17.1674C5.0023 17.8722 5.03166 18.0794 5.05039 18.1422C5.33961 19.4559 6.50694 20.411 7.87388 20.411H16.1268C17.4911 20.411 18.6604 19.4584 18.9502 18.1428C18.9689 18.0806 18.9982 17.8734 19.0988 17.1641C19.1483 16.8142 19.2152 16.3422 19.3067 15.7051H20.6765C21.4079 15.7051 22 15.1129 22 14.3816C22 13.6519 21.4062 13.0581 20.6765 13.0581ZM11.999 7.90636C15.3474 7.90636 18.2754 9.39342 19.1195 11.5226C19.1318 11.5536 19.1433 11.5846 19.1547 11.6157H12.639H4.84333C4.85471 11.5845 4.86631 11.5534 4.87859 11.5226C5.72267 9.39342 8.65071 7.90636 11.999 7.90636ZM3.32353 15.1169C2.91808 15.1169 2.58824 14.7871 2.58824 14.3816C2.58824 13.9754 2.91741 13.6463 3.32353 13.6463H4.40055L4.6102 15.1169H3.32353ZM16.1268 19.8228H7.87388C6.91318 19.8228 6.06549 19.2181 5.72675 18.3522H18.274C17.9353 19.2181 17.0876 19.8228 16.1268 19.8228ZM20.6765 15.1169H19.3906L19.6002 13.6463H20.6765C21.0819 13.6463 21.4118 13.9762 21.4118 14.3816C21.4118 14.7879 21.0826 15.1169 20.6765 15.1169ZM4.78914 12.2039L5.58165 17.764H18.4191L19.2116 12.2039H4.78914Z" fill="#1F4E79"/>
<path d="M4.31667 13.0581H3.32353C2.59212 13.0581 2 13.6503 2 14.3816C2 15.1114 2.59376 15.7051 3.32353 15.7051H4.69404C4.78581 16.3443 4.85283 16.8173 4.90244 17.1674C5.0023 17.8722 5.03166 18.0794 5.05039 18.1422C5.33961 19.4559 6.50694 20.411 7.87388 20.411H16.1268C17.4911 20.411 18.6604 19.4584 18.9502 18.1428C18.9689 18.0806 18.9982 17.8734 19.0988 17.1641C19.1483 16.8142 19.2152 16.3422 19.3067 15.7051H20.6765C21.4079 15.7051 22 15.1129 22 14.3816C22 13.6519 21.4062 13.0581 20.6765 13.0581H19.684C19.7285 12.7456 19.7606 12.5204 19.7839 12.3577C19.8423 11.9484 19.8443 11.9341 19.8445 11.9197L19.8445 11.9147C19.8449 11.8958 19.8429 11.8712 19.8379 11.8477C19.812 11.7273 19.7481 11.5121 19.6663 11.3059C18.9053 9.38621 16.6587 7.94013 13.906 7.4764V7.11131C13.906 6.35903 13.294 5.74707 12.5417 5.74707H11.4583C10.706 5.74707 10.0941 6.35903 10.0941 7.11131V7.47605C7.34039 7.93942 5.09294 9.38562 4.33184 11.3053C4.26369 11.4765 4.20706 11.6534 4.16369 11.831C4.15455 11.8684 4.15325 11.9053 4.158 11.9407C4.15997 11.9592 4.20394 12.2674 4.25043 12.5932M4.31667 13.0581C4.29718 12.921 4.27349 12.7549 4.25043 12.5932M4.31667 13.0581L4.25043 12.5932M5.58165 17.764C5.52643 17.3765 4.84459 12.5929 4.78914 12.2039M5.58165 17.764H18.4191L19.2116 12.2039M5.58165 17.764L4.78914 12.2039M4.78914 12.2039C4.78914 12.2039 18.3167 12.2039 19.2116 12.2039M4.78914 12.2039H19.2116M12.639 11.6157H19.1547C19.1433 11.5846 19.1318 11.5536 19.1195 11.5226C18.2754 9.39342 15.3474 7.90636 11.999 7.90636C8.65071 7.90636 5.72267 9.39342 4.87859 11.5226C4.86631 11.5534 4.85471 11.5845 4.84333 11.6157M12.639 11.6157C12.3712 11.6157 5.1109 11.6157 4.84333 11.6157M12.639 11.6157H4.84333M7.08063 15.1268C7.08063 15.7728 7.60612 16.2983 8.25208 16.2983C8.89808 16.2983 9.42361 15.7728 9.42361 15.1268V14.2495C9.42361 13.9279 9.68525 13.6662 10.0068 13.6662C10.3284 13.6662 10.5901 13.9279 10.5901 14.2495C10.5901 14.8955 11.1156 15.421 11.7616 15.421C12.4075 15.421 12.9331 14.8955 12.9331 14.2495V12.5H7.08063V15.1268ZM3.32353 15.1169C2.91808 15.1169 2.58824 14.7871 2.58824 14.3816C2.58824 13.9754 2.91741 13.6463 3.32353 13.6463H4.40055L4.6102 15.1169H3.32353ZM16.1268 19.8228H7.87388C6.91318 19.8228 6.06549 19.2181 5.72675 18.3522H18.274C17.9353 19.2181 17.0876 19.8228 16.1268 19.8228ZM20.6765 15.1169H19.3906L19.6002 13.6463H20.6765C21.0819 13.6463 21.4118 13.9762 21.4118 14.3816C21.4118 14.7879 21.0826 15.1169 20.6765 15.1169Z" stroke="#1F4E79" stroke-width="0.2"/>
<path d="M9.64702 6.1173C9.80949 6.1173 9.94114 5.98566 9.94114 5.82318V2.88201C9.94114 2.71954 9.80949 2.58789 9.64702 2.58789C9.48455 2.58789 9.35291 2.71954 9.35291 2.88201V5.82318C9.35291 5.98566 9.48455 6.1173 9.64702 6.1173Z" fill="#FF7021"/>
<path d="M12.4118 4.8233C12.5743 4.8233 12.7059 4.69165 12.7059 4.52918V3.35271C12.7059 3.19024 12.5743 3.05859 12.4118 3.05859C12.2493 3.05859 12.1177 3.19024 12.1177 3.35271V4.52918C12.1177 4.69165 12.2493 4.8233 12.4118 4.8233Z" fill="#FF7021"/>
<path d="M14.9412 6.87859C15.1037 6.87859 15.2353 6.7815 15.2353 6.66167V4.27552C15.2353 4.15569 15.1037 4.05859 14.9412 4.05859C14.7787 4.05859 14.6471 4.15569 14.6471 4.27552V6.66167C14.6471 6.7815 14.7787 6.87859 14.9412 6.87859Z" fill="#FF7021"/>
</g>
<defs>
<clipPath id="clip0_289_6357">
<rect width="20" height="20" fill="white" transform="translate(2 2)"/>
</clipPath>
</defs>
</svg>
