<svg width="65" height="65" viewBox="0 0 65 65" fill="none" xmlns="http://www.w3.org/2000/svg">
<g clip-path="url(#clip0_872_4638)">
<rect x="-29.3992" y="-30.1438" width="125" height="125" rx="62.5" fill="white"/>
<rect x="-29.3992" y="-30.1438" width="125" height="125" rx="62.5" stroke="#D4DDE6" stroke-width="10"/>
<path d="M46.0723 0.416748H4.25233C3.119 0.416748 2.19173 1.34402 2.19173 2.47735V62.2349C2.19173 63.3683 3.119 64.2955 4.25233 64.2955H46.0723C47.2057 64.2955 48.1329 63.3683 48.1329 62.2349V2.47735C48.1329 1.34402 47.216 0.416748 46.0723 0.416748Z" fill="#FEC200"/>
<g opacity="0.35">
<path d="M46.0723 0.416748H36.7275C36.7275 2.12705 38.1081 3.50766 39.8184 3.50766H45.042V27.6683C45.042 29.3786 46.4226 30.7592 48.1329 30.7592V2.47735C48.1329 1.34402 47.216 0.416748 46.0723 0.416748Z" fill="white"/>
</g>
<path d="M6.31294 4.53796H44.0117V60.1743H6.31294V4.53796Z" fill="#E6E9EE"/>
<g opacity="0.1">
<path d="M17.502 56.9598C13.0923 56.9598 9.52749 53.3846 9.52749 48.9852V4.53796H6.31294V60.1743H44.0117V56.9598H17.502Z" fill="black"/>
</g>
<path d="M16.616 25.4531C19.4611 25.4531 21.7675 23.1466 21.7675 20.3015C21.7675 17.4564 19.4611 15.15 16.616 15.15C13.7709 15.15 11.4644 17.4564 11.4644 20.3015C11.4644 23.1466 13.7709 25.4531 16.616 25.4531Z" fill="#009AFF"/>
<path d="M16.616 40.1865C19.4611 40.1865 21.7675 37.88 21.7675 35.0349C21.7675 32.1898 19.4611 29.8834 16.616 29.8834C13.7709 29.8834 11.4644 32.1898 11.4644 35.0349C11.4644 37.88 13.7709 40.1865 16.616 40.1865Z" fill="#FF4823"/>
<path d="M16.616 54.6106C19.4611 54.6106 21.7675 52.3042 21.7675 49.4591C21.7675 46.614 19.4611 44.3076 16.616 44.3076C13.7709 44.3076 11.4644 46.614 11.4644 49.4591C11.4644 52.3042 13.7709 54.6106 16.616 54.6106Z" fill="#009AFF"/>
<path d="M52.4396 23.6089H59.6723V57.9798H52.4396V23.6089Z" fill="#FF4823"/>
<g opacity="0.15">
<path d="M55.1081 50.7471V23.6089H52.4499V57.9798H59.6826V55.3216C57.1481 55.3216 55.1081 53.2713 55.1081 50.7471Z" fill="black"/>
</g>
<path d="M57.7766 18.3029H54.356C53.3051 18.3029 52.4499 19.158 52.4499 20.2089V23.6192H59.6826V20.2089C59.6723 19.158 58.8275 18.3029 57.7766 18.3029Z" fill="#E5D3B3"/>
<path d="M59.6723 57.9797H52.4396L56.056 64.2955L59.6723 57.9797Z" fill="#FEC200"/>
<path d="M54.3663 61.3282L56.056 64.2955L57.756 61.3282H54.3663Z" fill="#5D5B68"/>
<path d="M15.5238 0.416748V6.56766C15.5238 7.70099 16.4511 8.62826 17.5845 8.62826H32.7402C33.8736 8.62826 34.8008 7.70099 34.8008 6.56766V0.416748H15.5238Z" fill="#848792"/>
<g opacity="0.15">
<path d="M19.7172 6.49554C18.5839 6.49554 17.6566 5.56826 17.6566 4.43493V0.416748H15.5238V6.56766C15.5238 7.70099 16.4511 8.62826 17.5845 8.62826H32.7402C33.8736 8.62826 34.8008 7.70099 34.8008 6.56766V6.49554H19.7172Z" fill="black"/>
</g>
<g opacity="0.1">
<path d="M18.9651 52.2616C16.1214 52.2616 13.8135 49.9537 13.8135 47.1101C13.8135 46.2961 14.0196 45.5337 14.3596 44.8434C12.6493 45.6779 11.4748 47.4191 11.4748 49.4488C11.4748 52.2925 13.7826 54.6004 16.6263 54.6004C18.656 54.6004 20.3972 53.4155 21.2317 51.7155C20.5414 52.0555 19.779 52.2616 18.9651 52.2616Z" fill="black"/>
</g>
<g opacity="0.1">
<path d="M18.9651 37.8374C16.1214 37.8374 13.8135 35.5295 13.8135 32.6859C13.8135 31.8719 14.0196 31.1095 14.3596 30.4192C12.6493 31.2537 11.4748 32.9949 11.4748 35.0246C11.4748 37.8683 13.7826 40.1762 16.6263 40.1762C18.656 40.1762 20.3972 38.9913 21.2317 37.2913C20.5414 37.6313 19.779 37.8374 18.9651 37.8374Z" fill="black"/>
</g>
<g opacity="0.1">
<path d="M18.9651 23.104C16.1214 23.104 13.8135 20.7961 13.8135 17.9525C13.8135 17.1385 14.0196 16.3761 14.3596 15.6858C12.6493 16.5203 11.4748 18.2615 11.4748 20.2912C11.4748 23.1349 13.7826 25.4428 16.6263 25.4428C18.656 25.4428 20.3972 24.2579 21.2317 22.5579C20.5414 22.8979 19.779 23.104 18.9651 23.104Z" fill="black"/>
</g>
<path d="M46.0723 65.0683H4.25234C2.68628 65.0683 1.41901 63.801 1.41901 62.235V2.47738C1.41901 0.911316 2.68628 -0.355957 4.25234 -0.355957H46.0723C47.6384 -0.355957 48.9057 0.911316 48.9057 2.47738V62.235C48.9057 63.801 47.6384 65.0683 46.0723 65.0683ZM4.25234 1.1895C3.54143 1.1895 2.96446 1.76647 2.96446 2.47738V62.235C2.96446 62.9459 3.54143 63.5228 4.25234 63.5228H46.0723C46.7832 63.5228 47.3602 62.9459 47.3602 62.235V2.47738C47.3602 1.76647 46.7832 1.1895 46.0723 1.1895H4.25234Z" fill="#211E27"/>
<path d="M34.8008 9.40101H15.5239C15.1014 9.40101 14.7511 9.05071 14.7511 8.62829V0.41677C14.7511 -0.00565398 15.1014 -0.355957 15.5239 -0.355957H34.8008C35.2233 -0.355957 35.5736 -0.00565398 35.5736 0.41677V8.62829C35.5736 9.05071 35.2233 9.40101 34.8008 9.40101ZM16.2966 7.85556H34.0281V1.1895H16.2966V7.85556Z" fill="#211E27"/>
<path d="M16.616 26.2258C13.3499 26.2258 10.6917 23.5676 10.6917 20.3016C10.6917 17.0355 13.3499 14.3773 16.616 14.3773C19.882 14.3773 22.5402 17.0355 22.5402 20.3016C22.5402 23.5676 19.882 26.2258 16.616 26.2258ZM16.616 15.9228C14.2051 15.9228 12.2372 17.8907 12.2372 20.3016C12.2372 22.7125 14.2051 24.6803 16.616 24.6803C19.0269 24.6803 20.9948 22.7125 20.9948 20.3016C20.9948 17.8907 19.0372 15.9228 16.616 15.9228Z" fill="#211E27"/>
<path d="M15.833 22.321C15.6372 22.321 15.4414 22.2489 15.2869 22.0943L14.3596 21.1671C14.0608 20.8683 14.0608 20.3737 14.3596 20.0749C14.6584 19.7762 15.153 19.7762 15.4517 20.0749L15.833 20.4562L17.7802 18.5089C18.079 18.2101 18.5736 18.2101 18.8723 18.5089C19.1711 18.8077 19.1711 19.3022 18.8723 19.601L16.379 22.0943C16.2348 22.2489 16.0287 22.321 15.833 22.321Z" fill="#211E27"/>
<path d="M39.6845 19.0756H26.033C25.6105 19.0756 25.2602 18.7253 25.2602 18.3029C25.2602 17.8805 25.6105 17.5302 26.033 17.5302H39.6948C40.1172 17.5302 40.4675 17.8805 40.4675 18.3029C40.4675 18.7253 40.1172 19.0756 39.6845 19.0756Z" fill="#211E27"/>
<path d="M36.9026 23.0732H26.033C25.6105 23.0732 25.2602 22.7229 25.2602 22.3004C25.2602 21.878 25.6105 21.5277 26.033 21.5277H36.913C37.3354 21.5277 37.6857 21.878 37.6857 22.3004C37.6857 22.7229 37.3354 23.0732 36.9026 23.0732Z" fill="#211E27"/>
<path d="M16.616 40.9592C13.3499 40.9592 10.6917 38.301 10.6917 35.035C10.6917 31.7689 13.3499 29.1107 16.616 29.1107C19.882 29.1107 22.5402 31.7689 22.5402 35.035C22.5402 38.301 19.882 40.9592 16.616 40.9592ZM16.616 30.6562C14.2051 30.6562 12.2372 32.624 12.2372 35.035C12.2372 37.4459 14.2051 39.4137 16.616 39.4137C19.0269 39.4137 20.9948 37.4459 20.9948 35.035C20.9948 32.624 19.0372 30.6562 16.616 30.6562Z" fill="#211E27"/>
<path d="M15.833 37.0544C15.6372 37.0544 15.4414 36.9823 15.2869 36.8277L14.3596 35.9005C14.0608 35.6017 14.0608 35.1071 14.3596 34.8083C14.6584 34.5096 15.153 34.5096 15.4517 34.8083L15.833 35.1896L17.7802 33.2423C18.079 32.9435 18.5736 32.9435 18.8723 33.2423C19.1711 33.5411 19.1711 34.0356 18.8723 34.3344L16.379 36.8277C16.2348 36.972 16.0287 37.0544 15.833 37.0544Z" fill="#211E27"/>
<path d="M39.6845 33.8089H26.033C25.6105 33.8089 25.2602 33.4586 25.2602 33.0362C25.2602 32.6137 25.6105 32.2634 26.033 32.2634H39.6948C40.1172 32.2634 40.4675 32.6137 40.4675 33.0362C40.4675 33.4586 40.1172 33.8089 39.6845 33.8089Z" fill="#211E27"/>
<path d="M36.9026 37.8064H26.033C25.6105 37.8064 25.2602 37.4561 25.2602 37.0337C25.2602 36.6113 25.6105 36.261 26.033 36.261H36.913C37.3354 36.261 37.6857 36.6113 37.6857 37.0337C37.6857 37.4561 37.3354 37.8064 36.9026 37.8064Z" fill="#211E27"/>
<path d="M16.616 55.3834C13.3499 55.3834 10.6917 52.7252 10.6917 49.4592C10.6917 46.1931 13.3499 43.5349 16.616 43.5349C19.882 43.5349 22.5402 46.1931 22.5402 49.4592C22.5402 52.7252 19.882 55.3834 16.616 55.3834ZM16.616 45.0804C14.2051 45.0804 12.2372 47.0482 12.2372 49.4592C12.2372 51.8701 14.2051 53.8379 16.616 53.8379C19.0269 53.8379 20.9948 51.8701 20.9948 49.4592C20.9948 47.0482 19.0372 45.0804 16.616 45.0804Z" fill="#211E27"/>
<path d="M15.833 51.4786C15.6269 51.4786 15.4311 51.3962 15.2869 51.2519L14.3596 50.3247C14.0608 50.0259 14.0608 49.5313 14.3596 49.2325C14.6584 48.9337 15.153 48.9337 15.4517 49.2325L15.833 49.6137L17.7802 47.6665C18.079 47.3677 18.5736 47.3677 18.8723 47.6665C19.1711 47.9653 19.1711 48.4598 18.8723 48.7586L16.379 51.2519C16.2348 51.3962 16.039 51.4786 15.833 51.4786Z" fill="#211E27"/>
<path d="M39.6845 48.2331H26.033C25.6105 48.2331 25.2602 47.8828 25.2602 47.4603C25.2602 47.0379 25.6105 46.6876 26.033 46.6876H39.6948C40.1172 46.6876 40.4675 47.0379 40.4675 47.4603C40.4675 47.8828 40.1172 48.2331 39.6845 48.2331Z" fill="#211E27"/>
<path d="M36.9026 52.2306H26.033C25.6105 52.2306 25.2602 51.8803 25.2602 51.4579C25.2602 51.0355 25.6105 50.6852 26.033 50.6852H36.913C37.3354 50.6852 37.6857 51.0355 37.6857 51.4579C37.6857 51.8803 37.3354 52.2306 36.9026 52.2306Z" fill="#211E27"/>
<path d="M59.6724 58.7525H52.4396C52.0172 58.7525 51.6669 58.4022 51.6669 57.9798V23.6089C51.6669 23.1865 52.0172 22.8362 52.4396 22.8362H59.6724C60.0948 22.8362 60.4451 23.1865 60.4451 23.6089V57.9798C60.4451 58.4125 60.1051 58.7525 59.6724 58.7525ZM53.2124 57.2071H58.8996V24.3816H53.2124V57.2071Z" fill="#211E27"/>
<path d="M59.6724 24.3816H52.4396C52.0172 24.3816 51.6669 24.0313 51.6669 23.6089V20.1986C51.6669 18.7252 52.8724 17.5198 54.3457 17.5198H57.7663C59.2396 17.5198 60.4451 18.7252 60.4451 20.1986V23.6089C60.4451 24.0416 60.1051 24.3816 59.6724 24.3816ZM53.2124 22.8361H58.8996V20.1986C58.8996 19.5804 58.3948 19.0652 57.7663 19.0652H54.3457C53.7275 19.0652 53.2124 19.5701 53.2124 20.1986V22.8361Z" fill="#211E27"/>
<path d="M56.056 65.0682C55.7778 65.0682 55.5202 64.924 55.3863 64.6767L51.7699 58.361C51.636 58.124 51.636 57.8252 51.7699 57.5882C51.9039 57.3513 52.1614 57.207 52.4396 57.207H59.6723C59.9505 57.207 60.1978 57.3513 60.342 57.5882C60.4863 57.8252 60.476 58.124 60.342 58.361L56.7257 64.6767C56.5917 64.9137 56.3342 65.0682 56.056 65.0682ZM53.779 58.7525L56.0663 62.7398L58.3536 58.7525H53.779Z" fill="#211E27"/>
<path d="M64.0099 38.2289C63.5875 38.2289 63.2372 37.8786 63.2372 37.4562V25.4119C63.2372 24.8453 62.7735 24.3816 62.2069 24.3816H59.6723C59.2499 24.3816 58.8996 24.0313 58.8996 23.6089C58.8996 23.1865 59.2499 22.8362 59.6723 22.8362H62.2069C63.6287 22.8362 64.7826 23.9901 64.7826 25.4119V37.4459C64.7826 37.8786 64.4426 38.2289 64.0099 38.2289Z" fill="#211E27"/>
<path d="M44.0117 60.9471H6.31295C5.89053 60.9471 5.54022 60.5968 5.54022 60.1744V4.53799C5.54022 4.11556 5.89053 3.76526 6.31295 3.76526H15.5239C15.9463 3.76526 16.2966 4.11556 16.2966 4.53799C16.2966 4.96041 15.9463 5.31071 15.5239 5.31071H7.08568V59.4016H43.239V5.31071H34.8008C34.3784 5.31071 34.0281 4.96041 34.0281 4.53799C34.0281 4.11556 34.3784 3.76526 34.8008 3.76526H44.0117C44.4342 3.76526 44.7845 4.11556 44.7845 4.53799V60.1744C44.7845 60.5968 44.4445 60.9471 44.0117 60.9471Z" fill="#211E27"/>
</g>
<defs>
<clipPath id="clip0_872_4638">
<rect width="64" height="64" fill="white" transform="translate(0.670837 0.712402)"/>
</clipPath>
</defs>
</svg>
