<svg width="24" height="24" viewBox="0 0 24 24" fill="none" xmlns="http://www.w3.org/2000/svg">
<g clip-path="url(#clip0_289_6382)">
<path d="M13.5049 17.833C12.751 17.833 12.1377 18.4464 12.1377 19.2002C12.1377 19.9541 12.751 20.5675 13.5049 20.5675C14.2594 20.5675 14.8732 19.9541 14.8732 19.2002C14.8732 18.4464 14.2594 17.833 13.5049 17.833ZM13.5049 19.7862C13.1818 19.7862 12.9189 19.5234 12.9189 19.2002C12.9189 18.8771 13.1818 18.6143 13.5049 18.6143C13.8286 18.6143 14.092 18.8771 14.092 19.2002C14.092 19.5234 13.8286 19.7862 13.5049 19.7862Z" fill="#FF7021"/>
<path d="M15.8314 4.54962C16.0144 4.66365 16.2553 4.60759 16.3694 4.42443C16.6014 4.05169 17.044 3.80447 17.4498 3.71982C17.4036 3.91349 17.3774 4.10271 17.3724 4.28189C17.3557 4.86994 17.6547 5.42833 18.1341 5.70447C18.3352 5.82029 18.5524 5.87794 18.7724 5.87794C19.0203 5.87794 19.2718 5.80466 19.5075 5.6588C19.8048 5.47521 20.0015 5.17029 20.0613 4.80017C20.1283 4.38525 20.0139 3.91626 19.7762 3.63247C19.4701 3.26876 18.9886 3.11415 18.5518 3.02251C18.821 2.46775 19.1538 2.00646 19.7289 1.85427C19.9375 1.79908 20.0618 1.58529 20.0066 1.37669C19.9514 1.16814 19.7377 1.04384 19.529 1.09904C18.5703 1.35275 18.0923 2.13255 17.7446 2.90669C17.0347 2.9081 16.1606 3.28154 15.7061 4.01161C15.5921 4.1947 15.6482 4.4356 15.8314 4.54962ZM18.2482 3.75915C18.5919 3.82357 19.0012 3.92501 19.1779 4.1349C19.2583 4.23087 19.3241 4.4649 19.29 4.67564C19.2663 4.82251 19.2014 4.92966 19.0968 4.99427C18.8951 5.11904 18.7024 5.13025 18.5241 5.02751C18.2938 4.8949 18.1448 4.60415 18.1533 4.30388C18.1579 4.13802 18.1908 3.95107 18.2482 3.75915Z" fill="#FF7021"/>
<path d="M14.9003 9.49411C15.0002 9.49411 15.1002 9.45595 15.1765 9.3797C16.4383 8.11778 18.1701 7.65196 19.8087 8.13348C20.0158 8.19438 20.2328 8.07587 20.2936 7.86884C20.3544 7.66188 20.2359 7.44477 20.029 7.38391C18.1117 6.82048 16.0912 7.36005 14.624 8.82727C14.4715 8.97981 14.4715 9.22716 14.624 9.3797C14.7003 9.45595 14.8003 9.49411 14.9003 9.49411Z" fill="#1F4E79"/>
<path d="M2.41068 9.55297C3.16459 9.55297 3.77791 8.93914 3.77791 8.18461C3.77791 7.4307 3.16459 6.81738 2.41068 6.81738C1.65678 6.81738 1.04346 7.43074 1.04346 8.18465C1.04346 8.93914 1.65678 9.55297 2.41068 9.55297ZM2.41068 7.59863C2.73377 7.59863 2.99666 7.86148 2.99666 8.18461C2.99666 8.50836 2.73381 8.77172 2.41068 8.77172C2.08756 8.77172 1.82471 8.50836 1.82471 8.18461C1.82471 7.86152 2.0876 7.59863 2.41068 7.59863Z" fill="#1F4E79"/>
<path d="M20.7552 16.76L19.4803 16.0549L18.7752 14.7789C18.7065 14.6545 18.5756 14.5772 18.4334 14.5771C18.4334 14.5771 18.4333 14.5771 18.4333 14.5771C18.2912 14.5771 18.1603 14.6543 18.0915 14.7787L17.3854 16.0548L16.1103 16.76C15.9859 16.8288 15.9087 16.9596 15.9087 17.1018C15.9087 17.2439 15.9859 17.3748 16.1103 17.4436L17.3854 18.1487L18.0915 19.4249C18.1603 19.5493 18.2912 19.6264 18.4333 19.6264H18.4334C18.5756 19.6264 18.7065 19.5491 18.7752 19.4247L19.4803 18.1487L20.7552 17.4436C20.8796 17.3748 20.9568 17.2439 20.9568 17.1018C20.9568 16.9596 20.8796 16.8288 20.7552 16.76ZM19.0037 17.5195C18.9394 17.555 18.8864 17.608 18.8508 17.6724L18.4331 18.4286L18.0146 17.6722C17.979 17.6079 17.926 17.555 17.8618 17.5195L17.1065 17.1018L17.8618 16.6842C17.926 16.6486 17.979 16.5957 18.0146 16.5314L18.4331 15.7751L18.8508 16.5312C18.8864 16.5955 18.9394 16.6486 19.0037 16.6841L19.759 17.1018L19.0037 17.5195Z" fill="#1F4E79"/>
<path d="M2.40521 3.86645L3.68033 4.57156L4.3865 5.84676C4.45533 5.97105 4.58615 6.04816 4.72822 6.04816H4.72834C4.87045 6.04812 5.00131 5.9709 5.0701 5.84656L5.77514 4.57152L7.05014 3.86648C7.17447 3.79773 7.2517 3.66688 7.25174 3.52477C7.25178 3.38266 7.17467 3.25176 7.05037 3.18293L5.77522 2.47676L5.07014 1.2016C5.00135 1.07723 4.87049 1.00004 4.72838 1C4.72834 1 4.7283 1 4.72826 1C4.58623 1 4.45537 1.07711 4.38654 1.20141L3.68025 2.47664L2.40498 3.18289C2.28068 3.25172 2.20357 3.38262 2.20361 3.52473C2.20365 3.6668 2.28084 3.7977 2.40521 3.86645ZM4.15689 3.10574C4.22104 3.07023 4.27385 3.01738 4.30936 2.95324L4.72795 2.19734L5.1458 2.95301C5.18131 3.01727 5.2342 3.07016 5.29838 3.1057L6.05428 3.5243L5.29857 3.94219C5.23428 3.97773 5.18131 4.0307 5.14576 4.095L4.72795 4.85074L4.30936 4.09484C4.27381 4.03062 4.22088 3.97773 4.15666 3.94223L3.401 3.52438L4.15689 3.10574Z" fill="#FF7021"/>
<path d="M8.80982 13.0579C8.61685 12.9614 8.3822 13.0396 8.28571 13.2326C8.18923 13.4256 8.26743 13.6602 8.4604 13.7567L8.46263 13.7578C8.51857 13.7858 8.57794 13.799 8.63634 13.799C8.77946 13.799 8.91708 13.7196 8.9856 13.5825C9.08208 13.3896 9.00278 13.1544 8.80982 13.0579Z" fill="#1F4E79"/>
<path d="M15.7952 12.7966C15.594 12.43 15.351 12.0456 15.0729 11.6517C16.0144 11.2742 17.0486 11.2148 18.0481 11.5091C18.2549 11.5699 18.4722 11.4517 18.5332 11.2448C18.5941 11.0378 18.4758 10.8206 18.2688 10.7597C17.0274 10.394 15.7424 10.4923 14.592 11.0056C14.1034 10.3809 13.5381 9.74354 12.9194 9.12362C13.454 8.31538 13.8478 7.43378 14.0802 6.51366C14.4416 5.08303 14.413 3.57975 13.9975 2.16632C13.9366 1.95932 13.7193 1.84085 13.5125 1.90171C13.3055 1.96257 13.187 2.17968 13.2479 2.38667C13.8705 4.50468 13.5302 6.7162 12.3484 8.5712C11.9129 8.16448 11.4732 7.78667 11.0394 7.44569C11.5504 6.29706 11.648 5.01429 11.2837 3.7746C11.2229 3.56761 11.0058 3.44917 10.7988 3.50995C10.5918 3.57077 10.4733 3.78788 10.5341 3.99487C10.8271 4.99198 10.7686 6.02343 10.3938 6.96264C9.9879 6.6744 9.59184 6.42303 9.2145 6.21589C7.92114 5.50593 6.97591 5.39241 6.48083 5.88749C6.26388 6.10444 6.1638 6.40792 6.1795 6.78921L1.06817 20.4729C1.01462 20.6162 1.0497 20.7776 1.1579 20.8858C1.23251 20.9604 1.33235 21.0002 1.43419 21.0002C1.48005 21.0002 1.5263 20.9921 1.57083 20.9755L15.3354 15.8325C15.6635 15.8255 15.9286 15.7251 16.1237 15.5303C16.6187 15.0353 16.5052 14.09 15.7952 12.7966ZM4.84813 12.5867C5.0011 12.6539 5.14095 12.7494 5.26153 12.87C5.79056 13.399 5.79056 14.2599 5.26126 14.7892C4.89852 15.1526 4.37227 15.2741 3.89927 15.1266L4.84813 12.5867ZM4.88825 18.902C4.87317 18.5298 5.01212 18.1587 5.2827 17.8887C5.53786 17.6336 5.8772 17.4931 6.23825 17.4931C6.59931 17.4931 6.93864 17.6336 7.1938 17.8887C7.23009 17.925 7.26399 17.9629 7.29556 18.0025L4.88825 18.902ZM12.6492 16.0021C11.9178 15.6353 11.0453 15.0341 10.173 14.2943C10.0085 14.1548 9.76196 14.1751 9.62239 14.3396C9.48286 14.5041 9.50313 14.7506 9.66766 14.8902C10.3674 15.4835 11.052 15.9819 11.6861 16.362L8.05032 17.7205C7.9645 17.5821 7.86329 17.4533 7.74626 17.3363C7.34352 16.9336 6.80798 16.7118 6.23829 16.7118C5.66856 16.7118 5.13302 16.9336 4.73063 17.336C4.24333 17.8222 4.02649 18.5165 4.13298 19.1842L2.09977 19.9439L3.62563 15.859C3.84606 15.9328 4.07434 15.9694 4.30177 15.9694C4.8545 15.9694 5.40149 15.7547 5.81399 15.3414C6.64763 14.5077 6.64763 13.1513 5.81399 12.3176C5.61341 12.117 5.37872 11.9608 5.12161 11.8542L5.68091 10.357C6.06138 10.9913 6.55962 11.6761 7.15212 12.3756C7.22938 12.4668 7.33954 12.5138 7.4504 12.5138C7.53962 12.5138 7.62927 12.4834 7.70266 12.4212C7.86727 12.2818 7.8877 12.0353 7.74825 11.8707C7.00973 10.9987 6.4086 10.1262 6.04052 9.39421L6.53427 8.07245C6.6129 8.24764 6.70419 8.4305 6.80876 8.62112C7.43415 9.761 8.46091 11.0712 9.69989 12.3102C10.9391 13.5495 12.2493 14.5764 13.389 15.202C13.5994 15.3175 13.8003 15.4166 13.9918 15.5005L12.6492 16.0021ZM15.5679 14.9742C15.544 14.9982 15.4252 15.0636 15.2115 15.0448C14.9229 15.0241 14.4569 14.8913 13.7672 14.5128C12.6909 13.922 11.4439 12.9424 10.2558 11.7543C9.06798 10.5664 8.08856 9.3194 7.49798 8.24292C7.157 7.62139 7.01559 7.18186 6.97591 6.88995C6.97591 6.88995 6.91122 6.56874 7.03684 6.44335C7.10302 6.37733 7.25173 6.37061 7.31294 6.36987C7.59192 6.36651 8.07927 6.48948 8.83626 6.90503C9.21868 7.11495 9.62274 7.37421 10.038 7.67421C9.83227 8.01218 9.58208 8.33198 9.28802 8.62604C9.13548 8.77858 9.13548 9.02593 9.28802 9.17846C9.36431 9.25475 9.46427 9.29288 9.56423 9.29288C9.66419 9.29288 9.76419 9.25471 9.84044 9.17846C10.1593 8.85964 10.4341 8.51464 10.6636 8.1503C11.0697 8.47491 11.4815 8.83346 11.8899 9.21886C11.6806 9.48604 11.4527 9.74393 11.2059 9.99069C11.0534 10.1432 11.0534 10.3906 11.2059 10.5431C11.2822 10.6194 11.3822 10.6575 11.4821 10.6575C11.5821 10.6575 11.6821 10.6194 11.7583 10.5431C12.0054 10.296 12.2366 10.037 12.4511 9.76784C12.9786 10.3023 13.4629 10.8473 13.8881 11.3821C13.5252 11.6111 13.1815 11.8852 12.8636 12.203C12.7111 12.3555 12.7111 12.6029 12.8636 12.7554C12.9399 12.8317 13.0399 12.8698 13.1399 12.8698C13.2398 12.8698 13.3398 12.8317 13.4161 12.7554C13.7086 12.4629 14.0265 12.2137 14.3624 12.0086C14.6516 12.4114 14.9019 12.8034 15.1059 13.175C15.7399 14.3297 15.6852 14.857 15.5679 14.9742Z" fill="#1F4E79"/>
</g>
<defs>
<clipPath id="clip0_289_6382">
<rect width="20" height="20" fill="white" transform="translate(1 1)"/>
</clipPath>
</defs>
</svg>
