<svg width="24" height="24" viewBox="0 0 24 24" fill="none" xmlns="http://www.w3.org/2000/svg">
<path d="M4.85793 12.3275C4.83666 12.1938 4.82639 12.0568 4.82696 11.9193C4.83088 11.3663 5.04953 10.848 5.44323 10.4595C5.83693 10.071 6.35822 9.85939 6.91126 9.86332L15.2599 9.92022C15.3348 9.92039 15.3956 9.86037 15.3961 9.7858C15.3967 9.71084 15.3363 9.65012 15.2617 9.64953L6.91311 9.59263C6.87815 9.59234 6.84368 9.59318 6.80884 9.59444C6.92047 8.56228 7.78914 7.77765 8.84314 7.78465L9.4311 7.78847C9.50606 7.78903 9.56679 7.72863 9.56737 7.65405C9.56793 7.5791 9.50753 7.51837 9.43295 7.51779L8.84499 7.51396C7.6306 7.50592 6.63446 8.42348 6.53384 9.62088C6.05195 9.69545 5.60681 9.91766 5.25264 10.2668C4.80752 10.706 4.55981 11.2923 4.5555 11.9176C4.55457 12.0698 4.56609 12.2222 4.58969 12.3705C4.60078 12.4406 4.66452 12.4898 4.73432 12.4842C4.73779 12.4839 4.74126 12.4836 4.74509 12.4829C4.81941 12.4707 4.86968 12.4011 4.85793 12.3275Z" fill="#1F4E79" stroke="#1F4E79" stroke-width="0.5"/>
<path d="M17.3144 9.69622C17.2309 8.49659 16.247 7.56441 15.0323 7.5564L14.5437 7.5531C14.4688 7.55293 14.408 7.61295 14.4074 7.68752C14.4069 7.76248 14.4673 7.8232 14.5419 7.82379L15.0304 7.82709C16.0852 7.83441 16.9424 8.63086 17.0397 9.66442C17.0023 9.66239 16.965 9.66113 16.9273 9.66068L15.9428 9.6539C15.8675 9.65376 15.8071 9.71374 15.8065 9.78831C15.8059 9.86327 15.8663 9.924 15.9409 9.92458L16.9254 9.93137C18.0668 9.93908 18.9892 10.8743 18.9814 12.0157C18.9791 12.3376 18.9138 12.6546 18.7924 12.9396C18.0305 12.3963 17.0054 12.4009 16.2442 12.9684L16.2288 12.9798L16.036 12.8366C15.3102 12.2981 14.315 12.2689 13.5588 12.7638L13.2569 12.9617L13.22 12.9332C12.4476 12.3314 11.3625 12.3238 10.5815 12.9154L10.5508 12.9385L10.4309 12.8433C9.71847 12.2778 8.71971 12.2194 7.9459 12.6979L7.58136 12.9233C6.82148 12.3278 5.76418 12.304 4.97579 12.8761C4.86173 12.9586 4.80337 13.0965 4.82314 13.2358L5.91549 20.9145C5.9726 21.3148 6.32046 21.619 6.72474 21.6217L8.20789 21.6317L12.2674 21.6595L13.078 21.6652L15.4734 21.6816L16.9573 21.6916C16.981 21.6917 17.0046 21.6909 17.0281 21.689C17.4022 21.6589 17.7175 21.3718 17.7761 20.9956L18.9904 13.2194C18.9938 13.1985 18.9928 13.1773 18.9892 13.157C18.992 13.1529 18.9944 13.1484 18.9967 13.1439C19.1601 12.802 19.2483 12.4126 19.2506 12.018C19.2604 10.8594 18.4203 9.88923 17.3144 9.69622ZM13.7079 12.9909C14.3693 12.5576 15.2404 12.5832 15.875 13.0545L16.0877 13.2124L15.3521 21.4096L13.2188 21.395L13.385 13.2025L13.7079 12.9909ZM13.0545 13.1472L13.1141 13.1937L12.9481 21.3931L10.7407 21.3782L10.6861 13.1771L10.7464 13.1315C11.429 12.6142 12.3785 12.6203 13.0545 13.1472ZM8.08986 12.9285C8.7668 12.5098 9.6404 12.5612 10.2641 13.0559L10.415 13.1757L10.4696 21.3764L8.33633 21.3617L7.71313 13.1615L8.08986 12.9285ZM6.18528 20.8765L5.09294 13.1977C5.08743 13.1582 5.10405 13.1188 5.1363 13.0952C5.83488 12.5886 6.7745 12.6165 7.44106 13.157L8.06445 21.3596L6.7281 21.3505C6.45667 21.3491 6.22325 21.1451 6.18528 20.8765ZM17.5103 20.9538C17.4683 21.2219 17.2322 21.423 16.9611 21.4208L15.624 21.4118L16.3585 13.2216L16.4061 13.1859C17.0996 12.6689 18.0438 12.6859 18.7174 13.222L17.5103 20.9538Z" fill="#1F4E79" stroke="#1F4E79" stroke-width="0.5"/>
<path d="M11.559 3.53656C11.427 3.53906 11.2982 3.55404 11.1732 3.57873C10.9809 3.14217 10.7244 2.73894 10.408 2.38027C10.3584 2.32411 10.2731 2.31887 10.2169 2.3681C10.1607 2.4177 10.1555 2.50309 10.2047 2.55929C10.4927 2.88637 10.7285 3.25213 10.9079 3.64806C10.017 3.94366 9.3824 4.79231 9.40162 5.78016C9.42538 6.99514 10.4298 7.96093 11.6448 7.93718C12.8598 7.91342 13.8256 6.909 13.8018 5.69401C13.7784 4.4786 12.774 3.51281 11.559 3.53656ZM13.1355 5.38806C13.1265 5.39098 13.1173 5.39274 13.1085 5.39369C13.0458 5.40042 12.9853 5.36255 12.9654 5.30048C12.8198 4.84683 12.46 4.49632 12.0021 4.36257C11.9302 4.3415 11.8891 4.26653 11.9102 4.19462C11.9312 4.1227 12.0062 4.08158 12.0781 4.10266C12.6224 4.26177 13.0504 4.6785 13.2231 5.21796C13.2459 5.28906 13.2066 5.36526 13.1355 5.38806Z" fill="#FF7021"/>
</svg>
