<svg id="Layer_1" enable-background="new 0 0 66 66" height="512" viewBox="0 0 66 66" width="512" xmlns="http://www.w3.org/2000/svg"><g><g><circle cx="33.1" cy="33.4" fill="#fdbf5e" r="32.1"/></g><g><g><path d="m7.3 10.3c-3.1 0-5.5 2.5-5.5 5.5v6.5h11.1v-6.5c0-3-2.5-5.5-5.6-5.5z" fill="#fff"/><path d="m12.9 23.4h-11.1c-.6 0-1-.4-1-1v-6.5c0-3.6 2.9-6.5 6.5-6.5s6.5 2.9 6.5 6.5v6.5c.1.5-.4 1-.9 1zm-10.1-2h9.1v-5.5c0-2.5-2-4.5-4.5-4.5s-4.5 2-4.5 4.5v5.5z" fill="#193651"/></g><g><path d="m51.7 15.9c0-3.1-2.5-5.5-5.5-5.5h-38.9c3.1 0 5.5 2.5 5.5 5.5v.1 6.4 37.9c0 1.7 1.3 3 3 3h23.9l12-12z" fill="#e1e6e9"/><path d="m39.7 64.2h-23.8c-2.2 0-4-1.8-4-4v-44.2c0-2.6-2-4.6-4.5-4.6-.6 0-1-.4-1-1s.4-1 1-1h38.8c3.6 0 6.5 2.9 6.5 6.5v35.4c0 .3-.1.5-.3.7l-12 12c-.2.1-.4.2-.7.2zm-27.7-52.9c1.1 1.2 1.8 2.8 1.8 4.5v44.3c0 1.1.9 2 2 2h23.4l11.4-11.4v-34.8c0-2.5-2-4.5-4.5-4.5h-34.1z" fill="#193651"/></g><g><path d="m16.9 59.2v-43.2c0-.6 0-1.1-.1-1.6h29.4c.9 0 1.5.7 1.5 1.5v35.4l-8 8h-22.8z" fill="#fff"/></g><g><path d="m39.7 63.2 12-12h-9c-1.7 0-3 1.3-3 3z" fill="#fff"/><path d="m39.7 64.2c-.1 0-.3 0-.4-.1-.4-.2-.6-.5-.6-.9v-9c0-2.2 1.8-4 4-4h9c.4 0 .8.2.9.6.2.4.1.8-.2 1.1l-12 12c-.2.2-.4.3-.7.3zm3-11.9c-1.1 0-2 .9-2 2v6.6l8.6-8.6z" fill="#193651"/></g><g><path d="m20 22.1h24.5v2h-24.5z" fill="#193651"/></g><g><path d="m20 22.1h24.5v2h-24.5z" fill="#cfd0d1"/></g><g><path d="m20 27.7h24.5v2h-24.5z" fill="#cfd0d1"/></g><g><path d="m20 33.3h24.5v2h-24.5z" fill="#cfd0d1"/></g><g><path d="m20 39h24.5v2h-24.5z" fill="#cfd0d1"/></g><g><path d="m20 44.6h24.5v2h-24.5z" fill="#cfd0d1"/></g><g><g><path d="m20 50.3h2v2h-2z" fill="#193651"/></g><g><path d="m24 50.3h2v2h-2z" fill="#193651"/></g><g><path d="m28 50.3h2v2h-2z" fill="#193651"/></g><g><path d="m32 50.3h2v2h-2z" fill="#193651"/></g></g></g><g><circle cx="56.1" cy="32.2" fill="#4fbf9f" r="7.9"/><path d="m56.1 41.2c-4.9 0-8.9-4-8.9-8.9s4-8.9 8.9-8.9 8.9 4 8.9 8.9-4 8.9-8.9 8.9zm0-15.9c-3.8 0-6.9 3.1-6.9 6.9s3.1 6.9 6.9 6.9 6.9-3.1 6.9-6.9-3.1-6.9-6.9-6.9z" fill="#193651"/></g><g><circle cx="54.1" cy="10.4" fill="#f16051" r="7.9"/><path d="m54.1 19.4c-4.9 0-8.9-4-8.9-8.9s4-8.9 8.9-8.9 8.9 4 8.9 8.9-4 8.9-8.9 8.9zm0-15.9c-3.8 0-6.9 3.1-6.9 6.9s3.1 6.9 6.9 6.9 6.9-3.1 6.9-6.9-3.1-6.9-6.9-6.9z" fill="#193651"/></g><g><circle cx="29.5" cy="9.4" fill="#2ea2db" r="7.9"/><path d="m29.5 18.3c-4.9 0-8.9-4-8.9-8.9s4-8.9 8.9-8.9 8.9 4 8.9 8.9-3.9 8.9-8.9 8.9zm0-15.8c-3.8 0-6.9 3.1-6.9 6.9s3.1 6.9 6.9 6.9 6.9-3.1 6.9-6.9c.1-3.8-3.1-6.9-6.9-6.9z" fill="#193651"/></g><g><g><path d="m30.2 5h-1.3l-2.9 6.6-.1.1h1.4l.7-1.5h3.1l.7 1.5h1.4zm.4 4h-2.1l1-2.4z" fill="#fff"/></g><g><path d="m57.1 13.1c.3-.4.5-.8.5-1.3 0-.4-.1-.8-.4-1.1-.2-.2-.5-.4-.8-.5.1 0 .1-.1.3-.2.3-.3.5-.7.5-1.2 0-.4-.2-.9-.5-1.2-.2-.2-.4-.3-.8-.5-.3 0-.7-.1-1.1-.1h-2.6v6.7h3c.8.1 1.5-.1 1.9-.6zm-3.7-3.3v-1.5h1.3c.4 0 .7.1.8.2.2.1.2.3.2.6 0 .2 0 .7-1.1.7zm2.8 1.9c0 .3-.1.5-.3.6s-.5.2-.9.2h-1.6v-1.5h1.5c.9 0 1.3.2 1.3.7z" fill="#fff"/></g><g><path d="m57.9 33.7c-.3.3-.6.5-.8.6-.3.1-.6.2-.9.2-.6 0-1.1-.2-1.5-.6s-.6-1-.6-1.6.2-1.2.6-1.6 1-.6 1.6-.6c.4 0 .7.1.9.2.3.1.6.3.9.6l.1.1.8-1-.1-.1c-.7-.8-1.6-1.2-2.6-1.2s-1.9.3-2.6 1-1 1.5-1 2.5.3 1.8 1 2.5 1.5 1 2.5 1 1.9-.4 2.6-1.2l.1-.1z" fill="#fff"/></g></g></g></svg>