<svg width="32" height="32" viewBox="0 0 32 32" fill="none" xmlns="http://www.w3.org/2000/svg">
<g clip-path="url(#clip0_835_11430)">
<path d="M20.3326 24.0002C20.3326 26.2055 18.538 28.0001 16.3327 28.0001H12.6663C12.1129 28.0001 11.6171 27.6588 11.421 27.1415L1.75457 1.80903C1.59735 1.39961 1.65326 0.939668 1.9013 0.578351C2.15056 0.217034 2.56119 0.000976562 2.99989 0.000976562H16.3327C18.538 0.000976562 20.3326 1.7956 20.3326 4.00085V24.0002Z" fill="#E5FCFF"/>
<path d="M12.3329 5.33409V29.3333C12.3329 30.2535 11.5863 31 10.6664 31C10.4797 31 10.3063 30.9734 10.133 30.92L2.13327 28.2535C1.47997 28.0267 1 27.4001 1 26.6669V2.66767C1 1.74754 1.74656 1.00098 2.6667 1.00098C2.85321 1.00098 3.02655 1.02759 3.19988 1.08105L11.1996 3.74747C11.8529 3.97427 12.3329 4.60096 12.3329 5.33409Z" fill="#0F5391"/>
<path d="M9.81708 31.8675L1.80658 29.197C0.725319 28.8237 0 27.8064 0 26.6665V2.66728C0 0.91123 1.70795 -0.423445 3.516 0.13269L11.5262 2.80326C12.6075 3.17654 13.3328 4.19384 13.3328 5.3337V29.3329C13.3328 30.8036 12.1371 31.9996 10.6664 31.9996C10.381 31.9996 10.1103 31.9584 9.81708 31.8675ZM1.99994 2.66728V26.6665C1.99994 26.9505 2.18938 27.2144 2.44914 27.3052L10.4264 29.965C10.8598 30.0956 11.3329 29.7851 11.3329 29.3329V5.3337C11.3329 5.04977 11.1437 4.78586 10.8837 4.69505L2.90518 2.03668C2.82535 2.01129 2.75065 2.00055 2.66666 2.00055C2.29851 2.00055 1.99994 2.29913 1.99994 2.66728Z" fill="#0F5391"/>
<path d="M30.9991 15.0009H18.3327C17.7807 15.0009 17.3328 14.5529 17.3328 14.0009C17.3328 13.449 17.7807 13.001 18.3327 13.001H30.9991C31.5511 13.001 31.9991 13.449 31.9991 14.0009C31.9991 14.5529 31.5511 15.0009 30.9991 15.0009Z" fill="#33CCCC"/>
<path d="M25.9992 20.0001C25.7431 20.0001 25.4873 19.9026 25.2925 19.7068C24.9019 19.316 24.9019 18.6827 25.2925 18.2921L29.5858 13.999L25.2925 9.7057C24.9019 9.31508 24.9019 8.6818 25.2925 8.29119C25.6833 7.90033 26.3166 7.90033 26.7072 8.29119L31.7071 13.291C32.0977 13.6816 32.0977 14.3149 31.7071 14.7055L26.7072 19.7054C26.5112 19.9026 26.2553 20.0001 25.9992 20.0001Z" fill="#33CCCC"/>
<path d="M10.6664 32C10.381 32 10.1103 31.9599 9.83978 31.876L1.81586 29.2027C0.724098 28.8214 0 27.8041 0 26.6669V2.66764C0 1.19698 1.19601 0.000976562 2.66666 0.000976562C2.95181 0.000976562 3.22256 0.0410144 3.4933 0.124996L11.517 2.79825C12.609 3.17959 13.3328 4.19689 13.3328 5.33406V29.3333C13.3328 30.804 12.1371 32 10.6664 32ZM2.66666 2.00091C2.29998 2.00091 1.99994 2.30095 1.99994 2.66764V26.6669C1.99994 26.9508 2.19061 27.2147 2.46257 27.3094L10.4489 29.9707C10.5063 29.9893 10.581 30 10.6664 30C11.0331 30 11.3329 29.7 11.3329 29.3333V5.33406C11.3329 5.05013 11.1422 4.78623 10.8703 4.6915L2.88394 2.03021C2.82657 2.01166 2.75187 2.00091 2.66666 2.00091Z" fill="#33CCCC"/>
<path d="M20.3327 10.6674C19.7807 10.6674 19.3327 10.2194 19.3327 9.66742V3.66761C19.3327 2.74894 18.5849 2.00091 17.6662 2.00091H2.66672C2.11473 2.00091 1.66675 1.55293 1.66675 1.00095C1.66675 0.448961 2.11473 0.000976562 2.66672 0.000976562H17.6662C19.6889 0.000976562 21.3326 1.64497 21.3326 3.66761V9.66742C21.3326 10.2194 20.8847 10.6674 20.3327 10.6674Z" fill="#33CCCC"/>
<path d="M17.6662 28.0004H12.3329C11.7809 28.0004 11.3329 27.5524 11.3329 27.0004C11.3329 26.4484 11.7809 26.0005 12.3329 26.0005H17.6662C18.5849 26.0005 19.3326 25.2524 19.3326 24.3338V18.334C19.3326 17.782 19.7806 17.334 20.3326 17.334C20.8846 17.334 21.3326 17.782 21.3326 18.334V24.3338C21.3326 26.3564 19.6888 28.0004 17.6662 28.0004Z" fill="#33CCCC"/>
</g>
<defs>
<clipPath id="clip0_835_11430">
<rect width="32" height="32" fill="white"/>
</clipPath>
</defs>
</svg>
