<svg id="Filled_Expand" height="512" viewBox="0 0 64 64" width="512" xmlns="http://www.w3.org/2000/svg" data-name="Filled Expand"><path d="m57 61h-42v-57a3 3 0 0 1 3-3h42l-3 16z" fill="#e6f5fa"/><path d="m60 1a3 3 0 0 1 3 3v13a0 0 0 0 1 0 0h-6a0 0 0 0 1 0 0v-13a3 3 0 0 1 3-3z" fill="#d2e4eb"/><rect fill="#d67d48" height="22" rx="2" width="26" x="2" y="41"/><rect fill="#c87346" height="22" rx="2" width="24" x="4" y="41"/><path d="m3 41h24a2 2 0 0 1 2 2v2a4 4 0 0 1 -4 4h-20a4 4 0 0 1 -4-4v-2a2 2 0 0 1 2-2z" fill="#e08c55"/><path d="m25 49h-18a4 4 0 0 1 -4-4 2 2 0 0 1 2-2h22a2 2 0 0 1 2 2 4 4 0 0 1 -4 4z" fill="#d67d48"/><path d="m21.5 47.5h3v3h-3z" fill="#f5fdff"/><path d="m5.5 47.5h3v3h-3z" fill="#f5fdff"/><path d="m19 29.75h2a.75.75 0 0 0 0-1.5h-2a.75.75 0 0 0 0 1.5z"/><path d="m19 24.75h2a.75.75 0 0 0 0-1.5h-2a.75.75 0 0 0 0 1.5z"/><path d="m25 29.75h28a.75.75 0 0 0 0-1.5h-28a.75.75 0 0 0 0 1.5z"/><path d="m25 24.75h28a.75.75 0 0 0 0-1.5h-28a.75.75 0 0 0 0 1.5z"/><path d="m25 19.75h28a.75.75 0 0 0 0-1.5h-28a.75.75 0 0 0 0 1.5z"/><path d="m25 34.75h28a.75.75 0 0 0 0-1.5h-28a.75.75 0 0 0 0 1.5z"/><path d="m53 38.25h-20a.75.75 0 0 0 0 1.5h20a.75.75 0 0 0 0-1.5z"/><path d="m53 43.25h-20a.75.75 0 0 0 0 1.5h20a.75.75 0 0 0 0-1.5z"/><path d="m53 48.25h-20a.75.75 0 0 0 0 1.5h20a.75.75 0 0 0 0-1.5z"/><path d="m19 19.75h2a.75.75 0 0 0 0-1.5h-2a.75.75 0 0 0 0 1.5z"/><path d="m60 .25h-42a3.755 3.755 0 0 0 -3.75 3.75v32.25h-2.25a2.752 2.752 0 0 0 -2.75 2.75v1.25h-6.25a2.752 2.752 0 0 0 -2.75 2.75v2a4.7 4.7 0 0 0 1 2.881v13.119a2.753 2.753 0 0 0 2.75 2.75h22a2.746 2.746 0 0 0 2.633-2h28.367a.75.75 0 0 0 .75-.75v-43.25h5.25a.75.75 0 0 0 .75-.75v-13a3.755 3.755 0 0 0 -3.75-3.75zm-44.25 37.5h2.25a1.252 1.252 0 0 1 1.25 1.25v1.25h-3.5zm-5 1.25a1.252 1.252 0 0 1 1.25-1.25h2.25v2.5h-3.5zm-3 2.75h14.5v5h-.75a.75.75 0 0 0 -.75.75v.75h-11.5v-.75a.75.75 0 0 0 -.75-.75h-.75zm-6 3.25v-2a1.252 1.252 0 0 1 1.25-1.25h3.25v5h-.75a.75.75 0 0 0 -.75.75v.725a3.244 3.244 0 0 1 -3-3.225zm4.5 17.25h-2.25a1.252 1.252 0 0 1 -1.25-1.25v-11.843a4.69 4.69 0 0 0 2 .568v.775a.75.75 0 0 0 .75.75h.75zm0-14h1.5v1.5h-1.5zm16 14h-14.5v-11h.75a.75.75 0 0 0 .75-.75v-.75h11.5v.75a.75.75 0 0 0 .75.75h.75zm0-14h1.5v1.5h-1.5zm5 12.75a1.252 1.252 0 0 1 -1.25 1.25h-2.25v-11h.75a.75.75 0 0 0 .75-.75v-.775a4.69 4.69 0 0 0 2-.568zm1-16a3.244 3.244 0 0 1 -3 3.225v-.725a.75.75 0 0 0 -.75-.75h-.75v-5h3.25a1.252 1.252 0 0 1 1.25 1.25zm28-41v56.25h-27.5v-12.369a4.7 4.7 0 0 0 1-2.881v-2a2.752 2.752 0 0 0 -2.75-2.75h-6.25v-1.25a2.752 2.752 0 0 0 -2.75-2.75h-2.25v-32.25a2.253 2.253 0 0 1 2.25-2.25h39.019a3.715 3.715 0 0 0 -.769 2.25zm6 12.25h-4.5v-12.25a2.25 2.25 0 0 1 4.5 0z"/><path d="m29 14.75a2.752 2.752 0 0 0 2.75-2.75v-6a.75.75 0 0 0 -.75-.75h-2a.75.75 0 0 0 0 1.5h1.25v5.25a1.25 1.25 0 0 1 -2.5 0 .75.75 0 0 0 -1.5 0 2.752 2.752 0 0 0 2.75 2.75z"/><path d="m36 14.75a2.752 2.752 0 0 0 2.75-2.75v-4a2.75 2.75 0 0 0 -5.5 0v4a2.752 2.752 0 0 0 2.75 2.75zm-1.25-6.75a1.25 1.25 0 0 1 2.5 0v4a1.25 1.25 0 0 1 -2.5 0z"/><path d="m41 14.75h2a2.743 2.743 0 0 0 1.876-4.75 2.743 2.743 0 0 0 -1.876-4.75h-2a.75.75 0 0 0 -.75.75v8a.75.75 0 0 0 .75.75zm.75-8h1.25a1.25 1.25 0 0 1 0 2.5h-1.25zm0 4h1.25a1.25 1.25 0 0 1 0 2.5h-1.25z"/><path d="m52 54.25h-2.311l-1.689 1.689-1.47-1.469a.749.749 0 0 0 -1.06 0l-1.389 1.388-2.481-3.308a.75.75 0 0 0 -1.13-.08l-3.781 3.78h-1.689a.75.75 0 0 0 0 1.5h2a.747.747 0 0 0 .53-.22l3.389-3.388 2.481 3.308a.75.75 0 0 0 1.13.08l1.47-1.469 1.47 1.469a.749.749 0 0 0 1.06 0l1.781-1.78h1.689a.75.75 0 0 0 0-1.5z"/></svg>