<svg id="Capa_1" enable-background="new 0 0 511.98 511.98" height="512" viewBox="0 0 511.98 511.98" width="512" xmlns="http://www.w3.org/2000/svg"><g><g><g><circle cx="250.153" cy="254.37" fill="#99e6fc" r="242.673"/><path d="m292.287 493.413c-13.695 2.392-27.778 3.638-42.146 3.638-134.024 0-242.661-108.658-242.661-242.681s108.637-242.681 242.66-242.681c14.369 0 28.452 1.247 42.146 3.638-113.951 19.949-200.554 119.389-200.554 239.043s86.603 219.093 200.555 239.043z" fill="#62dbfb"/></g><path d="m498.134 432.592-79.397-59.809c-10.982-8.272-26.565.415-25.303 14.105l9.123 98.984c1.422 15.431 21.87 19.85 29.537 6.384l12.799-22.479c3.519-6.181 10.181-9.894 17.288-9.637l25.851.934c15.487.558 22.48-19.158 10.102-28.482z" fill="#017297"/><path d="m432.247 491.995-.154.266c-7.666 13.459-28.117 9.048-29.539-6.387l-9.12-98.987c-1.269-13.685 14.309-22.364 25.292-14.115-1.412 2.579-2.119 5.64-1.811 9.007l9.12 98.987c.46 4.965 2.875 8.783 6.212 11.229z" fill="#025f80"/><g><path d="m397.039 325.071h-293.772c-13.707 0-24.819-11.112-24.819-24.819v-91.766c0-13.707 11.112-24.819 24.819-24.819h293.772c13.707 0 24.819 11.112 24.819 24.819v91.766c0 13.707-11.112 24.819-24.819 24.819z" fill="#f9f7f8"/><path d="m128.71 325.073h-25.446c-13.702 0-24.816-11.114-24.816-24.816v-91.772c0-13.702 11.114-24.816 24.816-24.816h25.446c-13.713 0-24.827 11.114-24.827 24.816v91.772c0 13.702 11.114 24.816 24.827 24.816z" fill="#f3dced"/></g></g><g><path d="m502.624 426.589-4.02-3.03c-3.306-2.492-8.009-1.831-10.502 1.476-2.493 3.308-1.832 8.01 1.475 10.503l4.023 3.031c4.535 3.414 3.322 8.093 2.843 9.446-.48 1.353-2.509 5.73-8.162 5.546l-25.843-.93c-9.958-.363-19.162 4.775-24.08 13.413l-12.801 22.482c-2.804 4.93-7.598 4.327-8.999 4.024-1.403-.303-6.022-1.731-6.541-7.385l-9.129-98.97c-.462-5.021 3.134-7.435 4.246-8.055 1.114-.62 5.057-2.409 9.081.622l47.517 35.797c3.308 2.493 8.011 1.831 10.502-1.477 2.492-3.308 1.831-8.01-1.477-10.502l-12.475-9.398c27.514-41.145 42.029-88.975 42.029-138.81 0-66.821-26.021-129.642-73.27-176.89-47.248-47.249-110.069-73.27-176.89-73.27-75.379 0-145.995 33.502-193.741 91.916-2.622 3.207-2.146 7.931 1.06 10.553 3.207 2.622 7.932 2.146 10.552-1.06 4.779-5.847 9.817-11.412 15.063-16.718 19.548 17.568 41.46 31.761 64.962 42.276-3.668 14.103-6.732 29.145-9.121 44.994h-35.647c-17.819 0-32.316 14.497-32.316 32.317v38.384h-55.842c1.273-40.142 12.75-79.256 33.391-113.565 2.135-3.549.989-8.157-2.56-10.292s-8.158-.99-10.292 2.56c-23.329 38.776-35.66 83.313-35.66 128.796 0 66.816 26.02 129.634 73.269 176.881 47.248 47.248 110.065 73.269 176.881 73.269 51.592 0 100.567-15.356 142.482-44.52l2.448 26.539c.954 10.361 8.142 18.474 18.312 20.67 1.731.374 3.454.556 5.147.556 8.251 0 15.789-4.323 20.054-11.823l12.799-22.478c2.144-3.764 6.149-6.004 10.502-5.846l25.847.93c.304.011.605.017.908.017 10.008-.001 18.556-6.021 21.931-15.539 3.476-9.807.352-20.185-7.956-26.44zm-79.385-59.806c-7.488-5.639-17.221-6.305-25.408-1.744-8.186 4.563-12.738 13.196-11.88 22.532l.815 8.841c-11.061-7.24-22.584-13.549-34.494-18.891 3.664-14.092 6.725-29.122 9.112-44.956h35.644c17.819 0 32.316-14.497 32.316-32.316v-38.376h55.84c-1.368 43.855-14.723 85.832-38.901 122.271zm-204.012-1.603c.395 4.123 4.056 7.147 8.181 6.749 7.514-.721 15.166-1.086 22.742-1.086 29.184 0 57.536 5.257 84.094 15.433-18.808 62.957-50.289 103.247-84.094 103.247-33.789 0-65.257-40.263-84.066-103.185 9.123-3.497 18.47-6.432 27.993-8.761 4.023-.984 6.487-5.043 5.502-9.067-.984-4.023-5.042-6.487-9.067-5.502-9.665 2.364-19.161 5.315-28.441 8.811-3.15-12.377-5.83-25.501-7.973-39.255h192.115c-2.139 13.727-4.813 26.827-7.955 39.183-27.863-10.49-57.558-15.903-88.107-15.903-8.053 0-16.186.388-24.174 1.154-4.124.396-7.146 4.059-6.75 8.182zm265.953-118.307h-55.836v-38.383c0-17.819-14.497-32.317-32.316-32.317h-35.644c-2.389-15.849-5.453-30.892-9.121-44.995 23.503-10.516 45.415-24.709 64.964-42.278 42.145 42.543 66.097 98.347 67.953 157.973zm-78.881-168.329c-17.587 15.645-37.176 28.413-58.152 38.036-12.671-41.661-30.854-73.886-52.203-92.935 40.887 8.027 78.798 26.802 110.355 54.899zm-156.149-59.333c33.797 0 65.272 40.272 84.082 103.206-26.536 10.152-54.951 15.478-84.078 15.478s-57.541-5.325-84.077-15.477c18.808-62.934 50.28-103.207 84.073-103.207zm-156.15 59.327c31.322-27.885 69.327-46.768 110.321-54.858-21.331 19.054-39.498 51.265-52.16 92.902-20.978-9.625-40.571-22.396-58.161-38.044zm68.062 58.411c27.842 10.466 57.601 15.944 88.092 15.944s60.251-5.479 88.093-15.945c3.147 12.369 5.824 25.482 7.965 39.225h-192.115c2.142-13.742 4.819-26.856 7.965-39.224zm-76.1 71.541c0-9.549 7.768-17.318 17.317-17.318h293.749c9.549 0 17.317 7.769 17.317 17.318v91.759c0 9.549-7.768 17.317-17.317 17.317h-293.749c-9.549 0-17.317-7.768-17.317-17.317zm-70.832 53.382h55.833v38.376c0 17.819 14.497 32.316 32.316 32.316h35.647c2.39 15.86 5.457 30.912 9.128 45.023-23.621 10.58-45.578 24.83-64.972 42.249-42.144-42.542-66.096-98.342-67.952-157.964zm78.874 168.315c17.458-15.519 37.094-28.315 58.17-37.994 12.669 41.643 30.846 73.854 52.187 92.897-40.888-8.027-78.799-26.803-110.357-54.903zm201.921 54.919c21.36-19.05 39.552-51.287 52.227-92.969 14.107 6.488 27.629 14.421 40.41 23.748l2.47 26.778c-28.504 21.381-60.769 35.718-95.107 42.443z"/><path d="m123.356 287.892c.071.358.168.71.29 1.055 1.273 3.585 4.672 5.982 8.473 5.982h.062c3.825-.026 7.221-2.477 8.451-6.099.021-.064.043-.129.063-.194l12.953-41.85 12.895 41.859c.031.102.065.202.101.302 1.273 3.585 4.673 5.982 8.473 5.982h.06c3.824-.025 7.22-2.474 8.452-6.095.106-.311.192-.63.256-.953l12.934-64.989c.809-4.062-1.829-8.011-5.891-8.819-4.063-.808-8.011 1.829-8.819 5.892l-8.253 41.469-13.041-42.334c-1.093-3.547-4.618-5.76-8.284-5.208-3.163.476-5.616 2.885-6.233 5.917l-12.886 41.63-8.226-41.587c-.805-4.063-4.749-6.706-8.812-5.901-4.063.804-6.706 4.749-5.902 8.812z"/><path d="m219.861 287.892c.071.359.169.714.292 1.059 1.274 3.582 4.673 5.978 8.472 5.978h.062c3.822-.026 7.218-2.475 8.45-6.095.022-.066.044-.132.065-.199l12.953-41.849 12.894 41.858c.031.102.065.202.101.302 1.273 3.585 4.672 5.982 8.473 5.982h.062c3.825-.026 7.221-2.477 8.451-6.099.105-.31.19-.627.254-.948l12.935-64.989c.809-4.062-1.829-8.011-5.891-8.819-4.065-.808-8.011 1.829-8.819 5.892l-8.254 41.469-13.04-42.334c-1.093-3.547-4.614-5.76-8.284-5.208-3.163.476-5.616 2.885-6.233 5.917l-12.886 41.632-8.227-41.589c-.805-4.063-4.749-6.706-8.812-5.901-4.063.804-6.706 4.749-5.902 8.812z"/><path d="m316.367 287.892c.071.358.168.71.29 1.055 1.273 3.585 4.672 5.982 8.473 5.982h.062c3.825-.026 7.221-2.477 8.451-6.099.021-.064.043-.129.063-.194l12.953-41.849 12.894 41.858c.032.103.066.205.103.307 1.274 3.582 4.673 5.978 8.472 5.978h.062c3.822-.026 7.218-2.475 8.449-6.095.106-.311.192-.63.256-.953l12.934-64.989c.809-4.062-1.829-8.011-5.891-8.819-4.065-.808-8.011 1.829-8.819 5.892l-8.253 41.471-13.04-42.337c-1.093-3.547-4.619-5.76-8.284-5.208-3.163.476-5.616 2.885-6.233 5.917l-12.886 41.63-8.226-41.587c-.804-4.063-4.747-6.706-8.812-5.901-4.063.804-6.706 4.749-5.902 8.812z"/></g></g></svg>