<svg id="Layer_1" enable-background="new 0 0 512 512" height="512" viewBox="0 0 512 512" width="512" xmlns="http://www.w3.org/2000/svg"><g><g clip-rule="evenodd" fill-rule="evenodd"><path d="m358.34 504h-295.11c-14.58 0-26.47-11.92-26.47-26.47v-443.06c0-14.55 11.89-26.47 26.47-26.47h295.11c14.55 0 26.47 11.92 26.47 26.47v443.06c0 14.55-11.91 26.47-26.47 26.47z" fill="#e9e7fc"/><path d="m210.77 504h-147.54c-14.58 0-26.47-11.92-26.47-26.47v-443.06c0-14.55 11.89-26.47 26.47-26.47h147.54z" fill="#d2d0e3"/><path d="m337.97 146.64h-254.36c-4.15 0-7.55-3.4-7.55-7.55v-84.22c0-4.15 3.41-7.55 7.55-7.55h254.36c4.15 0 7.55 3.41 7.55 7.55v84.22c0 4.15-3.41 7.55-7.55 7.55z" fill="#51bee5"/><path d="m210.77 146.64h-127.16c-4.15 0-7.55-3.4-7.55-7.55v-84.22c0-4.15 3.41-7.55 7.55-7.55h127.16z" fill="#49abce"/><path d="m137.24 262.16h-55.42c-3.16 0-5.77-2.58-5.77-5.77v-55.41c0-3.16 2.61-5.77 5.77-5.77h55.41c3.19 0 5.77 2.61 5.77 5.77v55.41c0 3.19-2.58 5.77-5.76 5.77z" fill="#9997a6"/><path d="m339.75 262.16h-55.41c-3.19 0-5.77-2.58-5.77-5.77v-55.41c0-3.16 2.58-5.77 5.77-5.77h55.41c3.16 0 5.77 2.61 5.77 5.77v55.41c0 3.19-2.61 5.77-5.77 5.77z" fill="#aaa8b8"/><path d="m137.24 363.44h-55.42c-3.16 0-5.77-2.61-5.77-5.77v-55.41c0-3.19 2.61-5.77 5.77-5.77h55.41c3.19 0 5.77 2.58 5.77 5.77v55.41c0 3.16-2.58 5.77-5.76 5.77z" fill="#9997a6"/><path d="m339.75 363.44h-55.41c-3.19 0-5.77-2.61-5.77-5.77v-55.41c0-3.19 2.58-5.77 5.77-5.77h55.41c3.16 0 5.77 2.58 5.77 5.77v55.41c0 3.16-2.61 5.77-5.77 5.77z" fill="#aaa8b8"/><path d="m137.24 464.68h-55.42c-3.16 0-5.77-2.58-5.77-5.77v-55.41c0-3.16 2.61-5.77 5.77-5.77h55.41c3.19 0 5.77 2.61 5.77 5.77v55.41c0 3.19-2.58 5.77-5.76 5.77z" fill="#9997a6"/><path d="m238.51 262.16h-55.44c-3.16 0-5.74-2.58-5.74-5.77v-55.41c0-3.16 2.58-5.77 5.74-5.77h55.44c3.16 0 5.74 2.61 5.74 5.77v55.41c0 3.19-2.58 5.77-5.74 5.77z" fill="#aaa8b8"/><path d="m238.51 363.44h-55.44c-3.16 0-5.74-2.61-5.74-5.77v-55.41c0-3.19 2.58-5.77 5.74-5.77h55.44c3.16 0 5.74 2.58 5.74 5.77v55.41c0 3.16-2.58 5.77-5.74 5.77z" fill="#aaa8b8"/><path d="m238.51 464.68h-55.44c-3.16 0-5.74-2.58-5.74-5.77v-55.41c0-3.16 2.58-5.77 5.74-5.77h55.44c3.16 0 5.74 2.61 5.74 5.77v55.41c0 3.19-2.58 5.77-5.74 5.77z" fill="#aaa8b8"/><path d="m210.77 262.16h-27.71c-3.16 0-5.74-2.58-5.74-5.77v-55.41c0-3.16 2.58-5.77 5.74-5.77h27.71z" fill="#9997a6"/><path d="m210.77 363.44h-27.71c-3.16 0-5.74-2.61-5.74-5.77v-55.41c0-3.19 2.58-5.77 5.74-5.77h27.71z" fill="#9997a6"/><path d="m210.77 464.68h-27.71c-3.16 0-5.74-2.58-5.74-5.77v-55.41c0-3.16 2.58-5.77 5.74-5.77h27.71z" fill="#9997a6"/><path d="m339.75 464.68h-55.41c-3.19 0-5.77-2.58-5.77-5.77v-55.41c0-3.16 2.58-5.77 5.77-5.77h55.41c3.16 0 5.77 2.61 5.77 5.77v55.41c0 3.19-2.61 5.77-5.77 5.77z" fill="#aaa8b8"/><g fill="#fd9200"><path d="m320.34 348.36h128.95c14.28 0 25.95 11.67 25.95 25.92 0 14.28-11.67 25.95-25.95 25.95h-128.95c-14.25 0-25.92-11.67-25.92-25.95 0-14.25 11.67-25.92 25.92-25.92z"/><path d="m320.34 400.23h128.95c14.28 0 25.95 11.67 25.95 25.95 0 14.25-11.67 25.92-25.95 25.92h-128.95c-14.25 0-25.92-11.67-25.92-25.92 0-14.28 11.67-25.95 25.92-25.95z"/><path d="m320.34 452.1h128.95c14.28 0 25.95 11.67 25.95 25.95 0 14.25-11.67 25.95-25.95 25.95h-128.95c-14.25 0-25.92-11.7-25.92-25.95 0-14.28 11.67-25.95 25.92-25.95z"/><path d="m384.81 348.36c49.81 0 90.42-40.61 90.42-90.42 0-49.78-40.61-90.4-90.42-90.4-49.78 0-90.4 40.61-90.4 90.4.01 49.81 40.62 90.42 90.4 90.42z"/></g><path d="m320.34 348.36h64.47v51.87h-64.47c-14.25 0-25.92-11.67-25.92-25.95 0-14.25 11.67-25.92 25.92-25.92z" fill="#e48300"/><path d="m320.34 400.23h64.47v51.87h-64.47c-14.25 0-25.92-11.67-25.92-25.92 0-14.28 11.67-25.95 25.92-25.95z" fill="#e48300"/><path d="m320.34 452.1h64.47v51.9h-64.47c-14.25 0-25.92-11.7-25.92-25.95 0-14.28 11.67-25.95 25.92-25.95z" fill="#e48300"/><path d="m384.81 167.54v180.82c-49.92 0-90.4-40.48-90.4-90.42.01-49.93 40.48-90.4 90.4-90.4z" fill="#e48300"/></g><path d="m483.24 374.32c0-18.71-15.22-33.93-33.93-33.93h-10.78c26.9-17.59 44.71-47.96 44.71-82.43 0-51.56-39.88-93.98-90.43-98.07v-125.42c0-19-15.46-34.47-34.47-34.47h-295.14c-18.99 0-34.44 15.47-34.44 34.47v443.05c0 19.01 15.45 34.47 34.44 34.47h257.13.01.02 128.95c18.71 0 33.93-15.22 33.93-33.93 0-10.4-4.7-19.71-12.09-25.94 7.39-6.23 12.09-15.54 12.09-25.94s-4.7-19.71-12.09-25.94c7.39-6.21 12.09-15.53 12.09-25.92zm-15.99-116.36c0 45.45-36.98 82.43-82.43 82.43-44.02 0-80.09-34.68-82.32-78.15 0-.02 0-.04 0-.05 0-.08-.01-.16-.01-.24-.06-1.32-.1-2.65-.1-3.98 0-45.44 36.98-82.4 82.43-82.4s82.43 36.95 82.43 82.39zm-173.22 198.73h-7.46v-27.47c.82 9.16 5.29 17.29 11.95 22.9-1.64 1.39-3.14 2.91-4.49 4.57zm-7.46-33.53v-17.41h6.72c-3.73 4.94-6.14 10.91-6.72 17.41zm5.61-67.72h-5.61v-50.94h11.55c7.84 14.54 19.22 26.89 32.99 35.89h-10.75c-11.73 0-22.08 5.98-28.18 15.05zm-5.61-103.21v-49.01h16.5c-9.52 14.17-15.46 30.95-16.5 49.01zm-241.82 225.3v-443.06c0-10.19 8.28-18.48 18.45-18.48h295.14c10.19 0 18.48 8.29 18.48 18.48v125.42c-23.36 1.89-44.43 11.96-60.35 27.34h-32.14c-7.58 0-13.75 6.18-13.75 13.78v55.42c0 7.58 6.17 13.75 13.75 13.75h2.83c.79 6.32 2.18 12.45 4.1 18.34h-6.93c-7.58 0-13.75 6.17-13.75 13.75v55.42c0 7.58 6.17 13.75 13.75 13.75h2.23c-.08.95-.13 1.92-.13 2.89 0 5.56 1.35 10.81 3.74 15.45h-5.83c-7.58 0-13.75 6.17-13.75 13.75v55.42c0 7.58 6.17 13.75 13.75 13.75h2.53c-.28 1.75-.43 3.55-.43 5.39 0 6.58 1.89 12.73 5.15 17.94h-228.39c-10.17-.02-18.45-8.31-18.45-18.5zm422.5.54c0 9.89-8.05 17.94-17.94 17.94h-128.95c-9.89 0-17.94-8.05-17.94-17.94s8.05-17.94 17.94-17.94h128.95c9.89-.01 17.94 8.04 17.94 17.94zm0-51.88c0 9.89-8.05 17.94-17.94 17.94h-128.95c-9.89 0-17.94-8.05-17.94-17.94s8.05-17.94 17.94-17.94h128.95c9.89 0 17.94 8.05 17.94 17.94zm-146.89-33.93c-9.89 0-17.94-8.05-17.94-17.94s8.05-17.94 17.94-17.94h128.95c9.89 0 17.94 8.05 17.94 17.94s-8.05 17.94-17.94 17.94zm64.46-195.45c4.42 0 7.99 3.58 7.99 7.99v8.79c3.39.66 6.63 1.78 9.51 3.36 6.76 3.71 11.29 9.56 13.1 16.92 1.06 4.29-1.56 8.62-5.85 9.67-4.29 1.06-8.62-1.56-9.67-5.85-.74-2.98-2.46-5.19-5.27-6.73-4.31-2.37-10.76-2.76-16.05-.98-4.27 1.45-5.81 4.43-6.35 6.66-.72 2.99.05 6.18 1.95 8.13 3.52 3.61 9.54 5.03 15.91 6.54 6.91 1.63 14.06 3.32 19.22 8.33 5.45 5.32 8.05 12.25 7.34 19.52-.73 7.45-5.02 14.41-11.49 18.63-3.68 2.42-7.92 4.01-12.36 4.76v8.56c0 4.42-3.58 7.99-7.99 7.99s-7.99-3.58-7.99-7.99v-9.56c-.07-.02-.15-.04-.22-.06-10.36-3.17-18.57-10.9-23.11-21.77-1.7-4.07.22-8.75 4.29-10.46 4.07-1.7 8.75.22 10.46 4.29 3.43 8.2 8.98 11.4 13.04 12.64 5.23 1.6 11.03.92 15.14-1.79 2.46-1.61 4.07-4.15 4.33-6.81.23-2.38-.66-4.63-2.58-6.5-1.98-1.92-6.95-3.09-11.75-4.23-7.92-1.87-16.9-4-23.68-10.93-5.73-5.88-8.05-14.7-6.06-23.02 2.05-8.56 8.16-15.15 16.77-18.08 1.11-.37 2.23-.68 3.37-.95v-9.09c.01-4.4 3.59-7.98 8-7.98zm-301.21-42.18h254.35c8.57 0 15.53-6.97 15.53-15.53v-84.22c0-8.58-6.97-15.56-15.53-15.56h-254.35c-8.58 0-15.56 6.98-15.56 15.56v84.22c0 8.57 6.98 15.53 15.56 15.53zm.43-99.32h253.47v83.34h-253.47zm53.2 131.92h-55.41c-7.6 0-13.78 6.18-13.78 13.78v55.42c0 7.58 6.18 13.75 13.78 13.75h55.42c7.58 0 13.75-6.17 13.75-13.75v-55.42c-.01-7.6-6.18-13.78-13.76-13.78zm-2.24 66.96h-50.96v-50.97h50.96zm103.5-66.96h-55.42c-7.58 0-13.75 6.18-13.75 13.78v55.42c0 7.58 6.17 13.75 13.75 13.75h55.42c7.58 0 13.75-6.17 13.75-13.75v-55.42c-.01-7.6-6.17-13.78-13.75-13.78zm-2.24 66.96h-50.94v-50.97h50.94zm-99.02 34.32h-55.41c-7.6 0-13.78 6.17-13.78 13.75v55.42c0 7.58 6.18 13.75 13.78 13.75h55.42c7.58 0 13.75-6.17 13.75-13.75v-55.42c-.01-7.58-6.18-13.75-13.76-13.75zm-2.24 66.93h-50.96v-50.94h50.96zm103.5-66.93h-55.42c-7.58 0-13.75 6.17-13.75 13.75v55.42c0 7.58 6.17 13.75 13.75 13.75h55.42c7.58 0 13.75-6.17 13.75-13.75v-55.42c-.01-7.58-6.17-13.75-13.75-13.75zm-2.24 66.93h-50.94v-50.94h50.94zm-99.02 34.33h-55.41c-7.6 0-13.78 6.17-13.78 13.75v55.42c0 7.58 6.18 13.75 13.78 13.75h55.42c7.58 0 13.75-6.17 13.75-13.75v-55.42c-.01-7.59-6.18-13.75-13.76-13.75zm-2.24 66.92h-50.96v-50.94h50.96zm103.5-66.92h-55.42c-7.58 0-13.75 6.17-13.75 13.75v55.42c0 7.58 6.17 13.75 13.75 13.75h55.42c7.58 0 13.75-6.17 13.75-13.75v-55.42c-.01-7.59-6.17-13.75-13.75-13.75zm-2.24 66.92h-50.94v-50.94h50.94z"/></g></svg>