<svg id="Capa_1" enable-background="new 0 0 512 512" viewBox="0 0 512 512" xmlns="http://www.w3.org/2000/svg"><g><g><path d="m237.194 290.027c-4.38-2.985-8.223-6.812-11.259-11.369l-.52-.78-45.921 26.513-.127.184c-7.846 11.263-20.65 17.986-34.252 17.986s-26.406-6.724-34.252-17.986l-.127-.184-29.35-16.945v207.054c0 5.523 4.477 10 10 10h182.714v-106.855c-.002-40.565-13.781-77.908-36.906-107.618z" fill="#ea9b58"/><path d="m237.194 290.027c-4.38-2.985-8.223-6.812-11.259-11.369l-.52-.78-20.342 11.745c19.89 28.438 31.571 63.041 31.571 100.378v82c0 5.523-4.477 10-10 10h-145.26v12.5c0 5.523 4.477 10 10 10h182.714v-106.856c0-40.565-13.779-77.908-36.904-107.618z" fill="#d88a55"/><g><g><g><path d="m218.962 255.581v-78.525c0-6.869 3.153-13.015 8.086-17.069-3.103-6.842-8.276-12.69-15.001-16.573l-10.861-6.271c-34.698-20.033-77.447-20.033-112.144 0l-10.861 6.271c-6.725 3.883-11.898 9.731-15.001 16.573 4.933 4.054 8.086 10.2 8.086 17.069v78.525c0 8.548-2.59 16.501-7.022 23.122l52.378 30.24c17.632 10.179 39.354 10.179 56.986 0l52.377-30.24c-4.433-6.621-7.023-14.574-7.023-23.122z" fill="#f6a96c"/><path d="m145.114 323.56c-23.5 0-42.727-19.227-42.727-42.727v-11.75c0-23.5 19.227-42.727 42.727-42.727 23.5 0 42.727 19.227 42.727 42.727v11.75c0 23.5-19.227 42.727-42.727 42.727z" fill="#fed2a4"/><g><path d="m165.643 231.667v41.809c0 23.5-19.227 42.727-42.727 42.727-.59 0-1.175-.021-1.759-.045 6.844 4.665 15.095 7.401 23.956 7.401 23.5 0 42.727-19.227 42.727-42.727v-11.75c.001-16.068-8.997-30.125-22.197-37.415z" fill="#ffbd86"/></g><path d="m137.884 363c-31.075 0-56.5 25.425-56.5 56.5v75c0 5.523 4.477 10 10 10h103v-85c0-31.075-25.425-56.5-56.5-56.5z" fill="#f6a96c"/><path d="m81.384 482v12.5c0 5.523 4.477 10 10 10h103v-22.5z" fill="#ea9b58"/><g><path d="m217.962 177.056v78.526c0 23.571 19.108 42.679 42.679 42.679 5.751 0 10.414-4.662 10.414-10.413v-103.873c0-16.572-13.434-30.006-30.006-30.006-12.75 0-23.087 10.336-23.087 23.087z" fill="#bb5d4c"/><path d="m246.643 154.497v111.089c0 5.751-4.662 10.414-10.414 10.414-5.02 0-9.834-.874-14.307-2.466 6.781 14.599 21.563 24.726 38.719 24.726 5.751 0 10.414-4.662 10.414-10.414v-103.871c0-14.66-10.514-26.856-24.412-29.478z" fill="#a44f3e"/><path d="m19.172 183.975v103.872c0 5.751 4.662 10.413 10.413 10.413 23.571 0 42.679-19.108 42.679-42.679v-78.526c0-12.751-10.336-23.087-23.087-23.087-16.571.001-30.005 13.435-30.005 30.007z" fill="#bb5d4c"/><path d="m49.178 153.969c-.444 0-.885.014-1.325.033v79.318c0 18.666-11.988 34.523-28.681 40.318v14.208c0 5.751 4.662 10.414 10.414 10.414 23.571 0 42.679-19.108 42.679-42.679v-78.526c0-12.75-10.336-23.086-23.087-23.086z" fill="#a44f3e"/></g></g></g></g><path d="m150.378 253.028h-10.528c-7.335 0-13.336-6.001-13.336-13.336 0-7.335 6.001-13.336 13.336-13.336h10.528c7.335 0 13.336 6.001 13.336 13.336 0 7.335-6.001 13.336-13.336 13.336z" fill="#766e6e"/><path d="m153.487 226.74c.092.63.156 1.27.156 1.924 0 7.335-6.001 13.336-13.336 13.336h-13.579c1.103 6.243 6.574 11.028 13.121 11.028h10.528c7.335 0 13.336-6.001 13.336-13.336.001-6.263-4.38-11.54-10.226-12.952z" fill="#5b5555"/><path d="m428.042 385.99c-.243.007-.485.01-.727.01h-.003c-7.982 0-15.657-3.38-21.056-9.272-1.145-1.249-2.706-1.938-4.396-1.938-1.701 0-3.346.728-4.514 1.995-5.395 5.856-13.051 9.215-21.004 9.215-8.402 0-16.345-3.685-21.792-10.109l-.141-.167-.198-.093c-12.327-5.76-22.558-14.734-29.882-25.619-30.861 28.17-50.231 68.715-50.231 113.792v40.696h159.286c5.523 0 10-4.477 10-10v-113.513c-4.514 3.097-9.838 4.867-15.342 5.003z" fill="#766e6e"/><path d="m428.042 385.99c-.243.007-.485.01-.727.01h-.003c-4.814 0-9.511-1.237-13.669-3.505v89.505c0 5.523-4.477 10-10 10h-129.545v22.5h159.286c5.523 0 10-4.477 10-10v-113.513c-4.514 3.097-9.838 4.867-15.342 5.003z" fill="#5b5555"/><path d="m395.885 410c-26.125 0-47.5 21.375-47.5 47.5v47h85c5.523 0 10-4.477 10-10v-37c0-26.125-21.375-47.5-47.5-47.5z" fill="#b9acac"/><path d="m413.643 413.477v58.523c0 5.523-4.477 10-10 10h-55.259v22.5h85c5.523 0 10-4.477 10-10v-37c.001-19.853-12.349-36.952-29.741-44.023z" fill="#9e9797"/><circle cx="348.592" cy="88.136" fill="#ffd15b" r="80.636"/><path d="m389.019 18.377c6.748 11.788 10.624 25.431 10.624 39.987 0 44.534-36.102 80.636-80.636 80.636-14.737 0-28.539-3.973-40.427-10.877 13.896 24.277 40.034 40.648 70.011 40.648 44.534 0 80.636-36.102 80.636-80.636.001-29.796-16.173-55.799-40.208-69.758z" fill="#ffc344"/><g><path d="m482.718 273.606v-56.988c0-11.207-13.55-16.82-21.475-8.895l-29.445 29.446c21.878 3.962 40.406 17.665 50.92 36.437z" fill="#fdb4ba"/><path d="m461.243 207.723-.594.594v40.906c9.065 6.348 16.638 14.686 22.07 24.383v-56.988c-.001-11.207-13.551-16.82-21.476-8.895z" fill="#fe99a0"/><path d="m371.113 237.312-29.589-29.589c-7.925-7.925-21.475-2.312-21.475 8.895v58.621c10.225-19.391 28.883-33.671 51.064-37.927z" fill="#fdb4ba"/><g><path d="m418.696 235.193h-33.737c-40.772 0-74.132 33.359-74.132 74.132 0 30.546 18.725 56.929 45.262 68.243-.073-.073-.148-.142-.22-.216-5.423-5.573-8.291-12.932-8.077-20.719.419-15.306 13.503-27.759 29.165-27.759h50.356c7.97 0 15.365 3.201 20.824 9.013 5.454 5.807 8.182 13.405 7.681 21.395-.448 7.131-3.588 13.571-8.385 18.344 26.608-11.282 45.395-37.704 45.395-68.301 0-40.772-33.359-74.132-74.132-74.132z" fill="#b9acac"/></g><g><path d="m466.159 252.504c2.659 7.971 4.093 16.433 4.093 25.204 0 22.324-9.27 42.66-24.467 57.944.817.697 1.604 1.439 2.352 2.235 5.454 5.807 8.182 13.405 7.681 21.395-.448 7.131-3.588 13.571-8.385 18.344 26.608-11.282 45.395-37.704 45.395-68.301 0-22.755-10.398-43.194-26.669-56.821z" fill="#9e9797"/></g><path d="m427.313 327.874h-50.356c-16.109 0-29.725 12.63-30.167 28.732-.457 16.707 12.949 30.394 29.553 30.394 8.6 0 16.339-3.675 21.739-9.538 2.015-2.188 5.428-2.252 7.438-.059 5.56 6.069 13.618 9.81 22.548 9.588 15.167-.378 27.798-12.504 28.749-27.646 1.079-17.192-12.545-31.471-29.504-31.471z" fill="#fff"/><path d="m446.482 334.937c-17.154 17.641-42.11 28.752-69.897 28.752-10.397 0-20.397-1.558-29.741-4.428.943 15.476 13.786 27.738 29.5 27.738 8.6 0 16.339-3.675 21.739-9.538 2.015-2.188 5.428-2.252 7.438-.059 5.56 6.069 13.618 9.81 22.548 9.588 15.167-.378 27.798-12.504 28.749-27.646.612-9.775-3.532-18.604-10.336-24.407z" fill="#faf7f7"/><path d="m409.317 342.303 11.226-13.97c3.082-3.835.352-9.532-4.569-9.532h-28.291c-4.92 0-7.651 5.697-4.569 9.532l11.226 13.97c3.845 4.786 11.131 4.786 14.977 0z" fill="#f6a96c"/><path d="m415.974 318.802h-7.741l-16.39 20.396 2.496 3.106c3.846 4.786 11.132 4.786 14.977 0l11.226-13.97c3.082-3.836.352-9.532-4.568-9.532z" fill="#ea9b58"/></g></g><g><path d="m117.845 212.251c4.142 0 7.5-3.357 7.5-7.5v-8.264c0-4.143-3.358-7.5-7.5-7.5s-7.5 3.357-7.5 7.5v8.264c0 4.143 3.358 7.5 7.5 7.5z"/><path d="m172.382 212.251c4.142 0 7.5-3.357 7.5-7.5v-8.264c0-4.143-3.358-7.5-7.5-7.5s-7.5 3.357-7.5 7.5v8.264c0 4.143 3.358 7.5 7.5 7.5z"/><path d="m375.103 78.238c4.142 0 7.5-3.357 7.5-7.5v-6.628c0-4.143-3.358-7.5-7.5-7.5s-7.5 3.357-7.5 7.5v6.628c0 4.143 3.357 7.5 7.5 7.5z"/><path d="m322.082 78.238c4.142 0 7.5-3.357 7.5-7.5v-6.628c0-4.143-3.358-7.5-7.5-7.5s-7.5 3.357-7.5 7.5v6.628c0 4.143 3.358 7.5 7.5 7.5z"/><path d="m348.592 134.192c18.943 0 34.354-15.411 34.354-34.354 0-4.143-3.358-7.5-7.5-7.5s-7.5 3.357-7.5 7.5c0 10.672-8.683 19.354-19.354 19.354s-19.354-8.683-19.354-19.354c0-4.143-3.358-7.5-7.5-7.5s-7.5 3.357-7.5 7.5c0 18.943 15.411 34.354 34.354 34.354z"/><path d="m348.592 176.271c48.598 0 88.136-39.537 88.136-88.136s-39.538-88.135-88.136-88.135c-19.985 0-38.842 6.543-54.533 18.922-3.252 2.566-3.808 7.282-1.243 10.534 2.566 3.253 7.283 3.81 10.534 1.242 13.018-10.269 28.662-15.698 45.242-15.698 40.327 0 73.136 32.809 73.136 73.136s-32.809 73.136-73.136 73.136-73.136-32.809-73.136-73.136c0-11.473 2.598-22.475 7.722-32.701 1.855-3.703.357-8.209-3.346-10.064-3.704-1.857-8.209-.357-10.065 3.346-6.178 12.33-9.311 25.594-9.311 39.42.001 48.597 39.538 88.134 88.136 88.134z"/><path d="m500.328 309.325c0-14.24-3.673-27.634-10.109-39.3v-53.407c0-8.275-4.75-15.385-12.396-18.552-7.646-3.166-16.031-1.499-21.882 4.353l-26.059 26.06c-3.659-.504-7.389-.785-11.184-.785h-33.737c-4.067 0-8.062.309-11.972.886l-26.16-26.16c-5.852-5.852-14.237-7.521-21.883-4.352-7.646 3.167-12.396 10.275-12.396 18.551v55.087c-5.878 11.267-9.222 24.057-9.222 37.62 0 14.319 3.838 28.12 10.706 40.184-13.563 13.553-24.509 29.342-32.451 46.506-.278-32.191-8.785-63.047-24.808-90.417 1.278.098 2.565.164 3.868.164 9.877 0 17.914-8.036 17.914-17.913v-103.875c0-20.681-16.825-37.506-37.506-37.506-4.227 0-8.256.862-11.921 2.419-3.574-4.854-8.075-8.935-13.331-11.969l-10.862-6.271c-36.899-21.303-82.744-21.303-119.645 0l-10.861 6.271c-5.256 3.035-9.757 7.115-13.331 11.969-3.665-1.557-7.694-2.42-11.921-2.42-20.681 0-37.506 16.825-37.506 37.506v103.873c0 9.877 8.036 17.913 17.913 17.913 14.862 0 28.229-6.5 37.425-16.8l6.874 3.969v201.571c0 9.649 7.851 17.5 17.5 17.5h342c9.649 0 17.5-7.851 17.5-17.5v-108.566c1.211-1.004 2.36-2.08 3.436-3.226 27.995-13.683 46.007-42.309 46.007-73.383zm-33.782-96.299c2.167-2.165 4.594-1.49 5.536-1.102.943.391 3.136 1.63 3.136 4.693v33.893c-8.054-7.743-17.675-13.866-28.352-17.804zm-135.86-1.101c.942-.391 3.369-1.066 5.536 1.102l19.931 19.932c-10.811 4.092-20.535 10.408-28.604 18.4v-34.74c0-3.064 2.193-4.304 3.137-4.694zm-67.13-27.95v103.873c0 1.606-1.307 2.913-2.914 2.913-19.398 0-35.179-15.781-35.179-35.18v-78.525c0-8.595 6.992-15.587 15.587-15.587 12.409 0 22.506 10.095 22.506 22.506zm-233.971 106.786c-1.606 0-2.913-1.307-2.913-2.913v-103.873c0-12.41 10.096-22.506 22.506-22.506 8.595 0 15.587 6.992 15.587 15.587v78.525c0 19.398-15.782 35.18-35.18 35.18zm43.456-132.807c2.374-3.273 5.378-6.017 8.889-8.044l10.861-6.271c32.273-18.633 72.372-18.633 104.644 0l10.862 6.271c3.511 2.027 6.515 4.771 8.889 8.044-4.202 5.239-6.724 11.88-6.724 19.102v78.525c0 7.42 1.632 14.462 4.535 20.805l-20.181 11.651c.34-2.354.524-4.758.524-7.205v-11.75c0-22.061-14.697-41.723-35.827-48.088-2.763-1.356-5.856-2.139-9.136-2.139h-10.527c-3.28 0-6.374.783-9.137 2.139-21.129 6.365-35.825 26.027-35.825 48.087v11.75c0 2.447.185 4.851.524 7.205l-20.181-11.652c2.903-6.343 4.535-13.385 4.535-20.805v-78.525c-.001-7.221-2.523-13.862-6.725-19.1zm36.846 122.879v-11.75c0-9.23 3.674-17.863 9.788-24.276 2.289 9.02 10.453 15.721 20.175 15.721h10.528c9.722 0 17.886-6.702 20.175-15.722 6.114 6.413 9.788 15.046 9.788 24.277v11.75c0 19.424-15.803 35.227-35.227 35.227s-35.227-15.803-35.227-35.227zm46.327-41.141c0 3.218-2.618 5.836-5.836 5.836h-10.528c-3.218 0-5.836-2.618-5.836-5.836s2.618-5.836 5.836-5.836h10.528c3.218 0 5.836 2.619 5.836 5.836zm-67.33 254.808v-75c0-27.019 21.981-49 49-49s49 21.981 49 49v11.5c0 4.143 3.358 7.5 7.5 7.5s7.5-3.357 7.5-7.5v-11.5c0-35.29-28.71-64-64-64-19.649 0-37.25 8.908-49 22.889v-76.8l15.944 9.205c9.164 12.29 23.811 20.265 40.285 20.265 16.475 0 31.122-7.975 40.286-20.265l37.817-21.833c3.076 3.445 6.621 6.458 10.53 8.951 21.491 29.034 32.851 63.487 32.851 99.733v99.355h-64.714v-31c0-4.143-3.358-7.5-7.5-7.5s-7.5 3.357-7.5 7.5v31h-95.5c-1.377 0-2.499-1.121-2.499-2.5zm347.001-74.69c-10.036-10.645-24.25-17.31-40-17.31-16.994 0-32.79 7.742-43.337 21.242-2.55 3.264-1.971 7.977 1.292 10.527 3.264 2.55 7.978 1.972 10.528-1.293 7.685-9.835 19.172-15.477 31.517-15.477 22.056 0 40 17.944 40 40v37c0 1.379-1.122 2.5-2.5 2.5h-77.5v-34.949c0-4.143-3.358-7.5-7.5-7.5s-7.5 3.357-7.5 7.5v34.95h-59.287v-33.195c0-37.938 14.914-74.582 41.167-101.792 7.179 8.48 16.115 15.555 26.404 20.612.203.218.398.441.607.655 7.039 7.235 16.474 11.22 26.567 11.22 9.479 0 18.631-3.676 25.484-10.161 7.093 6.722 16.571 10.37 26.427 10.149 2.615-.065 5.166-.418 7.63-1.013v26.335zm-58.927-84.436h2.192l9.344 11.628c3.264 4.062 8.125 6.391 13.335 6.391s10.07-2.329 13.334-6.391l9.344-11.628h2.807c6.156 0 11.869 2.473 16.086 6.963 4.213 4.485 6.319 10.359 5.932 16.538-.708 11.279-10.13 20.336-21.451 20.617-6.385.19-12.519-2.449-16.831-7.155-2.352-2.567-5.696-4.043-9.173-4.048h-.016c-3.513 0-6.9 1.491-9.295 4.092-4.229 4.591-9.99 7.119-16.223 7.119-6.008 0-11.625-2.372-15.815-6.68-4.188-4.305-6.404-9.99-6.239-16.009.323-11.82 10.493-21.437 22.669-21.437zm26.512 2.231c-.55.685-1.265.787-1.642.787s-1.092-.103-1.643-.787l-9.083-11.304h21.452zm60.902 20.098c.076-9.578-3.444-18.613-10.039-25.636-6.678-7.109-15.981-11.308-25.699-11.659-.174-.513-.374-1.022-.613-1.521-2.243-4.68-6.859-7.586-12.048-7.586h-28.292c-5.189 0-9.805 2.906-12.048 7.586-.242.504-.444 1.019-.619 1.538-19.351.995-35.194 16.75-35.721 35.975-.012.438-.007.872-.004 1.307-13.126-12.427-20.963-29.883-20.963-48.382 0-35.487 27.887-64.576 62.896-66.521v11.416c0 4.143 3.358 7.5 7.5 7.5s7.5-3.357 7.5-7.5v-11.526h11.208v11.526c0 4.143 3.358 7.5 7.5 7.5s7.5-3.357 7.5-7.5v-11.416c35.009 1.945 62.896 31.034 62.896 66.521.002 18.504-7.832 35.953-20.954 48.378z"/><path d="m429.963 275.905c-4.142 0-7.5 3.357-7.5 7.5v7.685c0 4.143 3.358 7.5 7.5 7.5s7.5-3.357 7.5-7.5v-7.685c0-4.142-3.358-7.5-7.5-7.5z"/><path d="m373.693 275.905c-4.142 0-7.5 3.357-7.5 7.5v7.685c0 4.143 3.358 7.5 7.5 7.5s7.5-3.357 7.5-7.5v-7.685c0-4.142-3.358-7.5-7.5-7.5z"/></g></g><g/><g/><g/><g/><g/><g/><g/><g/><g/><g/><g/><g/><g/><g/><g/></svg>