<svg clip-rule="evenodd" fill-rule="evenodd" height="512" image-rendering="optimizeQuality" shape-rendering="geometricPrecision" text-rendering="geometricPrecision" viewBox="0 0 4335 4335" width="512" xmlns="http://www.w3.org/2000/svg"><g id="Layer_x0020_1"><path d="m2910 2732c-31 0-58-27-58-59v-416c0-31 26-57 58-57 67 0 512-8 539 5 21 10 33 32 33 54v415c0 32-26 58-58 58zm-36 990h-2774c-32 0-57-26-57-58v-3204c0-32 25-58 57-58h475v-344c0-32 26-58 58-58h369c32 0 58 26 58 58v344h601v-344c0-32 26-58 58-58h369c32 0 58 26 58 58v344h602v-344c0-32 25-58 57-58h370c31 0 57 26 57 58v344h475c32 0 58 26 58 58v2474c303 81 527 359 527 688 0 393-319 713-712 713-360 0-657-267-706-613zm-1930-2918v-689h-254v689zm1087 0v-689h-254v689zm1086 0v-689h-254v689zm-134 2848c20 315 273 567 597 567 329 0 597-268 597-597 0-372-331-636-673-593-300 39-540 308-521 623zm-2825-45h2709c13-359 281-660 643-694h139v-1588h-3491zm3491-2398v-691h-417v344c0 32-26 58-57 58-52 0-374 8-397-7-18-12-31-27-31-51v-344h-601v344c0 33-27 58-58 58h-369c-32 0-58-26-58-58v-344h-601c0 78 6 306-3 363-8 20-25 34-46 38-44 6-312 1-378 1-32 0-58-26-58-58v-344h-417v691zm-2752 813c-77 0-481 6-522 0-28-4-50-28-50-57v-417c0-32 26-58 58-58 68 0 501-6 531 3 24 7 41 30 41 56v416c0 31-26 57-58 57zm-351-115h293v-238zm188-301h-294v238zm1006 416h-515c-32 0-57-26-57-57v-417c0-32 25-58 57-58h515c31 0 57 26 57 58v417c0 31-26 57-57 57zm-457-115h399v-301h-399zm1299 115h-514c-32 0-58-26-58-57v-417c0-32 26-58 58-58h514c32 0 58 26 58 58v417c0 31-26 57-58 57zm-457-115h399v-301h-399zm1299 115h-514c-32 0-58-26-58-57v-417c0-32 26-58 58-58h514c32 0 58 26 58 58v417c0 31-26 57-58 57zm-456-115h399v-301h-399zm-2071 825h-514c-32 0-58-26-58-58v-417c0-31 26-57 58-57h514c32 0 58 26 58 57v417c0 32-26 58-58 58zm-457-116h399v-301h-399zm1300 116h-515c-32 0-57-26-57-58v-417c0-31 25-57 57-57h515c31 0 57 26 57 57v417c0 32-26 58-57 58zm-457-116h399v-301h-399zm1299 116h-514c-32 0-58-26-58-58v-417c0-31 26-57 58-57h514c32 0 58 26 58 57v417c0 32-26 58-58 58zm-457-116h399v-301h-399zm843-63 294-238h-294zm399-175-294 238h294zm-2470 1063h-514c-32 0-58-25-58-57v-417c0-32 26-58 58-58h514c32 0 58 26 58 58v417c0 32-26 57-58 57zm-457-115h399v-301h-399zm1300 115h-515c-32 0-57-25-57-57v-417c0-32 25-58 57-58h515c31 0 57 26 57 58v417c0 32-26 57-57 57zm-457-115h399v-301h-399zm1299 115c-66 0-502 7-531-2-24-7-41-29-41-55v-417c0-32 26-58 58-58 67 0 507-7 535 4 23 9 37 31 37 55v416c0 32-26 57-58 57zm-351-115h293v-238zm188-301h-294v238zm1093 833c-15 0-30-5-41-16l-222-222c-52-52 29-134 82-81l181 180 316-316c53-53 134 29 82 81l-358 358c-11 11-26 16-40 16z" fill="#000002"/><path d="m2524 3326v-238l-293 238z" fill="#ff3131"/><path d="m2125 3263 294-238h-294z" fill="#ff3131"/><path d="m2051 3439c-24-7-41-29-41-55v-417c0-32 26-58 58-58 67 0 507-7 535 4 23 9 37 31 37 55v416c0 32-26 57-58 57-66 0-502 7-531-2zm859-707c-31 0-58-27-58-59v-416c0-31 26-57 58-57 67 0 512-8 539 5 21 10 33 32 33 54v415c0 32-26 58-58 58zm-2752 875h2709c13-359 281-660 643-694h139v-1588h-3491zm1639-640v417c0 32-26 57-57 57h-515c-32 0-57-25-57-57v-417c0-32 25-58 57-58h515c31 0 57 26 57 58zm-57-235h-515c-32 0-57-26-57-58v-417c0-31 25-57 57-57h515c31 0 57 26 57 57v417c0 32-26 58-57 58zm-785-475v417c0 32-26 58-58 58h-514c-32 0-58-26-58-58v-417c0-31 26-57 58-57h514c32 0 58 26 58 57zm-58-235c-77 0-481 6-522 0-28-4-50-28-50-57v-417c0-32 26-58 58-58 68 0 501-6 531 3 24 7 41 30 41 56v416c0 31-26 57-58 57zm843 0h-515c-32 0-57-26-57-57v-417c0-32 25-58 57-58h515c31 0 57 26 57 58v417c0 31-26 57-57 57zm842 710h-514c-32 0-58-26-58-58v-417c0-31 26-57 58-57h514c32 0 58 26 58 57v417c0 32-26 58-58 58zm0-710h-514c-32 0-58-26-58-57v-417c0-32 26-58 58-58h514c32 0 58 26 58 58v417c0 31-26 57-58 57zm842 0h-514c-32 0-58-26-58-57v-417c0-32 26-58 58-58h514c32 0 58 26 58 58v417c0 31-26 57-58 57zm-2527 1419h-514c-32 0-58-25-58-57v-417c0-32 26-58 58-58h514c32 0 58 26 58 58v417c0 32-26 57-58 57z" fill="#ffe4af"/><path d="m1682 3326v-301h-399v301z" fill="#7dd63e"/><path d="m839 3326v-301h-399v301z" fill="#7dd63e"/><path d="m3504 3029c-300 39-540 308-521 623 20 315 273 567 597 567 329 0 597-268 597-597 0-372-331-636-673-593zm-173 510 181 180 316-316c53-53 134 29 82 81l-358 358c-11 11-26 16-40 16-15 0-30-5-41-16l-222-222c-52-52 29-134 82-81z" fill="#1aa1ff"/><path d="m2125 2616h399v-301h-399z" fill="#7dd63e"/><path d="m2968 2315v238l294-238z" fill="#ff3131"/><path d="m3367 2378-294 238h294z" fill="#ff3131"/><path d="m1682 2616v-301h-399v301z" fill="#7dd63e"/><path d="m839 2616v-301h-399v301z" fill="#7dd63e"/><path d="m440 1844 294-238h-294z" fill="#ff3131"/><path d="m839 1669-293 238h293z" fill="#ff3131"/><path d="m1283 1606v301h399v-301z" fill="#7dd63e"/><path d="m2125 1606v301h399v-301z" fill="#7dd63e"/><path d="m2968 1606v301h399v-301z" fill="#7dd63e"/><path d="m158 1209h3491v-691h-417v344c0 32-26 58-57 58-52 0-374 8-397-7-18-12-31-27-31-51v-344h-601v344c0 33-27 58-58 58h-369c-32 0-58-26-58-58v-344h-601c0 78 6 306-3 363-8 20-25 34-46 38-44 6-312 1-378 1-32 0-58-26-58-58v-344h-417z" fill="#1aa1ff"/><g fill="#ff3131"><path d="m1777 115v689h254v-689z"/><path d="m944 804v-689h-254v689z"/><path d="m2863 115v689h254v-689z"/></g></g></svg>