<svg id="Layer_1" viewBox="0 0 36 36" xmlns="http://www.w3.org/2000/svg" data-name="Layer 1"><path d="m31.68 4.31a4.24 4.24 0 0 0 -3-1.24h-21.35a4.23 4.23 0 0 0 -4.26 4.26v4.27h29.86v-4.27a4.28 4.28 0 0 0 -1.25-3.02zm-19 4.09h-4.28a1.07 1.07 0 1 1 0-2.13h4.27a1.07 1.07 0 0 1 0 2.13zm10.66 0a1.07 1.07 0 1 1 1.06-1.07 1.07 1.07 0 0 1 -1.07 1.07zm4.27 0a1.07 1.07 0 1 1 1.07-1.07 1.07 1.07 0 0 1 -1.08 1.07z" fill="#43d685" fill-rule="evenodd"/><path d="m28.67 34h-21.34a5.33 5.33 0 0 1 -5.33-5.33v-21.34a5.33 5.33 0 0 1 5.33-5.33h21.34a5.33 5.33 0 0 1 5.33 5.33v21.34a5.33 5.33 0 0 1 -5.33 5.33zm-24.54-21.33v16a3.21 3.21 0 0 0 3.2 3.2h21.34a3.21 3.21 0 0 0 3.2-3.2v-16zm0-2.14h27.74v-3.2a3.21 3.21 0 0 0 -3.2-3.2h-21.34a3.21 3.21 0 0 0 -3.2 3.2z"/><path d="m12.67 16.93a3.2 3.2 0 1 1 -3.2 3.2 3.21 3.21 0 0 1 3.2-3.2z" fill="#43d685" fill-rule="evenodd"/><path d="m15.65 23.18a4.27 4.27 0 1 0 -6 0 5.33 5.33 0 0 0 -2.32 4.42 1.07 1.07 0 0 0 2.14 0 3.2 3.2 0 1 1 6.4 0 1.07 1.07 0 1 0 2.13 0 5.32 5.32 0 0 0 -2.35-4.42zm-5.12-3.05a2.14 2.14 0 1 1 2.14 2.14 2.14 2.14 0 0 1 -2.14-2.14z"/><path d="m24.4 19.07h-3.2a1.07 1.07 0 0 1 0-2.14h3.2a1.07 1.07 0 0 1 0 2.14z"/><path d="m27.6 23.33h-6.4a1.07 1.07 0 1 1 0-2.13h6.4a1.07 1.07 0 1 1 0 2.13z"/><path d="m27.6 27.6h-6.4a1.07 1.07 0 1 1 0-2.13h6.4a1.07 1.07 0 1 1 0 2.13z"/></svg>