<svg width="346" height="54" viewBox="0 0 346 54" fill="none" xmlns="http://www.w3.org/2000/svg">
<rect x="0.5" width="345" height="54" rx="4" fill="#1877F2"/>
<rect width="24" height="24" transform="translate(15.5 15)" fill="#1877F2"/>
<path d="M39 27.0699C39 20.7186 33.8513 15.5699 27.5 15.5699C21.1487 15.5699 16 20.7186 16 27.0699C16 32.8099 20.2054 37.5674 25.7031 38.4302V30.3941H22.7832V27.0699H25.7031V24.5363C25.7031 21.6541 27.42 20.0621 30.0468 20.0621C31.305 20.0621 32.6211 20.2867 32.6211 20.2867V23.1168H31.171C29.7424 23.1168 29.2969 24.0032 29.2969 24.9127V27.0699H32.4863L31.9765 30.3941H29.2969V38.4302C34.7946 37.5674 39 32.8099 39 27.0699Z" fill="white"/>
<path d="M58.2012 28.5566C58.2923 29.2142 58.4714 29.7057 58.7383 30.0312C59.2266 30.6237 60.0632 30.9199 61.248 30.9199C61.9577 30.9199 62.5339 30.8418 62.9766 30.6855C63.8164 30.3861 64.2363 29.8294 64.2363 29.0156C64.2363 28.5404 64.028 28.1725 63.6113 27.9121C63.1947 27.6582 62.5404 27.4336 61.6484 27.2383L60.125 26.8965C58.6276 26.5579 57.5924 26.1901 57.0195 25.793C56.0495 25.1289 55.5645 24.0905 55.5645 22.6777C55.5645 21.3887 56.0332 20.3177 56.9707 19.4648C57.9082 18.612 59.2852 18.1855 61.1016 18.1855C62.6185 18.1855 63.9108 18.5892 64.9785 19.3965C66.0527 20.1973 66.6159 21.3626 66.668 22.8926H63.7773C63.7253 22.0267 63.3477 21.4115 62.6445 21.0469C62.1758 20.806 61.5931 20.6855 60.8965 20.6855C60.1217 20.6855 59.5033 20.8418 59.041 21.1543C58.5788 21.4668 58.3477 21.903 58.3477 22.4629C58.3477 22.9772 58.5755 23.3613 59.0312 23.6152C59.3242 23.7845 59.9492 23.9831 60.9062 24.2109L63.3867 24.8066C64.474 25.0671 65.2943 25.4154 65.8477 25.8516C66.707 26.5286 67.1367 27.5085 67.1367 28.791C67.1367 30.1061 66.6322 31.1999 65.623 32.0723C64.6204 32.9382 63.2012 33.3711 61.3652 33.3711C59.4902 33.3711 58.0156 32.9447 56.9414 32.0918C55.8672 31.2324 55.3301 30.054 55.3301 28.5566H58.2012ZM72 21.0859H69.1777V18.5176H72V21.0859ZM69.1777 22.3555H72V33H69.1777V22.3555ZM79.2754 30.7148C79.9264 30.7148 80.4766 30.4707 80.9258 29.9824C81.375 29.4876 81.5996 28.7031 81.5996 27.6289C81.5996 26.6198 81.3848 25.8516 80.9551 25.3242C80.5319 24.7969 79.9622 24.5332 79.2461 24.5332C78.2695 24.5332 77.5957 24.9922 77.2246 25.9102C77.0293 26.3984 76.9316 27.0007 76.9316 27.7168C76.9316 28.3353 77.0358 28.8854 77.2441 29.3672C77.6217 30.2656 78.2988 30.7148 79.2754 30.7148ZM78.582 22.1016C79.1159 22.1016 79.5814 22.1829 79.9785 22.3457C80.6556 22.6257 81.2025 23.14 81.6191 23.8887V22.3555H84.3242V32.4531C84.3242 33.8268 84.0931 34.862 83.6309 35.5586C82.8366 36.7565 81.3132 37.3555 79.0605 37.3555C77.6999 37.3555 76.5898 37.0885 75.7305 36.5547C74.8711 36.0208 74.3958 35.2233 74.3047 34.1621H77.332C77.4102 34.4876 77.5371 34.722 77.7129 34.8652C78.0124 35.1191 78.5169 35.2461 79.2266 35.2461C80.2292 35.2461 80.8997 34.9108 81.2383 34.2402C81.4596 33.8105 81.5703 33.0879 81.5703 32.0723V31.3887C81.3034 31.8444 81.0169 32.1862 80.7109 32.4141C80.1576 32.8372 79.4382 33.0488 78.5527 33.0488C77.1855 33.0488 76.0918 32.5703 75.2715 31.6133C74.4577 30.6497 74.0508 29.3477 74.0508 27.707C74.0508 26.125 74.4447 24.7969 75.2324 23.7227C76.0202 22.6419 77.1367 22.1016 78.582 22.1016ZM92.8301 22.1016C93.9303 22.1016 94.8288 22.3913 95.5254 22.9707C96.2285 23.5436 96.5801 24.4974 96.5801 25.832V33H93.7285V26.5254C93.7285 25.9655 93.6536 25.5358 93.5039 25.2363C93.2305 24.6895 92.7096 24.416 91.9414 24.416C90.9974 24.416 90.3496 24.8164 89.998 25.6172C89.8158 26.0404 89.7246 26.5807 89.7246 27.2383V33H86.9512V22.375H89.6367V23.9277C89.9948 23.3809 90.3333 22.987 90.6523 22.7461C91.2253 22.3164 91.9512 22.1016 92.8301 22.1016ZM107.703 33H104.715V18.6055H107.703V33ZM116.189 22.1016C117.29 22.1016 118.188 22.3913 118.885 22.9707C119.588 23.5436 119.939 24.4974 119.939 25.832V33H117.088V26.5254C117.088 25.9655 117.013 25.5358 116.863 25.2363C116.59 24.6895 116.069 24.416 115.301 24.416C114.357 24.416 113.709 24.8164 113.357 25.6172C113.175 26.0404 113.084 26.5807 113.084 27.2383V33H110.311V22.375H112.996V23.9277C113.354 23.3809 113.693 22.987 114.012 22.7461C114.585 22.3164 115.311 22.1016 116.189 22.1016ZM133.104 22.3555H135.926L137.547 30.0215L139.207 22.3555H142.107L139.021 33H136.16L134.49 25.2461L132.801 33H129.91L126.922 22.3555H129.91L131.57 29.9922L133.104 22.3555ZM146.512 21.0859H143.689V18.5176H146.512V21.0859ZM143.689 22.3555H146.512V33H143.689V22.3555ZM148.123 24.4355V22.4531H149.607V19.4844H152.361V22.4531H154.09V24.4355H152.361V30.0605C152.361 30.4967 152.417 30.7702 152.527 30.8809C152.638 30.985 152.977 31.0371 153.543 31.0371C153.628 31.0371 153.715 31.0371 153.807 31.0371C153.904 31.0306 153.999 31.0241 154.09 31.0176V33.0977L152.771 33.1465C151.456 33.1921 150.558 32.9642 150.076 32.4629C149.764 32.1439 149.607 31.6523 149.607 30.9883V24.4355H148.123ZM161.746 22.082C162.404 22.082 162.999 22.196 163.533 22.4238C164.074 22.6517 164.516 23 164.861 23.4688C165.154 23.8659 165.333 24.276 165.398 24.6992C165.464 25.1159 165.496 25.7995 165.496 26.75V33H162.654V26.5254C162.654 25.9525 162.557 25.4902 162.361 25.1387C162.107 24.6439 161.626 24.3965 160.916 24.3965C160.18 24.3965 159.62 24.6439 159.236 25.1387C158.859 25.627 158.67 26.3268 158.67 27.2383V33H155.896V18.6543H158.67V23.7422C159.074 23.1237 159.539 22.694 160.066 22.4531C160.6 22.2057 161.16 22.082 161.746 22.082ZM173.895 18.625H184.1V21.1543H176.883V24.4648H183.201V26.9648H176.883V33H173.895V18.625ZM191.766 27.8242C191.59 27.9349 191.411 28.026 191.229 28.0977C191.053 28.1628 190.809 28.2246 190.496 28.2832L189.871 28.4004C189.285 28.5046 188.865 28.6315 188.611 28.7812C188.182 29.0352 187.967 29.429 187.967 29.9629C187.967 30.4382 188.097 30.7832 188.357 30.998C188.624 31.2064 188.947 31.3105 189.324 31.3105C189.923 31.3105 190.473 31.1348 190.975 30.7832C191.482 30.4316 191.746 29.7904 191.766 28.8594V27.8242ZM190.076 26.5254C190.59 26.4603 190.958 26.3789 191.18 26.2812C191.577 26.112 191.775 25.8483 191.775 25.4902C191.775 25.054 191.622 24.7546 191.316 24.5918C191.017 24.4225 190.574 24.3379 189.988 24.3379C189.331 24.3379 188.865 24.5007 188.592 24.8262C188.396 25.0671 188.266 25.3926 188.201 25.8027H185.516C185.574 24.8717 185.835 24.1068 186.297 23.5078C187.033 22.5703 188.296 22.1016 190.086 22.1016C191.251 22.1016 192.286 22.3327 193.191 22.7949C194.096 23.2572 194.549 24.1296 194.549 25.4121V30.2949C194.549 30.6335 194.555 31.0436 194.568 31.5254C194.588 31.89 194.643 32.1374 194.734 32.2676C194.826 32.3978 194.962 32.5052 195.145 32.5898V33H192.117C192.033 32.7852 191.974 32.5833 191.941 32.3945C191.909 32.2057 191.883 31.9909 191.863 31.75C191.479 32.1667 191.036 32.5215 190.535 32.8145C189.936 33.1595 189.259 33.332 188.504 33.332C187.54 33.332 186.743 33.0586 186.111 32.5117C185.486 31.9583 185.174 31.1771 185.174 30.168C185.174 28.8594 185.678 27.9121 186.688 27.3262C187.241 27.0072 188.055 26.7793 189.129 26.6426L190.076 26.5254ZM203.387 26.1738C203.335 25.7767 203.201 25.4186 202.986 25.0996C202.674 24.6699 202.189 24.4551 201.531 24.4551C200.594 24.4551 199.952 24.9206 199.607 25.8516C199.425 26.3464 199.334 27.0039 199.334 27.8242C199.334 28.6055 199.425 29.2337 199.607 29.709C199.939 30.5944 200.564 31.0371 201.482 31.0371C202.133 31.0371 202.596 30.8613 202.869 30.5098C203.143 30.1582 203.309 29.7025 203.367 29.1426H206.209C206.144 29.9889 205.838 30.7897 205.291 31.5449C204.419 32.7624 203.126 33.3711 201.414 33.3711C199.702 33.3711 198.442 32.8633 197.635 31.8477C196.827 30.832 196.424 29.5137 196.424 27.8926C196.424 26.0632 196.87 24.6406 197.762 23.625C198.654 22.6094 199.884 22.1016 201.453 22.1016C202.788 22.1016 203.878 22.401 204.725 23C205.577 23.599 206.082 24.6569 206.238 26.1738H203.387ZM212.361 24.3672C211.717 24.3672 211.215 24.569 210.857 24.9727C210.506 25.3763 210.285 25.9232 210.193 26.6133H214.52C214.474 25.8776 214.249 25.321 213.846 24.9434C213.449 24.5592 212.954 24.3672 212.361 24.3672ZM212.361 22.0723C213.247 22.0723 214.044 22.2383 214.754 22.5703C215.464 22.9023 216.049 23.4264 216.512 24.1426C216.928 24.7741 217.199 25.5065 217.322 26.3398C217.394 26.8281 217.423 27.5312 217.41 28.4492H210.125C210.164 29.5169 210.499 30.2656 211.131 30.6953C211.515 30.9622 211.977 31.0957 212.518 31.0957C213.09 31.0957 213.556 30.9329 213.914 30.6074C214.109 30.4316 214.282 30.1875 214.432 29.875H217.273C217.202 30.5065 216.873 31.1478 216.287 31.7988C215.376 32.834 214.1 33.3516 212.459 33.3516C211.105 33.3516 209.91 32.9154 208.875 32.043C207.84 31.1706 207.322 29.7513 207.322 27.7852C207.322 25.9427 207.788 24.5299 208.719 23.5469C209.656 22.5638 210.87 22.0723 212.361 22.0723ZM225.047 22.1211C226.447 22.1211 227.54 22.6257 228.328 23.6348C229.122 24.6439 229.52 25.946 229.52 27.541C229.52 29.1947 229.129 30.5651 228.348 31.6523C227.566 32.7396 226.476 33.2832 225.076 33.2832C224.197 33.2832 223.491 33.1074 222.957 32.7559C222.638 32.5475 222.293 32.1829 221.922 31.6621V33H219.197V18.625H221.971V23.7422C222.322 23.2474 222.71 22.8698 223.133 22.6094C223.634 22.2839 224.272 22.1211 225.047 22.1211ZM224.334 30.9883C225.05 30.9883 225.607 30.6986 226.004 30.1191C226.401 29.5397 226.6 28.778 226.6 27.834C226.6 27.0788 226.502 26.4538 226.307 25.959C225.936 25.0215 225.252 24.5527 224.256 24.5527C223.247 24.5527 222.553 25.0117 222.176 25.9297C221.98 26.418 221.883 27.0495 221.883 27.8242C221.883 28.7357 222.085 29.4909 222.488 30.0898C222.892 30.6888 223.507 30.9883 224.334 30.9883ZM236.297 31.0371C237.111 31.0371 237.736 30.7474 238.172 30.168C238.608 29.5885 238.826 28.765 238.826 27.6973C238.826 26.6296 238.608 25.8092 238.172 25.2363C237.736 24.6569 237.111 24.3672 236.297 24.3672C235.483 24.3672 234.855 24.6569 234.412 25.2363C233.976 25.8092 233.758 26.6296 233.758 27.6973C233.758 28.765 233.976 29.5885 234.412 30.168C234.855 30.7474 235.483 31.0371 236.297 31.0371ZM241.746 27.6973C241.746 29.2598 241.297 30.5977 240.398 31.7109C239.5 32.8177 238.136 33.3711 236.307 33.3711C234.477 33.3711 233.113 32.8177 232.215 31.7109C231.316 30.5977 230.867 29.2598 230.867 27.6973C230.867 26.1608 231.316 24.8294 232.215 23.7031C233.113 22.5768 234.477 22.0137 236.307 22.0137C238.136 22.0137 239.5 22.5768 240.398 23.7031C241.297 24.8294 241.746 26.1608 241.746 27.6973ZM248.523 31.0371C249.337 31.0371 249.962 30.7474 250.398 30.168C250.835 29.5885 251.053 28.765 251.053 27.6973C251.053 26.6296 250.835 25.8092 250.398 25.2363C249.962 24.6569 249.337 24.3672 248.523 24.3672C247.71 24.3672 247.081 24.6569 246.639 25.2363C246.202 25.8092 245.984 26.6296 245.984 27.6973C245.984 28.765 246.202 29.5885 246.639 30.168C247.081 30.7474 247.71 31.0371 248.523 31.0371ZM253.973 27.6973C253.973 29.2598 253.523 30.5977 252.625 31.7109C251.727 32.8177 250.363 33.3711 248.533 33.3711C246.704 33.3711 245.34 32.8177 244.441 31.7109C243.543 30.5977 243.094 29.2598 243.094 27.6973C243.094 26.1608 243.543 24.8294 244.441 23.7031C245.34 22.5768 246.704 22.0137 248.533 22.0137C250.363 22.0137 251.727 22.5768 252.625 23.7031C253.523 24.8294 253.973 26.1608 253.973 27.6973ZM255.945 18.6543H258.68V26.4082L262.146 22.4043H265.594L261.873 26.4766L265.74 33H262.381L259.832 28.4492L258.68 29.6504V33H255.945V18.6543Z" fill="white"/>
</svg>
