<svg width="346" height="54" viewBox="0 0 346 54" fill="none" xmlns="http://www.w3.org/2000/svg">
<rect x="1" y="0.5" width="344" height="53" rx="3.5" fill="white"/>
<rect x="1" y="0.5" width="344" height="53" rx="3.5" stroke="#D9D9D9"/>
<rect width="24" height="24" transform="translate(15.5 15)" fill="white"/>
<path fill-rule="evenodd" clip-rule="evenodd" d="M38.54 27.2615C38.54 26.446 38.4668 25.6619 38.3309 24.9092H27.5V29.3576H33.6891C33.4225 30.7951 32.6123 32.013 31.3943 32.8285V35.714H35.1109C37.2855 33.7119 38.54 30.7637 38.54 27.2615Z" fill="#4285F4"/>
<path fill-rule="evenodd" clip-rule="evenodd" d="M27.4999 38.4998C30.6049 38.4998 33.2081 37.47 35.1108 35.7137L31.3942 32.8282C30.3644 33.5182 29.0472 33.9259 27.4999 33.9259C24.5047 33.9259 21.9694 31.903 21.0651 29.1848H17.2231V32.1644C19.1154 35.9228 23.0044 38.4998 27.4999 38.4998Z" fill="#34A853"/>
<path fill-rule="evenodd" clip-rule="evenodd" d="M21.0652 29.185C20.8352 28.495 20.7045 27.7579 20.7045 27C20.7045 26.242 20.8352 25.505 21.0652 24.815V21.8354H17.2232C16.4443 23.3879 16 25.1443 16 27C16 28.8557 16.4443 30.612 17.2232 32.1645L21.0652 29.185Z" fill="#FBBC05"/>
<path fill-rule="evenodd" clip-rule="evenodd" d="M27.4999 20.0739C29.1883 20.0739 30.7042 20.6541 31.896 21.7936L35.1944 18.4952C33.2029 16.6395 30.5997 15.5 27.4999 15.5C23.0044 15.5 19.1154 18.077 17.2231 21.8355L21.0651 24.815C21.9694 22.0968 24.5047 20.0739 27.4999 20.0739Z" fill="#EA4335"/>
<path d="M63.4258 29.3379C63.4258 29.0449 63.3802 28.7845 63.2891 28.5566C63.2044 28.3288 63.0514 28.1204 62.8301 27.9316C62.6087 27.7428 62.2962 27.5605 61.8926 27.3848C61.4954 27.2025 60.9876 27.0169 60.3691 26.8281C59.6921 26.6198 59.0671 26.3887 58.4941 26.1348C57.9277 25.8743 57.4329 25.5749 57.0098 25.2363C56.5866 24.8913 56.2578 24.4974 56.0234 24.0547C55.7891 23.6055 55.6719 23.0879 55.6719 22.502C55.6719 21.9225 55.7923 21.3952 56.0332 20.9199C56.2806 20.4447 56.6289 20.0345 57.0781 19.6895C57.5339 19.3379 58.071 19.0677 58.6895 18.8789C59.3079 18.6836 59.9915 18.5859 60.7402 18.5859C61.7949 18.5859 62.7031 18.7812 63.4648 19.1719C64.2331 19.5625 64.8223 20.0866 65.2324 20.7441C65.6491 21.4017 65.8574 22.1276 65.8574 22.9219H63.4258C63.4258 22.4531 63.3249 22.0397 63.123 21.6816C62.9277 21.3171 62.6283 21.0306 62.2246 20.8223C61.8275 20.6139 61.3229 20.5098 60.7109 20.5098C60.1315 20.5098 59.6497 20.5977 59.2656 20.7734C58.8815 20.9492 58.5951 21.1868 58.4062 21.4863C58.2174 21.7858 58.123 22.1243 58.123 22.502C58.123 22.7689 58.1849 23.013 58.3086 23.2344C58.4323 23.4492 58.6211 23.651 58.875 23.8398C59.1289 24.0221 59.4479 24.1947 59.832 24.3574C60.2161 24.5202 60.6686 24.6764 61.1895 24.8262C61.9772 25.0605 62.6641 25.321 63.25 25.6074C63.8359 25.8874 64.3242 26.2064 64.7148 26.5645C65.1055 26.9225 65.3984 27.3294 65.5938 27.7852C65.7891 28.2344 65.8867 28.7454 65.8867 29.3184C65.8867 29.9173 65.7663 30.4577 65.5254 30.9395C65.2845 31.4147 64.9395 31.8216 64.4902 32.1602C64.0475 32.4922 63.5137 32.7493 62.8887 32.9316C62.2702 33.1074 61.5801 33.1953 60.8184 33.1953C60.1348 33.1953 59.4609 33.1042 58.7969 32.9219C58.1393 32.7396 57.5404 32.4629 57 32.0918C56.4596 31.7142 56.0299 31.2454 55.7109 30.6855C55.3919 30.1191 55.2324 29.4583 55.2324 28.7031H57.6836C57.6836 29.1654 57.7617 29.5592 57.918 29.8848C58.0807 30.2103 58.3053 30.4772 58.5918 30.6855C58.8783 30.8874 59.2103 31.0371 59.5879 31.1348C59.972 31.2324 60.3822 31.2812 60.8184 31.2812C61.3913 31.2812 61.8698 31.1999 62.2539 31.0371C62.6445 30.8743 62.9375 30.6465 63.1328 30.3535C63.3281 30.0605 63.4258 29.722 63.4258 29.3379ZM70.3398 22.4336V33H67.9766V22.4336H70.3398ZM67.8203 19.6602C67.8203 19.3021 67.9375 19.0059 68.1719 18.7715C68.4128 18.5306 68.7448 18.4102 69.168 18.4102C69.5846 18.4102 69.9134 18.5306 70.1543 18.7715C70.3952 19.0059 70.5156 19.3021 70.5156 19.6602C70.5156 20.0117 70.3952 20.3047 70.1543 20.5391C69.9134 20.7734 69.5846 20.8906 69.168 20.8906C68.7448 20.8906 68.4128 20.7734 68.1719 20.5391C67.9375 20.3047 67.8203 20.0117 67.8203 19.6602ZM79.6855 22.4336H81.8242V32.707C81.8242 33.6576 81.6224 34.4648 81.2188 35.1289C80.8151 35.793 80.252 36.2975 79.5293 36.6426C78.8066 36.9941 77.9701 37.1699 77.0195 37.1699C76.6159 37.1699 76.1667 37.1113 75.6719 36.9941C75.1836 36.877 74.7083 36.6882 74.2461 36.4277C73.7904 36.1738 73.4095 35.8385 73.1035 35.4219L74.207 34.0352C74.5846 34.4844 75.0013 34.8132 75.457 35.0215C75.9128 35.2298 76.3913 35.334 76.8926 35.334C77.4329 35.334 77.8919 35.2331 78.2695 35.0312C78.6536 34.8359 78.9499 34.5462 79.1582 34.1621C79.3665 33.778 79.4707 33.3092 79.4707 32.7559V24.8262L79.6855 22.4336ZM72.5078 27.834V27.6289C72.5078 26.8281 72.6055 26.099 72.8008 25.4414C72.9961 24.7773 73.276 24.2077 73.6406 23.7324C74.0052 23.2507 74.4479 22.8828 74.9688 22.6289C75.4896 22.3685 76.0788 22.2383 76.7363 22.2383C77.4199 22.2383 78.0026 22.362 78.4844 22.6094C78.9727 22.8568 79.3796 23.2116 79.7051 23.6738C80.0306 24.1296 80.2845 24.6764 80.4668 25.3145C80.6556 25.946 80.7956 26.6491 80.8867 27.4238V28.0781C80.8021 28.8333 80.6589 29.5234 80.457 30.1484C80.2552 30.7734 79.9883 31.3138 79.6562 31.7695C79.3242 32.2253 78.9141 32.5768 78.4258 32.8242C77.944 33.0716 77.3743 33.1953 76.7168 33.1953C76.0723 33.1953 75.4896 33.0618 74.9688 32.7949C74.4544 32.528 74.0117 32.1536 73.6406 31.6719C73.276 31.1901 72.9961 30.6237 72.8008 29.9727C72.6055 29.3151 72.5078 28.6022 72.5078 27.834ZM74.8613 27.6289V27.834C74.8613 28.3158 74.9069 28.765 74.998 29.1816C75.0957 29.5983 75.2422 29.9661 75.4375 30.2852C75.6393 30.5977 75.8932 30.8451 76.1992 31.0273C76.5117 31.2031 76.8796 31.291 77.3027 31.291C77.8561 31.291 78.3086 31.1738 78.6602 30.9395C79.0182 30.7051 79.2917 30.3893 79.4805 29.9922C79.6758 29.5885 79.8125 29.1393 79.8906 28.6445V26.877C79.8516 26.4928 79.7702 26.1348 79.6465 25.8027C79.5293 25.4707 79.3698 25.181 79.168 24.9336C78.9661 24.6797 78.7122 24.4844 78.4062 24.3477C78.1003 24.2044 77.7389 24.1328 77.3223 24.1328C76.8991 24.1328 76.5312 24.224 76.2188 24.4062C75.9062 24.5885 75.6491 24.8392 75.4473 25.1582C75.252 25.4772 75.1055 25.8483 75.0078 26.2715C74.9102 26.6947 74.8613 27.1471 74.8613 27.6289ZM86.5996 24.6895V33H84.2461V22.4336H86.4629L86.5996 24.6895ZM86.1797 27.3262L85.418 27.3164C85.4245 26.5677 85.5286 25.8809 85.7305 25.2559C85.9388 24.6309 86.2253 24.0938 86.5898 23.6445C86.9609 23.1953 87.4036 22.8503 87.918 22.6094C88.4323 22.362 89.0052 22.2383 89.6367 22.2383C90.1445 22.2383 90.6035 22.3099 91.0137 22.4531C91.4303 22.5898 91.7852 22.8145 92.0781 23.127C92.3776 23.4395 92.6055 23.8464 92.7617 24.3477C92.918 24.8424 92.9961 25.4512 92.9961 26.1738V33H90.6328V26.1641C90.6328 25.6562 90.5579 25.2559 90.4082 24.9629C90.265 24.6634 90.0534 24.4518 89.7734 24.3281C89.5 24.1979 89.1582 24.1328 88.748 24.1328C88.3444 24.1328 87.9831 24.2174 87.6641 24.3867C87.3451 24.556 87.0749 24.7871 86.8535 25.0801C86.6387 25.373 86.4727 25.7116 86.3555 26.0957C86.2383 26.4798 86.1797 26.89 86.1797 27.3262ZM103.23 18.7812V33H100.779V18.7812H103.23ZM108.377 24.6895V33H106.023V22.4336H108.24L108.377 24.6895ZM107.957 27.3262L107.195 27.3164C107.202 26.5677 107.306 25.8809 107.508 25.2559C107.716 24.6309 108.003 24.0938 108.367 23.6445C108.738 23.1953 109.181 22.8503 109.695 22.6094C110.21 22.362 110.783 22.2383 111.414 22.2383C111.922 22.2383 112.381 22.3099 112.791 22.4531C113.208 22.5898 113.562 22.8145 113.855 23.127C114.155 23.4395 114.383 23.8464 114.539 24.3477C114.695 24.8424 114.773 25.4512 114.773 26.1738V33H112.41V26.1641C112.41 25.6562 112.335 25.2559 112.186 24.9629C112.042 24.6634 111.831 24.4518 111.551 24.3281C111.277 24.1979 110.936 24.1328 110.525 24.1328C110.122 24.1328 109.76 24.2174 109.441 24.3867C109.122 24.556 108.852 24.7871 108.631 25.0801C108.416 25.373 108.25 25.7116 108.133 26.0957C108.016 26.4798 107.957 26.89 107.957 27.3262ZM125.027 30.6562L127.469 22.4336H128.973L128.562 24.8945L126.102 33H124.754L125.027 30.6562ZM123.592 22.4336L125.496 30.6953L125.652 33H124.148L121.287 22.4336H123.592ZM131.258 30.5977L133.104 22.4336H135.398L132.547 33H131.043L131.258 30.5977ZM129.227 22.4336L131.639 30.5586L131.941 33H130.594L128.104 24.8848L127.693 22.4336H129.227ZM139.52 22.4336V33H137.156V22.4336H139.52ZM137 19.6602C137 19.3021 137.117 19.0059 137.352 18.7715C137.592 18.5306 137.924 18.4102 138.348 18.4102C138.764 18.4102 139.093 18.5306 139.334 18.7715C139.575 19.0059 139.695 19.3021 139.695 19.6602C139.695 20.0117 139.575 20.3047 139.334 20.5391C139.093 20.7734 138.764 20.8906 138.348 20.8906C137.924 20.8906 137.592 20.7734 137.352 20.5391C137.117 20.3047 137 20.0117 137 19.6602ZM146.941 22.4336V24.1523H140.984V22.4336H146.941ZM142.703 19.8457H145.057V30.0801C145.057 30.4056 145.102 30.6562 145.193 30.832C145.291 31.0013 145.424 31.1152 145.594 31.1738C145.763 31.2324 145.962 31.2617 146.189 31.2617C146.352 31.2617 146.508 31.252 146.658 31.2324C146.808 31.2129 146.928 31.1934 147.02 31.1738L147.029 32.9707C146.834 33.0293 146.606 33.0814 146.346 33.127C146.092 33.1725 145.799 33.1953 145.467 33.1953C144.926 33.1953 144.448 33.1009 144.031 32.9121C143.615 32.7168 143.289 32.401 143.055 31.9648C142.82 31.5286 142.703 30.9492 142.703 30.2266V19.8457ZM151.082 18V33H148.738V18H151.082ZM150.672 27.3262L149.91 27.3164C149.917 26.5872 150.018 25.9134 150.213 25.2949C150.415 24.6764 150.695 24.1393 151.053 23.6836C151.417 23.2214 151.854 22.8665 152.361 22.6191C152.869 22.3652 153.432 22.2383 154.051 22.2383C154.572 22.2383 155.04 22.3099 155.457 22.4531C155.88 22.5964 156.245 22.8275 156.551 23.1465C156.857 23.459 157.088 23.8691 157.244 24.377C157.407 24.8783 157.488 25.4902 157.488 26.2129V33H155.125V26.1934C155.125 25.6855 155.05 25.2819 154.9 24.9824C154.757 24.6829 154.546 24.4681 154.266 24.3379C153.986 24.2012 153.644 24.1328 153.24 24.1328C152.817 24.1328 152.443 24.2174 152.117 24.3867C151.798 24.556 151.531 24.7871 151.316 25.0801C151.102 25.373 150.939 25.7116 150.828 26.0957C150.724 26.4798 150.672 26.89 150.672 27.3262ZM176.004 25.7344V31.1641C175.802 31.431 175.486 31.724 175.057 32.043C174.633 32.3555 174.07 32.6257 173.367 32.8535C172.664 33.0814 171.788 33.1953 170.74 33.1953C169.848 33.1953 169.031 33.0456 168.289 32.7461C167.547 32.4401 166.906 31.9941 166.365 31.4082C165.831 30.8223 165.418 30.1094 165.125 29.2695C164.832 28.4232 164.686 27.4596 164.686 26.3789V25.3926C164.686 24.3184 164.819 23.3613 165.086 22.5215C165.359 21.6751 165.75 20.959 166.258 20.373C166.766 19.7871 167.378 19.3444 168.094 19.0449C168.816 18.7389 169.633 18.5859 170.545 18.5859C171.71 18.5859 172.674 18.7812 173.436 19.1719C174.204 19.556 174.796 20.0898 175.213 20.7734C175.63 21.457 175.893 22.2383 176.004 23.1172H173.602C173.523 22.6224 173.37 22.1797 173.143 21.7891C172.921 21.3984 172.602 21.0924 172.186 20.8711C171.775 20.6432 171.242 20.5293 170.584 20.5293C170.018 20.5293 169.52 20.6367 169.09 20.8516C168.66 21.0664 168.302 21.3822 168.016 21.7988C167.736 22.2155 167.524 22.7233 167.381 23.3223C167.238 23.9212 167.166 24.6048 167.166 25.373V26.3789C167.166 27.1602 167.247 27.8535 167.41 28.459C167.579 29.0645 167.82 29.5755 168.133 29.9922C168.452 30.4089 168.839 30.7246 169.295 30.9395C169.751 31.1478 170.265 31.252 170.838 31.252C171.398 31.252 171.857 31.2064 172.215 31.1152C172.573 31.0176 172.856 30.9036 173.064 30.7734C173.279 30.6367 173.445 30.5065 173.562 30.3828V27.5605H170.604V25.7344H176.004ZM178.035 27.834V27.6094C178.035 26.8477 178.146 26.1413 178.367 25.4902C178.589 24.8327 178.908 24.263 179.324 23.7812C179.747 23.293 180.262 22.9154 180.867 22.6484C181.479 22.375 182.169 22.2383 182.938 22.2383C183.712 22.2383 184.402 22.375 185.008 22.6484C185.62 22.9154 186.137 23.293 186.561 23.7812C186.984 24.263 187.306 24.8327 187.527 25.4902C187.749 26.1413 187.859 26.8477 187.859 27.6094V27.834C187.859 28.5957 187.749 29.3021 187.527 29.9531C187.306 30.6042 186.984 31.1738 186.561 31.6621C186.137 32.1439 185.623 32.5215 185.018 32.7949C184.412 33.0618 183.725 33.1953 182.957 33.1953C182.182 33.1953 181.489 33.0618 180.877 32.7949C180.271 32.5215 179.757 32.1439 179.334 31.6621C178.911 31.1738 178.589 30.6042 178.367 29.9531C178.146 29.3021 178.035 28.5957 178.035 27.834ZM180.389 27.6094V27.834C180.389 28.3092 180.438 28.7585 180.535 29.1816C180.633 29.6048 180.786 29.9759 180.994 30.2949C181.202 30.6139 181.469 30.8646 181.795 31.0469C182.12 31.2292 182.508 31.3203 182.957 31.3203C183.393 31.3203 183.771 31.2292 184.09 31.0469C184.415 30.8646 184.682 30.6139 184.891 30.2949C185.099 29.9759 185.252 29.6048 185.35 29.1816C185.454 28.7585 185.506 28.3092 185.506 27.834V27.6094C185.506 27.1406 185.454 26.6979 185.35 26.2812C185.252 25.8581 185.096 25.4837 184.881 25.1582C184.673 24.8327 184.406 24.5788 184.08 24.3965C183.761 24.2077 183.38 24.1133 182.938 24.1133C182.495 24.1133 182.111 24.2077 181.785 24.3965C181.466 24.5788 181.202 24.8327 180.994 25.1582C180.786 25.4837 180.633 25.8581 180.535 26.2812C180.438 26.6979 180.389 27.1406 180.389 27.6094ZM189.383 27.834V27.6094C189.383 26.8477 189.493 26.1413 189.715 25.4902C189.936 24.8327 190.255 24.263 190.672 23.7812C191.095 23.293 191.609 22.9154 192.215 22.6484C192.827 22.375 193.517 22.2383 194.285 22.2383C195.06 22.2383 195.75 22.375 196.355 22.6484C196.967 22.9154 197.485 23.293 197.908 23.7812C198.331 24.263 198.654 24.8327 198.875 25.4902C199.096 26.1413 199.207 26.8477 199.207 27.6094V27.834C199.207 28.5957 199.096 29.3021 198.875 29.9531C198.654 30.6042 198.331 31.1738 197.908 31.6621C197.485 32.1439 196.971 32.5215 196.365 32.7949C195.76 33.0618 195.073 33.1953 194.305 33.1953C193.53 33.1953 192.837 33.0618 192.225 32.7949C191.619 32.5215 191.105 32.1439 190.682 31.6621C190.258 31.1738 189.936 30.6042 189.715 29.9531C189.493 29.3021 189.383 28.5957 189.383 27.834ZM191.736 27.6094V27.834C191.736 28.3092 191.785 28.7585 191.883 29.1816C191.98 29.6048 192.133 29.9759 192.342 30.2949C192.55 30.6139 192.817 30.8646 193.143 31.0469C193.468 31.2292 193.855 31.3203 194.305 31.3203C194.741 31.3203 195.118 31.2292 195.438 31.0469C195.763 30.8646 196.03 30.6139 196.238 30.2949C196.447 29.9759 196.6 29.6048 196.697 29.1816C196.801 28.7585 196.854 28.3092 196.854 27.834V27.6094C196.854 27.1406 196.801 26.6979 196.697 26.2812C196.6 25.8581 196.443 25.4837 196.229 25.1582C196.02 24.8327 195.753 24.5788 195.428 24.3965C195.109 24.2077 194.728 24.1133 194.285 24.1133C193.842 24.1133 193.458 24.2077 193.133 24.3965C192.814 24.5788 192.55 24.8327 192.342 25.1582C192.133 25.4837 191.98 25.8581 191.883 26.2812C191.785 26.6979 191.736 27.1406 191.736 27.6094ZM207.947 22.4336H210.086V32.707C210.086 33.6576 209.884 34.4648 209.48 35.1289C209.077 35.793 208.514 36.2975 207.791 36.6426C207.068 36.9941 206.232 37.1699 205.281 37.1699C204.878 37.1699 204.428 37.1113 203.934 36.9941C203.445 36.877 202.97 36.6882 202.508 36.4277C202.052 36.1738 201.671 35.8385 201.365 35.4219L202.469 34.0352C202.846 34.4844 203.263 34.8132 203.719 35.0215C204.174 35.2298 204.653 35.334 205.154 35.334C205.695 35.334 206.154 35.2331 206.531 35.0312C206.915 34.8359 207.212 34.5462 207.42 34.1621C207.628 33.778 207.732 33.3092 207.732 32.7559V24.8262L207.947 22.4336ZM200.77 27.834V27.6289C200.77 26.8281 200.867 26.099 201.062 25.4414C201.258 24.7773 201.538 24.2077 201.902 23.7324C202.267 23.2507 202.71 22.8828 203.23 22.6289C203.751 22.3685 204.34 22.2383 204.998 22.2383C205.682 22.2383 206.264 22.362 206.746 22.6094C207.234 22.8568 207.641 23.2116 207.967 23.6738C208.292 24.1296 208.546 24.6764 208.729 25.3145C208.917 25.946 209.057 26.6491 209.148 27.4238V28.0781C209.064 28.8333 208.921 29.5234 208.719 30.1484C208.517 30.7734 208.25 31.3138 207.918 31.7695C207.586 32.2253 207.176 32.5768 206.688 32.8242C206.206 33.0716 205.636 33.1953 204.979 33.1953C204.334 33.1953 203.751 33.0618 203.23 32.7949C202.716 32.528 202.273 32.1536 201.902 31.6719C201.538 31.1901 201.258 30.6237 201.062 29.9727C200.867 29.3151 200.77 28.6022 200.77 27.834ZM203.123 27.6289V27.834C203.123 28.3158 203.169 28.765 203.26 29.1816C203.357 29.5983 203.504 29.9661 203.699 30.2852C203.901 30.5977 204.155 30.8451 204.461 31.0273C204.773 31.2031 205.141 31.291 205.564 31.291C206.118 31.291 206.57 31.1738 206.922 30.9395C207.28 30.7051 207.553 30.3893 207.742 29.9922C207.938 29.5885 208.074 29.1393 208.152 28.6445V26.877C208.113 26.4928 208.032 26.1348 207.908 25.8027C207.791 25.4707 207.632 25.181 207.43 24.9336C207.228 24.6797 206.974 24.4844 206.668 24.3477C206.362 24.2044 206.001 24.1328 205.584 24.1328C205.161 24.1328 204.793 24.224 204.48 24.4062C204.168 24.5885 203.911 24.8392 203.709 25.1582C203.514 25.4772 203.367 25.8483 203.27 26.2715C203.172 26.6947 203.123 27.1471 203.123 27.6289ZM215.047 18V33H212.684V18H215.047ZM222.283 33.1953C221.502 33.1953 220.796 33.0684 220.164 32.8145C219.539 32.554 219.005 32.1927 218.562 31.7305C218.126 31.2682 217.791 30.7246 217.557 30.0996C217.322 29.4746 217.205 28.8008 217.205 28.0781V27.6875C217.205 26.8607 217.326 26.112 217.566 25.4414C217.807 24.7708 218.143 24.1979 218.572 23.7227C219.002 23.2409 219.51 22.873 220.096 22.6191C220.682 22.3652 221.316 22.2383 222 22.2383C222.755 22.2383 223.416 22.3652 223.982 22.6191C224.549 22.873 225.018 23.2311 225.389 23.6934C225.766 24.1491 226.046 24.6927 226.229 25.3242C226.417 25.9557 226.512 26.6523 226.512 27.4141V28.4199H218.348V26.7305H224.188V26.5449C224.174 26.1217 224.09 25.7246 223.934 25.3535C223.784 24.9824 223.553 24.6829 223.24 24.4551C222.928 24.2272 222.511 24.1133 221.99 24.1133C221.6 24.1133 221.251 24.1979 220.945 24.3672C220.646 24.5299 220.395 24.7676 220.193 25.0801C219.992 25.3926 219.835 25.7702 219.725 26.2129C219.62 26.6491 219.568 27.1406 219.568 27.6875V28.0781C219.568 28.5404 219.63 28.9701 219.754 29.3672C219.884 29.7578 220.073 30.0996 220.32 30.3926C220.568 30.6855 220.867 30.9167 221.219 31.0859C221.57 31.2487 221.971 31.3301 222.42 31.3301C222.986 31.3301 223.491 31.2161 223.934 30.9883C224.376 30.7604 224.76 30.4382 225.086 30.0215L226.326 31.2227C226.098 31.5547 225.802 31.8737 225.438 32.1797C225.073 32.4792 224.627 32.7233 224.1 32.9121C223.579 33.1009 222.973 33.1953 222.283 33.1953Z" fill="black" fill-opacity="0.54"/>
</svg>
